<svg xmlns="http://www.w3.org/2000/svg" xmlns:xlink="http://www.w3.org/1999/xlink" width="320" height="1606" viewBox="0 0 320 1606"><svg width="54" height="47" viewBox="0 0 54 47" id="arrow-filter" y="0"><g fill="#E57777"><path d="M53.11 1.2L54 .07v2.01c-1.35 4.89-3.11 9.74-5.84 14.08C38.98 31.03 21.77 39 5 41.02v-1c9.36-1.2 18.69-4.13 26.78-9.19 10.7-6.5 18.6-17.39 21.33-29.63z"/><path d="M8.32 32.09l1-.33C7.79 35.78 3.72 38.17 1.95 42c3.66 1.32 7.5 2.51 11.37 3.16l-.43.95C8.52 45.55 4.4 43.41 0 42.87v-.38c2.59-3.62 5.66-6.84 8.32-10.4z"/></g></svg>
<svg width="32" height="43" viewBox="0 0 32 43" id="arrow-lang" y="47"><g fill="#E57777"><path d="M31.25 0H32v8.75l-.77.73C29.16 24.31 16.85 35.91 3.45 41.26l.24-.93c9.54-4.76 18.82-11.31 23.54-21.2C30.37 13.24 31.1 6.56 31.25 0z"/><path d="M4.18 33.07l.98-.25c-.42 3.24-2.95 5.89-3.17 9.13 3.15.64 7.24-1.29 9.74 1.05H0v.2c1.41-3.37 2.88-6.71 4.18-10.13z"/></g></svg>
<svg width="109" height="47" viewBox="0 0 109 47" id="arrow-product" y="90"><g fill="#E57777"><path d="M53.87 1h.98c2.19 12.02 9.47 22.8 19.46 29.73 6.97 4.88 15.04 7.96 23.31 9.8 2.05.49 4.32.29 6.09 1.63-6.91-.06-13.58-2.47-19.94-5-15-6.31-27.09-19.92-29.9-36.16z"/><path d="M106.31 42.99c-1.93-3.25-5.47-5.52-6.41-9.3 3.03 3.18 5.84 6.56 8.45 10.09-3.65.77-7.2 1.91-10.82 2.78l.98.44h-3.29c3.39-2.11 7.39-2.67 11.09-4.01z"/></g></svg>
<svg width="15" height="15" viewBox="0 0 451.846 451.847" id="arrow-right" y="137"><path d="M345.44 248.292l-194.286 194.28c-12.36 12.366-32.397 12.366-44.75 0-12.354-12.353-12.354-32.39 0-44.743l171.914-171.91-171.91-171.903c-12.353-12.36-12.353-32.394 0-44.748 12.355-12.36 32.392-12.36 44.75 0l194.288 194.283c6.177 6.18 9.262 14.27 9.262 22.366 0 8.098-3.09 16.195-9.267 22.372z"/></svg>
<svg width="54" height="47" viewBox="0 0 54 47" id="arrow-slider" y="152"><g fill="#E57777"><path d="M53.11 1.2L54 .07v2.01c-1.35 4.89-3.11 9.74-5.84 14.08C38.98 31.03 21.77 39 5 41.02v-1c9.36-1.2 18.69-4.13 26.78-9.19 10.7-6.5 18.6-17.39 21.33-29.63z"/><path d="M8.32 32.09l1-.33C7.79 35.78 3.72 38.17 1.95 42c3.66 1.32 7.5 2.51 11.37 3.16l-.43.95C8.52 45.55 4.4 43.41 0 42.87v-.38c2.59-3.62 5.66-6.84 8.32-10.4z"/></g></svg>
<svg width="109" height="47" viewBox="0 0 109 47" id="arrow1" y="199"><g fill="#E57777"><path d="M53.87 1h.98c2.19 12.02 9.47 22.8 19.46 29.73 6.97 4.88 15.04 7.96 23.31 9.8 2.05.49 4.32.29 6.09 1.63-6.91-.06-13.58-2.47-19.94-5-15-6.31-27.09-19.92-29.9-36.16z"/><path d="M106.31 42.99c-1.93-3.25-5.47-5.52-6.41-9.3 3.03 3.18 5.84 6.56 8.45 10.09-3.65.77-7.2 1.91-10.82 2.78l.98.44h-3.29c3.39-2.11 7.39-2.67 11.09-4.01z"/></g></svg>
<svg width="17" height="17" viewBox="0 0 470.513 470.513" id="icon-fb" y="246"><path d="M271.52 154.17v-40.54c0-6.087.28-10.8.85-14.13.567-3.336 1.857-6.616 3.86-9.854 1.998-3.236 5.235-5.47 9.705-6.708 4.476-1.24 10.424-1.858 17.85-1.858h40.54V0h-64.81c-37.5 0-64.433 8.897-80.803 26.69-16.368 17.8-24.55 44.015-24.55 78.66v48.82h-48.543v81.085h48.538V470.51h97.362V235.257h64.805l8.566-81.086h-73.37z"/></svg>
<svg width="25" height="25" viewBox="0 0 390.717 390.717" id="icon-price" y="263"><path d="M148.732 189.01c.445 2.383 1.444 4.596 2.983 6.47 1.544 1.88 3.54 3.688 5.8 4.647 2.153.915 4.583.753 6.832.326 2.522-.48 4.97-1.334 7.328-2.34 1.978-.843 4.11-1.886 6.344-3.07l-24.325-24.325c-3.4 5.244-6.152 11.933-4.963 18.293zM238.334 193.454c-1.824-1.202-3.858-1.948-6.05-2.048-2.354-.108-4.692.394-6.925 1.095-4.862 1.528-9.366 4.014-13.748 6.57l26.88 26.88c4.996-6.267 9.416-14.774 7.115-22.988-1.098-3.92-3.902-7.288-7.273-9.508z"/><path d="M384.858 234.605L167.433 17.18c-3.336-3.337-7.746-5.386-12.45-5.786L21.694.072C15.82-.428 10.024 1.69 5.856 5.858S-.427 15.82.072 21.692l11.322 133.292c.4 4.703 2.45 9.113 5.786 12.45l217.426 217.424c7.81 7.81 20.473 7.81 28.283 0l121.97-121.97c7.81-7.81 7.81-20.472-.002-28.283zM82.285 82.285c-5.697 5.7-14.937 5.698-20.635 0L46.223 66.858c-5.698-5.698-5.698-14.937 0-20.635 5.698-5.698 14.937-5.698 20.635 0L82.285 61.65c5.698 5.7 5.7 14.937 0 20.636zm184.53 130.264c-1.343 10.576-6.67 20.2-13.493 28.228l7.872 7.872c2.106 2.105 3.224 5.062 3.04 8.035-.25 4.086-2.96 7.742-6.803 9.16-3.792 1.4-8.16.445-11.02-2.412l-8.604-8.604c-1.516 1.03-3.066 2.008-4.66 2.914-8.85 5.034-19.004 7.755-29.207 6.958-5.085-.397-10.106-1.6-14.786-3.638-1.223-.533-2.423-1.118-3.597-1.753-1.062-.573-2.145-1.153-3.085-1.92-1.577-1.283-2.753-3.026-3.36-4.968-1.25-3.99.055-8.462 3.266-11.148 3.16-2.644 7.717-3.173 11.396-1.32 1.133.57 2.198 1.253 3.357 1.78 1.15.52 2.344.96 3.564 1.288 2.404.647 4.91.955 7.398.91 5.128-.1 10.092-1.79 14.532-4.283l-29.248-29.25c-8.538 5.025-17.807 9.76-27.76 11.006-4.838.604-9.778.284-14.404-1.317-4.883-1.69-9.204-4.69-12.867-8.3-3.72-3.663-6.677-8.023-8.5-12.927-1.707-4.593-2.46-9.498-2.256-14.388.433-10.456 4.87-20.483 11.097-28.764l-.643-.643-7.53-7.53c-2.104-2.104-3.223-5.062-3.04-8.034.25-4.086 2.96-7.743 6.804-9.162 3.792-1.4 8.162-.444 11.02 2.415l7.53 7.528.598.6c1.09-.846 2.2-1.664 3.33-2.45 8.413-5.833 18.322-9.858 28.666-9.934 4.9-.036 9.818.843 14.4 2.583 1.28.485 2.53 1.04 3.748 1.66 1.14.578 2.303 1.18 3.332 1.94 1.64 1.215 2.9 2.91 3.597 4.83 1.425 3.932.32 8.447-2.764 11.276-3.03 2.778-7.556 3.518-11.31 1.842-1.117-.498-2.127-1.196-3.25-1.687-1.134-.497-2.324-.86-3.535-1.12-2.35-.504-4.774-.53-7.15-.172-5.152.776-9.884 3.23-14.112 6.183l27.988 27.988c5.29-3.246 10.676-6.402 16.375-8.88 8.62-3.743 18.21-5.86 27.475-3.342-1.44-.396-2.845-.78.05.012 2.84.78 1.486.41.062.02 7.412 2.05 13.947 6.822 18.736 12.777 6.353 7.9 9.022 18.12 7.75 28.14z"/></svg>
<svg width="20" height="20" viewBox="0 0 485.213 485.213" id="icon-search" y="288"><path d="M471.882 407.567L360.567 296.243c-16.586 25.795-38.536 47.734-64.33 64.32L407.56 471.89c17.772 17.768 46.587 17.768 64.32 0 17.774-17.74 17.774-46.554.002-64.32zM363.91 181.955C363.91 81.473 282.44 0 181.955 0 81.474 0 0 81.473 0 181.955s81.474 181.95 181.956 181.95c100.484 0 181.953-81.468 181.953-181.95zm-181.954 136.46c-75.252 0-136.465-61.207-136.465-136.46 0-75.25 61.214-136.464 136.466-136.464 75.25 0 136.468 61.214 136.468 136.466 0 75.252-61.218 136.46-136.468 136.46z"/><path d="M75.817 181.955h30.322c0-41.803 34.013-75.814 75.815-75.814V75.817c-58.517 0-106.138 47.62-106.138 106.14z"/></svg>
<svg width="17" height="17" viewBox="0 0 449.956 449.956" id="icon-twitter" y="308"><path d="M449.956 85.657c-17.702 7.614-35.408 12.37-53.102 14.28 19.985-11.992 33.503-28.932 40.546-50.82-18.28 10.847-37.787 18.268-58.532 22.267-18.274-19.414-40.73-29.125-67.383-29.125-25.502 0-47.246 8.99-65.24 26.98-17.984 17.986-26.977 39.73-26.977 65.234 0 6.85.76 13.896 2.284 21.128-37.688-1.903-73.042-11.372-106.068-28.407C82.46 110.158 54.434 87.46 31.404 59.1c-8.376 14.273-12.565 29.788-12.565 46.537 0 15.798 3.71 30.456 11.137 43.97 7.422 13.512 17.417 24.455 29.98 32.83-14.85-.57-28.743-4.474-41.684-11.707v1.142c0 22.27 6.995 41.824 20.983 58.674C53.246 247.394 70.9 258 92.216 262.38c-7.994 2.09-16.085 3.137-24.268 3.137-5.33 0-11.136-.475-17.416-1.42 5.9 18.46 16.75 33.633 32.546 45.535 15.8 11.896 33.69 18.028 53.677 18.418-33.498 26.262-71.66 39.393-114.486 39.393-8.187 0-15.608-.373-22.27-1.14C42.825 393.9 90.03 407.7 141.61 407.7c32.74 0 63.48-5.18 92.21-15.557 28.747-10.368 53.298-24.266 73.666-41.685 20.362-17.415 37.925-37.448 52.674-60.097 14.75-22.65 25.738-46.298 32.977-70.946 7.23-24.653 10.848-49.344 10.848-74.092 0-5.33-.096-9.325-.287-11.99 18.087-13.128 33.504-29.024 46.258-47.673z"/></svg>
<svg width="17" height="17" viewBox="0 0 548.358 548.358" id="icon-vk" y="325"><path d="M545.45 400.298c-.663-1.43-1.282-2.618-1.857-3.57-9.514-17.134-27.695-38.166-54.532-63.1l-.566-.572-.284-.28-.287-.287h-.288c-12.18-11.612-19.893-19.42-23.123-23.416-5.91-7.614-7.234-15.32-4.004-23.13 2.282-5.9 10.854-18.36 25.696-37.397 7.807-10.09 13.99-18.175 18.556-24.267 32.93-43.78 47.208-71.756 42.828-83.94l-1.7-2.846c-1.144-1.714-4.094-3.282-8.847-4.712-4.763-1.427-10.852-1.663-18.277-.712l-82.224.568c-1.333-.472-3.235-.428-5.713.144-2.475.572-3.713.86-3.713.86l-1.43.714-1.137.86c-.952.567-2 1.566-3.142 2.994-1.137 1.423-2.088 3.093-2.848 4.996-8.952 23.03-19.13 44.444-30.553 64.238-7.043 11.803-13.51 22.032-19.418 30.693-5.9 8.658-10.848 15.037-14.842 19.126-4 4.093-7.61 7.372-10.852 9.85-3.237 2.477-5.708 3.524-7.42 3.14-1.714-.382-3.33-.762-4.858-1.142-2.663-1.713-4.805-4.044-6.42-6.994-1.622-2.95-2.714-6.663-3.285-11.136-.57-4.476-.905-8.326-1-11.563-.09-3.233-.05-7.806.144-13.706.198-5.902.287-9.896.287-11.99 0-7.234.142-15.085.425-23.555.288-8.47.52-15.18.716-20.125.195-4.95.285-10.185.285-15.705s-.336-9.85-1-12.99c-.656-3.14-1.663-6.185-2.99-9.138-1.335-2.95-3.29-5.232-5.853-6.852-2.57-1.618-5.763-2.902-9.564-3.856-10.09-2.284-22.936-3.52-38.547-3.71-35.4-.38-58.147 1.905-68.235 6.854-3.997 2.09-7.614 4.948-10.848 8.562-3.427 4.19-3.905 6.475-1.43 6.85 11.42 1.712 19.507 5.805 24.266 12.276l1.715 3.43c1.334 2.473 2.666 6.853 4 13.133 1.33 6.28 2.19 13.227 2.567 20.837.95 13.897.95 25.793 0 35.69-.953 9.9-1.853 17.606-2.712 23.126-.86 5.52-2.143 9.993-3.855 13.418-1.715 3.426-2.856 5.52-3.428 6.28-.57.76-1.047 1.24-1.425 1.427-2.474.948-5.047 1.43-7.71 1.43-2.667 0-5.9-1.333-9.707-4-3.805-2.665-7.754-6.327-11.847-10.99-4.092-4.666-8.708-11.185-13.85-19.56-5.136-8.373-10.466-18.27-15.986-29.69l-4.567-8.282c-2.855-5.327-6.755-13.085-11.704-23.266-4.952-10.185-9.33-20.037-13.134-29.554-1.522-3.997-3.807-7.04-6.852-9.134l-1.43-.86c-.95-.76-2.474-1.566-4.566-2.426-2.095-.86-4.28-1.475-6.567-1.854l-78.23.568c-7.993 0-13.417 1.81-16.273 5.428l-1.143 1.71c-.572.954-.86 2.476-.86 4.57 0 2.095.57 4.665 1.714 7.708 11.42 26.84 23.84 52.725 37.257 77.66 13.42 24.933 25.08 45.018 34.974 60.236 9.897 15.23 19.985 29.602 30.264 43.112 10.28 13.515 17.083 22.176 20.412 25.98 3.333 3.813 5.95 6.663 7.854 8.566l7.14 6.85c4.567 4.57 11.275 10.042 20.126 16.417 8.853 6.38 18.654 12.66 29.408 18.85 10.756 6.182 23.27 11.226 37.546 15.127 14.275 3.905 28.17 5.472 41.684 4.716h32.834c6.66-.575 11.704-2.67 15.133-6.283l1.136-1.43c.765-1.137 1.48-2.902 2.14-5.277.668-2.38 1-5 1-7.85-.195-8.184.428-15.56 1.852-22.125 1.423-6.564 3.045-11.513 4.86-14.846 1.812-3.33 3.858-6.14 6.135-8.418 2.282-2.283 3.908-3.666 4.862-4.142.947-.48 1.704-.804 2.275-1 4.568-1.52 9.944-.047 16.136 4.43 6.188 4.473 11.99 9.996 17.42 16.56 5.424 6.57 11.942 13.94 19.554 22.124 7.617 8.186 14.277 14.27 19.985 18.274l5.707 3.426c3.812 2.286 8.76 4.38 14.853 6.283 6.08 1.9 11.41 2.377 15.984 1.426l73.087-1.14c7.23 0 12.855-1.197 16.845-3.572 3.998-2.38 6.373-5 7.14-7.85.763-2.855.804-6.093.144-9.713-.678-3.61-1.345-6.135-2.01-7.562z"/></svg>
<svg width="179" height="53" viewBox="0 0 179 53" id="logo" y="342"><path d="M142.99 2.27c.96-1.29 2.62-1.31 4.05-1.6.16 1.21.31 2.43.45 3.65 1.87.72 3.75 1.41 5.65 2.07.69 3.96-1.14 7.75-1.34 11.68l3.47.12c-.04.72-.13 2.17-.18 2.89-2.32-.34-5.44.91-7.07-1.28-.97-3.66 1.22-7.19 1-10.86-.82-.53-1.67-1.03-2.53-1.49-1.34 6.24-2.64 14.14-9.53 16.6l.4-2.4c4.17-2.9 5.44-8.05 6.39-12.74.4-2.25-.79-4.4-.76-6.64zM159.71 16.85c-2.61-6.4.38-15.54 7.87-16.69-2.03 4.08-5 8.08-4.62 12.88-.31 1.78.89 3.07 1.9 4.33 3.82-2.17 5.66-6.42 5.19-10.72-2.74-.54-3.12-4.34-.81-5.64 1.99-.67 3.19 1.4 3.65 3 .82 4.88-.4 10.43-4.16 13.84-2.09 1.78-4.96 1.3-7.44.93-1.74.7-3.5 1.38-5.26 2.02-.13-2.4 1.95-3.08 3.68-3.95zM86.24 5.98c.24-1.85 3.75-3.12 4.35-.99-.09 3.17-.98 6.27-1.59 9.37 1.54-.17 3.09-.33 4.63-.47-.46 2.34-2.84 2.19-4.69 2.56-.79 3.56-1.01 7.2-1.06 10.84 1.47.35 2.94.67 4.41.98-.12.68-.37 2.05-.49 2.73-2.51.1-5.01-.22-7.3-1.3-1.76 1.43-3.73 2.63-6.03 2.94-.02.32-.07.98-.1 1.31-4.78-.72-9.37 2.46-14.06.53-1.42.81-2.87 1.6-4.34 2.33.79-2.01 2.19-3.64 3.56-5.26 2.76-3.23 4.38-7.2 5.95-11.09-.33-1.57-.63-3.14-.92-4.71 1.67-1.06 3.51-1.77 5.5-1.87-.12 1.8-.41 3.59-1.02 5.29 1.47 1.79 3.34 3.44 3.91 5.77.54 2.12-.32 4.21-.91 6.21l3.3.44c1.38-1.63 3.29-2.91 4.17-4.9.8-3.12 1.04-6.34 1.43-9.52-.88.02-2.65.08-3.53.11 1.15-.96 2.37-1.83 3.64-2.63.73-2.84.77-5.78 1.19-8.67M66.98 30.41c.97.84 1.94 1.67 2.91 2.51.92-1.06 1.98-2.04 2.62-3.31.87-2.44-.41-4.91-1.08-7.22-1.5 2.66-2.88 5.4-4.45 8.02z"/><path d="M120.51 5.51c.46-1.79 2.66-1.32 3.99-1.87-.3 3.62-.83 7.2-1.47 10.77 2.15-3.16 3.3-8.56 7.98-8.59 2.83-.33 4.52 2.69 4.53 5.15.13 3.77-1.98 7-3.94 10.03 1.53-.03 3.06-.05 4.59-.08-.22.67-.65 2-.86 2.67-2.48-.06-5.08-.72-7.43.37-1.84.79-3.84.97-5.81.72-.26 1.67-.52 3.34-.78 5 19.13-2.51 38.27-5.01 57.41-7.44-2.72 3.53-5.3 7.16-7.93 10.75-30.3 1.07-60.52 3.16-90.81 4.21-6.46.16-12.93 1.36-19.39.56 18.99-3.05 38.19-4.88 57.22-7.75.21-1.55.43-3.1.67-4.65l-3.51 1.28c.96-2.14 2.89-3.6 3.99-5.63 1.89-4.96.19-10.47 1.55-15.5m2.24 15.5c2.08-.62 4.23-.97 6.4-1.07 2.27-3.2 3.61-7.34 1.6-11.03-5.72.79-6.71 7.54-8 12.1z"/><path d="M109.57 10.81c.62-2.27 2.99-1.79 4.8-2.01-.6 5.21-3.71 10.42-2.31 15.68l2.88.68c-.68 1.63-2.13 2.72-3.97 2.42-2.63.18-3.73-3.16-2.37-5.08-.7-.45-1.39-.93-2.07-1.42 1.85-2.41 2.52-5.39 3.05-8.31-6.59.03-10.11 7.89-8.68 13.61 2.41-.3 4.46-1.61 5.28-4l1.17 1.95c-1.73 2.03-3.31 5.07-6.43 4.86-2.73-.02-5.37.61-7.97 1.36.23-2.16 2.19-2.87 3.81-3.76-2.32-7.51 4.07-18.33 12.81-15.98zM6.5 20.58c2.45-4.03 6.56-7.79 11.55-7.7 3.51-.23 6.41 2.82 7.02 6.1 1.04 5.09.19 10.87-3.17 14.96-2.07 2.52-5.49 2.96-8.51 3.39-.36 4.38-.83 9.06-3.43 12.75-1.25 1.9-3.7 2.62-5.84 2C1.2 50.55.64 46.95.48 43.98c-.31-8.16 1.91-16.37 6.02-23.4m3.38 1.27C6.11 27.87 4.94 35.06 4.23 42c-.37 2.26.69 4.33 1.74 6.23.92-1.14 2.17-2.14 2.52-3.63 1.39-5.47 1-11.14.55-16.7-.14-2.16 2.39-2.98 3.72-4.22.62 3.52 1.17 7.05 1.54 10.6 5.41-1.62 7.21-8.16 6.17-13.17-.35-1.92-1.17-4.47-3.49-4.66-3.17.28-5.45 2.91-7.1 5.4zM30.99 20.27c.92-1.23 2.46-1.29 3.83-1.56.42 1.21.47 2.6 1.17 3.71 1.64.86 3.42 1.41 5.18 2 .62 3.95-1.14 7.72-1.37 11.63l3.5.16c-.06.72-.16 2.15-.22 2.87-2.3-.36-5.45.94-7.04-1.28-1.05-3.63 1.28-7.17.93-10.82-.77-.59-1.6-1.1-2.49-1.51-1.35 6.27-2.65 14.47-9.83 16.57.65-3.07 3.73-4.61 4.85-7.42 1.01-2.48 1.75-5.06 2.24-7.69.42-2.26-.78-4.41-.75-6.66zM49.78 20.76c2.29-2.37 7.4-3.25 8.85.43 1.48 4.53-2.06 8.64-4.43 12.17 1.64.27 3.28.51 4.93.74-.19 1.38-.39 2.75-.6 4.13l2.53.28c-3.02.33-6.05.25-9.07.14 2.54-.32 6.03.15 6.85-3-2.3 1.63-5.14.52-7.66.24-2.33 1.14-4.73 2.12-7.2 2.93.03-2.88 2.86-3.34 4.92-4.29-2.89-4.09-3.13-10.32.88-13.77m2.25 11.26c3.3-2.41 5.69-7.38 3.05-11.09-4.58 1.81-4.63 7.18-3.05 11.09z"/></svg>
<svg width="30" height="65" viewBox="0 0 30 65" id="logo (2)" y="395"><path fill="#E57777" d="M1.6 5.42C2.06 3.68 2.01.94 4.29.57 2.84 4.24 1.77 8.03 1.8 12l-1.04.37c.3-2.32-.16-4.76.84-6.95z"/><path fill="#E57777" d="M0 12.68l.76-.31L1.8 12c-.25 2.87.01 5.74.2 8.61l-1.14-.17C.65 20.1.22 19.42 0 19.08v-6.4zM.86 20.44l1.14.17c.64 11.82 7.13 22.82 15.27 31.19 2.83 3.25 6.56 5.62 9.12 9.1-2.9-.89-4.79-3.43-7.18-5.15C9.65 46.37 1.5 34.15.86 20.44z"/><path fill="#E57777" d="M26 52h.98c.72 4.04 1.48 8.06 2.03 12.06-3-.56-5.85-1.79-8.93-2.07-.94-.8-3.55-.29-3.13-2.08 3.66.8 7.17 2.1 10.97 2.41-.71-1.36-1.03-2.78-.95-4.28.27-2.12-1.43-3.93-.97-6.04z"/></svg>
<svg width="310" height="382" viewBox="0 0 310 382" id="sketch-front" y="460"><path fill="#fff" d="M0 0h310v382H0z"/><path d="M197.297 35.285c8.32-.13 16.64-.1 24.96-.03l.04 2.92c-8.34.08-16.67.07-25.01-.01 0-.72 0-2.16.01-2.88zM252.307 35.255c8.32-.08 16.66-.06 24.99.02-.02.72-.04 2.16-.05 2.88-8.29.1-16.59.12-24.88 0-.02-.73-.05-2.18-.06-2.9zM144.477 142.465c1.59-.5 2.28 2.16.64 2.49-1.59.5-2.28-2.16-.64-2.49zM164.467 142.465c1.59-.5 2.29 2.15.65 2.49-1.59.5-2.29-2.15-.65-2.49zM15.337 190.255c11.65-.05 23.31-.12 34.97.03-.02.72-.05 2.17-.07 2.9-11.64.05-23.29.09-34.93-.03.01-.73.02-2.17.03-2.9zM91.297 190.275c11.65-.1 23.31-.11 34.96-.01 0 .73-.01 2.18-.01 2.91-11.63.06-23.25.05-34.88.03-.02-.73-.05-2.19-.07-2.93zM166.317 190.255c11.66-.07 23.31-.05 34.96.02.01.72.01 2.18.02 2.9-11.65.07-23.3.09-34.95-.01-.01-.73-.02-2.18-.03-2.91zM242.357 190.235c11.66.01 23.33-.12 34.99.06l-.12 2.91c-11.65-.01-23.3.1-34.96-.06.03-.72.07-2.18.09-2.91zM15.277 195.255c14.68-.07 29.36-.12 44.04.05-.02.71-.05 2.15-.07 2.87-14.63.09-29.25.05-43.88.01-.02-.73-.07-2.2-.09-2.93zM91.317 195.265c14.67-.06 29.33-.12 44 .01-.01.72-.04 2.16-.06 2.87-14.64.11-29.29.1-43.93.03 0-.73-.01-2.18-.01-2.91zM166.367 195.245c14.64-.07 29.28-.04 43.93 0l-.04 2.94c-14.66.04-29.33.11-43.99-.04.03-.73.08-2.18.1-2.9zM242.307 195.255c14.67-.08 29.34-.05 44.01-.01l-.08 2.91c-14.62.12-29.24.08-43.85.02l-.08-2.92zM15.307 200.265c10.33-.09 20.66-.07 30.99.02 0 .72 0 2.17-.01 2.89-10.31.09-20.62.05-30.94-.01l-.04-2.9zM91.337 200.275c10.31-.09 20.63-.14 30.95.01v2.88c-10.32.11-20.64.04-30.96.01 0-.72.01-2.17.01-2.9zM166.347 200.235c10.31-.06 20.62-.03 30.94 0-.01.73-.02 2.19-.03 2.92-10.31.11-20.63.1-30.95.02l.04-2.94zM242.287 200.275c10.34-.13 20.67-.07 31-.02-.01.72-.04 2.16-.06 2.89-10.31.15-20.62.07-30.92.01-.01-.72-.01-2.16-.02-2.88zM15.287 205.245c7.32-.05 14.65-.07 21.97 0 .01.73.02 2.18.03 2.91-7.32.1-14.63.1-21.95.01-.01-.73-.04-2.19-.05-2.92zM91.347 205.275c7.29-.11 14.59-.09 21.89-.03.02.73.05 2.19.07 2.91-7.33.11-14.67.08-22.01.03.02-.73.04-2.18.05-2.91zM166.317 205.285c7.31-.11 14.63-.16 21.94 0l.04 2.88c-7.32.11-14.64.08-21.96 0-.01-.72-.02-2.16-.02-2.88zM242.337 205.265c7.32-.13 14.64-.07 21.96-.02l-.04 2.93c-7.33.11-14.65.07-21.97-.02.01-.72.04-2.17.05-2.89zM15.347 235.265c39.98-.09 79.95-.09 119.92.01.06 13.3.04 26.6-.01 39.9-39.97.07-79.94.07-119.92 0-.08-13.3-.08-26.61.01-39.91zM166.367 235.235c39.96-.03 79.92-.04 119.88 0 .08 13.31.1 26.62-.01 39.93-39.96.12-79.92.04-119.88.03-.09-13.32-.12-26.64.01-39.96zM166.337 290.265c29.31-.11 58.62-.05 87.93-.01l.04 2.9c-29.34.11-58.69.08-88.02.02.01-.73.03-2.18.05-2.91zM15.297 293.265c29.31-.07 58.63-.07 87.94-.04.02.74.05 2.22.06 2.96-29.31.06-58.63.05-87.94-.02-.02-.72-.05-2.18-.06-2.9zM166.307 295.235c14.67-.03 29.33-.07 44 .03-.01.72-.02 2.17-.03 2.89-14.64.11-29.28.08-43.91.02-.02-.73-.04-2.2-.06-2.94zM15.337 298.245c14.64-.05 29.29-.08 43.93.02.01.73.02 2.2.03 2.93-14.65.01-29.3.07-43.94-.03-.01-.73-.01-2.19-.02-2.92zM15.297 328.285c16.66-.11 33.32-.11 49.98-.01 0 8.31.13 16.62-.05 24.93-16.63-.02-33.27.1-49.9-.05-.07-8.29-.05-16.58-.03-24.87zM94.327 328.275c39.97-.1 79.95-.1 119.92-.01.1 8.31.08 16.61 0 24.92-39.96.06-79.93.06-119.9 0-.1-8.31-.09-16.61-.02-24.91zM242.377 328.245c16.61-.03 33.23-.06 49.85-.02.13 8.31.1 16.63.03 24.95-16.63.06-33.27.08-49.91.01-.12-8.32-.09-16.63.03-24.94zM15.317 364.255c14.65-.08 29.3-.06 43.95-.01-.01.74-.02 2.21-.03 2.94-14.63.03-29.27.08-43.9-.01 0-.73-.01-2.19-.02-2.92zM242.297 364.275c14.66-.11 29.33-.12 43.99-.01-.01.72-.01 2.16-.01 2.88-14.66.12-29.32.14-43.98.01v-2.88zM15.307 369.265c9.31-.11 18.63-.07 27.95-.02.01.73.04 2.18.05 2.91-9.33.12-18.66.1-27.99 0 0-.72-.01-2.17-.01-2.89zM94.357 369.245c23.64-.06 47.28-.05 70.91 0v2.91c-23.65.12-47.3.05-70.95.02l.04-2.93zM242.327 369.255c9.32-.1 18.64-.03 27.96-.01v2.92c-9.32.1-18.63.06-27.94.03-.01-.74-.01-2.21-.02-2.94zM94.337 374.265c14.64-.08 29.29-.12 43.93.02.01.72.03 2.15.05 2.87-14.66.11-29.32.08-43.97.02 0-.73-.01-2.18-.01-2.91z" fill="#e8e8e8"/><path d="M189.297 21.225c17.67-.01 35.33-.02 53 0v23.98c-17.66.02-35.33.01-52.99.01-.02-8-.01-16-.01-23.99m1 1c0 7.33-.01 14.66.01 21.99h50.98c.02-7.33.01-14.66.01-21.99-17-.02-34-.01-51 0z" fill="#ffb2b2"/><g transform="translate(.297 2.215)" fill="#b6b6b6"><path d="M197 26.01c13.33-.02 26.67-.01 40-.01v4h-40v-3.99zM252 26c13.33 0 26.67-.01 40 .01V30c-13.34 0-26.67 0-40-.01V26zM15 30.01c8.33-.02 16.67-.02 25 0v2.98c-8.33.01-16.67.02-25 0v-2.98zM55 30.01c8.33-.02 16.67-.02 25 0v2.98c-8.33.02-16.67.01-25 .01v-2.99zM95 30.01c8.33-.02 16.66-.02 25 0v2.98c-8.33.01-16.67.02-25 0v-2.98zM15 179.01c16.66-.02 33.33-.02 50 0v2.98c-16.66.02-33.33.02-50 0v-2.98zM91 179c16.67 0 33.33-.01 50 .01v2.98c-16.67.01-33.33.02-50 0V179zM166 179.01c16.67-.02 33.33-.01 50 0v2.98c-16.67.02-33.33.02-50 0v-2.98zM242 179.01c16.67-.02 33.34-.02 50.01 0 0 .74-.01 2.24-.01 2.98-16.67.02-33.33.01-50 0v-2.98zM15 281.01c31.33-.01 62.67-.02 94 0v2.98c-31.33.01-62.67.02-94 0v-2.98zM166 281.01c31.33-.02 62.66-.01 94 0v2.98c-31.33.02-62.67.01-94 0v-2.98zM15 286.01c11.67-.01 23.34-.02 35.01 0 0 .75-.01 2.24-.01 2.98-11.67.01-23.33.02-35 0v-2.98zM15 357.01c11.67-.02 23.33-.01 35 0v2.98c-11.67.02-23.33.01-35 0v-2.98zM94 357.01c25.33-.02 50.66-.01 76 0 0 .74 0 2.24.01 2.98-25.34.02-50.67.01-76.01 0v-2.98zM242 357.01c11.67-.02 23.33-.02 35 0v2.98c-11.67.01-23.34.02-35 0v-2.98zM94 362.01c11.67-.02 23.33-.02 35 0v2.98c-11.67.01-23.34.02-35 0v-2.98z"/></g><g transform="translate(.297 2.215)" fill="#c1c1c1"><path d="M13.3 108.98c1.9-1.61 3.91-3.1 6.05-4.39-.67 1.48-1.38 2.95-2.1 4.41.71 1.48 1.42 2.95 2.1 4.45-2.15-1.31-4.15-2.83-6.05-4.47zM289.65 104.53c2.13 1.3 4.13 2.79 6.04 4.39-1.87 1.69-3.84 3.25-5.98 4.58.65-1.51 1.32-3.01 2.01-4.5-.7-1.49-1.4-2.97-2.07-4.47z"/></g><g transform="translate(1.967 -.126)"><ellipse ry="13.141" rx="13.127" cy="31.534" cx="155.592" fill="#e8e8e8" stroke="#e8e8e8" stroke-width=".8"/><ellipse ry="16.987" rx="16.963" cy="31.684" cx="155.717" stroke="#ffc9c9" stroke-width="1.424" fill="none"/></g><path fill="#e8e8e8" d="M0 65h310v92H0z"/><circle cx="154.625" cy="144.125" r="2.237" fill="#757575" stroke="#757575" stroke-width=".976"/><ellipse cx="164.25" cy="144.125" rx="2.351" ry="2.226" stroke="#757575" stroke-width=".998" fill="none"/><circle cx="145.125" cy="144.125" r="2.237" stroke="#757575" stroke-width=".976" fill="none"/><path d="M20.406 105.606l-3.93 3.81 3.93 3.81-3.93-3.81z" fill="#fff" fill-rule="evenodd" stroke="#c4c4c4" stroke-width="1.2"/><path d="M288.368 105.372l4.285 3.878-4.285 3.878" fill="none" stroke="#c4c4c4" stroke-width="1.168"/><circle cx="154.625" cy="308.75" r="2.237" fill="#757575" stroke="#757575" stroke-width=".976"/><ellipse cx="164.25" cy="308.75" rx="2.351" ry="2.226" stroke="#757575" stroke-width=".998" fill="none"/><circle cx="145.125" cy="308.75" r="2.237" stroke="#757575" stroke-width=".976" fill="none"/></svg>
<svg width="310" height="382" viewBox="0 0 310 382" id="sketch-left" y="842"><path fill="#fff" d="M0 .207h310v382H0z"/><path d="M159.683 15.824c6.772-1.89 14.435 2.86 15.85 9.99 1.752 6.97-2.8 14.73-9.65 16.22-6.713 1.85-14.29-2.82-15.77-9.86-1.803-6.97 2.72-14.81 9.57-16.35zM202.996 30.484c8.08-.14 16.16-.09 24.248.01-.03.72-.068 2.17-.097 2.9-8.03.05-16.062.11-24.093-.01-.01-.73-.04-2.18-.058-2.9zM256.355 30.464c8.06-.05 16.12-.11 24.18.02-.03.73-.068 2.18-.087 2.91-8.03.05-16.062.06-24.084-.02 0-.72-.01-2.18-.01-2.91zM26.742 60.464c16.12-.05 32.23-.1 48.35.02.058 8.3.136 16.61-.01 24.91-16.12.03-32.25.12-48.37-.05-.01-8.3-.077-16.59.03-24.88zM101.355 60.464c16.11-.09 32.22-.06 48.33 0 .088 8.3.107 16.61 0 24.92-16.13.03-32.26.16-48.388-.06.02-8.28-.05-16.57.058-24.86zM175.948 60.474c16.1-.1 32.202-.08 48.312-.01.155 8.31.068 16.61.048 24.92-16.12.06-32.24.07-48.36.02-.087-8.31-.126-16.62 0-24.93zM238.898 60.454c18.706-.06 37.403-.05 56.11.02.03 30.62.106 61.24-.01 91.86-18.687.2-37.384.05-56.08.07-.108-30.65-.08-61.3-.02-91.95m5.773 5.98c0 1.32-.01 2.65-.01 3.97 12.924.04 25.838.03 38.76.01 0-1.33 0-2.65.01-3.97-12.922-.04-25.836-.03-38.76-.01zM37.388 91.474c9.04-.09 18.087-.09 27.125.04l-.077 2.83c-9.01.12-18.03.17-27.038.01 0-.72-.01-2.16-.01-2.88zM111.953 91.484c9.03-.14 18.067-.05 27.096-.02 0 .73-.01 2.19-.02 2.92-9.01.08-18.03.08-27.048-.01-.01-.72-.02-2.16-.03-2.89zM186.643 91.434c9 0 18.01-.08 27.01.04-.01.73-.02 2.19-.03 2.91-9.02.07-18.048.08-27.076 0 .02-.74.077-2.21.096-2.95zM26.77 116.484c16.1-.1 32.212-.11 48.312-.01.116 8.31.097 16.61-.02 24.92-16.09.08-32.19.03-48.282-.01-.155-8.3-.106-16.6-.01-24.9zM101.316 116.494c16.13-.13 32.26-.1 48.39-.02.047 8.3.067 16.59.01 24.88-16.12.12-32.24.08-48.36.02-.127-8.3-.078-16.59-.04-24.88zM175.9 116.474c16.12-.1 32.24-.06 48.36-.02.136 8.31.097 16.62.03 24.93-16.11.07-32.23.08-48.342-.01-.097-8.3-.087-16.6-.048-24.9zM29.61 145.474c14.19-.08 28.383-.1 42.576 0 0 .72.01 2.16.01 2.87-14.193.16-28.395.11-42.597.02 0-.72.01-2.16.01-2.89zM104.222 145.454c14.183-.05 28.375-.09 42.567.02v2.91c-14.183.1-28.376.03-42.558.03 0-.74-.01-2.22-.01-2.96zM178.845 145.474c14.183-.11 28.375-.05 42.557.01-.01.72-.01 2.17-.02 2.89-14.19.09-28.393.09-42.585-.01.01-.72.038-2.17.048-2.89zM238.898 160.484c18.706-.09 37.413-.09 56.11-.02.03 36.3.097 72.61.02 108.91-18.707.1-37.414.05-56.12.02-.117-36.3-.05-72.61-.01-108.91m5.764 84.96c0 1.32.01 2.64.01 3.96 12.913.03 25.836.03 38.75.01v-3.97c-12.914-.03-25.837-.04-38.76 0zM26.722 169.464c16.12-.08 32.24-.06 48.37-.01.116 8.31.068 16.63.01 24.94-16.13.08-32.25.03-48.37-.01-.068-8.31-.02-16.61-.01-24.92zM101.326 169.474c16.11-.08 32.23-.09 48.35-.01.107 8.31.116 16.62-.02 24.92-16.1.07-32.21.08-48.31-.01-.117-8.3-.06-16.6-.02-24.9zM175.93 169.464c16.11-.05 32.23-.1 48.34.01.087 8.3.126 16.6.01 24.89-16.12.13-32.24.11-48.35-.01-.068-8.3-.078-16.59 0-24.89zM29.6 198.484c14.21-.1 28.423-.12 42.634 0 0 .71.01 2.14.02 2.85-14.202.18-28.414.07-42.616.04l-.04-2.89zM104.242 198.484c14.172-.11 28.345-.09 42.518-.03.02.74.05 2.2.058 2.94-14.192.06-28.394.05-42.596 0 0-.73.01-2.19.02-2.91zM178.758 198.484c14.21-.08 28.433-.14 42.644 0l-.04 2.91c-14.17.04-28.344.06-42.507-.01-.03-.73-.078-2.18-.097-2.9zM26.76 222.454c16.11-.02 32.212-.08 48.322-.01.087 8.31.087 16.63.01 24.95-16.11.04-32.22.1-48.33-.03-.078-8.3-.137-16.61 0-24.91zM101.335 222.484c16.13-.1 32.25-.1 48.38-.01.068 8.29.038 16.58.01 24.87-16.12.11-32.25.13-48.38.02-.126-8.29-.077-16.59-.01-24.88zM175.92 222.484c16.12-.12 32.25-.12 48.37-.02.057 8.31.086 16.61-.02 24.91-16.11.07-32.23.12-48.34-.01-.088-8.29-.06-16.58-.01-24.88zM29.658 251.474c14.182-.08 28.365-.07 42.547-.02 0 .73-.01 2.19-.01 2.92-14.182.09-28.374.08-42.557.01.01-.73.02-2.19.02-2.91zM104.25 251.474c14.184-.09 28.366-.09 42.55 0 0 .72-.01 2.18-.01 2.9-14.193.1-28.386.09-42.587-.02.02-.72.038-2.16.048-2.88zM178.835 251.494c14.193-.11 28.394-.13 42.596-.02l-.037 2.9c-14.212.07-28.414.08-42.625.02.02-.73.048-2.18.067-2.9zM26.77 275.484c16.11-.08 32.22-.14 48.332 0 .058 8.29.096 16.58-.02 24.87-16.11.14-32.23.08-48.34.04-.01-8.31-.136-16.61.03-24.91zM101.335 275.484c16.12-.12 32.25-.04 48.37-.04.078 8.32.048 16.64-.04 24.96-16.1.01-32.21.07-48.32-.01-.107-8.3-.058-16.61-.01-24.91zM175.948 275.464c16.11-.04 32.22-.11 48.34.02.07 8.3.088 16.61-.018 24.91-16.11.03-32.22.09-48.33-.01-.088-8.31-.098-16.61.01-24.92zM29.6 304.474c14.21-.06 28.413-.09 42.624-.01-.01.73-.02 2.18-.03 2.91-14.19.09-28.383.1-42.575 0 0-.73-.01-2.17-.02-2.9zM104.222 304.474c14.183-.09 28.365-.09 42.548-.01.01.73.038 2.18.048 2.9-14.202.1-28.394.1-42.586.02-.01-.73-.01-2.19-.01-2.91zM178.768 304.484c14.2-.11 28.394-.05 42.595-.04.01.74.04 2.22.05 2.96-14.184.05-28.366.04-42.558-.03-.02-.72-.058-2.17-.087-2.89z" fill="#e8e8e8"/><g transform="matrix(.96875 0 0 1 7.328 -2.576)" fill="#b6b6b6"><path d="M202 26.01c13.33-.02 26.67-.01 40-.01v3.99c-13.33.02-26.67.02-40 0v-3.98zM257 26.01c13.33-.02 26.66-.01 40-.01-.01 1.33 0 2.66.01 3.99-13.34.02-26.67.02-40.01 0v-3.98zM20 30.01c8.33-.02 16.67-.02 25 0v2.98c-8.33.02-16.66.01-25 0v-2.98zM60 30.01c8.33-.01 16.67-.02 25 0v2.98c-8.33.02-16.67.01-25 0v-2.98zM99.99 30.01c8.34-.02 16.68-.02 25.02 0 0 .74-.01 2.24-.01 2.98-8.33.02-16.67.02-25 0 0-.75 0-2.24-.01-2.98zM245 69.01c13.34-.02 26.67-.03 40.01.01-.01 1.32-.01 2.64-.01 3.97-13.34.02-26.67.03-40.01-.01 0-1.32.01-2.65.01-3.97zM28 154.01c11.67-.02 23.33-.02 35 0 0 .74 0 2.24.01 2.98-11.67.02-23.34.02-35.01 0v-2.98zM105 154.01c11.66-.02 23.33-.01 35 0v2.98c-11.67.02-23.33.02-35 0v-2.98zM182 154.01c11.67-.02 23.33-.02 35 0 0 .74.01 2.24.01 2.98-11.67.02-23.34.02-35.01 0v-2.98zM28 207.01c11.67-.02 23.34-.02 35.01 0-.01.75-.01 2.23-.01 2.98-11.67.02-23.34.02-35.01 0 .01-.75.01-2.24.01-2.98zM105 207.01c11.67-.02 23.33-.02 35 0v2.98c-11.67.02-23.34.01-35.01 0 .01-.75.01-2.24.01-2.98zM182 207.01c11.66-.02 23.33-.01 35 0v2.98c-11.67.02-23.33.02-35 0v-2.98zM244.99 248.02c13.34-.04 26.68-.03 40.01 0v3.97c-13.33.02-26.67.02-40-.01 0-1.32-.01-2.64-.01-3.96zM28 260.01c11.66-.02 23.33-.02 35 0v2.98c-11.67.01-23.34.01-35.01 0 0-.74.01-2.24.01-2.98zM105 260.01c11.67-.02 23.34-.02 35.01 0-.01.74-.01 2.24-.01 2.98-11.67.01-23.34.02-35.01 0 .01-.74.01-2.23.01-2.98zM182 260.01c11.67-.01 23.34-.03 35 0v2.98c-11.67.02-23.34.02-35 0v-2.98zM28 313.01c11.67-.02 23.34-.02 35.01 0-.01.74-.01 2.23-.01 2.98-11.67.02-23.33.01-35 0v-2.98zM105 313.01c11.66-.02 23.33-.02 35 0v2.98c-11.67.02-23.33.02-35 0v-2.98zM182 313.01c11.67-.02 23.33-.01 35 0v2.98c-11.67.01-23.33.02-35 0v-2.98z"/></g><path d="M233.056 54.434c22.6-.02 45.202-.01 67.803 0 0 73.99.01 147.99-.01 221.98-22.602.02-45.202.02-67.803 0 0-73.99-.01-147.99.01-221.98m.958.99c0 73.33-.01 146.66.01 219.99 21.952.02 43.904.01 65.856 0 .01-73.32.02-146.65 0-219.98-21.95-.02-43.903-.01-65.865-.01z" fill="#ffb2b2"/><path fill="#cfcfcf" d="M244.66 76.707h4.242v2.828h-4.243zM251.73 76.707h34.825v2.828H251.73zM244.66 83.6h4.242v3.183h-4.243zM251.73 83.6h28.284v3.183H251.73zM244.66 90.672h4.242v3.005h-4.243zM244.66 97.743h4.242v2.828h-4.243zM251.73 90.672h19.092v3.005H251.73zM251.73 97.743h25.28v2.828h-25.28zM244.66 116.658h4.242v3.005h-4.243zM244.66 123.73h4.242v2.827h-4.243zM244.66 130.624h4.242v3.005h-4.243zM244.66 137.695h4.242v3.005h-4.243zM251.73 116.658h25.28v3.005h-25.28zM251.73 123.73h38.36v2.827h-38.36zM251.73 130.624h28.46v3.005h-28.46zM251.73 137.695h35.002v3.005H251.73zM251.73 172.52h35.002v3.005H251.73zM244.66 172.52h4.242v3.005h-4.243zM244.66 179.59h4.242v3.006h-4.243zM244.66 186.662h4.242v3.005h-4.243zM244.66 193.556h4.242v3.182h-4.243zM251.73 179.59h28.46v3.006h-28.46zM251.73 186.662h38.36v3.005h-38.36zM251.73 193.556h25.28v3.182h-25.28zM251.73 212.648h25.28v3.005h-25.28zM244.66 212.648h4.242v3.005h-4.243zM244.66 219.542h4.242v3.182h-4.243zM244.66 226.613h4.242v3.005h-4.243zM244.66 233.508h4.242v3.36h-4.243zM251.73 219.542h19.092v3.182H251.73zM251.73 226.613h28.46v3.005h-28.46zM251.73 233.508h35.002v3.36H251.73zM244.66 252.07h50.38v3.535h-50.38zM244.66 257.726h44.724v3.89H244.66z"/></svg>
<svg width="320" height="382" viewBox="0 0 320 382.00001" id="sketch-right" y="1224"><g transform="translate(-83.867 -140.585)"><path fill="#fff" d="M83.867 140.585h320v382h-320z"/><g transform="translate(.614 -163.564)"><path fill="none" d="M82.857 303.22h320v382h-320z"/><path d="M100.216 358.437c38.33-.01 76.66-.01 114.99 0 .01 26.99.01 53.99.01 80.98-38.33.02-76.66.01-115 .01v-80.99m5 5.99v70h105v-70h-105zM100.226 550.437c43.66-.01 87.32-.02 130.99 0 0 25.66.01 51.32-.01 76.99h-130.98c-.02-25.67-.01-51.33 0-76.99m5.04 6.02c-.1 13.31-.08 26.62-.01 39.93 39.98.06 79.96.09 119.93-.01.05-13.31.07-26.61-.01-39.91-39.97-.07-79.94-.06-119.91-.01m-.05 47.98v2.98c31.33.02 62.67.01 94 0v-2.98c-31.33-.01-62.67-.02-94 0m0 5v2.98c11.67.02 23.33.02 35 0v-2.98c-11.67-.02-23.33-.02-35 0m.02 5.03c-.02.72-.05 2.17-.07 2.89 29.35.13 58.7.09 88.05.03 0-.73-.01-2.2-.01-2.93-29.33-.04-58.65-.08-87.97.01m-.01 5c0 .73-.01 2.19-.01 2.92 14.67.07 29.34.1 44.01-.02v-2.89c-14.67-.1-29.34-.08-44-.01zM244.386 628.677c1.59-.5 2.29 2.15.65 2.49-1.59.5-2.29-2.15-.65-2.49zM254.386 628.687c1.59-.51 2.29 2.15.65 2.48-1.59.5-2.29-2.16-.65-2.48z" fill="#fff"/><path d="M242.556 319.807c7.88-2.17 16.6 4.37 16.63 12.56.53 7.23-5.74 13.93-12.96 14.05-7.18.44-13.92-5.75-13.98-12.97-.41-6.26 4.23-12.25 10.31-13.64zM287.206 334.477c8.33-.09 16.66-.09 25-.01 0 .73.02 2.18.03 2.9-8.34.12-16.68.09-25.02.02 0-.73-.01-2.18-.01-2.91zM342.216 334.467c8.33-.08 16.67-.1 25.01.01 0 .73-.01 2.18-.01 2.91-8.33.08-16.67.09-25 0v-2.92zM223.206 387.477c11.68-.09 23.35-.09 35.03 0-.01 1.3-.03 2.61-.04 3.92-11.66.05-23.33.08-34.99-.02v-3.9zM223.206 392.487c14.67-.11 29.34-.09 44.01-.02v3.92c-14.67.07-29.34.09-44.01-.02v-3.88zM223.246 397.467c10.32-.07 20.64-.08 30.96 0 .01 1.3.02 2.61.02 3.91-10.34.09-20.69.09-31.04 0 .02-1.31.03-2.61.06-3.91zM223.206 402.477c7.33-.08 14.67-.1 22 0l.03 3.9c-7.34.1-14.68.1-22.02.01-.01-1.31-.01-2.61-.01-3.91zM105.196 459.467c58.07-.06 116.14-.09 174.2.02-.01.72-.02 2.16-.03 2.88-58.05.12-116.09.08-174.13.02l-.04-2.92zM105.206 464.477c73-.08 146.01-.08 219.02 0v2.9c-73 .1-145.99.07-218.99.01-.01-.73-.03-2.19-.03-2.91zM105.206 469.477c51.39-.09 102.79-.08 154.19 0l.08 2.9c-51.42.1-102.84.07-154.25.01-.01-.72-.02-2.18-.02-2.91zM105.206 474.477c34-.14 68.01.02 102.01-.08 2.57.02 5.14.12 7.71.21-.01.67-.03 1.99-.05 2.66-36.55.35-73.11.13-109.67.11v-2.9zM105.206 479.477c60.67-.08 121.35-.1 182.02.01v2.89c-60.68.08-121.36.1-182.03-.01 0-.72.01-2.17.01-2.89zM105.246 484.457c51.39-.05 102.78-.07 154.18.01 0 .73.02 2.18.03 2.91-51.42.09-102.85.08-154.27 0 .02-.73.04-2.19.06-2.92zM105.236 489.467c73-.06 146-.09 218.99.02 0 .72-.01 2.17-.01 2.9-73.01.06-146.03.09-219.04-.02.02-.72.05-2.17.06-2.9zM105.206 494.477c58.09-.08 116.17-.09 174.25 0-.05.73-.14 2.18-.19 2.9-58.01.09-116.03.07-174.04.01 0-.73-.01-2.18-.02-2.91zM105.246 511.467c79.64-.08 159.28-.05 238.92-.01.1 9.97.08 19.95.01 29.93-79.64.07-159.28.07-238.93 0-.07-9.97-.06-19.95 0-29.92m7.97 8c0 1.64 0 3.27-.01 4.91 28.01.08 56.02.09 84.03 0-.01-1.64-.02-3.28-.02-4.91-28-.07-56-.07-84 0zM105.266 556.457c39.97-.05 79.94-.06 119.91.01.08 13.3.06 26.6.01 39.91-39.97.1-79.95.07-119.93.01-.07-13.31-.09-26.62.01-39.93zM256.246 556.467c39.97-.09 79.95-.05 119.92-.01.11 13.31.07 26.62.02 39.93-39.98.07-79.96.08-119.94 0-.07-13.31-.05-26.61 0-39.92zM256.226 611.457c29.34-.03 58.68-.09 88.02.03-.01.72-.03 2.17-.03 2.89-29.33.1-58.66.07-87.98.02-.01-.74-.01-2.21-.01-2.94zM105.236 614.467c29.32-.09 58.64-.05 87.97-.01 0 .73.01 2.2.01 2.93-29.35.06-58.7.1-88.05-.03.02-.72.05-2.17.07-2.89zM256.196 616.477c14.67-.1 29.35-.08 44.02-.01l.04 2.89c-14.68.13-29.36.1-44.04.02-.01-.72-.01-2.17-.02-2.9zM105.226 619.467c14.66-.07 29.33-.09 44 .01v2.89c-14.67.12-29.34.09-44.01.02 0-.73.01-2.19.01-2.92z" fill="#e8e8e8"/><path d="M287.216 327.437c13.33-.02 26.66-.01 40 0v3.98c-13.33.02-26.67.01-40 0 0-1.32-.01-2.65 0-3.98zM342.216 327.437c13.33-.02 26.66-.01 40-.01v4c-13.34 0-26.67.01-40-.01-.01-1.33-.01-2.66 0-3.98zM105.216 331.437c8.33-.02 16.67-.02 25 0v2.98c-8.33.02-16.67.02-25 0v-2.98zM145.216 331.437c8.33-.02 16.67-.02 25 0v2.98c-8.33.02-16.67.02-25 0v-2.98zM185.216 331.437c8.33-.02 16.67-.02 25 0v2.98c-8.33.02-16.67.02-25 0v-2.98zM105.216 364.427h105v70h-105v-70zM223.216 364.427h119c-.01 2.33-.01 4.66 0 7-39.66.01-79.33 0-119 0 .01-2.33.01-4.67 0-7zM223.216 373.427h84c-.01 2.67 0 5.33.01 8-28.01 0-56.01.01-84.01-.01v-7.99zM105.216 449.427c28-.01 56 0 84 0v5h-84v-5zM198.216 449.427c16.33-.01 32.67 0 49 0 0 1.67-.01 3.33 0 5h-49v-5zM105.216 604.437c31.33-.02 62.67-.01 94 0v2.98c-31.33.01-62.67.02-94 0v-2.98zM256.216 604.437c31.33-.01 62.67-.02 94 0v2.98c-31.33.02-62.67.02-94 0v-2.98zM105.216 609.437c11.67-.02 23.33-.02 35 0v2.98c-11.67.02-23.33.02-35 0v-2.98z" fill="#b6b6b6"/><g transform="translate(85.216 301.427)" fill="#ffb2b2"><path d="M14.01 56H131v83H14.01c-.02-27.67-.01-55.33 0-83m.99 1.01V138c38.34 0 76.67.01 115-.01 0-26.99 0-53.99-.01-80.98C91.66 57 53.33 57 15 57.01zM14.01 248H147c0 26.33.01 52.67-.01 79-44.33 0-88.66.01-132.99-.01 0-26.33-.01-52.66.01-78.99m1 1.01c-.01 25.66-.02 51.32 0 76.99h130.98c.02-25.67.01-51.33.01-76.99-43.67-.02-87.33-.01-130.99 0z"/></g><g transform="translate(85.216 301.427)" fill="#d9d9d9"><path d="M137.98 118.02c12.01-.04 24.02-.05 36.04 0-.03 2.32-.03 4.65-.02 6.97-12 .01-24 .03-36 0 .01-2.33 0-4.65-.02-6.97zM181.99 118.01c6.01-.03 12.01-.03 18.02.01-.02 2.32-.02 4.64 0 6.96-6.01.04-12.01.03-18.01.02.01-2.33.01-4.66-.01-6.99z"/></g><path d="M113.216 519.467c28-.07 56-.07 84 0 0 1.63.01 3.27.02 4.91-28.01.09-56.02.08-84.03 0 .01-1.64.01-3.27.01-4.91z" fill="#d1d1d1"/><g transform="translate(85.216 301.427)" fill="#757575"><path d="M148.12 326.38c1.73-1.22 4.4.58 3.81 2.6-.2 1.55-2.37 2.67-3.63 1.65-1.69-.81-1.64-3.24-.18-4.25zM158.23 326.33c2.76-1.69 5.38 2.8 2.53 4.34-2.73 1.72-5.33-2.81-2.53-4.34m.94.92c-1.64.34-.94 2.99.65 2.49 1.64-.34.94-2.99-.65-2.49zM168.29 326.3c2.75-1.65 5.31 2.92 2.43 4.39-2.77 1.67-5.28-2.91-2.43-4.39m.88.96c-1.64.32-.94 2.98.65 2.48 1.64-.33.94-2.99-.65-2.48z"/></g><path fill="#d1d1d1" d="M112.657 527.362H182.5v3.036h-69.843zM112.657 531.47h41.45v3.213h-41.45z"/></g></g></svg>
</svg>