<?xml version="1.0" encoding="UTF-8" standalone="no"?>
<svg
   xmlns:dc="http://purl.org/dc/elements/1.1/"
   xmlns:cc="http://creativecommons.org/ns#"
   xmlns:rdf="http://www.w3.org/1999/02/22-rdf-syntax-ns#"
   xmlns:svg="http://www.w3.org/2000/svg"
   xmlns="http://www.w3.org/2000/svg"
   xmlns:sodipodi="http://sodipodi.sourceforge.net/DTD/sodipodi-0.dtd"
   xmlns:inkscape="http://www.inkscape.org/namespaces/inkscape"
   version="1.0"
   width="143.2pt"
   height="42.399998pt"
   viewBox="0 0 143.2 42.399998"
   preserveAspectRatio="xMidYMid meet"
   id="svg2"
   inkscape:version="0.91 r13725"
   sodipodi:docname="logo.svg">
  <defs
     id="defs16" />
  <sodipodi:namedview
     pagecolor="#ffffff"
     bordercolor="#666666"
     borderopacity="1"
     objecttolerance="10"
     gridtolerance="10"
     guidetolerance="10"
     inkscape:pageopacity="0"
     inkscape:pageshadow="2"
     inkscape:window-width="1366"
     inkscape:window-height="746"
     id="namedview14"
     showgrid="false"
     fit-margin-top="0"
     fit-margin-left="0"
     fit-margin-right="0"
     fit-margin-bottom="0"
     inkscape:zoom="0.3"
     inkscape:cx="624.25"
     inkscape:cy="29.283143"
     inkscape:window-x="-8"
     inkscape:window-y="-8"
     inkscape:window-maximized="1"
     inkscape:current-layer="svg2" />
  <style
     id="style4">.style0{fill:	#000000;}</style>
  <metadata
     id="metadata6">Created by potrace 1.12, written by Peter Selinger 2001-2015<rdf:RDF>
  <cc:Work
     rdf:about="">
    <dc:format>image/svg+xml</dc:format>
    <dc:type
       rdf:resource="http://purl.org/dc/dcmitype/StillImage" />
    <dc:title></dc:title>
  </cc:Work>
</rdf:RDF>
</metadata>
  <g
     class="style0"
     id="g8"
     transform="matrix(0.14350135,0,0,0.15894445,-0.08610081,-0.3178889)"
     style="fill:#000000">
    <path
       d="m 525.6,3.1 c -5.2,1.2 -9.7,4.1 -11.7,7.6 -0.9,1.5 -3.1,8 -4.8,14.3 -1.7,6.3 -5.3,18.5 -7.9,27 l -4.8,15.5 -6.4,1.3 c -7.6,1.5 -10.4,3.7 -12.5,10.3 -2.5,7.4 -0.2,11.3 6.3,10.8 6,-0.5 6.3,-0.2 5.6,3.8 -1.6,9.1 -10.7,38.4 -13.9,44.8 -3.7,7.6 -9.7,14.4 -15,16.9 -5,2.4 -14.4,4.1 -15.6,2.9 -0.7,-0.7 -0.1,-3 2.1,-7.3 3.7,-7.3 6,-17 6,-25.5 0,-9.9 -5.9,-24 -13.6,-32.5 -1.9,-2.1 -3.4,-4.5 -3.4,-5.4 0,-0.9 1.5,-3.6 3.4,-6.1 4.7,-6.1 6.5,-14.2 4.5,-19.8 -2,-5.7 -5.5,-8 -12.3,-7.9 -10.3,0.1 -21.5,7.1 -26.2,16.3 -2.7,5.4 -3.2,12.6 -1.3,18.9 0.7,2.1 0.9,4.9 0.5,6.3 -0.9,3.7 -26.8,42.9 -34,51.6 -14.7,17.5 -25.1,25.1 -34.8,25.1 -5.1,0 -9.8,-1.6 -9.8,-3.4 0,-0.6 3.1,-4.5 6.8,-8.6 16.8,-18.4 26.2,-38.6 26.2,-55.9 0,-28.2 -29.7,-34.8 -58.4,-13.1 -7.8,5.9 -14.9,14.7 -19.6,24.5 -5.5,11.3 -7.3,19.1 -7.4,31.5 -0.1,9.2 0.3,11.5 2.8,18.3 1.5,4.2 2.6,8.3 2.3,9 -0.7,1.9 -14.3,5.9 -21.7,6.5 -3.6,0.2 -8.1,0 -10,-0.5 -5.7,-1.5 -5.3,-4.2 4.8,-29.5 4.9,-12.3 9.2,-24 9.5,-26 1.4,-9.4 -3.7,-15.5 -19.5,-23.1 l -10.8,-5.2 0,-7.6 c 0,-6.3 -0.4,-8.1 -2.2,-10.4 -2.4,-3.1 -7.4,-5.5 -11.5,-5.5 -7.8,0 -19.5,9.3 -21,16.7 -1.4,7 -0.8,13.6 1.6,17.8 l 2.2,4 -7.4,18.5 c -4.1,10.2 -8.9,21.5 -10.6,25.3 -8.7,19.1 -18,30.6 -29.6,36.3 -7.9,3.9 -8.4,4.8 -9.9,16.1 -0.9,6.1 -0.1,7.3 4.8,7.3 7.9,0 24.3,-9.7 34.4,-20.3 10.1,-10.7 16,-21.4 27.7,-50.2 8.6,-21.1 9.4,-22.1 14,-19.1 4,2.6 3.3,7.1 -3.9,25.1 -6.7,16.5 -10.6,29.6 -10.6,34.9 0.1,8.1 6.4,15 16,17.7 14.7,4.1 47.9,-1.4 64.7,-10.7 3.4,-1.9 7,-3.4 8,-3.4 1,0 4.3,1.2 7.3,2.7 4.9,2.3 7,2.7 18.6,3.1 17,0.6 21.4,-0.4 31.7,-7.1 4.5,-3 8.7,-5.7 9.3,-6 0.7,-0.4 4.1,0.7 7.7,2.3 12.3,5.8 30.4,4.7 45,-2.7 4.6,-2.3 5.5,-2.4 10.1,-1.5 9.5,2 14.1,2.3 20.3,1.3 7.7,-1.2 21.7,-7.7 28.5,-13.1 2.8,-2.2 5.4,-4 5.8,-4 0.4,0 1.8,0.8 3.1,1.9 4.1,3.1 6.6,4.1 15.1,5.7 14.7,2.8 29.7,0.6 46,-6.8 l 6.7,-3.1 5,2.2 c 12.9,5.5 30.6,-0.3 45.2,-14.8 4.2,-4.2 8.1,-8.5 8.6,-9.5 1.5,-2.7 3.3,-1.1 3.3,2.9 0,7.2 3.2,10.3 13.6,13 7.9,2 24.6,2 30.8,-0.1 2.6,-0.9 5,-1.3 5.3,-1 1.1,1.1 -6,24.3 -8.1,26.3 -0.3,0.3 -114.5,15.2 -253.7,33.2 -139.2,17.9 -252.5,32.7 -251.8,32.8 0.8,0.2 174.4,-8.4 385.8,-19.1 302.7,-15.3 384.6,-19.7 385.7,-20.7 3.1,-3.3 47.4,-65.4 46.7,-65.6 -0.5,-0.2 -63.6,7.8 -140.3,17.7 -76.6,9.9 -139.6,17.7 -139.8,17.5 -0.8,-0.8 5.8,-27.1 7.3,-29.1 1.2,-1.7 1.8,-1.7 5.9,-0.6 9.2,2.4 19.1,0.9 31.8,-5 l 6.6,-3 5.9,2.2 c 4.2,1.6 8.8,2.4 16.9,2.7 12.4,0.6 19,-0.9 29.2,-6.8 17.5,-10 35,-35.2 46.5,-67 7.2,-19.9 7.5,-20.2 13.2,-15.7 3.6,2.8 3.2,5.9 -3.4,21.4 -13.9,33.1 -14.9,44.9 -4.1,52.1 10.5,7.2 32.1,6.1 56,-2.7 4.7,-1.7 8.9,-3.5 9.5,-4.1 1.4,-1.4 3.8,-1.1 8.6,1 10.2,4.5 25.2,3.3 36.9,-3 12.7,-6.8 26.7,-25.4 35,-46.5 6.4,-16.5 7.4,-21.3 7.5,-35.9 0,-15.5 -1.6,-20.9 -7.3,-25.3 -3.2,-2.4 -4.4,-2.7 -11.8,-2.7 -7.3,0 -8.5,-0.3 -10.8,-2.4 -2.2,-2.1 -3.2,-2.3 -7.9,-1.8 -5.9,0.6 -16.2,4.9 -22.9,9.5 -12,8.3 -25.7,26.6 -31.9,42.5 -4.8,12.6 -6.1,20.4 -5.7,34.7 l 0.3,12.5 -7,2.3 c -8.8,3 -18.7,3.4 -21.1,1 -1.6,-1.6 -1.6,-2.1 -0.2,-7 0.9,-2.9 4.7,-13 8.6,-22.3 C 891.4,51.7 892,46 885,39 c -2.1,-2.1 -8.5,-6.1 -14.6,-9.1 l -10.9,-5.4 0.3,-5.6 C 860.5,7.7 855.4,2 844.7,2 c -6.9,0 -10.1,1.5 -15,6.9 -6,6.7 -7.6,18.4 -3.6,26.3 2.5,5 2.2,7 -3,19.2 -2.2,5 -5.4,12.7 -7.1,17.1 -4.9,12.6 -13.6,27.7 -21.9,38.2 -5.7,7.2 -11.5,10.5 -20.1,11.1 -7.1,0.5 -12,-0.2 -12,-1.7 0,-0.5 2.9,-4.3 6.4,-8.4 14.8,-17.4 22.6,-36.1 22.7,-53.9 0,-13.3 -3.9,-20.6 -14.1,-26.6 -4,-2.4 -5.5,-2.7 -13.5,-2.7 -7.9,0 -9.7,0.4 -14.8,2.8 -6.6,3.3 -16.4,11.9 -20.9,18.5 -5.2,7.5 -5.3,3.7 -0.3,-11.8 3.2,-10 4.4,-15.2 4,-17.2 -1.9,-8.6 -17.3,-7.9 -26.4,1.3 -5,5.1 -7.9,12.4 -11.2,28.2 -7.8,37.3 -12.7,54.3 -19.6,66.7 -8.5,15.5 -16.1,20.4 -26.2,16.9 -3,-1 -3.1,-1.3 -3.1,-6.5 0,-9.4 11.6,-42.4 22.9,-65.3 6.3,-12.8 6.9,-14.8 5,-18.3 -2.4,-4.5 -16,-7.9 -23.7,-5.9 -3.4,0.9 -4.7,2 -6.8,5.6 -2.9,5 -4,5.3 -10.5,2.9 -6.7,-2.5 -17.1,-2.1 -25.8,0.9 -11,3.9 -17.6,8.2 -28.2,18.7 -10.7,10.5 -18.6,21.8 -25.4,36.3 -5.8,12.2 -7.8,20.3 -7.7,30.7 0,4.7 -0.4,9.3 -1,10.3 -1.6,3 -9.1,5.7 -17.5,6.3 -7,0.5 -8.3,0.3 -12.3,-1.8 -4.2,-2.3 -4.5,-2.7 -4.8,-7.1 -0.2,-2.7 0.6,-7.9 1.7,-12 6.9,-24.3 11.9,-40.9 12.7,-41.7 0.5,-0.5 4.9,-1.4 9.8,-2 11.1,-1.4 14.2,-2.9 16.7,-8.3 2.4,-5.4 2.4,-9.2 0,-11.6 -1.6,-1.6 -3,-1.8 -11.1,-1.3 l -9.3,0.5 0.6,-3 c 0.3,-1.7 4,-12.7 8.1,-24.4 4.2,-11.8 7.6,-22.7 7.6,-24.2 0,-4.2 -1.5,-6.3 -6,-8.1 -4.4,-1.8 -8.4,-1.9 -14.4,-0.5 z m 434.8,30.1 c 0.9,5.8 2.4,8.1 7.4,11.7 2.3,1.7 4.2,3.9 4.2,4.9 0,1.1 -0.9,5.4 -2,9.8 -6.7,26.2 -27.1,48.3 -36.1,39.3 C 932,97 931.8,96 932.3,87.6 932.8,76.7 935.7,67.4 943.5,51.5 948.6,41.2 956.9,29 958.9,29 c 0.5,0 1.2,1.9 1.5,4.2 z M 756.5,57.4 c 5.2,5.2 4,18.1 -3,32 -3.7,7.1 -13.7,21.9 -15.8,23.3 -0.7,0.4 -5.5,0.8 -10.7,0.8 -5.2,0 -11.3,0.4 -13.4,0.9 l -3.9,0.9 0.7,-3.4 c 1,-5.2 11.2,-25 18.7,-36.4 6.8,-10.3 12.3,-16 18.2,-18.9 4.4,-2.2 6.4,-2 9.2,0.8 z M 629.4,68.6 c 0.9,0.3 1.6,1.5 1.6,2.6 0,2.6 -15.9,33.3 -22.8,43.8 -7.3,11.2 -17.5,21.5 -22.9,22.9 -6.4,1.8 -7.3,0.9 -7.3,-6.8 0,-27.5 34.3,-69.1 51.4,-62.5 z m -294.7,38.9 c 2,4.2 1.1,8.9 -3.8,19.5 -4.8,10.3 -17.7,26.4 -20.4,25.4 -1.9,-0.8 -3.5,-5.9 -3.5,-11.5 0,-6 5.1,-22.1 8.6,-27.2 3.1,-4.7 10.8,-9.7 14.6,-9.7 2.3,0 3.2,0.7 4.5,3.5 z m 82.9,15.1 c 1,5.6 -0.2,19.3 -2.3,24.9 -1.9,5.3 -11.2,15.5 -14.1,15.5 -0.8,0 -3.4,-2.1 -5.8,-4.6 -4.1,-4.4 -4.2,-4.8 -2.9,-7.3 0.7,-1.4 2.5,-3.7 3.9,-5 1.4,-1.4 6.2,-8 10.7,-14.8 4.4,-6.8 8.4,-12.3 8.9,-12.3 0.5,0 1.2,1.6 1.6,3.6 z"
       id="path10"
       inkscape:connector-curvature="0" />
    <path
       d="M 120,30.1 C 104.6,34.1 87.5,44.4 74.6,57.3 65,67 48.8,88.3 40,102.9 23.5,130.4 8.7,170 2.4,203.5 c -2.4,12.8 -2.4,33.2 0,41 3.6,11.8 7.9,18 14.9,21.6 10.2,5.3 25.4,2.5 37.3,-6.8 12.7,-9.9 26.3,-36.7 35.9,-70.6 l 2.8,-9.7 8.7,0 c 27.2,0 48.6,-15 63.3,-44.5 24.8,-49.9 17,-98.1 -17.1,-105.4 -7.9,-1.6 -19.7,-1.2 -28.2,1 z m 16.1,31.7 c 1.5,1.7 3.2,4.8 3.8,6.9 5.6,21.5 -2.8,53.8 -18.5,71.1 -7.3,8.1 -19.8,14.5 -21.9,11.2 -0.3,-0.5 -0.1,-9.3 0.4,-19.5 1.3,-22.5 0.6,-33 -2.2,-35.8 -2.9,-2.9 -8.7,-1.7 -16,3.3 -3.3,2.2 -6.2,3.8 -6.5,3.5 -2.5,-2.5 22.9,-30.8 33.8,-37.7 8.6,-5.4 12.8,-6.9 18.9,-6.5 4.6,0.3 5.9,0.9 8.2,3.5 z M 67,120.2 c 0,3.6 -2.7,26.9 -4.9,42.3 -2.3,16.5 -8.1,40.9 -12.2,51.5 -3.7,9.5 -9.6,17.5 -12.9,17.5 -2.9,0 -5,-3.4 -5,-8.2 0,-5 2.9,-24 5,-32.3 2.7,-10.4 12.2,-38.1 17.1,-49.8 8.4,-19.7 12.9,-27.1 12.9,-21 z"
       id="path12"
       inkscape:connector-curvature="0" />
  </g>
</svg>
