<?xml version="1.0" encoding="UTF-8" ?>
<!DOCTYPE svg PUBLIC "-//W3C//DTD SVG 1.1//EN" "http://www.w3.org/Graphics/SVG/1.1/DTD/svg11.dtd">
<svg width="179px" height="53px" viewBox="0 0 179 53" version="1.1" xmlns="http://www.w3.org/2000/svg">
<g id="#000000ff">
<path fill="#000000" opacity="1.00" d=" M 142.99 2.27 C 143.95 0.98 145.61 0.96 147.04 0.67 C 147.20 1.88 147.35 3.10 147.49 4.32 C 149.36 5.04 151.24 5.73 153.14 6.39 C 153.83 10.35 152.00 14.14 151.80 18.07 C 152.67 18.10 154.41 18.16 155.27 18.19 C 155.23 18.91 155.14 20.36 155.09 21.08 C 152.77 20.74 149.65 21.99 148.02 19.80 C 147.05 16.14 149.24 12.61 149.02 8.94 C 148.20 8.41 147.35 7.91 146.49 7.45 C 145.15 13.69 143.85 21.59 136.96 24.05 C 137.06 23.45 137.26 22.25 137.36 21.65 C 141.53 18.75 142.80 13.60 143.75 8.91 C 144.15 6.66 142.96 4.51 142.99 2.27 Z" />
<path fill="#000000" opacity="1.00" d=" M 159.71 16.85 C 157.10 10.45 160.09 1.31 167.58 0.16 C 165.55 4.24 162.58 8.24 162.96 13.04 C 162.65 14.82 163.85 16.11 164.86 17.37 C 168.68 15.20 170.52 10.95 170.05 6.65 C 167.31 6.11 166.93 2.31 169.24 1.01 C 171.23 0.34 172.43 2.41 172.89 4.01 C 173.71 8.89 172.49 14.44 168.73 17.85 C 166.64 19.63 163.77 19.15 161.29 18.78 C 159.55 19.48 157.79 20.16 156.03 20.80 C 155.90 18.40 157.98 17.72 159.71 16.85 Z" />
<path fill="#000000" opacity="1.00" d=" M 86.24 5.98 C 86.48 4.13 89.99 2.86 90.59 4.99 C 90.50 8.16 89.61 11.26 89.00 14.36 C 90.54 14.19 92.09 14.03 93.63 13.89 C 93.17 16.23 90.79 16.08 88.94 16.45 C 88.15 20.01 87.93 23.65 87.88 27.29 C 89.35 27.64 90.82 27.96 92.29 28.27 C 92.17 28.95 91.92 30.32 91.80 31.00 C 89.29 31.10 86.79 30.78 84.50 29.70 C 82.74 31.13 80.77 32.33 78.47 32.64 C 78.45 32.96 78.40 33.62 78.37 33.95 C 73.59 33.23 69.00 36.41 64.31 34.48 C 62.89 35.29 61.44 36.08 59.97 36.81 C 60.76 34.80 62.16 33.17 63.53 31.55 C 66.29 28.32 67.91 24.35 69.48 20.46 C 69.15 18.89 68.85 17.32 68.56 15.75 C 70.23 14.69 72.07 13.98 74.06 13.88 C 73.94 15.68 73.65 17.47 73.04 19.17 C 74.51 20.96 76.38 22.61 76.95 24.94 C 77.49 27.06 76.63 29.15 76.04 31.15 C 76.86 31.26 78.52 31.48 79.34 31.59 C 80.72 29.96 82.63 28.68 83.51 26.69 C 84.31 23.57 84.55 20.35 84.94 17.17 C 84.06 17.19 82.29 17.25 81.41 17.28 C 82.56 16.32 83.78 15.45 85.05 14.65 C 85.78 11.81 85.82 8.87 86.24 5.98 M 66.98 30.41 C 67.95 31.25 68.92 32.08 69.89 32.92 C 70.81 31.86 71.87 30.88 72.51 29.61 C 73.38 27.17 72.10 24.70 71.43 22.39 C 69.93 25.05 68.55 27.79 66.98 30.41 Z" />
<path fill="#000000" opacity="1.00" d=" M 120.51 5.51 C 120.97 3.72 123.17 4.19 124.50 3.64 C 124.20 7.26 123.67 10.84 123.03 14.41 C 125.18 11.25 126.33 5.85 131.01 5.82 C 133.84 5.49 135.53 8.51 135.54 10.97 C 135.67 14.74 133.56 17.97 131.60 21.00 C 133.13 20.97 134.66 20.95 136.19 20.92 C 135.97 21.59 135.54 22.92 135.33 23.59 C 132.85 23.53 130.25 22.87 127.90 23.96 C 126.06 24.75 124.06 24.93 122.09 24.68 C 121.83 26.35 121.57 28.02 121.31 29.68 C 140.44 27.17 159.58 24.67 178.72 22.24 C 176.00 25.77 173.42 29.40 170.79 32.99 C 140.49 34.06 110.27 36.15 79.98 37.20 C 73.52 37.36 67.05 38.56 60.59 37.76 C 79.58 34.71 98.78 32.88 117.81 30.01 C 118.02 28.46 118.24 26.91 118.48 25.36 C 117.60 25.68 115.85 26.32 114.97 26.64 C 115.93 24.50 117.86 23.04 118.96 21.01 C 120.85 16.05 119.15 10.54 120.51 5.51 M 122.75 21.01 C 124.83 20.39 126.98 20.04 129.15 19.94 C 131.42 16.74 132.76 12.60 130.75 8.91 C 125.03 9.70 124.04 16.45 122.75 21.01 Z" />
<path fill="#000000" opacity="1.00" d=" M 109.57 10.81 C 110.19 8.54 112.56 9.02 114.37 8.80 C 113.77 14.01 110.66 19.22 112.06 24.48 C 112.78 24.65 114.22 24.99 114.94 25.16 C 114.26 26.79 112.81 27.88 110.97 27.58 C 108.34 27.76 107.24 24.42 108.60 22.50 C 107.90 22.05 107.21 21.57 106.53 21.08 C 108.38 18.67 109.05 15.69 109.58 12.77 C 102.99 12.80 99.47 20.66 100.90 26.38 C 103.31 26.08 105.36 24.77 106.18 22.38 C 106.57 23.03 106.96 23.68 107.35 24.33 C 105.62 26.36 104.04 29.40 100.92 29.19 C 98.19 29.17 95.55 29.80 92.95 30.55 C 93.18 28.39 95.14 27.68 96.76 26.79 C 94.44 19.28 100.83 8.46 109.57 10.81 Z" />
<path fill="#000000" opacity="1.00" d=" M 6.50 20.58 C 8.95 16.55 13.06 12.79 18.05 12.88 C 21.56 12.65 24.46 15.70 25.07 18.98 C 26.11 24.07 25.26 29.85 21.90 33.94 C 19.83 36.46 16.41 36.90 13.39 37.33 C 13.03 41.71 12.56 46.39 9.96 50.08 C 8.71 51.98 6.26 52.70 4.12 52.08 C 1.20 50.55 0.64 46.95 0.48 43.98 C 0.17 35.82 2.39 27.61 6.50 20.58 M 9.88 21.85 C 6.11 27.87 4.94 35.06 4.23 42.00 C 3.86 44.26 4.92 46.33 5.97 48.23 C 6.89 47.09 8.14 46.09 8.49 44.60 C 9.88 39.13 9.49 33.46 9.04 27.90 C 8.90 25.74 11.43 24.92 12.76 23.68 C 13.38 27.20 13.93 30.73 14.30 34.28 C 19.71 32.66 21.51 26.12 20.47 21.11 C 20.12 19.19 19.30 16.64 16.98 16.45 C 13.81 16.73 11.53 19.36 9.88 21.85 Z" />
<path fill="#000000" opacity="1.00" d=" M 30.99 20.27 C 31.91 19.04 33.45 18.98 34.82 18.71 C 35.24 19.92 35.29 21.31 35.99 22.42 C 37.63 23.28 39.41 23.83 41.17 24.42 C 41.79 28.37 40.03 32.14 39.80 36.05 C 40.67 36.09 42.42 36.17 43.30 36.21 C 43.24 36.93 43.14 38.36 43.08 39.08 C 40.78 38.72 37.63 40.02 36.04 37.80 C 34.99 34.17 37.32 30.63 36.97 26.98 C 36.20 26.39 35.37 25.88 34.48 25.47 C 33.13 31.74 31.83 39.94 24.65 42.04 C 25.30 38.97 28.38 37.43 29.50 34.62 C 30.51 32.14 31.25 29.56 31.74 26.93 C 32.16 24.67 30.96 22.52 30.99 20.27 Z" />
<path fill="#000000" opacity="1.00" d=" M 49.78 20.76 C 52.07 18.39 57.18 17.51 58.63 21.19 C 60.11 25.72 56.57 29.83 54.20 33.36 C 55.84 33.63 57.48 33.87 59.13 34.10 C 58.94 35.48 58.74 36.85 58.53 38.23 C 59.16 38.30 60.42 38.44 61.06 38.51 C 58.04 38.84 55.01 38.76 51.99 38.65 C 54.53 38.33 58.02 38.80 58.84 35.65 C 56.54 37.28 53.70 36.17 51.18 35.89 C 48.85 37.03 46.45 38.01 43.98 38.82 C 44.01 35.94 46.84 35.48 48.90 34.53 C 46.01 30.44 45.77 24.21 49.78 20.76 M 52.03 32.02 C 55.33 29.61 57.72 24.64 55.08 20.93 C 50.50 22.74 50.45 28.11 52.03 32.02 Z" />
</g>
</svg>
