<?xml version="1.0" encoding="UTF-8" ?>
<!DOCTYPE svg PUBLIC "-//W3C//DTD SVG 1.1//EN" "http://www.w3.org/Graphics/SVG/1.1/DTD/svg11.dtd">
<svg width="179px" height="53px" viewBox="0 0 179 53" version="1.1" xmlns="http://www.w3.org/2000/svg">
<g id="#ffffffff">
<path fill="#ffffff" opacity="1.00" d=" M 142.96 2.32 C 143.90 0.96 145.53 0.93 147.00 0.74 C 147.22 1.97 147.42 3.22 147.62 4.46 C 149.45 5.10 151.27 5.75 153.11 6.38 C 154.00 10.26 151.95 13.96 151.80 17.82 C 153.07 18.08 154.35 18.33 155.63 18.59 C 157.01 18.06 158.40 17.53 159.78 16.97 C 157.04 10.61 160.04 1.23 167.60 0.22 C 164.83 4.90 162.08 9.96 163.08 15.62 C 163.60 16.00 164.64 16.75 165.16 17.13 C 168.89 15.02 170.46 10.75 170.06 6.62 C 167.25 6.19 166.95 2.32 169.23 1.01 C 171.24 0.33 172.50 2.47 172.92 4.12 C 173.67 8.96 172.46 14.44 168.75 17.84 C 166.65 19.61 163.80 19.25 161.32 18.72 C 159.01 19.85 156.65 21.05 154.02 21.04 C 151.99 20.94 149.28 21.82 147.99 19.75 C 147.16 16.02 149.05 12.43 149.24 8.73 C 148.29 8.38 147.34 8.02 146.40 7.66 C 145.17 13.62 143.93 20.90 137.84 23.84 C 135.11 23.68 132.38 23.55 129.67 23.16 C 128.08 23.83 126.50 24.49 124.90 25.12 C 124.21 24.94 122.83 24.58 122.15 24.39 C 121.86 26.16 121.58 27.93 121.30 29.69 C 140.53 27.15 159.76 24.62 179.00 22.23 L 179.00 22.54 C 175.64 25.49 173.56 29.54 170.78 33.00 C 164.20 32.98 157.62 33.40 151.06 33.91 C 139.67 34.18 128.27 34.92 116.94 35.73 C 104.25 35.71 91.60 37.00 78.91 37.24 C 72.98 37.37 67.00 38.70 61.09 37.55 C 57.79 36.97 54.47 36.45 51.19 35.79 C 47.04 38.40 42.11 39.70 37.22 38.93 C 33.81 36.14 37.22 31.44 37.02 27.85 C 37.51 26.27 35.30 26.25 34.48 25.48 C 33.14 31.71 31.86 39.64 24.95 42.03 C 25.04 41.43 25.24 40.23 25.34 39.63 C 29.55 36.85 30.70 31.69 31.72 27.09 C 32.42 24.77 30.81 22.62 30.96 20.32 C 31.91 18.96 33.53 18.93 35.01 18.74 C 35.22 19.98 35.42 21.22 35.62 22.46 C 37.44 23.09 39.25 23.74 41.07 24.35 C 42.06 28.25 39.90 31.99 39.80 35.88 C 43.00 37.26 46.10 36.09 48.96 34.52 C 45.92 30.49 45.79 24.18 49.81 20.73 C 52.19 18.28 57.49 17.55 58.76 21.48 C 59.89 25.95 56.56 29.90 54.20 33.36 C 56.60 33.85 59.20 34.47 61.59 33.71 C 65.48 30.23 67.50 25.25 69.46 20.55 C 69.13 18.97 68.85 17.39 68.60 15.80 C 70.01 15.06 71.31 13.77 73.02 13.90 C 75.16 15.10 73.23 17.49 73.20 19.30 C 74.49 21.11 76.37 22.64 76.95 24.87 C 77.50 27.15 76.58 29.38 75.96 31.53 C 79.14 31.08 83.05 29.49 83.72 25.96 C 84.29 23.03 84.63 20.06 84.91 17.10 C 84.05 17.16 82.33 17.29 81.47 17.35 C 82.52 16.28 83.71 15.40 85.04 14.69 C 86.02 11.64 85.61 8.34 86.45 5.30 C 87.44 3.61 89.32 3.97 90.89 4.52 C 90.24 7.81 89.73 11.12 89.01 14.40 C 90.54 14.19 92.06 14.00 93.59 13.84 C 93.29 16.32 90.83 16.08 88.96 16.42 C 88.09 20.00 87.93 23.69 87.92 27.36 C 90.93 28.28 94.25 28.40 97.09 26.86 C 96.69 25.88 96.28 24.89 95.88 23.91 C 96.77 19.29 98.36 14.19 102.64 11.62 C 104.72 10.24 107.29 10.45 109.63 10.89 C 110.04 8.42 112.54 9.03 114.37 8.84 C 113.52 14.22 110.94 19.45 111.87 25.00 C 114.31 24.65 117.40 24.29 118.66 21.81 C 121.01 16.68 119.09 10.80 120.51 5.52 C 120.93 3.68 123.13 4.18 124.49 3.69 C 124.23 7.33 123.65 10.94 122.97 14.52 C 124.29 12.32 125.34 9.96 126.84 7.88 C 128.63 5.21 133.44 4.93 134.85 8.12 C 136.83 12.64 134.12 17.30 131.59 20.96 C 133.80 20.96 136.01 20.98 138.22 21.06 C 141.72 18.03 142.77 13.36 143.73 9.05 C 144.40 6.74 142.81 4.61 142.96 2.32 M 127.33 10.27 C 124.64 13.25 123.56 17.28 122.81 21.13 C 124.79 20.29 126.88 19.84 129.04 20.06 C 131.27 16.95 133.05 12.62 130.63 9.11 C 129.47 9.31 128.15 9.28 127.33 10.27 M 105.02 14.19 C 101.88 16.95 99.25 21.95 101.23 26.02 C 103.71 26.60 105.35 24.35 106.25 22.38 C 106.58 23.01 106.91 23.63 107.22 24.26 C 105.48 27.74 102.02 30.31 97.97 29.18 C 93.79 31.20 88.60 32.06 84.40 29.53 C 82.28 31.38 80.00 33.81 77.03 33.95 C 72.73 33.30 68.44 36.84 64.31 34.27 C 63.13 35.19 61.93 36.09 60.75 37.01 C 63.11 37.02 65.49 37.03 67.82 36.65 C 84.47 34.26 101.22 32.51 117.84 29.94 C 118.02 28.41 118.23 26.88 118.47 25.36 C 115.83 26.57 112.97 27.82 110.00 27.51 C 107.13 26.54 108.97 22.19 105.46 21.56 L 109.44 23.06 C 108.50 22.43 107.53 21.84 106.61 21.19 C 108.34 18.88 108.82 15.96 109.68 13.27 C 108.05 13.07 106.22 12.72 105.02 14.19 M 52.47 22.48 C 50.64 25.33 50.57 29.05 52.40 31.93 C 55.14 29.46 57.95 24.53 55.04 21.26 C 54.40 21.56 53.11 22.17 52.47 22.48 M 70.59 23.27 C 69.79 25.87 68.35 28.19 66.95 30.49 C 67.89 31.25 68.81 32.02 69.73 32.81 C 73.74 30.66 73.07 25.85 71.45 22.37 C 71.24 22.60 70.80 23.05 70.59 23.27 Z" />
<path fill="#ffffff" opacity="1.00" d=" M 15.36 12.99 C 18.03 12.82 21.12 12.63 23.01 14.94 C 26.64 19.36 25.85 25.90 23.84 30.87 C 22.30 34.99 17.89 37.42 13.59 37.07 C 12.75 42.01 12.71 48.04 8.50 51.48 C 5.58 53.65 1.68 51.36 1.06 48.07 C -0.73 38.88 1.71 29.26 6.15 21.16 C 8.13 17.42 11.47 14.60 15.36 12.99 M 12.09 19.04 C 6.64 24.92 5.35 33.20 4.30 40.84 C 3.88 43.38 4.31 46.01 6.00 48.01 C 7.12 47.08 8.27 46.06 8.52 44.55 C 9.85 38.74 9.63 32.73 8.86 26.86 C 10.05 25.67 11.38 24.66 12.80 23.76 C 13.32 27.23 14.01 30.67 14.25 34.18 C 20.96 32.35 22.17 23.18 19.29 17.76 C 17.27 15.12 13.85 17.18 12.09 19.04 Z" />
</g>
</svg>
