<svg xmlns="http://www.w3.org/2000/svg" xmlns:xlink="http://www.w3.org/1999/xlink" width="0" height="0" style="position:absolute">

<symbol id="arrow-lang" viewBox="0 0 32 43">
        <g fill="#E57777"><path d="M31.25 0H32v8.75l-.77.73C29.16 24.31 16.85 35.91 3.45 41.26l.24-.93c9.54-4.76 18.82-11.31 23.54-21.2C30.37 13.24 31.1 6.56 31.25 0z"/><path d="M4.18 33.07l.98-.25c-.42 3.24-2.95 5.89-3.17 9.13 3.15.64 7.24-1.29 9.74 1.05H0v.2c1.41-3.37 2.88-6.71 4.18-10.13z"/></g>
</symbol>

<symbol id="arrow-left" viewBox="0 0 109 47">
        <g fill="#E57777"><path d="M53.87 1h.98c2.19 12.02 9.47 22.8 19.46 29.73 6.97 4.88 15.04 7.96 23.31 9.8 2.05.49 4.32.29 6.09 1.63-6.91-.06-13.58-2.47-19.94-5-15-6.31-27.09-19.92-29.9-36.16z"/><path d="M106.31 42.99c-1.93-3.25-5.47-5.52-6.41-9.3 3.03 3.18 5.84 6.56 8.45 10.09-3.65.77-7.2 1.91-10.82 2.78l.98.44h-3.29c3.39-2.11 7.39-2.67 11.09-4.01z"/></g>
</symbol>

<symbol id="arrow-logo" viewBox="0 0 28.573792 63.505787">
        <g transform="translate(-.898 -.614)" stroke="#e57777" fill="none" stroke-linecap="round"><path d="M3.506 1.12c0 1.948-12.27 32.33 22.396 59.4M26.487 51.95l2.337 11.492-11.686-2.92"/></g>
</symbol>

<symbol id="arrow-right" viewBox="0 0 54 47">
        <g fill="#E57777"><path d="M53.11 1.2L54 .07v2.01c-1.35 4.89-3.11 9.74-5.84 14.08C38.98 31.03 21.77 39 5 41.02v-1c9.36-1.2 18.69-4.13 26.78-9.19 10.7-6.5 18.6-17.39 21.33-29.63z"/><path d="M8.32 32.09l1-.33C7.79 35.78 3.72 38.17 1.95 42c3.66 1.32 7.5 2.51 11.37 3.16l-.43.95C8.52 45.55 4.4 43.41 0 42.87v-.38c2.59-3.62 5.66-6.84 8.32-10.4z"/></g>
</symbol>

<symbol id="icon-arrow-right" viewBox="0 0 451.846 451.847">
        <path d="M345.44 248.292l-194.286 194.28c-12.36 12.366-32.397 12.366-44.75 0-12.354-12.353-12.354-32.39 0-44.743l171.914-171.91-171.91-171.903c-12.353-12.36-12.353-32.394 0-44.748 12.355-12.36 32.392-12.36 44.75 0l194.288 194.283c6.177 6.18 9.262 14.27 9.262 22.366 0 8.098-3.09 16.195-9.267 22.372z"/>
</symbol>

<symbol id="icon-fb" viewBox="0 0 470.513 470.513">
        <path d="M271.52 154.17v-40.54c0-6.087.28-10.8.85-14.13.567-3.336 1.857-6.616 3.86-9.854 1.998-3.236 5.235-5.47 9.705-6.708 4.476-1.24 10.424-1.858 17.85-1.858h40.54V0h-64.81c-37.5 0-64.433 8.897-80.803 26.69-16.368 17.8-24.55 44.015-24.55 78.66v48.82h-48.543v81.085h48.538V470.51h97.362V235.257h64.805l8.566-81.086h-73.37z"/>
</symbol>

<symbol id="icon-price" viewBox="0 0 390.717 390.717">
        <path d="M148.732 189.01c.445 2.383 1.444 4.596 2.983 6.47 1.544 1.88 3.54 3.688 5.8 4.647 2.153.915 4.583.753 6.832.326 2.522-.48 4.97-1.334 7.328-2.34 1.978-.843 4.11-1.886 6.344-3.07l-24.325-24.325c-3.4 5.244-6.152 11.933-4.963 18.293zM238.334 193.454c-1.824-1.202-3.858-1.948-6.05-2.048-2.354-.108-4.692.394-6.925 1.095-4.862 1.528-9.366 4.014-13.748 6.57l26.88 26.88c4.996-6.267 9.416-14.774 7.115-22.988-1.098-3.92-3.902-7.288-7.273-9.508z"/><path d="M384.858 234.605L167.433 17.18c-3.336-3.337-7.746-5.386-12.45-5.786L21.694.072C15.82-.428 10.024 1.69 5.856 5.858S-.427 15.82.072 21.692l11.322 133.292c.4 4.703 2.45 9.113 5.786 12.45l217.426 217.424c7.81 7.81 20.473 7.81 28.283 0l121.97-121.97c7.81-7.81 7.81-20.472-.002-28.283zM82.285 82.285c-5.697 5.7-14.937 5.698-20.635 0L46.223 66.858c-5.698-5.698-5.698-14.937 0-20.635 5.698-5.698 14.937-5.698 20.635 0L82.285 61.65c5.698 5.7 5.7 14.937 0 20.636zm184.53 130.264c-1.343 10.576-6.67 20.2-13.493 28.228l7.872 7.872c2.106 2.105 3.224 5.062 3.04 8.035-.25 4.086-2.96 7.742-6.803 9.16-3.792 1.4-8.16.445-11.02-2.412l-8.604-8.604c-1.516 1.03-3.066 2.008-4.66 2.914-8.85 5.034-19.004 7.755-29.207 6.958-5.085-.397-10.106-1.6-14.786-3.638-1.223-.533-2.423-1.118-3.597-1.753-1.062-.573-2.145-1.153-3.085-1.92-1.577-1.283-2.753-3.026-3.36-4.968-1.25-3.99.055-8.462 3.266-11.148 3.16-2.644 7.717-3.173 11.396-1.32 1.133.57 2.198 1.253 3.357 1.78 1.15.52 2.344.96 3.564 1.288 2.404.647 4.91.955 7.398.91 5.128-.1 10.092-1.79 14.532-4.283l-29.248-29.25c-8.538 5.025-17.807 9.76-27.76 11.006-4.838.604-9.778.284-14.404-1.317-4.883-1.69-9.204-4.69-12.867-8.3-3.72-3.663-6.677-8.023-8.5-12.927-1.707-4.593-2.46-9.498-2.256-14.388.433-10.456 4.87-20.483 11.097-28.764l-.643-.643-7.53-7.53c-2.104-2.104-3.223-5.062-3.04-8.034.25-4.086 2.96-7.743 6.804-9.162 3.792-1.4 8.162-.444 11.02 2.415l7.53 7.528.598.6c1.09-.846 2.2-1.664 3.33-2.45 8.413-5.833 18.322-9.858 28.666-9.934 4.9-.036 9.818.843 14.4 2.583 1.28.485 2.53 1.04 3.748 1.66 1.14.578 2.303 1.18 3.332 1.94 1.64 1.215 2.9 2.91 3.597 4.83 1.425 3.932.32 8.447-2.764 11.276-3.03 2.778-7.556 3.518-11.31 1.842-1.117-.498-2.127-1.196-3.25-1.687-1.134-.497-2.324-.86-3.535-1.12-2.35-.504-4.774-.53-7.15-.172-5.152.776-9.884 3.23-14.112 6.183l27.988 27.988c5.29-3.246 10.676-6.402 16.375-8.88 8.62-3.743 18.21-5.86 27.475-3.342-1.44-.396-2.845-.78.05.012 2.84.78 1.486.41.062.02 7.412 2.05 13.947 6.822 18.736 12.777 6.353 7.9 9.022 18.12 7.75 28.14z"/>
</symbol>

<symbol id="icon-search" viewBox="0 0 485.213 485.213">
        <path d="M471.882 407.567L360.567 296.243c-16.586 25.795-38.536 47.734-64.33 64.32L407.56 471.89c17.772 17.768 46.587 17.768 64.32 0 17.774-17.74 17.774-46.554.002-64.32zM363.91 181.955C363.91 81.473 282.44 0 181.955 0 81.474 0 0 81.473 0 181.955s81.474 181.95 181.956 181.95c100.484 0 181.953-81.468 181.953-181.95zm-181.954 136.46c-75.252 0-136.465-61.207-136.465-136.46 0-75.25 61.214-136.464 136.466-136.464 75.25 0 136.468 61.214 136.468 136.466 0 75.252-61.218 136.46-136.468 136.46z"/><path d="M75.817 181.955h30.322c0-41.803 34.013-75.814 75.815-75.814V75.817c-58.517 0-106.138 47.62-106.138 106.14z"/>
</symbol>

<symbol id="icon-tw" viewBox="0 0 449.956 449.956">
        <path d="M449.956 85.657c-17.702 7.614-35.408 12.37-53.102 14.28 19.985-11.992 33.503-28.932 40.546-50.82-18.28 10.847-37.787 18.268-58.532 22.267-18.274-19.414-40.73-29.125-67.383-29.125-25.502 0-47.246 8.99-65.24 26.98-17.984 17.986-26.977 39.73-26.977 65.234 0 6.85.76 13.896 2.284 21.128-37.688-1.903-73.042-11.372-106.068-28.407C82.46 110.158 54.434 87.46 31.404 59.1c-8.376 14.273-12.565 29.788-12.565 46.537 0 15.798 3.71 30.456 11.137 43.97 7.422 13.512 17.417 24.455 29.98 32.83-14.85-.57-28.743-4.474-41.684-11.707v1.142c0 22.27 6.995 41.824 20.983 58.674C53.246 247.394 70.9 258 92.216 262.38c-7.994 2.09-16.085 3.137-24.268 3.137-5.33 0-11.136-.475-17.416-1.42 5.9 18.46 16.75 33.633 32.546 45.535 15.8 11.896 33.69 18.028 53.677 18.418-33.498 26.262-71.66 39.393-114.486 39.393-8.187 0-15.608-.373-22.27-1.14C42.825 393.9 90.03 407.7 141.61 407.7c32.74 0 63.48-5.18 92.21-15.557 28.747-10.368 53.298-24.266 73.666-41.685 20.362-17.415 37.925-37.448 52.674-60.097 14.75-22.65 25.738-46.298 32.977-70.946 7.23-24.653 10.848-49.344 10.848-74.092 0-5.33-.096-9.325-.287-11.99 18.087-13.128 33.504-29.024 46.258-47.673z"/>
</symbol>

<symbol id="icon-vk" viewBox="0 0 548.358 548.358">
        <path d="M545.45 400.298c-.663-1.43-1.282-2.618-1.857-3.57-9.514-17.134-27.695-38.166-54.532-63.1l-.566-.572-.284-.28-.287-.287h-.288c-12.18-11.612-19.893-19.42-23.123-23.416-5.91-7.614-7.234-15.32-4.004-23.13 2.282-5.9 10.854-18.36 25.696-37.397 7.807-10.09 13.99-18.175 18.556-24.267 32.93-43.78 47.208-71.756 42.828-83.94l-1.7-2.846c-1.144-1.714-4.094-3.282-8.847-4.712-4.763-1.427-10.852-1.663-18.277-.712l-82.224.568c-1.333-.472-3.235-.428-5.713.144-2.475.572-3.713.86-3.713.86l-1.43.714-1.137.86c-.952.567-2 1.566-3.142 2.994-1.137 1.423-2.088 3.093-2.848 4.996-8.952 23.03-19.13 44.444-30.553 64.238-7.043 11.803-13.51 22.032-19.418 30.693-5.9 8.658-10.848 15.037-14.842 19.126-4 4.093-7.61 7.372-10.852 9.85-3.237 2.477-5.708 3.524-7.42 3.14-1.714-.382-3.33-.762-4.858-1.142-2.663-1.713-4.805-4.044-6.42-6.994-1.622-2.95-2.714-6.663-3.285-11.136-.57-4.476-.905-8.326-1-11.563-.09-3.233-.05-7.806.144-13.706.198-5.902.287-9.896.287-11.99 0-7.234.142-15.085.425-23.555.288-8.47.52-15.18.716-20.125.195-4.95.285-10.185.285-15.705s-.336-9.85-1-12.99c-.656-3.14-1.663-6.185-2.99-9.138-1.335-2.95-3.29-5.232-5.853-6.852-2.57-1.618-5.763-2.902-9.564-3.856-10.09-2.284-22.936-3.52-38.547-3.71-35.4-.38-58.147 1.905-68.235 6.854-3.997 2.09-7.614 4.948-10.848 8.562-3.427 4.19-3.905 6.475-1.43 6.85 11.42 1.712 19.507 5.805 24.266 12.276l1.715 3.43c1.334 2.473 2.666 6.853 4 13.133 1.33 6.28 2.19 13.227 2.567 20.837.95 13.897.95 25.793 0 35.69-.953 9.9-1.853 17.606-2.712 23.126-.86 5.52-2.143 9.993-3.855 13.418-1.715 3.426-2.856 5.52-3.428 6.28-.57.76-1.047 1.24-1.425 1.427-2.474.948-5.047 1.43-7.71 1.43-2.667 0-5.9-1.333-9.707-4-3.805-2.665-7.754-6.327-11.847-10.99-4.092-4.666-8.708-11.185-13.85-19.56-5.136-8.373-10.466-18.27-15.986-29.69l-4.567-8.282c-2.855-5.327-6.755-13.085-11.704-23.266-4.952-10.185-9.33-20.037-13.134-29.554-1.522-3.997-3.807-7.04-6.852-9.134l-1.43-.86c-.95-.76-2.474-1.566-4.566-2.426-2.095-.86-4.28-1.475-6.567-1.854l-78.23.568c-7.993 0-13.417 1.81-16.273 5.428l-1.143 1.71c-.572.954-.86 2.476-.86 4.57 0 2.095.57 4.665 1.714 7.708 11.42 26.84 23.84 52.725 37.257 77.66 13.42 24.933 25.08 45.018 34.974 60.236 9.897 15.23 19.985 29.602 30.264 43.112 10.28 13.515 17.083 22.176 20.412 25.98 3.333 3.813 5.95 6.663 7.854 8.566l7.14 6.85c4.567 4.57 11.275 10.042 20.126 16.417 8.853 6.38 18.654 12.66 29.408 18.85 10.756 6.182 23.27 11.226 37.546 15.127 14.275 3.905 28.17 5.472 41.684 4.716h32.834c6.66-.575 11.704-2.67 15.133-6.283l1.136-1.43c.765-1.137 1.48-2.902 2.14-5.277.668-2.38 1-5 1-7.85-.195-8.184.428-15.56 1.852-22.125 1.423-6.564 3.045-11.513 4.86-14.846 1.812-3.33 3.858-6.14 6.135-8.418 2.282-2.283 3.908-3.666 4.862-4.142.947-.48 1.704-.804 2.275-1 4.568-1.52 9.944-.047 16.136 4.43 6.188 4.473 11.99 9.996 17.42 16.56 5.424 6.57 11.942 13.94 19.554 22.124 7.617 8.186 14.277 14.27 19.985 18.274l5.707 3.426c3.812 2.286 8.76 4.38 14.853 6.283 6.08 1.9 11.41 2.377 15.984 1.426l73.087-1.14c7.23 0 12.855-1.197 16.845-3.572 3.998-2.38 6.373-5 7.14-7.85.763-2.855.804-6.093.144-9.713-.678-3.61-1.345-6.135-2.01-7.562z"/>
</symbol>

<symbol id="logo" viewBox="0 0 143.2 42.399998">
        <style id="akstyle4">.style0{fill: #000000;}</style><g class="style0" id="akg8" transform="matrix(.1435 0 0 .15894 -.086 -.318)"><path d="M525.6 3.1c-5.2 1.2-9.7 4.1-11.7 7.6-.9 1.5-3.1 8-4.8 14.3-1.7 6.3-5.3 18.5-7.9 27l-4.8 15.5-6.4 1.3c-7.6 1.5-10.4 3.7-12.5 10.3-2.5 7.4-.2 11.3 6.3 10.8 6-.5 6.3-.2 5.6 3.8-1.6 9.1-10.7 38.4-13.9 44.8-3.7 7.6-9.7 14.4-15 16.9-5 2.4-14.4 4.1-15.6 2.9-.7-.7-.1-3 2.1-7.3 3.7-7.3 6-17 6-25.5 0-9.9-5.9-24-13.6-32.5-1.9-2.1-3.4-4.5-3.4-5.4 0-.9 1.5-3.6 3.4-6.1 4.7-6.1 6.5-14.2 4.5-19.8-2-5.7-5.5-8-12.3-7.9-10.3.1-21.5 7.1-26.2 16.3-2.7 5.4-3.2 12.6-1.3 18.9.7 2.1.9 4.9.5 6.3-.9 3.7-26.8 42.9-34 51.6-14.7 17.5-25.1 25.1-34.8 25.1-5.1 0-9.8-1.6-9.8-3.4 0-.6 3.1-4.5 6.8-8.6 16.8-18.4 26.2-38.6 26.2-55.9 0-28.2-29.7-34.8-58.4-13.1-7.8 5.9-14.9 14.7-19.6 24.5-5.5 11.3-7.3 19.1-7.4 31.5-.1 9.2.3 11.5 2.8 18.3 1.5 4.2 2.6 8.3 2.3 9-.7 1.9-14.3 5.9-21.7 6.5-3.6.2-8.1 0-10-.5-5.7-1.5-5.3-4.2 4.8-29.5 4.9-12.3 9.2-24 9.5-26 1.4-9.4-3.7-15.5-19.5-23.1L231 96.5v-7.6c0-6.3-.4-8.1-2.2-10.4-2.4-3.1-7.4-5.5-11.5-5.5-7.8 0-19.5 9.3-21 16.7-1.4 7-.8 13.6 1.6 17.8l2.2 4-7.4 18.5c-4.1 10.2-8.9 21.5-10.6 25.3-8.7 19.1-18 30.6-29.6 36.3-7.9 3.9-8.4 4.8-9.9 16.1-.9 6.1-.1 7.3 4.8 7.3 7.9 0 24.3-9.7 34.4-20.3 10.1-10.7 16-21.4 27.7-50.2 8.6-21.1 9.4-22.1 14-19.1 4 2.6 3.3 7.1-3.9 25.1-6.7 16.5-10.6 29.6-10.6 34.9.1 8.1 6.4 15 16 17.7 14.7 4.1 47.9-1.4 64.7-10.7 3.4-1.9 7-3.4 8-3.4s4.3 1.2 7.3 2.7c4.9 2.3 7 2.7 18.6 3.1 17 .6 21.4-.4 31.7-7.1 4.5-3 8.7-5.7 9.3-6 .7-.4 4.1.7 7.7 2.3 12.3 5.8 30.4 4.7 45-2.7 4.6-2.3 5.5-2.4 10.1-1.5 9.5 2 14.1 2.3 20.3 1.3 7.7-1.2 21.7-7.7 28.5-13.1 2.8-2.2 5.4-4 5.8-4 .4 0 1.8.8 3.1 1.9 4.1 3.1 6.6 4.1 15.1 5.7 14.7 2.8 29.7.6 46-6.8l6.7-3.1 5 2.2c12.9 5.5 30.6-.3 45.2-14.8 4.2-4.2 8.1-8.5 8.6-9.5 1.5-2.7 3.3-1.1 3.3 2.9 0 7.2 3.2 10.3 13.6 13 7.9 2 24.6 2 30.8-.1 2.6-.9 5-1.3 5.3-1 1.1 1.1-6 24.3-8.1 26.3-.3.3-114.5 15.2-253.7 33.2-139.2 17.9-252.5 32.7-251.8 32.8.8.2 174.4-8.4 385.8-19.1 302.7-15.3 384.6-19.7 385.7-20.7 3.1-3.3 47.4-65.4 46.7-65.6-.5-.2-63.6 7.8-140.3 17.7-76.6 9.9-139.6 17.7-139.8 17.5-.8-.8 5.8-27.1 7.3-29.1 1.2-1.7 1.8-1.7 5.9-.6 9.2 2.4 19.1.9 31.8-5l6.6-3 5.9 2.2c4.2 1.6 8.8 2.4 16.9 2.7 12.4.6 19-.9 29.2-6.8 17.5-10 35-35.2 46.5-67 7.2-19.9 7.5-20.2 13.2-15.7 3.6 2.8 3.2 5.9-3.4 21.4-13.9 33.1-14.9 44.9-4.1 52.1 10.5 7.2 32.1 6.1 56-2.7 4.7-1.7 8.9-3.5 9.5-4.1 1.4-1.4 3.8-1.1 8.6 1 10.2 4.5 25.2 3.3 36.9-3 12.7-6.8 26.7-25.4 35-46.5 6.4-16.5 7.4-21.3 7.5-35.9 0-15.5-1.6-20.9-7.3-25.3-3.2-2.4-4.4-2.7-11.8-2.7-7.3 0-8.5-.3-10.8-2.4-2.2-2.1-3.2-2.3-7.9-1.8-5.9.6-16.2 4.9-22.9 9.5-12 8.3-25.7 26.6-31.9 42.5-4.8 12.6-6.1 20.4-5.7 34.7l.3 12.5-7 2.3c-8.8 3-18.7 3.4-21.1 1-1.6-1.6-1.6-2.1-.2-7 .9-2.9 4.7-13 8.6-22.3C891.4 51.7 892 46 885 39c-2.1-2.1-8.5-6.1-14.6-9.1l-10.9-5.4.3-5.6C860.5 7.7 855.4 2 844.7 2c-6.9 0-10.1 1.5-15 6.9-6 6.7-7.6 18.4-3.6 26.3 2.5 5 2.2 7-3 19.2-2.2 5-5.4 12.7-7.1 17.1-4.9 12.6-13.6 27.7-21.9 38.2-5.7 7.2-11.5 10.5-20.1 11.1-7.1.5-12-.2-12-1.7 0-.5 2.9-4.3 6.4-8.4 14.8-17.4 22.6-36.1 22.7-53.9 0-13.3-3.9-20.6-14.1-26.6-4-2.4-5.5-2.7-13.5-2.7-7.9 0-9.7.4-14.8 2.8-6.6 3.3-16.4 11.9-20.9 18.5-5.2 7.5-5.3 3.7-.3-11.8 3.2-10 4.4-15.2 4-17.2-1.9-8.6-17.3-7.9-26.4 1.3-5 5.1-7.9 12.4-11.2 28.2-7.8 37.3-12.7 54.3-19.6 66.7-8.5 15.5-16.1 20.4-26.2 16.9-3-1-3.1-1.3-3.1-6.5 0-9.4 11.6-42.4 22.9-65.3 6.3-12.8 6.9-14.8 5-18.3-2.4-4.5-16-7.9-23.7-5.9-3.4.9-4.7 2-6.8 5.6-2.9 5-4 5.3-10.5 2.9-6.7-2.5-17.1-2.1-25.8.9-11 3.9-17.6 8.2-28.2 18.7-10.7 10.5-18.6 21.8-25.4 36.3-5.8 12.2-7.8 20.3-7.7 30.7 0 4.7-.4 9.3-1 10.3-1.6 3-9.1 5.7-17.5 6.3-7 .5-8.3.3-12.3-1.8-4.2-2.3-4.5-2.7-4.8-7.1-.2-2.7.6-7.9 1.7-12 6.9-24.3 11.9-40.9 12.7-41.7.5-.5 4.9-1.4 9.8-2 11.1-1.4 14.2-2.9 16.7-8.3 2.4-5.4 2.4-9.2 0-11.6-1.6-1.6-3-1.8-11.1-1.3l-9.3.5.6-3c.3-1.7 4-12.7 8.1-24.4 4.2-11.8 7.6-22.7 7.6-24.2 0-4.2-1.5-6.3-6-8.1-4.4-1.8-8.4-1.9-14.4-.5zm434.8 30.1c.9 5.8 2.4 8.1 7.4 11.7 2.3 1.7 4.2 3.9 4.2 4.9 0 1.1-.9 5.4-2 9.8-6.7 26.2-27.1 48.3-36.1 39.3-1.9-1.9-2.1-2.9-1.6-11.3.5-10.9 3.4-20.2 11.2-36.1 5.1-10.3 13.4-22.5 15.4-22.5.5 0 1.2 1.9 1.5 4.2zM756.5 57.4c5.2 5.2 4 18.1-3 32-3.7 7.1-13.7 21.9-15.8 23.3-.7.4-5.5.8-10.7.8-5.2 0-11.3.4-13.4.9l-3.9.9.7-3.4c1-5.2 11.2-25 18.7-36.4 6.8-10.3 12.3-16 18.2-18.9 4.4-2.2 6.4-2 9.2.8zM629.4 68.6c.9.3 1.6 1.5 1.6 2.6 0 2.6-15.9 33.3-22.8 43.8-7.3 11.2-17.5 21.5-22.9 22.9-6.4 1.8-7.3.9-7.3-6.8 0-27.5 34.3-69.1 51.4-62.5zm-294.7 38.9c2 4.2 1.1 8.9-3.8 19.5-4.8 10.3-17.7 26.4-20.4 25.4-1.9-.8-3.5-5.9-3.5-11.5 0-6 5.1-22.1 8.6-27.2 3.1-4.7 10.8-9.7 14.6-9.7 2.3 0 3.2.7 4.5 3.5zm82.9 15.1c1 5.6-.2 19.3-2.3 24.9-1.9 5.3-11.2 15.5-14.1 15.5-.8 0-3.4-2.1-5.8-4.6-4.1-4.4-4.2-4.8-2.9-7.3.7-1.4 2.5-3.7 3.9-5 1.4-1.4 6.2-8 10.7-14.8 4.4-6.8 8.4-12.3 8.9-12.3s1.2 1.6 1.6 3.6z" id="akpath10"/><path d="M120 30.1c-15.4 4-32.5 14.3-45.4 27.2C65 67 48.8 88.3 40 102.9 23.5 130.4 8.7 170 2.4 203.5c-2.4 12.8-2.4 33.2 0 41 3.6 11.8 7.9 18 14.9 21.6 10.2 5.3 25.4 2.5 37.3-6.8 12.7-9.9 26.3-36.7 35.9-70.6l2.8-9.7h8.7c27.2 0 48.6-15 63.3-44.5 24.8-49.9 17-98.1-17.1-105.4-7.9-1.6-19.7-1.2-28.2 1zm16.1 31.7c1.5 1.7 3.2 4.8 3.8 6.9 5.6 21.5-2.8 53.8-18.5 71.1-7.3 8.1-19.8 14.5-21.9 11.2-.3-.5-.1-9.3.4-19.5 1.3-22.5.6-33-2.2-35.8-2.9-2.9-8.7-1.7-16 3.3-3.3 2.2-6.2 3.8-6.5 3.5-2.5-2.5 22.9-30.8 33.8-37.7 8.6-5.4 12.8-6.9 18.9-6.5 4.6.3 5.9.9 8.2 3.5zM67 120.2c0 3.6-2.7 26.9-4.9 42.3C59.8 179 54 203.4 49.9 214c-3.7 9.5-9.6 17.5-12.9 17.5-2.9 0-5-3.4-5-8.2 0-5 2.9-24 5-32.3 2.7-10.4 12.2-38.1 17.1-49.8 8.4-19.7 12.9-27.1 12.9-21z" id="akpath12"/></g>
</symbol>

<symbol id="sketch-front" viewBox="0 0 310 382">
        <path fill="#fff" stroke-width="1.8" d="M0 0h310v382H0z"/><path d="M197.297 35.285c8.32-.13 16.64-.1 24.96-.03l.04 2.92c-8.34.08-16.67.07-25.01-.01 0-.72 0-2.16.01-2.88zM252.307 35.255c8.32-.08 16.66-.06 24.99.02-.02.72-.04 2.16-.05 2.88-8.29.1-16.59.12-24.88 0-.02-.73-.05-2.18-.06-2.9zM144.477 142.465c1.59-.5 2.28 2.16.64 2.49-1.59.5-2.28-2.16-.64-2.49zM164.467 142.465c1.59-.5 2.29 2.15.65 2.49-1.59.5-2.29-2.15-.65-2.49zM15.337 190.255c11.65-.05 23.31-.12 34.97.03-.02.72-.05 2.17-.07 2.9-11.64.05-23.29.09-34.93-.03.01-.73.02-2.17.03-2.9zM91.297 190.275c11.65-.1 23.31-.11 34.96-.01 0 .73-.01 2.18-.01 2.91-11.63.06-23.25.05-34.88.03-.02-.73-.05-2.19-.07-2.93zM166.317 190.255c11.66-.07 23.31-.05 34.96.02.01.72.01 2.18.02 2.9-11.65.07-23.3.09-34.95-.01-.01-.73-.02-2.18-.03-2.91zM242.357 190.235c11.66.01 23.33-.12 34.99.06l-.12 2.91c-11.65-.01-23.3.1-34.96-.06.03-.72.07-2.18.09-2.91zM15.277 195.255c14.68-.07 29.36-.12 44.04.05-.02.71-.05 2.15-.07 2.87-14.63.09-29.25.05-43.88.01-.02-.73-.07-2.2-.09-2.93zM91.317 195.265c14.67-.06 29.33-.12 44 .01-.01.72-.04 2.16-.06 2.87-14.64.11-29.29.1-43.93.03 0-.73-.01-2.18-.01-2.91zM166.367 195.245c14.64-.07 29.28-.04 43.93 0l-.04 2.94c-14.66.04-29.33.11-43.99-.04.03-.73.08-2.18.1-2.9zM242.307 195.255c14.67-.08 29.34-.05 44.01-.01l-.08 2.91c-14.62.12-29.24.08-43.85.02l-.08-2.92zM15.307 200.265c10.33-.09 20.66-.07 30.99.02 0 .72 0 2.17-.01 2.89-10.31.09-20.62.05-30.94-.01l-.04-2.9zM91.337 200.275c10.31-.09 20.63-.14 30.95.01v2.88c-10.32.11-20.64.04-30.96.01 0-.72.01-2.17.01-2.9zM166.347 200.235c10.31-.06 20.62-.03 30.94 0-.01.73-.02 2.19-.03 2.92-10.31.11-20.63.1-30.95.02l.04-2.94zM242.287 200.275c10.34-.13 20.67-.07 31-.02-.01.72-.04 2.16-.06 2.89-10.31.15-20.62.07-30.92.01-.01-.72-.01-2.16-.02-2.88zM15.287 205.245c7.32-.05 14.65-.07 21.97 0 .01.73.02 2.18.03 2.91-7.32.1-14.63.1-21.95.01-.01-.73-.04-2.19-.05-2.92zM91.347 205.275c7.29-.11 14.59-.09 21.89-.03.02.73.05 2.19.07 2.91-7.33.11-14.67.08-22.01.03.02-.73.04-2.18.05-2.91zM166.317 205.285c7.31-.11 14.63-.16 21.94 0l.04 2.88c-7.32.11-14.64.08-21.96 0-.01-.72-.02-2.16-.02-2.88zM242.337 205.265c7.32-.13 14.64-.07 21.96-.02l-.04 2.93c-7.33.11-14.65.07-21.97-.02.01-.72.04-2.17.05-2.89zM15.347 235.265c39.98-.09 79.95-.09 119.92.01.06 13.3.04 26.6-.01 39.9-39.97.07-79.94.07-119.92 0-.08-13.3-.08-26.61.01-39.91zM166.367 235.235c39.96-.03 79.92-.04 119.88 0 .08 13.31.1 26.62-.01 39.93-39.96.12-79.92.04-119.88.03-.09-13.32-.12-26.64.01-39.96zM166.337 290.265c29.31-.11 58.62-.05 87.93-.01l.04 2.9c-29.34.11-58.69.08-88.02.02.01-.73.03-2.18.05-2.91zM15.297 293.265c29.31-.07 58.63-.07 87.94-.04.02.74.05 2.22.06 2.96-29.31.06-58.63.05-87.94-.02-.02-.72-.05-2.18-.06-2.9zM166.307 295.235c14.67-.03 29.33-.07 44 .03-.01.72-.02 2.17-.03 2.89-14.64.11-29.28.08-43.91.02-.02-.73-.04-2.2-.06-2.94zM15.337 298.245c14.64-.05 29.29-.08 43.93.02.01.73.02 2.2.03 2.93-14.65.01-29.3.07-43.94-.03-.01-.73-.01-2.19-.02-2.92zM15.297 328.285c16.66-.11 33.32-.11 49.98-.01 0 8.31.13 16.62-.05 24.93-16.63-.02-33.27.1-49.9-.05-.07-8.29-.05-16.58-.03-24.87zM94.327 328.275c39.97-.1 79.95-.1 119.92-.01.1 8.31.08 16.61 0 24.92-39.96.06-79.93.06-119.9 0-.1-8.31-.09-16.61-.02-24.91zM242.377 328.245c16.61-.03 33.23-.06 49.85-.02.13 8.31.1 16.63.03 24.95-16.63.06-33.27.08-49.91.01-.12-8.32-.09-16.63.03-24.94zM15.317 364.255c14.65-.08 29.3-.06 43.95-.01-.01.74-.02 2.21-.03 2.94-14.63.03-29.27.08-43.9-.01 0-.73-.01-2.19-.02-2.92zM242.297 364.275c14.66-.11 29.33-.12 43.99-.01-.01.72-.01 2.16-.01 2.88-14.66.12-29.32.14-43.98.01v-2.88zM15.307 369.265c9.31-.11 18.63-.07 27.95-.02.01.73.04 2.18.05 2.91-9.33.12-18.66.1-27.99 0 0-.72-.01-2.17-.01-2.89zM94.357 369.245c23.64-.06 47.28-.05 70.91 0v2.91c-23.65.12-47.3.05-70.95.02l.04-2.93zM242.327 369.255c9.32-.1 18.64-.03 27.96-.01v2.92c-9.32.1-18.63.06-27.94.03-.01-.74-.01-2.21-.02-2.94zM94.337 374.265c14.64-.08 29.29-.12 43.93.02.01.72.03 2.15.05 2.87-14.66.11-29.32.08-43.97.02 0-.73-.01-2.18-.01-2.91z" fill="#e8e8e8"/><path d="M189.297 21.225c17.67-.01 35.33-.02 53 0v23.98c-17.66.02-35.33.01-52.99.01-.02-8-.01-16-.01-23.99m1 1c0 7.33-.01 14.66.01 21.99h50.98c.02-7.33.01-14.66.01-21.99-17-.02-34-.01-51 0z" fill="#ffb2b2"/><g transform="translate(.297 2.215)" fill="#b6b6b6"><path d="M197 26.01c13.33-.02 26.67-.01 40-.01v4h-40v-3.99zM252 26c13.33 0 26.67-.01 40 .01V30c-13.34 0-26.67 0-40-.01V26zM15 30.01c8.33-.02 16.67-.02 25 0v2.98c-8.33.01-16.67.02-25 0v-2.98zM55 30.01c8.33-.02 16.67-.02 25 0v2.98c-8.33.02-16.67.01-25 .01v-2.99zM95 30.01c8.33-.02 16.66-.02 25 0v2.98c-8.33.01-16.67.02-25 0v-2.98zM15 179.01c16.66-.02 33.33-.02 50 0v2.98c-16.66.02-33.33.02-50 0v-2.98zM91 179c16.67 0 33.33-.01 50 .01v2.98c-16.67.01-33.33.02-50 0V179zM166 179.01c16.67-.02 33.33-.01 50 0v2.98c-16.67.02-33.33.02-50 0v-2.98zM242 179.01c16.67-.02 33.34-.02 50.01 0 0 .74-.01 2.24-.01 2.98-16.67.02-33.33.01-50 0v-2.98zM15 281.01c31.33-.01 62.67-.02 94 0v2.98c-31.33.01-62.67.02-94 0v-2.98zM166 281.01c31.33-.02 62.66-.01 94 0v2.98c-31.33.02-62.67.01-94 0v-2.98zM15 286.01c11.67-.01 23.34-.02 35.01 0 0 .75-.01 2.24-.01 2.98-11.67.01-23.33.02-35 0v-2.98zM15 357.01c11.67-.02 23.33-.01 35 0v2.98c-11.67.02-23.33.01-35 0v-2.98zM94 357.01c25.33-.02 50.66-.01 76 0 0 .74 0 2.24.01 2.98-25.34.02-50.67.01-76.01 0v-2.98zM242 357.01c11.67-.02 23.33-.02 35 0v2.98c-11.67.01-23.34.02-35 0v-2.98zM94 362.01c11.67-.02 23.33-.02 35 0v2.98c-11.67.01-23.34.02-35 0v-2.98z"/></g><g transform="translate(.297 2.215)" fill="#c1c1c1"><path d="M13.3 108.98c1.9-1.61 3.91-3.1 6.05-4.39-.67 1.48-1.38 2.95-2.1 4.41.71 1.48 1.42 2.95 2.1 4.45-2.15-1.31-4.15-2.83-6.05-4.47zM289.65 104.53c2.13 1.3 4.13 2.79 6.04 4.39-1.87 1.69-3.84 3.25-5.98 4.58.65-1.51 1.32-3.01 2.01-4.5-.7-1.49-1.4-2.97-2.07-4.47z"/></g><g transform="translate(1.967 -.126)"><ellipse ry="13.141" rx="13.127" cy="31.534" cx="155.592" fill="#e8e8e8" stroke="#e8e8e8" stroke-width=".8"/><ellipse ry="16.987" rx="16.963" cy="31.684" cx="155.717" fill-opacity="0" stroke="#ffc9c9" stroke-width="1.424"/></g><path fill="#e8e8e8" stroke-width="1.8" d="M0 65h310v92H0z"/><circle cx="154.625" cy="144.125" r="2.237" fill="#757575" stroke="#757575" stroke-width=".976"/><ellipse cx="164.25" cy="144.125" rx="2.351" ry="2.226" fill-opacity="0" stroke="#757575" stroke-width=".998"/><circle cx="145.125" cy="144.125" r="2.237" fill-opacity="0" stroke="#757575" stroke-width=".976"/><path d="M20.406 105.606l-3.93 3.81 3.93 3.81-3.93-3.81z" fill="#fff" fill-rule="evenodd" stroke="#c4c4c4" stroke-width="1.2"/><path d="M288.368 105.372l4.285 3.878-4.285 3.878" fill="none" fill-rule="evenodd" stroke="#c4c4c4" stroke-width="1.168"/><circle cx="154.625" cy="308.75" r="2.237" fill="#757575" stroke="#757575" stroke-width=".976"/><ellipse cx="164.25" cy="308.75" rx="2.351" ry="2.226" fill-opacity="0" stroke="#757575" stroke-width=".998"/><circle cx="145.125" cy="308.75" r="2.237" fill-opacity="0" stroke="#757575" stroke-width=".976"/>
</symbol>

<symbol id="sketch-left" viewBox="0 0 320 382.00001">
        <g transform="translate(-83.867 -140.585)"><path fill="#fff" stroke-width="1.2" d="M83.867 140.585h320v382h-320z"/><g transform="translate(.614 -163.564)"><path fill-opacity="0" stroke-width="1.2" d="M82.857 303.22h320v382h-320z"/><path d="M100.216 358.437c38.33-.01 76.66-.01 114.99 0 .01 26.99.01 53.99.01 80.98-38.33.02-76.66.01-115 .01v-80.99m5 5.99v70h105v-70h-105zM100.226 550.437c43.66-.01 87.32-.02 130.99 0 0 25.66.01 51.32-.01 76.99h-130.98c-.02-25.67-.01-51.33 0-76.99m5.04 6.02c-.1 13.31-.08 26.62-.01 39.93 39.98.06 79.96.09 119.93-.01.05-13.31.07-26.61-.01-39.91-39.97-.07-79.94-.06-119.91-.01m-.05 47.98v2.98c31.33.02 62.67.01 94 0v-2.98c-31.33-.01-62.67-.02-94 0m0 5v2.98c11.67.02 23.33.02 35 0v-2.98c-11.67-.02-23.33-.02-35 0m.02 5.03c-.02.72-.05 2.17-.07 2.89 29.35.13 58.7.09 88.05.03 0-.73-.01-2.2-.01-2.93-29.33-.04-58.65-.08-87.97.01m-.01 5c0 .73-.01 2.19-.01 2.92 14.67.07 29.34.1 44.01-.02v-2.89c-14.67-.1-29.34-.08-44-.01zM244.386 628.677c1.59-.5 2.29 2.15.65 2.49-1.59.5-2.29-2.15-.65-2.49zM254.386 628.687c1.59-.51 2.29 2.15.65 2.48-1.59.5-2.29-2.16-.65-2.48z" fill="#fff"/><path d="M242.556 319.807c7.88-2.17 16.6 4.37 16.63 12.56.53 7.23-5.74 13.93-12.96 14.05-7.18.44-13.92-5.75-13.98-12.97-.41-6.26 4.23-12.25 10.31-13.64zM287.206 334.477c8.33-.09 16.66-.09 25-.01 0 .73.02 2.18.03 2.9-8.34.12-16.68.09-25.02.02 0-.73-.01-2.18-.01-2.91zM342.216 334.467c8.33-.08 16.67-.1 25.01.01 0 .73-.01 2.18-.01 2.91-8.33.08-16.67.09-25 0v-2.92zM223.206 387.477c11.68-.09 23.35-.09 35.03 0-.01 1.3-.03 2.61-.04 3.92-11.66.05-23.33.08-34.99-.02v-3.9zM223.206 392.487c14.67-.11 29.34-.09 44.01-.02v3.92c-14.67.07-29.34.09-44.01-.02v-3.88zM223.246 397.467c10.32-.07 20.64-.08 30.96 0 .01 1.3.02 2.61.02 3.91-10.34.09-20.69.09-31.04 0 .02-1.31.03-2.61.06-3.91zM223.206 402.477c7.33-.08 14.67-.1 22 0l.03 3.9c-7.34.1-14.68.1-22.02.01-.01-1.31-.01-2.61-.01-3.91zM105.196 459.467c58.07-.06 116.14-.09 174.2.02-.01.72-.02 2.16-.03 2.88-58.05.12-116.09.08-174.13.02l-.04-2.92zM105.206 464.477c73-.08 146.01-.08 219.02 0v2.9c-73 .1-145.99.07-218.99.01-.01-.73-.03-2.19-.03-2.91zM105.206 469.477c51.39-.09 102.79-.08 154.19 0l.08 2.9c-51.42.1-102.84.07-154.25.01-.01-.72-.02-2.18-.02-2.91zM105.206 474.477c34-.14 68.01.02 102.01-.08 2.57.02 5.14.12 7.71.21-.01.67-.03 1.99-.05 2.66-36.55.35-73.11.13-109.67.11v-2.9zM105.206 479.477c60.67-.08 121.35-.1 182.02.01v2.89c-60.68.08-121.36.1-182.03-.01 0-.72.01-2.17.01-2.89zM105.246 484.457c51.39-.05 102.78-.07 154.18.01 0 .73.02 2.18.03 2.91-51.42.09-102.85.08-154.27 0 .02-.73.04-2.19.06-2.92zM105.236 489.467c73-.06 146-.09 218.99.02 0 .72-.01 2.17-.01 2.9-73.01.06-146.03.09-219.04-.02.02-.72.05-2.17.06-2.9zM105.206 494.477c58.09-.08 116.17-.09 174.25 0-.05.73-.14 2.18-.19 2.9-58.01.09-116.03.07-174.04.01 0-.73-.01-2.18-.02-2.91zM105.246 511.467c79.64-.08 159.28-.05 238.92-.01.1 9.97.08 19.95.01 29.93-79.64.07-159.28.07-238.93 0-.07-9.97-.06-19.95 0-29.92m7.97 8c0 1.64 0 3.27-.01 4.91 28.01.08 56.02.09 84.03 0-.01-1.64-.02-3.28-.02-4.91-28-.07-56-.07-84 0zM105.266 556.457c39.97-.05 79.94-.06 119.91.01.08 13.3.06 26.6.01 39.91-39.97.1-79.95.07-119.93.01-.07-13.31-.09-26.62.01-39.93zM256.246 556.467c39.97-.09 79.95-.05 119.92-.01.11 13.31.07 26.62.02 39.93-39.98.07-79.96.08-119.94 0-.07-13.31-.05-26.61 0-39.92zM256.226 611.457c29.34-.03 58.68-.09 88.02.03-.01.72-.03 2.17-.03 2.89-29.33.1-58.66.07-87.98.02-.01-.74-.01-2.21-.01-2.94zM105.236 614.467c29.32-.09 58.64-.05 87.97-.01 0 .73.01 2.2.01 2.93-29.35.06-58.7.1-88.05-.03.02-.72.05-2.17.07-2.89zM256.196 616.477c14.67-.1 29.35-.08 44.02-.01l.04 2.89c-14.68.13-29.36.1-44.04.02-.01-.72-.01-2.17-.02-2.9zM105.226 619.467c14.66-.07 29.33-.09 44 .01v2.89c-14.67.12-29.34.09-44.01.02 0-.73.01-2.19.01-2.92z" fill="#e8e8e8"/><path d="M287.216 327.437c13.33-.02 26.66-.01 40 0v3.98c-13.33.02-26.67.01-40 0 0-1.32-.01-2.65 0-3.98zM342.216 327.437c13.33-.02 26.66-.01 40-.01v4c-13.34 0-26.67.01-40-.01-.01-1.33-.01-2.66 0-3.98zM105.216 331.437c8.33-.02 16.67-.02 25 0v2.98c-8.33.02-16.67.02-25 0v-2.98zM145.216 331.437c8.33-.02 16.67-.02 25 0v2.98c-8.33.02-16.67.02-25 0v-2.98zM185.216 331.437c8.33-.02 16.67-.02 25 0v2.98c-8.33.02-16.67.02-25 0v-2.98zM105.216 364.427h105v70h-105v-70zM223.216 364.427h119c-.01 2.33-.01 4.66 0 7-39.66.01-79.33 0-119 0 .01-2.33.01-4.67 0-7zM223.216 373.427h84c-.01 2.67 0 5.33.01 8-28.01 0-56.01.01-84.01-.01v-7.99zM105.216 449.427c28-.01 56 0 84 0v5h-84v-5zM198.216 449.427c16.33-.01 32.67 0 49 0 0 1.67-.01 3.33 0 5h-49v-5zM105.216 604.437c31.33-.02 62.67-.01 94 0v2.98c-31.33.01-62.67.02-94 0v-2.98zM256.216 604.437c31.33-.01 62.67-.02 94 0v2.98c-31.33.02-62.67.02-94 0v-2.98zM105.216 609.437c11.67-.02 23.33-.02 35 0v2.98c-11.67.02-23.33.02-35 0v-2.98z" fill="#b6b6b6"/><g transform="translate(85.216 301.427)" fill="#ffb2b2"><path d="M14.01 56H131v83H14.01c-.02-27.67-.01-55.33 0-83m.99 1.01V138c38.34 0 76.67.01 115-.01 0-26.99 0-53.99-.01-80.98C91.66 57 53.33 57 15 57.01zM14.01 248H147c0 26.33.01 52.67-.01 79-44.33 0-88.66.01-132.99-.01 0-26.33-.01-52.66.01-78.99m1 1.01c-.01 25.66-.02 51.32 0 76.99h130.98c.02-25.67.01-51.33.01-76.99-43.67-.02-87.33-.01-130.99 0z"/></g><g transform="translate(85.216 301.427)" fill="#d9d9d9"><path d="M137.98 118.02c12.01-.04 24.02-.05 36.04 0-.03 2.32-.03 4.65-.02 6.97-12 .01-24 .03-36 0 .01-2.33 0-4.65-.02-6.97zM181.99 118.01c6.01-.03 12.01-.03 18.02.01-.02 2.32-.02 4.64 0 6.96-6.01.04-12.01.03-18.01.02.01-2.33.01-4.66-.01-6.99z"/></g><path d="M113.216 519.467c28-.07 56-.07 84 0 0 1.63.01 3.27.02 4.91-28.01.09-56.02.08-84.03 0 .01-1.64.01-3.27.01-4.91z" fill="#d1d1d1"/><g transform="translate(85.216 301.427)" fill="#757575"><path d="M148.12 326.38c1.73-1.22 4.4.58 3.81 2.6-.2 1.55-2.37 2.67-3.63 1.65-1.69-.81-1.64-3.24-.18-4.25zM158.23 326.33c2.76-1.69 5.38 2.8 2.53 4.34-2.73 1.72-5.33-2.81-2.53-4.34m.94.92c-1.64.34-.94 2.99.65 2.49 1.64-.34.94-2.99-.65-2.49zM168.29 326.3c2.75-1.65 5.31 2.92 2.43 4.39-2.77 1.67-5.28-2.91-2.43-4.39m.88.96c-1.64.32-.94 2.98.65 2.48 1.64-.33.94-2.99-.65-2.48z"/></g><path fill="#d1d1d1" stroke-width="1.2" d="M112.657 527.362H182.5v3.036h-69.843zM112.657 531.47h41.45v3.213h-41.45z"/></g></g>
</symbol>

<symbol id="sketch-right" viewBox="0 0 310 382">
        <path fill="#fff" stroke-width="1.8" d="M0 .207h310v382H0z"/><path d="M159.683 15.824c6.772-1.89 14.435 2.86 15.85 9.99 1.752 6.97-2.8 14.73-9.65 16.22-6.713 1.85-14.29-2.82-15.77-9.86-1.803-6.97 2.72-14.81 9.57-16.35zM202.996 30.484c8.08-.14 16.16-.09 24.248.01-.03.72-.068 2.17-.097 2.9-8.03.05-16.062.11-24.093-.01-.01-.73-.04-2.18-.058-2.9zM256.355 30.464c8.06-.05 16.12-.11 24.18.02-.03.73-.068 2.18-.087 2.91-8.03.05-16.062.06-24.084-.02 0-.72-.01-2.18-.01-2.91zM26.742 60.464c16.12-.05 32.23-.1 48.35.02.058 8.3.136 16.61-.01 24.91-16.12.03-32.25.12-48.37-.05-.01-8.3-.077-16.59.03-24.88zM101.355 60.464c16.11-.09 32.22-.06 48.33 0 .088 8.3.107 16.61 0 24.92-16.13.03-32.26.16-48.388-.06.02-8.28-.05-16.57.058-24.86zM175.948 60.474c16.1-.1 32.202-.08 48.312-.01.155 8.31.068 16.61.048 24.92-16.12.06-32.24.07-48.36.02-.087-8.31-.126-16.62 0-24.93zM238.898 60.454c18.706-.06 37.403-.05 56.11.02.03 30.62.106 61.24-.01 91.86-18.687.2-37.384.05-56.08.07-.108-30.65-.08-61.3-.02-91.95m5.773 5.98c0 1.32-.01 2.65-.01 3.97 12.924.04 25.838.03 38.76.01 0-1.33 0-2.65.01-3.97-12.922-.04-25.836-.03-38.76-.01zM37.388 91.474c9.04-.09 18.087-.09 27.125.04l-.077 2.83c-9.01.12-18.03.17-27.038.01 0-.72-.01-2.16-.01-2.88zM111.953 91.484c9.03-.14 18.067-.05 27.096-.02 0 .73-.01 2.19-.02 2.92-9.01.08-18.03.08-27.048-.01-.01-.72-.02-2.16-.03-2.89zM186.643 91.434c9 0 18.01-.08 27.01.04-.01.73-.02 2.19-.03 2.91-9.02.07-18.048.08-27.076 0 .02-.74.077-2.21.096-2.95zM26.77 116.484c16.1-.1 32.212-.11 48.312-.01.116 8.31.097 16.61-.02 24.92-16.09.08-32.19.03-48.282-.01-.155-8.3-.106-16.6-.01-24.9zM101.316 116.494c16.13-.13 32.26-.1 48.39-.02.047 8.3.067 16.59.01 24.88-16.12.12-32.24.08-48.36.02-.127-8.3-.078-16.59-.04-24.88zM175.9 116.474c16.12-.1 32.24-.06 48.36-.02.136 8.31.097 16.62.03 24.93-16.11.07-32.23.08-48.342-.01-.097-8.3-.087-16.6-.048-24.9zM29.61 145.474c14.19-.08 28.383-.1 42.576 0 0 .72.01 2.16.01 2.87-14.193.16-28.395.11-42.597.02 0-.72.01-2.16.01-2.89zM104.222 145.454c14.183-.05 28.375-.09 42.567.02v2.91c-14.183.1-28.376.03-42.558.03 0-.74-.01-2.22-.01-2.96zM178.845 145.474c14.183-.11 28.375-.05 42.557.01-.01.72-.01 2.17-.02 2.89-14.19.09-28.393.09-42.585-.01.01-.72.038-2.17.048-2.89zM238.898 160.484c18.706-.09 37.413-.09 56.11-.02.03 36.3.097 72.61.02 108.91-18.707.1-37.414.05-56.12.02-.117-36.3-.05-72.61-.01-108.91m5.764 84.96c0 1.32.01 2.64.01 3.96 12.913.03 25.836.03 38.75.01v-3.97c-12.914-.03-25.837-.04-38.76 0zM26.722 169.464c16.12-.08 32.24-.06 48.37-.01.116 8.31.068 16.63.01 24.94-16.13.08-32.25.03-48.37-.01-.068-8.31-.02-16.61-.01-24.92zM101.326 169.474c16.11-.08 32.23-.09 48.35-.01.107 8.31.116 16.62-.02 24.92-16.1.07-32.21.08-48.31-.01-.117-8.3-.06-16.6-.02-24.9zM175.93 169.464c16.11-.05 32.23-.1 48.34.01.087 8.3.126 16.6.01 24.89-16.12.13-32.24.11-48.35-.01-.068-8.3-.078-16.59 0-24.89zM29.6 198.484c14.21-.1 28.423-.12 42.634 0 0 .71.01 2.14.02 2.85-14.202.18-28.414.07-42.616.04l-.04-2.89zM104.242 198.484c14.172-.11 28.345-.09 42.518-.03.02.74.05 2.2.058 2.94-14.192.06-28.394.05-42.596 0 0-.73.01-2.19.02-2.91zM178.758 198.484c14.21-.08 28.433-.14 42.644 0l-.04 2.91c-14.17.04-28.344.06-42.507-.01-.03-.73-.078-2.18-.097-2.9zM26.76 222.454c16.11-.02 32.212-.08 48.322-.01.087 8.31.087 16.63.01 24.95-16.11.04-32.22.1-48.33-.03-.078-8.3-.137-16.61 0-24.91zM101.335 222.484c16.13-.1 32.25-.1 48.38-.01.068 8.29.038 16.58.01 24.87-16.12.11-32.25.13-48.38.02-.126-8.29-.077-16.59-.01-24.88zM175.92 222.484c16.12-.12 32.25-.12 48.37-.02.057 8.31.086 16.61-.02 24.91-16.11.07-32.23.12-48.34-.01-.088-8.29-.06-16.58-.01-24.88zM29.658 251.474c14.182-.08 28.365-.07 42.547-.02 0 .73-.01 2.19-.01 2.92-14.182.09-28.374.08-42.557.01.01-.73.02-2.19.02-2.91zM104.25 251.474c14.184-.09 28.366-.09 42.55 0 0 .72-.01 2.18-.01 2.9-14.193.1-28.386.09-42.587-.02.02-.72.038-2.16.048-2.88zM178.835 251.494c14.193-.11 28.394-.13 42.596-.02l-.037 2.9c-14.212.07-28.414.08-42.625.02.02-.73.048-2.18.067-2.9zM26.77 275.484c16.11-.08 32.22-.14 48.332 0 .058 8.29.096 16.58-.02 24.87-16.11.14-32.23.08-48.34.04-.01-8.31-.136-16.61.03-24.91zM101.335 275.484c16.12-.12 32.25-.04 48.37-.04.078 8.32.048 16.64-.04 24.96-16.1.01-32.21.07-48.32-.01-.107-8.3-.058-16.61-.01-24.91zM175.948 275.464c16.11-.04 32.22-.11 48.34.02.07 8.3.088 16.61-.018 24.91-16.11.03-32.22.09-48.33-.01-.088-8.31-.098-16.61.01-24.92zM29.6 304.474c14.21-.06 28.413-.09 42.624-.01-.01.73-.02 2.18-.03 2.91-14.19.09-28.383.1-42.575 0 0-.73-.01-2.17-.02-2.9zM104.222 304.474c14.183-.09 28.365-.09 42.548-.01.01.73.038 2.18.048 2.9-14.202.1-28.394.1-42.586.02-.01-.73-.01-2.19-.01-2.91zM178.768 304.484c14.2-.11 28.394-.05 42.595-.04.01.74.04 2.22.05 2.96-14.184.05-28.366.04-42.558-.03-.02-.72-.058-2.17-.087-2.89z" fill="#e8e8e8"/><g transform="matrix(.96875 0 0 1 7.328 -2.576)" fill="#b6b6b6"><path d="M202 26.01c13.33-.02 26.67-.01 40-.01v3.99c-13.33.02-26.67.02-40 0v-3.98zM257 26.01c13.33-.02 26.66-.01 40-.01-.01 1.33 0 2.66.01 3.99-13.34.02-26.67.02-40.01 0v-3.98zM20 30.01c8.33-.02 16.67-.02 25 0v2.98c-8.33.02-16.66.01-25 0v-2.98zM60 30.01c8.33-.01 16.67-.02 25 0v2.98c-8.33.02-16.67.01-25 0v-2.98zM99.99 30.01c8.34-.02 16.68-.02 25.02 0 0 .74-.01 2.24-.01 2.98-8.33.02-16.67.02-25 0 0-.75 0-2.24-.01-2.98zM245 69.01c13.34-.02 26.67-.03 40.01.01-.01 1.32-.01 2.64-.01 3.97-13.34.02-26.67.03-40.01-.01 0-1.32.01-2.65.01-3.97zM28 154.01c11.67-.02 23.33-.02 35 0 0 .74 0 2.24.01 2.98-11.67.02-23.34.02-35.01 0v-2.98zM105 154.01c11.66-.02 23.33-.01 35 0v2.98c-11.67.02-23.33.02-35 0v-2.98zM182 154.01c11.67-.02 23.33-.02 35 0 0 .74.01 2.24.01 2.98-11.67.02-23.34.02-35.01 0v-2.98zM28 207.01c11.67-.02 23.34-.02 35.01 0-.01.75-.01 2.23-.01 2.98-11.67.02-23.34.02-35.01 0 .01-.75.01-2.24.01-2.98zM105 207.01c11.67-.02 23.33-.02 35 0v2.98c-11.67.02-23.34.01-35.01 0 .01-.75.01-2.24.01-2.98zM182 207.01c11.66-.02 23.33-.01 35 0v2.98c-11.67.02-23.33.02-35 0v-2.98zM244.99 248.02c13.34-.04 26.68-.03 40.01 0v3.97c-13.33.02-26.67.02-40-.01 0-1.32-.01-2.64-.01-3.96zM28 260.01c11.66-.02 23.33-.02 35 0v2.98c-11.67.01-23.34.01-35.01 0 0-.74.01-2.24.01-2.98zM105 260.01c11.67-.02 23.34-.02 35.01 0-.01.74-.01 2.24-.01 2.98-11.67.01-23.34.02-35.01 0 .01-.74.01-2.23.01-2.98zM182 260.01c11.67-.01 23.34-.03 35 0v2.98c-11.67.02-23.34.02-35 0v-2.98zM28 313.01c11.67-.02 23.34-.02 35.01 0-.01.74-.01 2.23-.01 2.98-11.67.02-23.33.01-35 0v-2.98zM105 313.01c11.66-.02 23.33-.02 35 0v2.98c-11.67.02-23.33.02-35 0v-2.98zM182 313.01c11.67-.02 23.33-.01 35 0v2.98c-11.67.01-23.33.02-35 0v-2.98z"/></g><path d="M233.056 54.434c22.6-.02 45.202-.01 67.803 0 0 73.99.01 147.99-.01 221.98-22.602.02-45.202.02-67.803 0 0-73.99-.01-147.99.01-221.98m.958.99c0 73.33-.01 146.66.01 219.99 21.952.02 43.904.01 65.856 0 .01-73.32.02-146.65 0-219.98-21.95-.02-43.903-.01-65.865-.01z" fill="#ffb2b2"/><path fill="#cfcfcf" stroke-width="1.2" d="M244.66 76.707h4.242v2.828h-4.243zM251.73 76.707h34.825v2.828H251.73zM244.66 83.6h4.242v3.183h-4.243zM251.73 83.6h28.284v3.183H251.73zM244.66 90.672h4.242v3.005h-4.243zM244.66 97.743h4.242v2.828h-4.243zM251.73 90.672h19.092v3.005H251.73zM251.73 97.743h25.28v2.828h-25.28zM244.66 116.658h4.242v3.005h-4.243zM244.66 123.73h4.242v2.827h-4.243zM244.66 130.624h4.242v3.005h-4.243zM244.66 137.695h4.242v3.005h-4.243zM251.73 116.658h25.28v3.005h-25.28zM251.73 123.73h38.36v2.827h-38.36zM251.73 130.624h28.46v3.005h-28.46zM251.73 137.695h35.002v3.005H251.73zM251.73 172.52h35.002v3.005H251.73zM244.66 172.52h4.242v3.005h-4.243zM244.66 179.59h4.242v3.006h-4.243zM244.66 186.662h4.242v3.005h-4.243zM244.66 193.556h4.242v3.182h-4.243zM251.73 179.59h28.46v3.006h-28.46zM251.73 186.662h38.36v3.005h-38.36zM251.73 193.556h25.28v3.182h-25.28zM251.73 212.648h25.28v3.005h-25.28zM244.66 212.648h4.242v3.005h-4.243zM244.66 219.542h4.242v3.182h-4.243zM244.66 226.613h4.242v3.005h-4.243zM244.66 233.508h4.242v3.36h-4.243zM251.73 219.542h19.092v3.182H251.73zM251.73 226.613h28.46v3.005h-28.46zM251.73 233.508h35.002v3.36H251.73zM244.66 252.07h50.38v3.535h-50.38zM244.66 257.726h44.724v3.89H244.66z"/>
</symbol>
</svg>