<?xml version="1.0" encoding="UTF-8" ?>
<!DOCTYPE svg PUBLIC "-//W3C//DTD SVG 1.1//EN" "http://www.w3.org/Graphics/SVG/1.1/DTD/svg11.dtd">
<svg width="54px" height="47px" viewBox="0 0 54 47" version="1.1" xmlns="http://www.w3.org/2000/svg">
<g id="#872828a7">
<path fill="#E57777" opacity="1" d=" M 53.11 1.20 L 54.00 0.07 L 54.00 2.08 C 52.65 6.97 50.89 11.82 48.16 16.16 C 38.98 31.03 21.77 39.00 5.00 41.02 L 5.00 40.02 C 14.36 38.82 23.69 35.89 31.78 30.83 C 42.48 24.33 50.38 13.44 53.11 1.20 Z" />
<path fill="#E57777" opacity="1" d=" M 8.32 32.09 L 9.32 31.76 C 7.79 35.78 3.72 38.17 1.95 42.00 C 5.61 43.32 9.45 44.51 13.32 45.16 L 12.89 46.11 C 8.52 45.55 4.40 43.41 0.00 42.87 L 0.00 42.49 C 2.59 38.87 5.66 35.65 8.32 32.09 Z" />
</g>
</svg>
