<?xml version="1.0" encoding="UTF-8" standalone="no"?>
<svg
   xmlns:dc="http://purl.org/dc/elements/1.1/"
   xmlns:cc="http://creativecommons.org/ns#"
   xmlns:rdf="http://www.w3.org/1999/02/22-rdf-syntax-ns#"
   xmlns:svg="http://www.w3.org/2000/svg"
   xmlns="http://www.w3.org/2000/svg"
   xmlns:sodipodi="http://sodipodi.sourceforge.net/DTD/sodipodi-0.dtd"
   xmlns:inkscape="http://www.inkscape.org/namespaces/inkscape"
   width="54.48"
   height="46"
   viewBox="0 0 54.48 46"
   version="1.1"
   id="svg2"
   inkscape:version="0.91 r13725"
   sodipodi:docname="arrow1.svg">
  <metadata
     id="metadata13">
    <rdf:RDF>
      <cc:Work
         rdf:about="">
        <dc:format>image/svg+xml</dc:format>
        <dc:type
           rdf:resource="http://purl.org/dc/dcmitype/StillImage" />
        <dc:title></dc:title>
      </cc:Work>
    </rdf:RDF>
  </metadata>
  <defs
     id="defs11" />
  <sodipodi:namedview
     pagecolor="#ffffff"
     bordercolor="#666666"
     borderopacity="1"
     objecttolerance="10"
     gridtolerance="10"
     guidetolerance="10"
     inkscape:pageopacity="0"
     inkscape:pageshadow="2"
     inkscape:window-width="640"
     inkscape:window-height="480"
     id="namedview9"
     showgrid="false"
     fit-margin-top="0"
     fit-margin-left="0"
     fit-margin-right="0"
     fit-margin-bottom="0"
     inkscape:zoom="3.4862385"
     inkscape:cx="0.63"
     inkscape:cy="23.5"
     inkscape:window-x="0"
     inkscape:window-y="0"
     inkscape:window-maximized="0"
     inkscape:current-layer="svg2" />
  <g
     id="#7e25259c"
     transform="translate(-53.87,-1)">
    <path
       d="m 53.87,1 0.98,0 c 2.19,12.02 9.47,22.8 19.46,29.73 6.97,4.88 15.04,7.96 23.31,9.8 2.05,0.49 4.32,0.29 6.09,1.63 C 96.8,42.1 90.13,39.69 83.77,37.16 68.77,30.85 56.68,17.24 53.87,1 Z"
       id="path5"
       inkscape:connector-curvature="0"
       style="opacity:1;fill:#e57777" />
    <path
       d="m 106.31,42.99 c -1.93,-3.25 -5.47,-5.52 -6.41,-9.3 3.03,3.18 5.84,6.56 8.45,10.09 -3.65,0.77 -7.2,1.91 -10.82,2.78 l 0.98,0.44 -3.29,0 c 3.39,-2.11 7.39,-2.67 11.09,-4.01 z"
       id="path7"
       inkscape:connector-curvature="0"
       style="opacity:1;fill:#e57777" />
  </g>
</svg>
