<?xml version="1.0" encoding="UTF-8" ?>
<!DOCTYPE svg PUBLIC "-//W3C//DTD SVG 1.1//EN" "http://www.w3.org/Graphics/SVG/1.1/DTD/svg11.dtd">
<svg width="109px" height="47px" viewBox="0 0 109 47" version="1.1" xmlns="http://www.w3.org/2000/svg">
<g id="#7e25259c">
<path fill="#7e2525" opacity="0.61" d=" M 53.87 1.00 L 54.85 1.00 C 57.04 13.02 64.32 23.80 74.31 30.73 C 81.28 35.61 89.35 38.69 97.62 40.53 C 99.67 41.02 101.94 40.82 103.71 42.16 C 96.80 42.10 90.13 39.69 83.77 37.16 C 68.77 30.85 56.68 17.24 53.87 1.00 Z" />
<path fill="#7e2525" opacity="0.61" d=" M 106.31 42.99 C 104.38 39.74 100.84 37.47 99.90 33.69 C 102.93 36.87 105.74 40.25 108.35 43.78 C 104.70 44.55 101.15 45.69 97.53 46.56 L 98.51 47.00 L 95.22 47.00 C 98.61 44.89 102.61 44.33 106.31 42.99 Z" />
</g>
</svg>
