<?xml version="1.0" encoding="UTF-8" ?>
<!DOCTYPE svg PUBLIC "-//W3C//DTD SVG 1.1//EN" "http://www.w3.org/Graphics/SVG/1.1/DTD/svg11.dtd">
<svg width="320px" height="382px" viewBox="0 0 320 382" version="1.1" xmlns="http://www.w3.org/2000/svg">
<g id="#ffffffff">
<path fill="#ffffff" opacity="1.00" d=" M 0.00 0.00 L 320.00 0.00 L 320.00 382.00 L 0.00 382.00 L 0.00 0.00 M 157.30 18.41 C 151.19 19.76 146.65 25.74 147.03 31.99 C 147.01 39.26 153.84 45.49 161.06 44.96 C 168.66 44.92 174.99 37.46 173.90 29.96 C 173.29 22.14 164.85 16.29 157.30 18.41 M 202.00 26.01 C 202.00 27.33 202.00 28.66 202.00 29.99 C 215.33 30.00 228.67 30.01 242.00 29.99 C 242.00 28.66 242.00 27.33 242.00 26.01 C 228.67 25.99 215.33 26.00 202.00 26.01 M 257.00 26.01 C 256.99 27.34 257.00 28.66 257.00 29.99 C 270.33 30.01 283.66 29.99 296.99 30.00 C 296.99 28.67 296.99 27.34 297.00 26.01 C 283.67 26.00 270.33 25.99 257.00 26.01 M 20.00 30.01 C 20.00 30.75 20.00 32.25 20.00 32.99 C 28.33 33.00 36.67 33.01 45.00 32.99 C 45.00 32.25 45.00 30.76 45.00 30.01 C 36.67 29.99 28.34 30.00 20.00 30.01 M 60.00 30.01 C 60.00 30.76 60.00 32.25 60.00 32.99 C 68.33 33.01 76.67 33.01 85.00 32.99 C 85.00 32.25 85.00 30.75 85.00 30.01 C 76.67 29.99 68.33 29.99 60.00 30.01 M 100.00 30.01 C 100.00 30.76 100.00 32.25 100.00 32.99 C 108.34 33.01 116.67 33.01 125.01 32.99 C 125.00 32.25 125.00 30.76 125.00 30.01 C 116.67 29.99 108.33 29.99 100.00 30.01 M 201.99 33.08 C 202.01 33.80 202.05 35.24 202.07 35.97 C 210.38 36.02 218.69 36.05 227.00 35.97 C 226.99 35.24 226.97 33.78 226.95 33.05 C 218.63 32.97 210.31 32.92 201.99 33.08 M 257.00 33.03 C 257.00 33.76 257.02 35.21 257.03 35.93 C 265.36 36.00 273.70 36.10 282.04 35.91 C 282.01 35.20 281.97 33.76 281.94 33.04 C 273.63 32.97 265.31 32.97 257.00 33.03 M 233.01 57.00 C 232.99 131.00 233.00 205.00 233.00 278.99 C 256.33 279.01 279.66 279.00 302.99 279.00 C 303.01 205.00 303.00 131.00 303.00 57.00 C 279.67 56.99 256.34 57.00 233.01 57.00 M 20.03 63.01 C 19.93 71.32 19.99 79.63 20.05 87.94 C 36.70 88.04 53.34 88.04 69.98 87.94 C 70.03 79.63 70.07 71.32 69.92 63.01 C 53.29 62.99 36.66 62.98 20.03 63.01 M 97.04 63.03 C 96.93 71.34 96.98 79.65 97.05 87.96 C 113.69 88.03 130.33 88.03 146.96 87.95 C 147.01 79.65 147.06 71.35 146.96 63.06 C 130.32 62.96 113.68 62.96 97.04 63.03 M 174.05 63.05 C 173.96 71.34 173.96 79.63 174.04 87.92 C 190.68 88.11 207.32 88.00 223.97 87.95 C 224.00 79.65 224.06 71.34 223.94 63.04 C 207.31 62.98 190.68 62.95 174.05 63.05 M 31.08 94.03 C 31.07 94.77 31.05 96.25 31.04 96.98 C 40.34 97.02 49.64 97.05 58.94 96.95 C 58.95 96.22 58.96 94.75 58.97 94.01 C 49.67 93.98 40.37 93.95 31.08 94.03 M 108.07 94.04 C 108.05 94.76 108.01 96.20 107.98 96.92 C 117.31 97.05 126.63 97.05 135.96 96.96 C 135.96 96.23 135.97 94.79 135.98 94.07 C 126.68 93.92 117.37 93.96 108.07 94.04 M 185.06 94.05 C 185.05 94.77 185.03 96.22 185.02 96.94 C 194.32 97.03 203.63 97.05 212.93 96.98 C 212.96 96.24 213.00 94.78 213.03 94.05 C 203.71 93.93 194.38 94.00 185.06 94.05 M 20.05 119.06 C 19.93 127.35 19.99 135.64 20.06 143.93 C 36.69 144.07 53.32 144.02 69.95 143.95 C 70.03 135.64 70.02 127.33 69.97 119.02 C 53.33 118.99 36.69 118.94 20.05 119.06 M 97.03 119.07 C 96.94 127.36 96.95 135.66 97.08 143.96 C 113.69 144.04 130.31 144.03 146.93 143.97 C 147.06 135.66 147.04 127.35 146.91 119.04 C 130.28 118.97 113.65 118.95 97.03 119.07 M 174.05 119.02 C 173.95 127.33 173.93 135.64 174.07 143.95 C 190.69 144.02 207.31 144.05 223.93 143.95 C 224.03 135.65 224.06 127.34 223.94 119.04 C 207.31 118.99 190.68 118.96 174.05 119.02 M 22.96 148.05 C 22.99 148.78 23.05 150.24 23.08 150.97 C 37.72 151.04 52.36 151.07 67.01 150.93 C 66.99 150.21 66.96 148.77 66.95 148.05 C 52.28 147.96 37.62 147.95 22.96 148.05 M 99.97 148.05 C 99.99 148.78 100.04 150.23 100.07 150.95 C 114.72 151.06 129.38 151.02 144.03 150.97 C 144.01 150.24 143.97 148.79 143.95 148.06 C 129.29 147.95 114.63 147.96 99.97 148.05 M 177.03 148.04 C 177.02 148.77 177.01 150.21 177.00 150.93 C 191.67 151.05 206.33 151.02 221.00 150.94 C 220.99 150.21 220.96 148.77 220.94 148.05 C 206.30 148.00 191.67 147.93 177.03 148.04 M 27.99 154.01 C 27.99 154.75 28.00 156.24 28.00 156.99 C 39.67 157.01 51.34 157.01 63.00 156.99 C 63.00 156.25 63.00 154.75 63.00 154.01 C 51.33 153.99 39.66 153.99 27.99 154.01 M 105.00 154.01 C 105.00 154.76 105.00 156.25 105.00 156.99 C 116.67 157.00 128.33 157.01 140.00 156.99 C 140.00 156.25 140.00 154.76 140.00 154.01 C 128.34 153.99 116.67 153.99 105.00 154.01 M 181.99 154.01 C 182.00 154.75 182.00 156.25 182.00 156.99 C 193.67 157.00 205.34 157.01 217.00 156.99 C 217.00 156.24 217.00 154.75 217.00 154.01 C 205.33 153.99 193.66 153.99 181.99 154.01 M 20.06 172.04 C 19.99 180.34 19.97 188.64 20.03 196.94 C 36.68 197.04 53.33 197.05 69.98 196.94 C 70.05 188.64 70.01 180.35 69.95 172.05 C 53.32 171.95 36.69 171.99 20.06 172.04 M 97.03 172.03 C 96.99 180.33 96.91 188.63 97.05 196.93 C 113.69 197.08 130.34 197.03 146.98 196.94 C 147.03 188.65 147.04 180.35 146.97 172.05 C 130.33 171.98 113.68 171.96 97.03 172.03 M 174.04 172.06 C 173.92 180.35 173.94 188.65 174.05 196.95 C 190.68 197.04 207.31 197.03 223.94 196.97 C 224.04 188.65 224.02 180.34 223.98 172.02 C 207.33 172.01 190.68 171.93 174.04 172.06 M 23.07 201.03 C 23.06 201.77 23.06 203.25 23.05 203.99 C 37.70 204.00 52.34 204.07 66.99 203.94 C 66.99 203.22 67.00 201.78 67.00 201.05 C 52.36 200.94 37.71 200.99 23.07 201.03 M 100.03 201.03 C 100.03 201.76 100.02 203.23 100.02 203.96 C 114.69 204.00 129.35 204.07 144.02 203.91 C 144.00 203.20 143.97 201.78 143.96 201.07 C 129.32 200.96 114.67 200.97 100.03 201.03 M 177.00 201.05 C 177.00 201.78 177.01 203.23 177.02 203.96 C 191.69 204.02 206.36 204.07 221.02 203.93 C 221.00 203.21 220.96 201.78 220.94 201.07 C 206.29 200.97 191.65 200.96 177.00 201.05 M 27.99 207.01 C 28.00 207.76 28.00 209.25 28.00 209.99 C 39.67 210.00 51.33 210.01 63.00 209.99 C 63.00 209.25 63.00 207.76 63.01 207.01 C 51.33 206.99 39.66 206.99 27.99 207.01 M 104.99 207.01 C 105.00 207.75 105.00 209.25 105.00 209.99 C 116.67 210.00 128.34 210.01 140.00 209.99 C 140.00 209.25 140.00 207.76 140.00 207.01 C 128.33 206.99 116.66 206.99 104.99 207.01 M 182.00 207.01 C 182.00 207.75 182.00 209.24 182.00 209.99 C 193.66 210.01 205.33 210.00 217.00 209.99 C 217.00 209.25 217.01 207.76 217.01 207.01 C 205.34 206.99 193.67 206.99 182.00 207.01 M 20.07 225.00 C 19.94 233.33 19.97 241.66 20.07 249.99 C 36.70 250.00 53.33 250.04 69.96 249.97 C 70.04 241.66 70.06 233.35 69.92 225.05 C 53.30 224.97 36.69 225.00 20.07 225.00 M 97.04 225.03 C 96.96 233.34 96.98 241.64 97.04 249.95 C 113.69 250.04 130.34 250.05 146.99 249.94 C 147.02 241.65 147.01 233.35 146.95 225.06 C 130.32 224.94 113.68 225.00 97.04 225.03 M 174.01 225.06 C 173.95 233.36 173.94 241.67 174.05 249.97 C 190.68 250.03 207.32 250.00 223.95 250.00 C 224.03 241.67 224.05 233.34 223.94 225.02 C 207.30 225.00 190.65 224.94 174.01 225.06 M 22.98 254.02 C 22.99 254.76 23.03 256.22 23.05 256.96 C 37.69 257.04 52.33 257.05 66.97 256.94 C 66.97 256.23 66.98 254.79 66.98 254.07 C 52.31 253.91 37.64 254.01 22.98 254.02 M 100.08 254.01 C 100.07 254.75 100.07 256.24 100.06 256.98 C 114.69 256.98 129.32 257.06 143.94 256.93 C 143.96 256.21 144.00 254.78 144.02 254.07 C 129.37 253.95 114.72 253.99 100.08 254.01 M 177.03 254.05 C 177.03 254.78 177.02 256.22 177.01 256.94 C 191.68 257.04 206.35 257.06 221.01 256.93 C 221.00 256.21 220.99 254.78 220.98 254.07 C 206.33 253.98 191.68 253.94 177.03 254.05 M 28.00 260.01 C 28.00 260.75 28.00 262.25 28.00 262.99 C 39.67 263.00 51.33 263.01 63.00 262.99 C 63.00 262.24 63.00 260.75 63.00 260.01 C 51.33 259.99 39.67 259.99 28.00 260.01 M 105.00 260.01 C 105.00 260.75 105.00 262.25 105.00 262.99 C 116.67 263.01 128.33 263.00 140.00 262.99 C 140.00 262.25 140.00 260.75 140.00 260.01 C 128.33 259.99 116.67 259.99 105.00 260.01 M 181.99 260.01 C 182.00 260.76 182.00 262.25 182.00 262.99 C 193.67 263.00 205.34 263.01 217.01 262.99 C 217.00 262.25 217.00 260.75 217.00 260.01 C 205.33 260.00 193.66 259.98 181.99 260.01 M 20.07 278.04 C 19.94 286.34 19.91 294.65 20.08 302.95 C 36.71 302.99 53.35 303.08 69.98 302.93 C 70.03 294.64 70.05 286.35 69.96 278.07 C 53.33 277.92 36.70 278.00 20.07 278.04 M 97.03 278.05 C 96.97 286.35 96.98 294.66 97.04 302.97 C 113.67 302.99 130.30 303.06 146.92 302.96 C 147.08 294.66 146.99 286.36 146.98 278.06 C 130.33 277.98 113.68 277.94 97.03 278.05 M 174.05 278.05 C 173.97 286.35 173.95 294.66 174.04 302.96 C 190.68 303.02 207.33 303.06 223.97 302.93 C 224.03 294.64 224.03 286.34 223.97 278.04 C 207.33 277.99 190.69 277.95 174.05 278.05 M 22.99 307.03 C 23.02 307.77 23.07 309.24 23.09 309.98 C 37.71 310.00 52.33 310.05 66.95 309.96 C 66.97 309.23 66.99 307.78 67.00 307.05 C 52.33 306.97 37.66 306.95 22.99 307.03 M 100.04 307.02 C 100.04 307.75 100.03 309.21 100.03 309.94 C 114.68 310.04 129.33 310.06 143.99 309.94 C 143.99 309.22 144.00 307.77 144.01 307.05 C 129.35 306.95 114.69 307.00 100.04 307.02 M 177.05 307.03 C 177.06 307.76 177.07 309.23 177.08 309.97 C 191.71 310.03 206.35 310.02 220.99 309.97 C 220.99 309.24 221.01 307.79 221.01 307.06 C 206.36 306.93 191.70 307.00 177.05 307.03 M 28.00 313.01 C 28.00 313.76 28.00 315.25 28.00 315.99 C 39.67 316.00 51.33 316.01 63.00 315.99 C 63.00 315.25 63.00 313.76 63.01 313.01 C 51.34 312.99 39.67 312.99 28.00 313.01 M 104.99 313.01 C 104.99 313.76 105.00 315.24 105.00 315.99 C 116.67 316.01 128.33 316.01 140.00 315.99 C 140.00 315.25 140.00 313.76 140.00 313.01 C 128.33 312.99 116.66 312.99 104.99 313.01 M 182.00 313.01 C 182.00 313.76 182.00 315.24 182.00 315.99 C 193.67 316.01 205.33 316.01 217.00 315.99 C 217.00 315.24 217.00 313.75 217.00 313.01 C 205.33 312.99 193.66 312.99 182.00 313.01 Z" />
<path fill="#ffffff" opacity="1.00" d=" M 234.01 58.00 C 256.67 58.00 279.33 57.99 302.00 58.01 C 302.00 131.34 302.00 204.67 302.00 278.00 C 279.33 278.01 256.67 278.00 234.01 278.00 C 234.00 204.67 234.00 131.34 234.01 58.00 M 239.03 63.07 C 238.97 93.69 238.98 124.31 239.02 154.92 C 258.33 155.10 277.65 154.97 296.96 154.99 C 297.04 124.35 297.00 93.71 296.99 63.07 C 277.67 62.93 258.35 62.99 239.03 63.07 M 239.03 163.04 C 238.96 199.34 239.00 235.65 239.01 271.96 C 258.32 272.02 277.64 272.05 296.95 271.94 C 297.06 235.64 296.98 199.34 296.98 163.04 C 277.66 162.97 258.34 162.97 239.03 163.04 Z" />
</g>
<g id="#e8e8e8ff">
<path fill="#e8e8e8" opacity="1.00" d=" M 157.30 18.41 C 164.85 16.29 173.29 22.14 173.90 29.96 C 174.99 37.46 168.66 44.92 161.06 44.96 C 153.84 45.49 147.01 39.26 147.03 31.99 C 146.65 25.74 151.19 19.76 157.30 18.41 Z" />
<path fill="#e8e8e8" opacity="1.00" d=" M 201.99 33.08 C 210.31 32.92 218.63 32.97 226.95 33.05 C 226.97 33.78 226.99 35.24 227.00 35.97 C 218.69 36.05 210.38 36.02 202.07 35.97 C 202.05 35.24 202.01 33.80 201.99 33.08 Z" />
<path fill="#e8e8e8" opacity="1.00" d=" M 257.00 33.03 C 265.31 32.97 273.63 32.97 281.94 33.04 C 281.97 33.76 282.01 35.20 282.04 35.91 C 273.70 36.10 265.36 36.00 257.03 35.93 C 257.02 35.21 257.00 33.76 257.00 33.03 Z" />
<path fill="#e8e8e8" opacity="1.00" d=" M 20.03 63.01 C 36.66 62.98 53.29 62.99 69.92 63.01 C 70.07 71.32 70.03 79.63 69.98 87.94 C 53.34 88.04 36.70 88.04 20.05 87.94 C 19.99 79.63 19.93 71.32 20.03 63.01 Z" />
<path fill="#e8e8e8" opacity="1.00" d=" M 97.04 63.03 C 113.68 62.96 130.32 62.96 146.96 63.06 C 147.06 71.35 147.01 79.65 146.96 87.95 C 130.33 88.03 113.69 88.03 97.05 87.96 C 96.98 79.65 96.93 71.34 97.04 63.03 Z" />
<path fill="#e8e8e8" opacity="1.00" d=" M 174.05 63.05 C 190.68 62.95 207.31 62.98 223.94 63.04 C 224.06 71.34 224.00 79.65 223.97 87.95 C 207.32 88.00 190.68 88.11 174.04 87.92 C 173.96 79.63 173.96 71.34 174.05 63.05 Z" />
<path fill="#e8e8e8" opacity="1.00" d=" M 239.03 63.07 C 258.35 62.99 277.67 62.93 296.99 63.07 C 297.00 93.71 297.04 124.35 296.96 154.99 C 277.65 154.97 258.33 155.10 239.02 154.92 C 238.98 124.31 238.97 93.69 239.03 63.07 M 245.00 69.01 C 245.00 70.33 244.99 71.66 244.99 72.98 C 258.33 73.03 271.67 73.01 285.01 72.99 C 285.00 71.66 285.00 70.33 285.00 69.01 C 271.66 68.99 258.33 69.00 245.00 69.01 M 245.05 78.98 C 245.05 79.73 245.03 81.21 245.02 81.95 C 246.34 81.96 247.66 81.98 248.99 81.99 C 248.98 81.25 248.96 79.77 248.95 79.02 C 247.65 79.01 246.35 79.00 245.05 78.98 M 252.10 79.06 C 252.11 79.78 252.11 81.20 252.11 81.92 C 263.70 82.04 275.28 82.08 286.86 81.94 C 286.87 81.22 286.89 79.79 286.90 79.07 C 275.30 78.96 263.70 78.94 252.10 79.06 M 245.00 86.06 C 245.01 86.79 245.01 88.25 245.02 88.98 C 246.33 88.98 247.64 88.98 248.96 88.99 C 248.97 88.25 249.00 86.77 249.01 86.03 C 247.67 86.04 246.34 86.05 245.00 86.06 M 252.07 86.10 C 252.06 86.81 252.06 88.24 252.05 88.96 C 261.34 89.07 270.64 89.06 279.93 88.91 C 279.92 88.20 279.90 86.79 279.88 86.08 C 270.61 85.97 261.34 85.93 252.07 86.10 M 244.98 93.02 C 245.00 93.77 245.03 95.25 245.05 95.99 C 246.37 95.98 247.68 95.97 249.00 95.95 C 249.00 95.22 249.00 93.76 248.99 93.03 C 247.65 93.03 246.31 93.03 244.98 93.02 M 252.07 93.09 C 252.07 93.80 252.06 95.22 252.05 95.94 C 258.33 96.06 264.60 96.02 270.88 95.95 C 270.89 95.23 270.90 93.78 270.90 93.06 C 264.63 92.94 258.35 92.93 252.07 93.09 M 245.01 100.10 C 245.00 100.81 244.99 102.23 244.98 102.94 C 246.30 102.96 247.63 102.99 248.95 103.01 C 248.96 102.26 248.98 100.75 249.00 99.99 C 247.66 100.03 246.33 100.06 245.01 100.10 M 252.11 100.07 C 252.09 100.77 252.04 102.17 252.02 102.86 C 260.30 103.09 268.59 103.11 276.87 102.89 C 276.90 102.18 276.94 100.76 276.96 100.06 C 268.68 99.96 260.39 99.96 252.11 100.07 M 244.96 119.04 C 244.99 119.77 245.04 121.24 245.06 121.97 C 246.37 121.97 247.68 121.98 249.00 121.99 C 249.00 121.24 248.99 119.74 248.99 118.99 C 247.65 119.01 246.30 119.02 244.96 119.04 M 252.10 119.09 C 252.09 119.80 252.06 121.21 252.05 121.92 C 260.36 122.13 268.66 121.96 276.97 121.91 C 276.95 121.21 276.91 119.80 276.89 119.09 C 268.63 118.97 260.36 118.91 252.10 119.09 M 245.01 126.00 C 245.03 126.75 245.05 128.24 245.06 128.99 C 246.35 128.99 247.64 129.00 248.94 129.01 C 248.95 128.26 248.98 126.75 249.00 126.00 C 247.67 126.00 246.34 126.00 245.01 126.00 M 252.08 126.03 C 252.06 126.76 252.03 128.22 252.02 128.95 C 265.32 129.06 278.63 129.08 291.93 128.94 C 291.93 128.23 291.94 126.82 291.94 126.11 C 278.65 125.87 265.36 126.02 252.08 126.03 M 244.98 133.01 C 245.01 133.76 245.05 135.26 245.08 136.01 C 246.38 135.99 247.69 135.98 248.99 135.97 C 249.00 135.24 249.00 133.77 249.01 133.04 C 247.66 133.02 246.32 133.01 244.98 133.01 M 252.08 133.05 C 252.07 133.77 252.05 135.20 252.04 135.92 C 261.31 136.06 270.59 136.03 279.86 135.94 C 279.87 135.21 279.88 133.77 279.89 133.04 C 270.62 132.98 261.35 132.91 252.08 133.05 M 245.00 140.08 C 245.00 140.81 245.00 142.25 245.01 142.98 C 246.34 142.99 247.67 143.00 249.01 143.01 C 249.00 142.26 248.96 140.74 248.94 139.99 C 247.62 140.02 246.31 140.05 245.00 140.08 M 252.02 140.06 C 252.05 140.76 252.13 142.17 252.16 142.88 C 263.76 143.10 275.37 143.03 286.97 142.94 C 286.95 142.22 286.92 140.80 286.90 140.08 C 275.28 139.92 263.64 139.96 252.02 140.06 Z" />
<path fill="#e8e8e8" opacity="1.00" d=" M 31.08 94.03 C 40.37 93.95 49.67 93.98 58.97 94.01 C 58.96 94.75 58.95 96.22 58.94 96.95 C 49.64 97.05 40.34 97.02 31.04 96.98 C 31.05 96.25 31.07 94.77 31.08 94.03 Z" />
<path fill="#e8e8e8" opacity="1.00" d=" M 108.07 94.04 C 117.37 93.96 126.68 93.92 135.98 94.07 C 135.97 94.79 135.96 96.23 135.96 96.96 C 126.63 97.05 117.31 97.05 107.98 96.92 C 108.01 96.20 108.05 94.76 108.07 94.04 Z" />
<path fill="#e8e8e8" opacity="1.00" d=" M 185.06 94.05 C 194.38 94.00 203.71 93.93 213.03 94.05 C 213.00 94.78 212.96 96.24 212.93 96.98 C 203.63 97.05 194.32 97.03 185.02 96.94 C 185.03 96.22 185.05 94.77 185.06 94.05 Z" />
<path fill="#e8e8e8" opacity="1.00" d=" M 20.05 119.06 C 36.69 118.94 53.33 118.99 69.97 119.02 C 70.02 127.33 70.03 135.64 69.95 143.95 C 53.32 144.02 36.69 144.07 20.06 143.93 C 19.99 135.64 19.93 127.35 20.05 119.06 Z" />
<path fill="#e8e8e8" opacity="1.00" d=" M 97.03 119.07 C 113.65 118.95 130.28 118.97 146.91 119.04 C 147.04 127.35 147.06 135.66 146.93 143.97 C 130.31 144.03 113.69 144.04 97.08 143.96 C 96.95 135.66 96.94 127.36 97.03 119.07 Z" />
<path fill="#e8e8e8" opacity="1.00" d=" M 174.05 119.02 C 190.68 118.96 207.31 118.99 223.94 119.04 C 224.06 127.34 224.03 135.65 223.93 143.95 C 207.31 144.05 190.69 144.02 174.07 143.95 C 173.93 135.64 173.95 127.33 174.05 119.02 Z" />
<path fill="#e8e8e8" opacity="1.00" d=" M 22.96 148.05 C 37.62 147.95 52.28 147.96 66.95 148.05 C 66.96 148.77 66.99 150.21 67.01 150.93 C 52.36 151.07 37.72 151.04 23.08 150.97 C 23.05 150.24 22.99 148.78 22.96 148.05 Z" />
<path fill="#e8e8e8" opacity="1.00" d=" M 99.97 148.05 C 114.63 147.96 129.29 147.95 143.95 148.06 C 143.97 148.79 144.01 150.24 144.03 150.97 C 129.38 151.02 114.72 151.06 100.07 150.95 C 100.04 150.23 99.99 148.78 99.97 148.05 Z" />
<path fill="#e8e8e8" opacity="1.00" d=" M 177.03 148.04 C 191.67 147.93 206.30 148.00 220.94 148.05 C 220.96 148.77 220.99 150.21 221.00 150.94 C 206.33 151.02 191.67 151.05 177.00 150.93 C 177.01 150.21 177.02 148.77 177.03 148.04 Z" />
<path fill="#e8e8e8" opacity="1.00" d=" M 239.03 163.04 C 258.34 162.97 277.66 162.97 296.98 163.04 C 296.98 199.34 297.06 235.64 296.95 271.94 C 277.64 272.05 258.32 272.02 239.01 271.96 C 239.00 235.65 238.96 199.34 239.03 163.04 M 245.06 175.03 C 245.04 175.76 244.99 177.23 244.97 177.97 C 246.32 177.96 247.67 177.96 249.02 177.96 C 249.00 177.22 248.97 175.73 248.95 174.99 C 247.65 175.00 246.35 175.02 245.06 175.03 M 252.07 175.04 C 252.08 175.76 252.09 177.20 252.10 177.93 C 263.72 178.07 275.34 178.04 286.96 177.91 C 286.95 177.20 286.93 175.79 286.91 175.08 C 275.30 174.96 263.69 174.93 252.07 175.04 M 245.00 182.09 C 245.01 182.82 245.04 184.26 245.05 184.99 C 246.36 184.97 247.68 184.96 249.00 184.96 C 248.99 184.21 248.96 182.72 248.94 181.98 C 247.63 182.01 246.31 182.05 245.00 182.09 M 252.13 182.10 C 252.13 182.80 252.13 184.19 252.13 184.89 C 261.39 185.07 270.65 185.04 279.91 184.93 C 279.89 184.22 279.87 182.79 279.86 182.07 C 270.61 181.95 261.37 181.96 252.13 182.10 M 245.04 189.01 C 245.03 189.75 245.00 191.21 244.99 191.94 C 246.31 191.95 247.63 191.97 248.95 191.98 C 248.96 191.24 248.98 189.76 248.99 189.01 C 247.67 189.01 246.36 189.01 245.04 189.01 M 252.09 189.06 C 252.08 189.78 252.07 191.23 252.06 191.95 C 265.36 192.02 278.66 192.06 291.96 191.94 C 291.96 191.22 291.96 189.77 291.97 189.05 C 278.67 189.00 265.38 188.92 252.09 189.06 M 245.05 195.98 C 245.05 196.73 245.04 198.21 245.03 198.96 C 246.33 198.97 247.64 198.98 248.95 198.99 C 248.96 198.25 248.98 196.78 248.99 196.04 C 247.68 196.02 246.37 196.00 245.05 195.98 M 252.05 196.11 C 252.06 196.81 252.08 198.21 252.10 198.91 C 260.36 199.07 268.63 199.05 276.90 198.94 C 276.91 198.23 276.93 196.82 276.94 196.12 C 268.65 195.91 260.34 195.93 252.05 196.11 M 245.01 214.99 C 245.02 215.74 245.03 217.24 245.04 217.99 C 246.36 217.99 247.69 217.98 249.01 217.98 C 249.00 217.24 248.98 215.77 248.97 215.03 C 247.65 215.01 246.33 215.00 245.01 214.99 M 252.08 215.12 C 252.09 215.81 252.10 217.19 252.11 217.88 C 260.36 218.14 268.62 218.03 276.87 217.89 C 276.89 217.19 276.92 215.79 276.94 215.10 C 268.65 214.96 260.36 214.87 252.08 215.12 M 245.04 221.99 C 245.03 222.74 245.03 224.25 245.03 225.00 C 246.32 224.99 247.61 224.99 248.90 224.99 C 248.93 224.25 249.00 222.77 249.04 222.03 C 247.70 222.02 246.37 222.00 245.04 221.99 M 252.14 222.12 C 252.11 222.81 252.05 224.18 252.02 224.86 C 258.32 225.12 264.62 225.09 270.92 224.88 C 270.91 224.18 270.90 222.78 270.89 222.08 C 264.64 221.94 258.39 221.92 252.14 222.12 M 245.02 229.05 C 245.02 229.77 245.01 231.22 245.01 231.95 C 246.34 231.97 247.67 231.99 249.01 232.02 C 248.99 231.26 248.95 229.76 248.93 229.01 C 247.63 229.02 246.32 229.03 245.02 229.05 M 252.15 229.08 C 252.14 229.80 252.12 231.24 252.11 231.96 C 261.36 232.03 270.61 232.12 279.86 231.91 C 279.89 231.21 279.94 229.80 279.97 229.10 C 270.70 228.89 261.42 228.93 252.15 229.08 M 245.05 236.00 C 245.04 236.74 245.03 238.22 245.02 238.97 C 246.34 238.97 247.66 238.97 248.99 238.98 C 248.99 238.24 248.98 236.76 248.98 236.02 C 247.67 236.01 246.36 236.00 245.05 236.00 M 252.11 236.05 C 252.09 236.77 252.05 238.21 252.02 238.92 C 263.67 239.00 275.32 239.14 286.96 238.89 C 286.96 238.19 286.96 236.79 286.96 236.09 C 275.34 235.94 263.73 235.94 252.11 236.05 M 245.01 248.01 C 245.00 249.33 245.00 250.66 245.00 251.99 C 258.33 252.02 271.66 252.00 285.00 251.99 C 285.00 250.66 285.01 249.33 285.02 248.00 C 271.68 248.00 258.34 247.99 245.01 248.01 Z" />
<path fill="#e8e8e8" opacity="1.00" d=" M 20.06 172.04 C 36.69 171.99 53.32 171.95 69.95 172.05 C 70.01 180.35 70.05 188.64 69.98 196.94 C 53.33 197.05 36.68 197.04 20.03 196.94 C 19.97 188.64 19.99 180.34 20.06 172.04 Z" />
<path fill="#e8e8e8" opacity="1.00" d=" M 97.03 172.03 C 113.68 171.96 130.33 171.98 146.97 172.05 C 147.04 180.35 147.03 188.65 146.98 196.94 C 130.34 197.03 113.69 197.08 97.05 196.93 C 96.91 188.63 96.99 180.33 97.03 172.03 Z" />
<path fill="#e8e8e8" opacity="1.00" d=" M 174.04 172.06 C 190.68 171.93 207.33 172.01 223.98 172.02 C 224.02 180.34 224.04 188.65 223.94 196.97 C 207.31 197.03 190.68 197.04 174.05 196.95 C 173.94 188.65 173.92 180.35 174.04 172.06 Z" />
<path fill="#e8e8e8" opacity="1.00" d=" M 23.07 201.03 C 37.71 200.99 52.36 200.94 67.00 201.05 C 67.00 201.78 66.99 203.22 66.99 203.94 C 52.34 204.07 37.70 204.00 23.05 203.99 C 23.06 203.25 23.06 201.77 23.07 201.03 Z" />
<path fill="#e8e8e8" opacity="1.00" d=" M 100.03 201.03 C 114.67 200.97 129.32 200.96 143.96 201.07 C 143.97 201.78 144.00 203.20 144.02 203.91 C 129.35 204.07 114.69 204.00 100.02 203.96 C 100.02 203.23 100.03 201.76 100.03 201.03 Z" />
<path fill="#e8e8e8" opacity="1.00" d=" M 177.00 201.05 C 191.65 200.96 206.29 200.97 220.94 201.07 C 220.96 201.78 221.00 203.21 221.02 203.93 C 206.36 204.07 191.69 204.02 177.02 203.96 C 177.01 203.23 177.00 201.78 177.00 201.05 Z" />
<path fill="#e8e8e8" opacity="1.00" d=" M 20.07 225.00 C 36.69 225.00 53.30 224.97 69.92 225.05 C 70.06 233.35 70.04 241.66 69.96 249.97 C 53.33 250.04 36.70 250.00 20.07 249.99 C 19.97 241.66 19.94 233.33 20.07 225.00 Z" />
<path fill="#e8e8e8" opacity="1.00" d=" M 97.04 225.03 C 113.68 225.00 130.32 224.94 146.95 225.06 C 147.01 233.35 147.02 241.65 146.99 249.94 C 130.34 250.05 113.69 250.04 97.04 249.95 C 96.98 241.64 96.96 233.34 97.04 225.03 Z" />
<path fill="#e8e8e8" opacity="1.00" d=" M 174.01 225.06 C 190.65 224.94 207.30 225.00 223.94 225.02 C 224.05 233.34 224.03 241.67 223.95 250.00 C 207.32 250.00 190.68 250.03 174.05 249.97 C 173.94 241.67 173.95 233.36 174.01 225.06 Z" />
<path fill="#e8e8e8" opacity="1.00" d=" M 22.98 254.02 C 37.64 254.01 52.31 253.91 66.98 254.07 C 66.98 254.79 66.97 256.23 66.97 256.94 C 52.33 257.05 37.69 257.04 23.05 256.96 C 23.03 256.22 22.99 254.76 22.98 254.02 Z" />
<path fill="#e8e8e8" opacity="1.00" d=" M 100.08 254.01 C 114.72 253.99 129.37 253.95 144.02 254.07 C 144.00 254.78 143.96 256.21 143.94 256.93 C 129.32 257.06 114.69 256.98 100.06 256.98 C 100.07 256.24 100.07 254.75 100.08 254.01 Z" />
<path fill="#e8e8e8" opacity="1.00" d=" M 177.03 254.05 C 191.68 253.94 206.33 253.98 220.98 254.07 C 220.99 254.78 221.00 256.21 221.01 256.93 C 206.35 257.06 191.68 257.04 177.01 256.94 C 177.02 256.22 177.03 254.78 177.03 254.05 Z" />
<path fill="#e8e8e8" opacity="1.00" d=" M 20.07 278.04 C 36.70 278.00 53.33 277.92 69.96 278.07 C 70.05 286.35 70.03 294.64 69.98 302.93 C 53.35 303.08 36.71 302.99 20.08 302.95 C 19.91 294.65 19.94 286.34 20.07 278.04 Z" />
<path fill="#e8e8e8" opacity="1.00" d=" M 97.03 278.05 C 113.68 277.94 130.33 277.98 146.98 278.06 C 146.99 286.36 147.08 294.66 146.92 302.96 C 130.30 303.06 113.67 302.99 97.04 302.97 C 96.98 294.66 96.97 286.35 97.03 278.05 Z" />
<path fill="#e8e8e8" opacity="1.00" d=" M 174.05 278.05 C 190.69 277.95 207.33 277.99 223.97 278.04 C 224.03 286.34 224.03 294.64 223.97 302.93 C 207.33 303.06 190.68 303.02 174.04 302.96 C 173.95 294.66 173.97 286.35 174.05 278.05 Z" />
<path fill="#e8e8e8" opacity="1.00" d=" M 22.99 307.03 C 37.66 306.95 52.33 306.97 67.00 307.05 C 66.99 307.78 66.97 309.23 66.95 309.96 C 52.33 310.05 37.71 310.00 23.09 309.98 C 23.07 309.24 23.02 307.77 22.99 307.03 Z" />
<path fill="#e8e8e8" opacity="1.00" d=" M 100.04 307.02 C 114.69 307.00 129.35 306.95 144.01 307.05 C 144.00 307.77 143.99 309.22 143.99 309.94 C 129.33 310.06 114.68 310.04 100.03 309.94 C 100.03 309.21 100.04 307.75 100.04 307.02 Z" />
<path fill="#e8e8e8" opacity="1.00" d=" M 177.05 307.03 C 191.70 307.00 206.36 306.93 221.01 307.06 C 221.01 307.79 220.99 309.24 220.99 309.97 C 206.35 310.02 191.71 310.03 177.08 309.97 C 177.07 309.23 177.06 307.76 177.05 307.03 Z" />
</g>
<g id="#b6b6b6ff">
<path fill="#b6b6b6" opacity="1.00" d=" M 202.00 26.01 C 215.33 26.00 228.67 25.99 242.00 26.01 C 242.00 27.33 242.00 28.66 242.00 29.99 C 228.67 30.01 215.33 30.00 202.00 29.99 C 202.00 28.66 202.00 27.33 202.00 26.01 Z" />
<path fill="#b6b6b6" opacity="1.00" d=" M 257.00 26.01 C 270.33 25.99 283.67 26.00 297.00 26.01 C 296.99 27.34 296.99 28.67 296.99 30.00 C 283.66 29.99 270.33 30.01 257.00 29.99 C 257.00 28.66 256.99 27.34 257.00 26.01 Z" />
<path fill="#b6b6b6" opacity="1.00" d=" M 20.00 30.01 C 28.34 30.00 36.67 29.99 45.00 30.01 C 45.00 30.76 45.00 32.25 45.00 32.99 C 36.67 33.01 28.33 33.00 20.00 32.99 C 20.00 32.25 20.00 30.75 20.00 30.01 Z" />
<path fill="#b6b6b6" opacity="1.00" d=" M 60.00 30.01 C 68.33 29.99 76.67 29.99 85.00 30.01 C 85.00 30.75 85.00 32.25 85.00 32.99 C 76.67 33.01 68.33 33.01 60.00 32.99 C 60.00 32.25 60.00 30.76 60.00 30.01 Z" />
<path fill="#b6b6b6" opacity="1.00" d=" M 100.00 30.01 C 108.33 29.99 116.67 29.99 125.00 30.01 C 125.00 30.76 125.00 32.25 125.01 32.99 C 116.67 33.01 108.34 33.01 100.00 32.99 C 100.00 32.25 100.00 30.76 100.00 30.01 Z" />
<path fill="#b6b6b6" opacity="1.00" d=" M 245.00 69.01 C 258.33 69.00 271.66 68.99 285.00 69.01 C 285.00 70.33 285.00 71.66 285.01 72.99 C 271.67 73.01 258.33 73.03 244.99 72.98 C 244.99 71.66 245.00 70.33 245.00 69.01 Z" />
<path fill="#b6b6b6" opacity="1.00" d=" M 27.99 154.01 C 39.66 153.99 51.33 153.99 63.00 154.01 C 63.00 154.75 63.00 156.25 63.00 156.99 C 51.34 157.01 39.67 157.01 28.00 156.99 C 28.00 156.24 27.99 154.75 27.99 154.01 Z" />
<path fill="#b6b6b6" opacity="1.00" d=" M 105.00 154.01 C 116.67 153.99 128.34 153.99 140.00 154.01 C 140.00 154.76 140.00 156.25 140.00 156.99 C 128.33 157.01 116.67 157.00 105.00 156.99 C 105.00 156.25 105.00 154.76 105.00 154.01 Z" />
<path fill="#b6b6b6" opacity="1.00" d=" M 181.99 154.01 C 193.66 153.99 205.33 153.99 217.00 154.01 C 217.00 154.75 217.00 156.24 217.00 156.99 C 205.34 157.01 193.67 157.00 182.00 156.99 C 182.00 156.25 182.00 154.75 181.99 154.01 Z" />
<path fill="#b6b6b6" opacity="1.00" d=" M 27.99 207.01 C 39.66 206.99 51.33 206.99 63.01 207.01 C 63.00 207.76 63.00 209.25 63.00 209.99 C 51.33 210.01 39.67 210.00 28.00 209.99 C 28.00 209.25 28.00 207.76 27.99 207.01 Z" />
<path fill="#b6b6b6" opacity="1.00" d=" M 104.99 207.01 C 116.66 206.99 128.33 206.99 140.00 207.01 C 140.00 207.76 140.00 209.25 140.00 209.99 C 128.34 210.01 116.67 210.00 105.00 209.99 C 105.00 209.25 105.00 207.75 104.99 207.01 Z" />
<path fill="#b6b6b6" opacity="1.00" d=" M 182.00 207.01 C 193.67 206.99 205.34 206.99 217.01 207.01 C 217.01 207.76 217.00 209.25 217.00 209.99 C 205.33 210.00 193.66 210.01 182.00 209.99 C 182.00 209.24 182.00 207.75 182.00 207.01 Z" />
<path fill="#b6b6b6" opacity="1.00" d=" M 245.01 248.01 C 258.34 247.99 271.68 248.00 285.02 248.00 C 285.01 249.33 285.00 250.66 285.00 251.99 C 271.66 252.00 258.33 252.02 245.00 251.99 C 245.00 250.66 245.00 249.33 245.01 248.01 Z" />
<path fill="#b6b6b6" opacity="1.00" d=" M 28.00 260.01 C 39.67 259.99 51.33 259.99 63.00 260.01 C 63.00 260.75 63.00 262.24 63.00 262.99 C 51.33 263.01 39.67 263.00 28.00 262.99 C 28.00 262.25 28.00 260.75 28.00 260.01 Z" />
<path fill="#b6b6b6" opacity="1.00" d=" M 105.00 260.01 C 116.67 259.99 128.33 259.99 140.00 260.01 C 140.00 260.75 140.00 262.25 140.00 262.99 C 128.33 263.00 116.67 263.01 105.00 262.99 C 105.00 262.25 105.00 260.75 105.00 260.01 Z" />
<path fill="#b6b6b6" opacity="1.00" d=" M 181.99 260.01 C 193.66 259.98 205.33 260.00 217.00 260.01 C 217.00 260.75 217.00 262.25 217.01 262.99 C 205.34 263.01 193.67 263.00 182.00 262.99 C 182.00 262.25 182.00 260.76 181.99 260.01 Z" />
<path fill="#b6b6b6" opacity="1.00" d=" M 28.00 313.01 C 39.67 312.99 51.34 312.99 63.01 313.01 C 63.00 313.76 63.00 315.25 63.00 315.99 C 51.33 316.01 39.67 316.00 28.00 315.99 C 28.00 315.25 28.00 313.76 28.00 313.01 Z" />
<path fill="#b6b6b6" opacity="1.00" d=" M 104.99 313.01 C 116.66 312.99 128.33 312.99 140.00 313.01 C 140.00 313.76 140.00 315.25 140.00 315.99 C 128.33 316.01 116.67 316.01 105.00 315.99 C 105.00 315.24 104.99 313.76 104.99 313.01 Z" />
<path fill="#b6b6b6" opacity="1.00" d=" M 182.00 313.01 C 193.66 312.99 205.33 312.99 217.00 313.01 C 217.00 313.75 217.00 315.24 217.00 315.99 C 205.33 316.01 193.67 316.01 182.00 315.99 C 182.00 315.24 182.00 313.76 182.00 313.01 Z" />
</g>
<g id="#ffb2b2ff">
<path fill="#ffb2b2" opacity="1.00" d=" M 233.01 57.00 C 256.34 57.00 279.67 56.99 303.00 57.00 C 303.00 131.00 303.01 205.00 302.99 279.00 C 279.66 279.00 256.33 279.01 233.00 278.99 C 233.00 205.00 232.99 131.00 233.01 57.00 M 234.01 58.00 C 234.00 131.34 234.00 204.67 234.01 278.00 C 256.67 278.00 279.33 278.01 302.00 278.00 C 302.00 204.67 302.00 131.34 302.00 58.01 C 279.33 57.99 256.67 58.00 234.01 58.00 Z" />
</g>
<g id="#cfcfcfff">
<path fill="#cfcfcf" opacity="1.00" d=" M 245.05 78.98 C 246.35 79.00 247.65 79.01 248.95 79.02 C 248.96 79.77 248.98 81.25 248.99 81.99 C 247.66 81.98 246.34 81.96 245.02 81.95 C 245.03 81.21 245.05 79.73 245.05 78.98 Z" />
<path fill="#cfcfcf" opacity="1.00" d=" M 245.00 86.06 C 246.34 86.05 247.67 86.04 249.01 86.03 C 249.00 86.77 248.97 88.25 248.96 88.99 C 247.64 88.98 246.33 88.98 245.02 88.98 C 245.01 88.25 245.01 86.79 245.00 86.06 Z" />
<path fill="#cfcfcf" opacity="1.00" d=" M 244.98 93.02 C 246.31 93.03 247.65 93.03 248.99 93.03 C 249.00 93.76 249.00 95.22 249.00 95.95 C 247.68 95.97 246.37 95.98 245.05 95.99 C 245.03 95.25 245.00 93.77 244.98 93.02 Z" />
<path fill="#cfcfcf" opacity="1.00" d=" M 245.01 100.10 C 246.33 100.06 247.66 100.03 249.00 99.99 C 248.98 100.75 248.96 102.26 248.95 103.01 C 247.63 102.99 246.30 102.96 244.98 102.94 C 244.99 102.23 245.00 100.81 245.01 100.10 Z" />
<path fill="#cfcfcf" opacity="1.00" d=" M 244.96 119.04 C 246.30 119.02 247.65 119.01 248.99 118.99 C 248.99 119.74 249.00 121.24 249.00 121.99 C 247.68 121.98 246.37 121.97 245.06 121.97 C 245.04 121.24 244.99 119.77 244.96 119.04 Z" />
<path fill="#cfcfcf" opacity="1.00" d=" M 245.01 126.00 C 246.34 126.00 247.67 126.00 249.00 126.00 C 248.98 126.75 248.95 128.26 248.94 129.01 C 247.64 129.00 246.35 128.99 245.06 128.99 C 245.05 128.24 245.03 126.75 245.01 126.00 Z" />
<path fill="#cfcfcf" opacity="1.00" d=" M 244.98 133.01 C 246.32 133.01 247.66 133.02 249.01 133.04 C 249.00 133.77 249.00 135.24 248.99 135.97 C 247.69 135.98 246.38 135.99 245.08 136.01 C 245.05 135.26 245.01 133.76 244.98 133.01 Z" />
<path fill="#cfcfcf" opacity="1.00" d=" M 245.00 140.08 C 246.31 140.05 247.62 140.02 248.94 139.99 C 248.96 140.74 249.00 142.26 249.01 143.01 C 247.67 143.00 246.34 142.99 245.01 142.98 C 245.00 142.25 245.00 140.81 245.00 140.08 Z" />
<path fill="#cfcfcf" opacity="1.00" d=" M 245.06 175.03 C 246.35 175.02 247.65 175.00 248.95 174.99 C 248.97 175.73 249.00 177.22 249.02 177.96 C 247.67 177.96 246.32 177.96 244.97 177.97 C 244.99 177.23 245.04 175.76 245.06 175.03 Z" />
<path fill="#cfcfcf" opacity="1.00" d=" M 245.00 182.09 C 246.31 182.05 247.63 182.01 248.94 181.98 C 248.96 182.72 248.99 184.21 249.00 184.96 C 247.68 184.96 246.36 184.97 245.05 184.99 C 245.04 184.26 245.01 182.82 245.00 182.09 Z" />
<path fill="#cfcfcf" opacity="1.00" d=" M 245.04 189.01 C 246.36 189.01 247.67 189.01 248.99 189.01 C 248.98 189.76 248.96 191.24 248.95 191.98 C 247.63 191.97 246.31 191.95 244.99 191.94 C 245.00 191.21 245.03 189.75 245.04 189.01 Z" />
<path fill="#cfcfcf" opacity="1.00" d=" M 245.05 195.98 C 246.37 196.00 247.68 196.02 248.99 196.04 C 248.98 196.78 248.96 198.25 248.95 198.99 C 247.64 198.98 246.33 198.97 245.03 198.96 C 245.04 198.21 245.05 196.73 245.05 195.98 Z" />
<path fill="#cfcfcf" opacity="1.00" d=" M 245.01 214.99 C 246.33 215.00 247.65 215.01 248.97 215.03 C 248.98 215.77 249.00 217.24 249.01 217.98 C 247.69 217.98 246.36 217.99 245.04 217.99 C 245.03 217.24 245.02 215.74 245.01 214.99 Z" />
<path fill="#cfcfcf" opacity="1.00" d=" M 245.04 221.99 C 246.37 222.00 247.70 222.02 249.04 222.03 C 249.00 222.77 248.93 224.25 248.90 224.99 C 247.61 224.99 246.32 224.99 245.03 225.00 C 245.03 224.25 245.03 222.74 245.04 221.99 Z" />
<path fill="#cfcfcf" opacity="1.00" d=" M 245.02 229.05 C 246.32 229.03 247.63 229.02 248.93 229.01 C 248.95 229.76 248.99 231.26 249.01 232.02 C 247.67 231.99 246.34 231.97 245.01 231.95 C 245.01 231.22 245.02 229.77 245.02 229.05 Z" />
<path fill="#cfcfcf" opacity="1.00" d=" M 245.05 236.00 C 246.36 236.00 247.67 236.01 248.98 236.02 C 248.98 236.76 248.99 238.24 248.99 238.98 C 247.66 238.97 246.34 238.97 245.02 238.97 C 245.03 238.22 245.04 236.74 245.05 236.00 Z" />
</g>
<g id="#dadadaff">
<path fill="#dadada" opacity="1.00" d=" M 252.10 79.06 C 263.70 78.94 275.30 78.96 286.90 79.07 C 286.89 79.79 286.87 81.22 286.86 81.94 C 275.28 82.08 263.70 82.04 252.11 81.92 C 252.11 81.20 252.11 79.78 252.10 79.06 Z" />
<path fill="#dadada" opacity="1.00" d=" M 252.07 86.10 C 261.34 85.93 270.61 85.97 279.88 86.08 C 279.90 86.79 279.92 88.20 279.93 88.91 C 270.64 89.06 261.34 89.07 252.05 88.96 C 252.06 88.24 252.06 86.81 252.07 86.10 Z" />
<path fill="#dadada" opacity="1.00" d=" M 252.07 93.09 C 258.35 92.93 264.63 92.94 270.90 93.06 C 270.90 93.78 270.89 95.23 270.88 95.95 C 264.60 96.02 258.33 96.06 252.05 95.94 C 252.06 95.22 252.07 93.80 252.07 93.09 Z" />
<path fill="#dadada" opacity="1.00" d=" M 252.11 100.07 C 260.39 99.96 268.68 99.96 276.96 100.06 C 276.94 100.76 276.90 102.18 276.87 102.89 C 268.59 103.11 260.30 103.09 252.02 102.86 C 252.04 102.17 252.09 100.77 252.11 100.07 Z" />
<path fill="#dadada" opacity="1.00" d=" M 252.10 119.09 C 260.36 118.91 268.63 118.97 276.89 119.09 C 276.91 119.80 276.95 121.21 276.97 121.91 C 268.66 121.96 260.36 122.13 252.05 121.92 C 252.06 121.21 252.09 119.80 252.10 119.09 Z" />
<path fill="#dadada" opacity="1.00" d=" M 252.08 126.03 C 265.36 126.02 278.65 125.87 291.94 126.11 C 291.94 126.82 291.93 128.23 291.93 128.94 C 278.63 129.08 265.32 129.06 252.02 128.95 C 252.03 128.22 252.06 126.76 252.08 126.03 Z" />
<path fill="#dadada" opacity="1.00" d=" M 252.08 133.05 C 261.35 132.91 270.62 132.98 279.89 133.04 C 279.88 133.77 279.87 135.21 279.86 135.94 C 270.59 136.03 261.31 136.06 252.04 135.92 C 252.05 135.20 252.07 133.77 252.08 133.05 Z" />
<path fill="#dadada" opacity="1.00" d=" M 252.02 140.06 C 263.64 139.96 275.28 139.92 286.90 140.08 C 286.92 140.80 286.95 142.22 286.97 142.94 C 275.37 143.03 263.76 143.10 252.16 142.88 C 252.13 142.17 252.05 140.76 252.02 140.06 Z" />
<path fill="#dadada" opacity="1.00" d=" M 252.07 175.04 C 263.69 174.93 275.30 174.96 286.91 175.08 C 286.93 175.79 286.95 177.20 286.96 177.91 C 275.34 178.04 263.72 178.07 252.10 177.93 C 252.09 177.20 252.08 175.76 252.07 175.04 Z" />
<path fill="#dadada" opacity="1.00" d=" M 252.13 182.10 C 261.37 181.96 270.61 181.95 279.86 182.07 C 279.87 182.79 279.89 184.22 279.91 184.93 C 270.65 185.04 261.39 185.07 252.13 184.89 C 252.13 184.19 252.13 182.80 252.13 182.10 Z" />
<path fill="#dadada" opacity="1.00" d=" M 252.09 189.06 C 265.38 188.92 278.67 189.00 291.97 189.05 C 291.96 189.77 291.96 191.22 291.96 191.94 C 278.66 192.06 265.36 192.02 252.06 191.95 C 252.07 191.23 252.08 189.78 252.09 189.06 Z" />
<path fill="#dadada" opacity="1.00" d=" M 252.05 196.11 C 260.34 195.93 268.65 195.91 276.94 196.12 C 276.93 196.82 276.91 198.23 276.90 198.94 C 268.63 199.05 260.36 199.07 252.10 198.91 C 252.08 198.21 252.06 196.81 252.05 196.11 Z" />
<path fill="#dadada" opacity="1.00" d=" M 252.08 215.12 C 260.36 214.87 268.65 214.96 276.94 215.10 C 276.92 215.79 276.89 217.19 276.87 217.89 C 268.62 218.03 260.36 218.14 252.11 217.88 C 252.10 217.19 252.09 215.81 252.08 215.12 Z" />
<path fill="#dadada" opacity="1.00" d=" M 252.14 222.12 C 258.39 221.92 264.64 221.94 270.89 222.08 C 270.90 222.78 270.91 224.18 270.92 224.88 C 264.62 225.09 258.32 225.12 252.02 224.86 C 252.05 224.18 252.11 222.81 252.14 222.12 Z" />
<path fill="#dadada" opacity="1.00" d=" M 252.15 229.08 C 261.42 228.93 270.70 228.89 279.97 229.10 C 279.94 229.80 279.89 231.21 279.86 231.91 C 270.61 232.12 261.36 232.03 252.11 231.96 C 252.12 231.24 252.14 229.80 252.15 229.08 Z" />
<path fill="#dadada" opacity="1.00" d=" M 252.11 236.05 C 263.73 235.94 275.34 235.94 286.96 236.09 C 286.96 236.79 286.96 238.19 286.96 238.89 C 275.32 239.14 263.67 239.00 252.02 238.92 C 252.05 238.21 252.09 236.77 252.11 236.05 Z" />
</g>
</svg>
