<?xml version="1.0" encoding="UTF-8" ?>
<!DOCTYPE svg PUBLIC "-//W3C//DTD SVG 1.1//EN" "http://www.w3.org/Graphics/SVG/1.1/DTD/svg11.dtd">
<svg width="320px" height="382px" viewBox="0 0 320 382" version="1.1" xmlns="http://www.w3.org/2000/svg">
<g id="#ffffffff">
<path fill="#ffffff" opacity="1.00" d=" M 0.00 0.00 L 320.00 0.00 L 320.00 382.00 L 0.00 382.00 L 0.00 0.00 M 157.30 18.39 C 151.23 19.81 146.61 25.80 147.03 32.06 C 147.12 39.27 153.86 45.45 161.03 44.99 C 168.21 44.84 174.49 38.20 173.97 30.98 C 173.95 22.76 165.22 16.17 157.30 18.39 M 202.00 26.01 C 202.00 27.34 202.00 28.67 202.00 30.00 C 215.33 30.00 228.67 30.01 242.00 29.99 C 242.00 28.66 242.00 27.34 242.00 26.01 C 228.67 25.99 215.33 25.99 202.00 26.01 M 257.00 26.01 C 257.00 27.34 257.00 28.67 257.00 30.00 C 270.33 30.00 283.67 30.00 297.00 29.99 C 297.00 28.66 297.00 27.34 297.00 26.01 C 283.67 25.99 270.33 26.00 257.00 26.01 M 20.00 30.01 C 20.00 30.76 20.00 32.25 20.00 33.00 C 28.34 33.01 36.67 33.01 45.00 32.99 C 45.00 32.24 45.00 30.75 45.00 30.01 C 36.66 30.00 28.33 29.99 20.00 30.01 M 60.00 30.01 C 60.00 30.75 60.00 32.25 60.00 32.99 C 68.33 33.01 76.67 33.01 85.00 32.99 C 85.00 32.24 85.00 30.75 85.00 30.01 C 76.67 29.99 68.33 29.99 60.00 30.01 M 100.00 30.01 C 100.00 30.75 100.00 32.25 100.00 32.99 C 108.33 33.01 116.67 33.01 125.00 32.99 C 125.00 32.25 125.00 30.75 125.00 30.01 C 116.67 29.99 108.33 29.99 100.00 30.01 M 201.97 33.05 C 201.98 33.78 202.02 35.24 202.04 35.97 C 210.37 36.03 218.69 36.05 227.02 35.95 C 227.01 35.22 227.01 33.77 227.00 33.05 C 218.66 32.96 210.31 32.95 201.97 33.05 M 257.02 33.05 C 257.01 33.77 256.99 35.21 256.98 35.93 C 265.33 36.06 273.67 36.05 282.02 35.95 C 282.01 35.22 282.00 33.77 281.99 33.04 C 273.67 32.96 265.34 32.96 257.02 33.05 M 14.01 56.00 C 13.99 83.67 14.00 111.33 14.00 138.99 C 53.00 139.00 92.00 139.00 131.00 139.00 C 131.00 111.33 131.00 83.67 131.00 56.01 C 92.00 55.99 53.00 56.00 14.01 56.00 M 138.00 63.00 C 138.00 65.33 138.00 67.67 138.00 70.00 C 177.67 70.00 217.33 70.00 257.00 70.00 C 256.99 67.66 256.99 65.33 257.00 63.00 C 217.33 63.00 177.67 63.00 138.00 63.00 M 138.00 72.00 C 138.00 74.67 138.00 77.33 138.00 80.00 C 166.00 80.00 194.00 80.00 222.00 80.00 C 221.99 77.33 222.00 74.67 222.00 72.00 C 194.00 72.00 166.00 72.00 138.00 72.00 M 138.00 86.04 C 137.99 87.34 137.99 88.64 137.98 89.94 C 149.65 90.04 161.33 90.03 173.00 89.96 C 173.00 88.66 173.01 87.35 173.01 86.05 C 161.34 85.96 149.67 85.96 138.00 86.04 M 138.02 91.03 C 138.00 92.34 137.99 93.65 137.98 94.95 C 152.66 95.03 167.34 95.04 182.02 94.95 C 182.00 93.64 181.99 92.34 181.99 91.03 C 167.33 90.97 152.67 90.97 138.02 91.03 M 137.98 96.07 C 137.99 97.36 137.99 98.65 137.99 99.95 C 148.33 100.03 158.67 100.05 169.01 99.95 C 169.01 98.65 169.00 97.35 169.01 96.05 C 158.67 95.95 148.32 95.95 137.98 96.07 M 138.02 101.03 C 138.01 102.34 138.00 103.65 137.98 104.96 C 145.32 105.05 152.65 105.03 159.98 104.98 C 159.99 103.66 160.00 102.35 160.01 101.04 C 152.68 100.95 145.35 100.97 138.02 101.03 M 138.00 118.02 C 138.00 120.34 138.00 122.66 137.99 124.98 C 150.00 125.01 162.00 125.02 174.01 124.98 C 174.00 122.66 174.00 120.33 174.00 118.01 C 162.00 117.98 150.00 117.99 138.00 118.02 M 181.99 118.02 C 182.00 120.34 182.00 122.66 182.00 124.99 C 188.00 125.02 194.00 125.02 200.00 124.99 C 199.99 122.66 200.00 120.34 200.01 118.02 C 194.00 117.98 188.00 117.98 181.99 118.02 M 20.00 148.00 C 20.00 149.66 20.00 151.33 20.00 152.99 C 48.00 153.01 76.00 153.00 104.00 153.00 C 104.00 151.33 104.00 149.67 104.00 148.00 C 76.00 148.00 48.00 148.00 20.00 148.00 M 113.00 148.00 C 113.00 149.66 113.00 151.33 113.00 153.00 C 129.33 153.00 145.67 153.01 162.00 153.00 C 162.00 151.33 162.00 149.66 162.00 148.00 C 145.66 148.00 129.33 148.00 113.00 148.00 M 19.99 158.05 C 19.99 158.78 20.00 160.23 20.01 160.96 C 78.06 161.03 136.12 161.04 194.18 160.95 C 194.18 160.23 194.17 158.79 194.17 158.06 C 136.11 157.94 78.05 157.97 19.99 158.05 M 20.00 163.05 C 20.00 163.77 20.00 165.23 20.00 165.96 C 93.00 166.03 166.00 166.03 239.00 165.96 C 239.01 165.23 239.01 163.78 239.01 163.05 C 166.01 162.96 93.00 162.97 20.00 163.05 M 19.98 168.06 C 19.99 168.78 20.01 170.24 20.02 170.96 C 71.40 171.05 122.77 170.98 174.14 171.00 C 174.17 170.26 174.22 168.77 174.24 168.02 C 122.82 168.01 71.40 167.93 19.98 168.06 M 19.98 173.06 C 19.99 173.78 20.02 175.23 20.03 175.96 C 56.58 175.95 93.13 176.19 129.67 175.84 C 129.68 175.17 129.69 173.84 129.69 173.17 C 121.81 172.81 113.92 173.06 106.04 173.00 C 77.35 173.04 48.67 172.91 19.98 173.06 M 20.02 178.03 C 20.01 178.76 19.98 180.21 19.97 180.94 C 80.66 181.05 141.34 181.05 202.03 180.94 C 202.02 180.22 202.01 178.77 202.00 178.04 C 141.34 177.96 80.68 177.98 20.02 178.03 M 20.01 183.05 C 20.00 183.77 19.99 185.22 19.99 185.94 C 71.39 186.05 122.80 186.03 174.20 185.96 C 174.21 185.23 174.23 183.78 174.24 183.06 C 122.83 182.95 71.42 182.98 20.01 183.05 M 19.99 188.04 C 19.99 188.77 20.01 190.23 20.01 190.96 C 93.01 191.02 166.01 191.04 239.01 190.95 C 239.01 190.23 239.01 188.78 239.01 188.06 C 166.00 187.95 92.99 187.98 19.99 188.04 M 20.00 193.04 C 20.00 193.77 19.99 195.22 19.99 195.95 C 78.03 196.03 136.07 196.04 194.11 195.95 C 194.13 195.22 194.15 193.77 194.16 193.05 C 136.11 192.96 78.05 192.97 20.00 193.04 M 20.04 210.04 C 19.95 220.01 19.97 229.99 20.03 239.96 C 99.68 240.03 179.32 240.03 258.97 239.96 C 259.03 229.98 259.04 220.01 258.96 210.03 C 179.32 209.98 99.68 209.96 20.04 210.04 M 14.00 248.01 C 14.00 274.34 14.00 300.67 14.00 327.00 C 58.33 327.00 102.67 327.00 147.00 327.00 C 147.00 300.67 147.00 274.34 147.00 248.01 C 102.66 248.00 58.33 247.99 14.00 248.01 M 171.03 255.04 C 170.96 268.34 170.99 281.65 171.02 294.95 C 211.00 295.05 250.99 295.02 290.97 294.97 C 291.03 281.65 291.03 268.34 290.97 255.03 C 250.99 254.98 211.01 254.97 171.03 255.04 M 171.00 303.01 C 171.00 303.75 171.00 305.25 171.00 305.99 C 202.33 306.00 233.67 306.01 265.00 305.99 C 265.00 305.25 265.00 303.75 265.00 303.01 C 233.67 303.00 202.33 302.99 171.00 303.01 M 171.00 310.05 C 171.00 310.77 170.99 312.22 170.99 312.94 C 200.33 313.04 229.68 313.05 259.02 312.94 C 259.01 312.22 259.00 310.77 258.99 310.05 C 229.66 309.96 200.33 309.97 171.00 310.05 M 170.99 315.04 C 170.99 315.77 171.00 317.22 171.00 317.95 C 185.67 318.04 200.34 318.04 215.01 317.95 C 215.01 317.22 215.00 315.77 215.00 315.04 C 200.33 314.96 185.66 314.96 170.99 315.04 M 148.25 326.33 C 146.29 327.37 146.80 330.67 149.04 330.90 C 150.55 331.45 152.53 329.56 151.91 328.04 C 151.74 326.40 149.63 325.47 148.25 326.33 M 158.27 326.30 C 155.44 327.76 157.91 332.30 160.64 330.68 C 163.66 329.37 161.05 324.60 158.27 326.30 M 168.34 326.34 C 165.37 327.62 167.99 332.42 170.66 330.67 C 173.67 329.37 171.00 324.56 168.34 326.34 Z" />
<path fill="#ffffff" opacity="1.00" d=" M 15.01 57.00 C 53.33 57.00 91.66 57.00 129.99 57.00 C 130.01 84.00 130.00 111.00 130.00 137.99 C 91.67 138.01 53.33 138.00 15.00 138.00 C 15.00 111.00 15.00 84.00 15.01 57.00 M 20.00 63.00 C 20.00 86.34 20.00 109.67 20.00 133.00 C 55.00 133.00 90.00 133.00 125.00 133.00 C 125.00 109.67 125.00 86.33 125.00 63.00 C 90.00 63.00 55.00 63.00 20.00 63.00 Z" />
<path fill="#ffffff" opacity="1.00" d=" M 15.00 249.01 C 58.67 248.99 102.33 249.00 146.00 249.00 C 146.00 274.67 146.01 300.33 145.99 326.00 C 102.33 326.00 58.67 326.00 15.00 326.00 C 14.99 300.33 15.00 274.67 15.00 249.01 M 20.03 255.03 C 19.97 268.34 19.96 281.66 20.04 294.97 C 60.02 295.02 100.00 295.04 139.97 294.96 C 140.02 281.65 140.03 268.35 139.97 255.05 C 99.99 254.96 60.01 254.98 20.03 255.03 M 20.00 303.01 C 20.00 303.75 20.00 305.25 20.00 305.99 C 51.33 306.01 82.67 306.01 114.00 305.99 C 114.00 305.25 114.00 303.75 114.00 303.01 C 82.67 302.99 51.33 302.99 20.00 303.01 M 20.00 308.01 C 20.00 308.75 20.00 310.25 20.00 310.99 C 31.67 311.01 43.33 311.01 55.00 310.99 C 55.00 310.25 55.00 308.75 55.00 308.01 C 43.34 307.99 31.67 307.99 20.00 308.01 M 19.97 313.06 C 19.99 313.79 20.02 315.24 20.04 315.96 C 49.36 316.02 78.68 316.04 108.00 315.95 C 108.00 315.22 107.99 313.77 107.99 313.04 C 78.65 312.99 49.31 312.94 19.97 313.06 M 20.00 318.05 C 19.99 318.77 19.99 320.22 19.99 320.94 C 34.66 321.05 49.33 321.03 64.00 320.96 C 64.00 320.23 64.01 318.78 64.01 318.05 C 49.34 317.95 34.67 317.97 20.00 318.05 Z" />
<path fill="#ffffff" opacity="1.00" d=" M 159.14 327.27 C 160.71 326.72 161.48 329.36 159.85 329.74 C 158.27 330.28 157.51 327.64 159.14 327.27 Z" />
<path fill="#ffffff" opacity="1.00" d=" M 169.16 327.26 C 170.74 326.74 171.47 329.39 169.83 329.74 C 168.25 330.26 167.52 327.61 169.16 327.26 Z" />
</g>
<g id="#e8e8e8ff">
<path fill="#e8e8e8" opacity="1.00" d=" M 157.30 18.39 C 165.22 16.17 173.95 22.76 173.97 30.98 C 174.49 38.20 168.21 44.84 161.03 44.99 C 153.86 45.45 147.12 39.27 147.03 32.06 C 146.61 25.80 151.23 19.81 157.30 18.39 Z" />
<path fill="#e8e8e8" opacity="1.00" d=" M 201.97 33.05 C 210.31 32.95 218.66 32.96 227.00 33.05 C 227.01 33.77 227.01 35.22 227.02 35.95 C 218.69 36.05 210.37 36.03 202.04 35.97 C 202.02 35.24 201.98 33.78 201.97 33.05 Z" />
<path fill="#e8e8e8" opacity="1.00" d=" M 257.02 33.05 C 265.34 32.96 273.67 32.96 281.99 33.04 C 282.00 33.77 282.01 35.22 282.02 35.95 C 273.67 36.05 265.33 36.06 256.98 35.93 C 256.99 35.21 257.01 33.77 257.02 33.05 Z" />
<path fill="#e8e8e8" opacity="1.00" d=" M 138.00 86.04 C 149.67 85.96 161.34 85.96 173.01 86.05 C 173.01 87.35 173.00 88.66 173.00 89.96 C 161.33 90.03 149.65 90.04 137.98 89.94 C 137.99 88.64 137.99 87.34 138.00 86.04 Z" />
<path fill="#e8e8e8" opacity="1.00" d=" M 138.02 91.03 C 152.67 90.97 167.33 90.97 181.99 91.03 C 181.99 92.34 182.00 93.64 182.02 94.95 C 167.34 95.04 152.66 95.03 137.98 94.95 C 137.99 93.65 138.00 92.34 138.02 91.03 Z" />
<path fill="#e8e8e8" opacity="1.00" d=" M 137.98 96.07 C 148.32 95.95 158.67 95.95 169.01 96.05 C 169.00 97.35 169.01 98.65 169.01 99.95 C 158.67 100.05 148.33 100.03 137.99 99.95 C 137.99 98.65 137.99 97.36 137.98 96.07 Z" />
<path fill="#e8e8e8" opacity="1.00" d=" M 138.02 101.03 C 145.35 100.97 152.68 100.95 160.01 101.04 C 160.00 102.35 159.99 103.66 159.98 104.98 C 152.65 105.03 145.32 105.05 137.98 104.96 C 138.00 103.65 138.01 102.34 138.02 101.03 Z" />
<path fill="#e8e8e8" opacity="1.00" d=" M 19.99 158.05 C 78.05 157.97 136.11 157.94 194.17 158.06 C 194.17 158.79 194.18 160.23 194.18 160.95 C 136.12 161.04 78.06 161.03 20.01 160.96 C 20.00 160.23 19.99 158.78 19.99 158.05 Z" />
<path fill="#e8e8e8" opacity="1.00" d=" M 20.00 163.05 C 93.00 162.97 166.01 162.96 239.01 163.05 C 239.01 163.78 239.01 165.23 239.00 165.96 C 166.00 166.03 93.00 166.03 20.00 165.96 C 20.00 165.23 20.00 163.77 20.00 163.05 Z" />
<path fill="#e8e8e8" opacity="1.00" d=" M 19.98 168.06 C 71.40 167.93 122.82 168.01 174.24 168.02 C 174.22 168.77 174.17 170.26 174.14 171.00 C 122.77 170.98 71.40 171.05 20.02 170.96 C 20.01 170.24 19.99 168.78 19.98 168.06 Z" />
<path fill="#e8e8e8" opacity="1.00" d=" M 19.98 173.06 C 48.67 172.91 77.35 173.04 106.04 173.00 C 113.92 173.06 121.81 172.81 129.69 173.17 C 129.69 173.84 129.68 175.17 129.67 175.84 C 93.13 176.19 56.58 175.95 20.03 175.96 C 20.02 175.23 19.99 173.78 19.98 173.06 Z" />
<path fill="#e8e8e8" opacity="1.00" d=" M 20.02 178.03 C 80.68 177.98 141.34 177.96 202.00 178.04 C 202.01 178.77 202.02 180.22 202.03 180.94 C 141.34 181.05 80.66 181.05 19.97 180.94 C 19.98 180.21 20.01 178.76 20.02 178.03 Z" />
<path fill="#e8e8e8" opacity="1.00" d=" M 20.01 183.05 C 71.42 182.98 122.83 182.95 174.24 183.06 C 174.23 183.78 174.21 185.23 174.20 185.96 C 122.80 186.03 71.39 186.05 19.99 185.94 C 19.99 185.22 20.00 183.77 20.01 183.05 Z" />
<path fill="#e8e8e8" opacity="1.00" d=" M 19.99 188.04 C 92.99 187.98 166.00 187.95 239.01 188.06 C 239.01 188.78 239.01 190.23 239.01 190.95 C 166.01 191.04 93.01 191.02 20.01 190.96 C 20.01 190.23 19.99 188.77 19.99 188.04 Z" />
<path fill="#e8e8e8" opacity="1.00" d=" M 20.00 193.04 C 78.05 192.97 136.11 192.96 194.16 193.05 C 194.15 193.77 194.13 195.22 194.11 195.95 C 136.07 196.04 78.03 196.03 19.99 195.95 C 19.99 195.22 20.00 193.77 20.00 193.04 Z" />
<path fill="#e8e8e8" opacity="1.00" d=" M 20.04 210.04 C 99.68 209.96 179.32 209.98 258.96 210.03 C 259.04 220.01 259.03 229.98 258.97 239.96 C 179.32 240.03 99.68 240.03 20.03 239.96 C 19.97 229.99 19.95 220.01 20.04 210.04 M 27.98 218.05 C 27.99 219.68 27.99 221.32 28.00 222.96 C 56.01 223.03 84.01 223.04 112.02 222.95 C 112.01 221.31 112.00 219.68 111.99 218.04 C 83.99 217.97 55.99 217.96 27.98 218.05 Z" />
<path fill="#e8e8e8" opacity="1.00" d=" M 20.03 255.03 C 60.01 254.98 99.99 254.96 139.97 255.05 C 140.03 268.35 140.02 281.65 139.97 294.96 C 100.00 295.04 60.02 295.02 20.04 294.97 C 19.96 281.66 19.97 268.34 20.03 255.03 Z" />
<path fill="#e8e8e8" opacity="1.00" d=" M 171.03 255.04 C 211.01 254.97 250.99 254.98 290.97 255.03 C 291.03 268.34 291.03 281.65 290.97 294.97 C 250.99 295.02 211.00 295.05 171.02 294.95 C 170.99 281.65 170.96 268.34 171.03 255.04 Z" />
<path fill="#e8e8e8" opacity="1.00" d=" M 171.00 310.05 C 200.33 309.97 229.66 309.96 258.99 310.05 C 259.00 310.77 259.01 312.22 259.02 312.94 C 229.68 313.05 200.33 313.04 170.99 312.94 C 170.99 312.22 171.00 310.77 171.00 310.05 Z" />
<path fill="#e8e8e8" opacity="1.00" d=" M 19.97 313.06 C 49.31 312.94 78.65 312.99 107.99 313.04 C 107.99 313.77 108.00 315.22 108.00 315.95 C 78.68 316.04 49.36 316.02 20.04 315.96 C 20.02 315.24 19.99 313.79 19.97 313.06 Z" />
<path fill="#e8e8e8" opacity="1.00" d=" M 170.99 315.04 C 185.66 314.96 200.33 314.96 215.00 315.04 C 215.00 315.77 215.01 317.22 215.01 317.95 C 200.34 318.04 185.67 318.04 171.00 317.95 C 171.00 317.22 170.99 315.77 170.99 315.04 Z" />
<path fill="#e8e8e8" opacity="1.00" d=" M 20.00 318.05 C 34.67 317.97 49.34 317.95 64.01 318.05 C 64.01 318.78 64.00 320.23 64.00 320.96 C 49.33 321.03 34.66 321.05 19.99 320.94 C 19.99 320.22 19.99 318.77 20.00 318.05 Z" />
</g>
<g id="#b6b6b6ff">
<path fill="#b6b6b6" opacity="1.00" d=" M 202.00 26.01 C 215.33 25.99 228.67 25.99 242.00 26.01 C 242.00 27.34 242.00 28.66 242.00 29.99 C 228.67 30.01 215.33 30.00 202.00 30.00 C 202.00 28.67 202.00 27.34 202.00 26.01 Z" />
<path fill="#b6b6b6" opacity="1.00" d=" M 257.00 26.01 C 270.33 26.00 283.67 25.99 297.00 26.01 C 297.00 27.34 297.00 28.66 297.00 29.99 C 283.67 30.00 270.33 30.00 257.00 30.00 C 257.00 28.67 257.00 27.34 257.00 26.01 Z" />
<path fill="#b6b6b6" opacity="1.00" d=" M 20.00 30.01 C 28.33 29.99 36.66 30.00 45.00 30.01 C 45.00 30.75 45.00 32.24 45.00 32.99 C 36.67 33.01 28.34 33.01 20.00 33.00 C 20.00 32.25 20.00 30.76 20.00 30.01 Z" />
<path fill="#b6b6b6" opacity="1.00" d=" M 60.00 30.01 C 68.33 29.99 76.67 29.99 85.00 30.01 C 85.00 30.75 85.00 32.24 85.00 32.99 C 76.67 33.01 68.33 33.01 60.00 32.99 C 60.00 32.25 60.00 30.75 60.00 30.01 Z" />
<path fill="#b6b6b6" opacity="1.00" d=" M 100.00 30.01 C 108.33 29.99 116.67 29.99 125.00 30.01 C 125.00 30.75 125.00 32.25 125.00 32.99 C 116.67 33.01 108.33 33.01 100.00 32.99 C 100.00 32.25 100.00 30.75 100.00 30.01 Z" />
<path fill="#b6b6b6" opacity="1.00" d=" M 20.00 63.00 C 55.00 63.00 90.00 63.00 125.00 63.00 C 125.00 86.33 125.00 109.67 125.00 133.00 C 90.00 133.00 55.00 133.00 20.00 133.00 C 20.00 109.67 20.00 86.34 20.00 63.00 Z" />
<path fill="#b6b6b6" opacity="1.00" d=" M 138.00 63.00 C 177.67 63.00 217.33 63.00 257.00 63.00 C 256.99 65.33 256.99 67.66 257.00 70.00 C 217.33 70.00 177.67 70.00 138.00 70.00 C 138.00 67.67 138.00 65.33 138.00 63.00 Z" />
<path fill="#b6b6b6" opacity="1.00" d=" M 138.00 72.00 C 166.00 72.00 194.00 72.00 222.00 72.00 C 222.00 74.67 221.99 77.33 222.00 80.00 C 194.00 80.00 166.00 80.00 138.00 80.00 C 138.00 77.33 138.00 74.67 138.00 72.00 Z" />
<path fill="#b6b6b6" opacity="1.00" d=" M 20.00 148.00 C 48.00 148.00 76.00 148.00 104.00 148.00 C 104.00 149.67 104.00 151.33 104.00 153.00 C 76.00 153.00 48.00 153.01 20.00 152.99 C 20.00 151.33 20.00 149.66 20.00 148.00 Z" />
<path fill="#b6b6b6" opacity="1.00" d=" M 113.00 148.00 C 129.33 148.00 145.66 148.00 162.00 148.00 C 162.00 149.66 162.00 151.33 162.00 153.00 C 145.67 153.01 129.33 153.00 113.00 153.00 C 113.00 151.33 113.00 149.66 113.00 148.00 Z" />
<path fill="#b6b6b6" opacity="1.00" d=" M 20.00 303.01 C 51.33 302.99 82.67 302.99 114.00 303.01 C 114.00 303.75 114.00 305.25 114.00 305.99 C 82.67 306.01 51.33 306.01 20.00 305.99 C 20.00 305.25 20.00 303.75 20.00 303.01 Z" />
<path fill="#b6b6b6" opacity="1.00" d=" M 171.00 303.01 C 202.33 302.99 233.67 303.00 265.00 303.01 C 265.00 303.75 265.00 305.25 265.00 305.99 C 233.67 306.01 202.33 306.00 171.00 305.99 C 171.00 305.25 171.00 303.75 171.00 303.01 Z" />
<path fill="#b6b6b6" opacity="1.00" d=" M 20.00 308.01 C 31.67 307.99 43.34 307.99 55.00 308.01 C 55.00 308.75 55.00 310.25 55.00 310.99 C 43.33 311.01 31.67 311.01 20.00 310.99 C 20.00 310.25 20.00 308.75 20.00 308.01 Z" />
</g>
<g id="#ffb2b2ff">
<path fill="#ffb2b2" opacity="1.00" d=" M 14.01 56.00 C 53.00 56.00 92.00 55.99 131.00 56.01 C 131.00 83.67 131.00 111.33 131.00 139.00 C 92.00 139.00 53.00 139.00 14.00 138.99 C 14.00 111.33 13.99 83.67 14.01 56.00 M 15.01 57.00 C 15.00 84.00 15.00 111.00 15.00 138.00 C 53.33 138.00 91.67 138.01 130.00 137.99 C 130.00 111.00 130.01 84.00 129.99 57.00 C 91.66 57.00 53.33 57.00 15.01 57.00 Z" />
<path fill="#ffb2b2" opacity="1.00" d=" M 14.00 248.01 C 58.33 247.99 102.66 248.00 147.00 248.01 C 147.00 274.34 147.00 300.67 147.00 327.00 C 102.67 327.00 58.33 327.00 14.00 327.00 C 14.00 300.67 14.00 274.34 14.00 248.01 M 15.00 249.01 C 15.00 274.67 14.99 300.33 15.00 326.00 C 58.67 326.00 102.33 326.00 145.99 326.00 C 146.01 300.33 146.00 274.67 146.00 249.00 C 102.33 249.00 58.67 248.99 15.00 249.01 Z" />
</g>
<g id="#d9d9d9ff">
<path fill="#d9d9d9" opacity="1.00" d=" M 138.00 118.02 C 150.00 117.99 162.00 117.98 174.00 118.01 C 174.00 120.33 174.00 122.66 174.01 124.98 C 162.00 125.02 150.00 125.01 137.99 124.98 C 138.00 122.66 138.00 120.34 138.00 118.02 Z" />
<path fill="#d9d9d9" opacity="1.00" d=" M 181.99 118.02 C 188.00 117.98 194.00 117.98 200.01 118.02 C 200.00 120.34 199.99 122.66 200.00 124.99 C 194.00 125.02 188.00 125.02 182.00 124.99 C 182.00 122.66 182.00 120.34 181.99 118.02 Z" />
</g>
<g id="#d1d1d1ff">
<path fill="#d1d1d1" opacity="1.00" d=" M 27.98 218.05 C 55.99 217.96 83.99 217.97 111.99 218.04 C 112.00 219.68 112.01 221.31 112.02 222.95 C 84.01 223.04 56.01 223.03 28.00 222.96 C 27.99 221.32 27.99 219.68 27.98 218.05 Z" />
</g>
<g id="#757575ff">
<path fill="#757575" opacity="1.00" d=" M 148.25 326.33 C 149.63 325.47 151.74 326.40 151.91 328.04 C 152.53 329.56 150.55 331.45 149.04 330.90 C 146.80 330.67 146.29 327.37 148.25 326.33 Z" />
<path fill="#757575" opacity="1.00" d=" M 158.27 326.30 C 161.05 324.60 163.66 329.37 160.64 330.68 C 157.91 332.30 155.44 327.76 158.27 326.30 M 159.14 327.27 C 157.51 327.64 158.27 330.28 159.85 329.74 C 161.48 329.36 160.71 326.72 159.14 327.27 Z" />
<path fill="#757575" opacity="1.00" d=" M 168.34 326.34 C 171.00 324.56 173.67 329.37 170.66 330.67 C 167.99 332.42 165.37 327.62 168.34 326.34 M 169.16 327.26 C 167.52 327.61 168.25 330.26 169.83 329.74 C 171.47 329.39 170.74 326.74 169.16 327.26 Z" />
</g>
</svg>
