<?xml version="1.0" encoding="UTF-8" standalone="no"?>
<!-- Created with Inkscape (http://www.inkscape.org/) -->

<svg
   xmlns:dc="http://purl.org/dc/elements/1.1/"
   xmlns:cc="http://creativecommons.org/ns#"
   xmlns:rdf="http://www.w3.org/1999/02/22-rdf-syntax-ns#"
   xmlns:svg="http://www.w3.org/2000/svg"
   xmlns="http://www.w3.org/2000/svg"
   xmlns:sodipodi="http://sodipodi.sourceforge.net/DTD/sodipodi-0.dtd"
   xmlns:inkscape="http://www.inkscape.org/namespaces/inkscape"
   width="90.311111mm"
   height="107.80889mm"
   viewBox="0 0 320 382.00001"
   id="svg4133"
   version="1.1"
   inkscape:version="0.91 r13725"
   sodipodi:docname="back-2.svg">
  <defs
     id="defs4135" />
  <sodipodi:namedview
     id="base"
     pagecolor="#ffffff"
     bordercolor="#666666"
     borderopacity="1.0"
     inkscape:pageopacity="0.0"
     inkscape:pageshadow="2"
     inkscape:zoom="0.7"
     inkscape:cx="43.600527"
     inkscape:cy="301.66596"
     inkscape:document-units="px"
     inkscape:current-layer="layer1"
     showgrid="false"
     fit-margin-top="0"
     fit-margin-left="0"
     fit-margin-right="0"
     fit-margin-bottom="0"
     inkscape:window-width="1366"
     inkscape:window-height="716"
     inkscape:window-x="-8"
     inkscape:window-y="-8"
     inkscape:window-maximized="1"
     showguides="true"
     inkscape:guide-bbox="true">
    <sodipodi:guide
       position="8.5862966,177.78685"
       orientation="0,1"
       id="guide4924" />
    <sodipodi:guide
       position="3.788072,169.70563"
       orientation="0,1"
       id="guide4926" />
    <sodipodi:guide
       position="-223.74879,161.87695"
       orientation="0,1"
       id="guide4928" />
    <sodipodi:guide
       position="-237.89092,158.84649"
       orientation="0,1"
       id="guide4932" />
    <sodipodi:guide
       position="-237.76466,154.55334"
       orientation="0,1"
       id="guide4934" />
    <sodipodi:guide
       position="-233.75561,157.61537"
       orientation="0,1"
       id="guide4936" />
    <sodipodi:guide
       position="34.285714,291.42858"
       orientation="1,0"
       id="guide4938" />
    <sodipodi:guide
       position="103.92857,195.53572"
       orientation="1,0"
       id="guide4940" />
    <sodipodi:guide
       position="75.714286,192.85715"
       orientation="1,0"
       id="guide4942" />
  </sodipodi:namedview>
  <metadata
     id="metadata4138">
    <rdf:RDF>
      <cc:Work
         rdf:about="">
        <dc:format>image/svg+xml</dc:format>
        <dc:type
           rdf:resource="http://purl.org/dc/dcmitype/StillImage" />
        <dc:title></dc:title>
      </cc:Work>
    </rdf:RDF>
  </metadata>
  <g
     inkscape:label="Layer 1"
     inkscape:groupmode="layer"
     id="layer1"
     transform="translate(-42.857143,-453.21936)">
    <rect
       style="fill:#ffffff;fill-opacity:1;stroke:none;stroke-width:1.20000005;stroke-miterlimit:4;stroke-dasharray:none;stroke-opacity:1"
       id="rect4681"
       width="320"
       height="382"
       x="42.857143"
       y="453.21936" />
    <path
       style="opacity:1;fill:#ffffff"
       inkscape:connector-curvature="0"
       id="path7"
       d="m 63.982801,504.58042 c 38.329999,-0.01 76.659999,-0.01 114.989999,0 0.01,26.99 0.01,53.99 0.01,80.98 -38.33,0.02 -76.66,0.01 -114.999999,0.01 0,-27 0,-54 0,-80.99 m 5,5.99 c 0,23.34 0,46.67 0,70 34.999999,0 69.999999,0 104.999999,0 0,-23.34 0,-46.67 0,-70 -35,0 -70,0 -104.999999,0 z" />
    <path
       style="opacity:1;fill:#ffffff"
       inkscape:connector-curvature="0"
       id="path9"
       d="m 63.992801,696.58042 c 43.659999,-0.01 87.319999,-0.02 130.989999,0 0,25.66 0.01,51.32 -0.01,76.99 -43.66,0 -87.32,0 -130.979999,0 -0.02,-25.67 -0.01,-51.33 0,-76.99 m 5.04,6.02 c -0.1,13.31 -0.08,26.62 -0.01,39.93 39.979999,0.06 79.959999,0.09 119.929999,-0.01 0.05,-13.31 0.07,-26.61 -0.01,-39.91 -39.97,-0.07 -79.94,-0.06 -119.909999,-0.01 m -0.05,47.98 c 0,0.75 0,2.24 0,2.98 31.329999,0.02 62.669999,0.01 93.999999,0 0,-0.74 0,-2.24 0,-2.98 -31.33,-0.01 -62.67,-0.02 -93.999999,0 m 0,5 c 0,0.74 0,2.24 0,2.98 11.67,0.02 23.33,0.02 34.999999,0 0,-0.74 0,-2.24 0,-2.98 -11.669999,-0.02 -23.329999,-0.02 -34.999999,0 m 0.02,5.03 c -0.02,0.72 -0.05,2.17 -0.07,2.89 29.349998,0.13 58.699999,0.09 88.049999,0.03 0,-0.73 -0.01,-2.2 -0.01,-2.93 -29.33,-0.04 -58.650001,-0.08 -87.969999,0.01 m -0.01,5 c 0,0.73 -0.01,2.19 -0.01,2.92 14.67,0.07 29.339998,0.1 44.009999,-0.02 0,-0.72 0,-2.17 0,-2.89 -14.670001,-0.1 -29.339999,-0.08 -43.999999,-0.01 z" />
    <path
       style="opacity:1;fill:#ffffff"
       inkscape:connector-curvature="0"
       id="path11"
       d="m 208.1528,774.82042 c 1.59,-0.5 2.29,2.15 0.65,2.49 -1.59,0.5 -2.29,-2.15 -0.65,-2.49 z" />
    <path
       style="opacity:1;fill:#ffffff"
       inkscape:connector-curvature="0"
       id="path13"
       d="m 218.1528,774.83042 c 1.59,-0.51 2.29,2.15 0.65,2.48 -1.59,0.5 -2.29,-2.16 -0.65,-2.48 z" />
    <g
       transform="translate(48.982801,447.57042)"
       id="#e8e8e8ff">
      <path
         style="opacity:1;fill:#e8e8e8"
         inkscape:connector-curvature="0"
         d="m 157.34,18.38 c 7.88,-2.17 16.6,4.37 16.63,12.56 0.53,7.23 -5.74,13.93 -12.96,14.05 -7.18,0.44 -13.92,-5.75 -13.98,-12.97 -0.41,-6.26 4.23,-12.25 10.31,-13.64 z"
         id="path16" />
      <path
         style="opacity:1;fill:#e8e8e8"
         inkscape:connector-curvature="0"
         d="m 201.99,33.05 c 8.33,-0.09 16.66,-0.09 25,-0.01 0,0.73 0.02,2.18 0.03,2.9 -8.34,0.12 -16.68,0.09 -25.02,0.02 0,-0.73 -0.01,-2.18 -0.01,-2.91 z"
         id="path18" />
      <path
         style="opacity:1;fill:#e8e8e8"
         inkscape:connector-curvature="0"
         d="m 257,33.04 c 8.33,-0.08 16.67,-0.1 25.01,0.01 0,0.73 -0.01,2.18 -0.01,2.91 -8.33,0.08 -16.67,0.09 -25,0 0,-0.73 0,-2.19 0,-2.92 z"
         id="path20" />
      <path
         style="opacity:1;fill:#e8e8e8"
         inkscape:connector-curvature="0"
         d="m 137.99,86.05 c 11.68,-0.09 23.35,-0.09 35.03,0 -0.01,1.3 -0.03,2.61 -0.04,3.92 -11.66,0.05 -23.33,0.08 -34.99,-0.02 0,-1.3 0,-2.6 0,-3.9 z"
         id="path22" />
      <path
         style="opacity:1;fill:#e8e8e8"
         inkscape:connector-curvature="0"
         d="m 137.99,91.06 c 14.67,-0.11 29.34,-0.09 44.01,-0.02 0,1.31 0,2.61 0,3.92 -14.67,0.07 -29.34,0.09 -44.01,-0.02 0,-1.3 0,-2.59 0,-3.88 z"
         id="path24" />
      <path
         style="opacity:1;fill:#e8e8e8"
         inkscape:connector-curvature="0"
         d="m 138.03,96.04 c 10.32,-0.07 20.64,-0.08 30.96,0 0.01,1.3 0.02,2.61 0.02,3.91 -10.34,0.09 -20.69,0.09 -31.04,0 0.02,-1.31 0.03,-2.61 0.06,-3.91 z"
         id="path26" />
      <path
         style="opacity:1;fill:#e8e8e8"
         inkscape:connector-curvature="0"
         d="m 137.99,101.05 c 7.33,-0.08 14.67,-0.1 22,0 0.01,1.29 0.02,2.59 0.03,3.9 -7.34,0.1 -14.68,0.1 -22.02,0.01 -0.01,-1.31 -0.01,-2.61 -0.01,-3.91 z"
         id="path28" />
      <path
         style="opacity:1;fill:#e8e8e8"
         inkscape:connector-curvature="0"
         d="m 19.98,158.04 c 58.07,-0.06 116.14,-0.09 174.2,0.02 -0.01,0.72 -0.02,2.16 -0.03,2.88 -58.05,0.12 -116.09,0.08 -174.13,0.02 -0.01,-0.73 -0.03,-2.19 -0.04,-2.92 z"
         id="path30" />
      <path
         style="opacity:1;fill:#e8e8e8"
         inkscape:connector-curvature="0"
         d="m 19.99,163.05 c 73,-0.08 146.01,-0.08 219.02,0 0,0.72 0,2.17 0,2.9 -73,0.1 -145.99,0.07 -218.99,0.01 -0.01,-0.73 -0.03,-2.19 -0.03,-2.91 z"
         id="path32" />
      <path
         style="opacity:1;fill:#e8e8e8"
         inkscape:connector-curvature="0"
         d="m 19.99,168.05 c 51.39,-0.09 102.79,-0.08 154.19,0 0.02,0.72 0.06,2.18 0.08,2.9 -51.42,0.1 -102.84,0.07 -154.25,0.01 -0.01,-0.72 -0.02,-2.18 -0.02,-2.91 z"
         id="path34" />
      <path
         style="opacity:1;fill:#e8e8e8"
         inkscape:connector-curvature="0"
         d="m 19.99,173.05 c 34,-0.14 68.01,0.02 102.01,-0.08 2.57,0.02 5.14,0.12 7.71,0.21 -0.01,0.67 -0.03,1.99 -0.05,2.66 -36.55,0.35 -73.11,0.13 -109.67,0.11 0,-0.73 0,-2.18 0,-2.9 z"
         id="path36" />
      <path
         style="opacity:1;fill:#e8e8e8"
         inkscape:connector-curvature="0"
         d="m 19.99,178.05 c 60.67,-0.08 121.35,-0.1 182.02,0.01 0,0.72 0,2.17 0,2.89 -60.68,0.08 -121.36,0.1 -182.03,-0.01 0,-0.72 0.01,-2.17 0.01,-2.89 z"
         id="path38" />
      <path
         style="opacity:1;fill:#e8e8e8"
         inkscape:connector-curvature="0"
         d="m 20.03,183.03 c 51.39,-0.05 102.78,-0.07 154.18,0.01 0,0.73 0.02,2.18 0.03,2.91 -51.42,0.09 -102.85,0.08 -154.27,0 0.02,-0.73 0.04,-2.19 0.06,-2.92 z"
         id="path40" />
      <path
         style="opacity:1;fill:#e8e8e8"
         inkscape:connector-curvature="0"
         d="m 20.02,188.04 c 73,-0.06 146,-0.09 218.99,0.02 0,0.72 -0.01,2.17 -0.01,2.9 -73.01,0.06 -146.03,0.09 -219.04,-0.02 0.02,-0.72 0.05,-2.17 0.06,-2.9 z"
         id="path42" />
      <path
         style="opacity:1;fill:#e8e8e8"
         inkscape:connector-curvature="0"
         d="m 19.99,193.05 c 58.09,-0.08 116.17,-0.09 174.25,0 -0.05,0.73 -0.14,2.18 -0.19,2.9 -58.01,0.09 -116.03,0.07 -174.04,0.01 0,-0.73 -0.01,-2.18 -0.02,-2.91 z"
         id="path44" />
      <path
         style="opacity:1;fill:#e8e8e8"
         inkscape:connector-curvature="0"
         d="m 20.03,210.04 c 79.64,-0.08 159.28,-0.05 238.92,-0.01 0.1,9.97 0.08,19.95 0.01,29.93 -79.64,0.07 -159.28,0.07 -238.93,0 -0.07,-9.97 -0.06,-19.95 0,-29.92 m 7.97,8 c 0,1.64 0,3.27 -0.01,4.91 28.01,0.08 56.02,0.09 84.03,0 -0.01,-1.64 -0.02,-3.28 -0.02,-4.91 -28,-0.07 -56,-0.07 -84,0 z"
         id="path46" />
      <path
         style="opacity:1;fill:#e8e8e8"
         inkscape:connector-curvature="0"
         d="m 20.05,255.03 c 39.97,-0.05 79.94,-0.06 119.91,0.01 0.08,13.3 0.06,26.6 0.01,39.91 -39.97,0.1 -79.95,0.07 -119.93,0.01 -0.07,-13.31 -0.09,-26.62 0.01,-39.93 z"
         id="path48" />
      <path
         style="opacity:1;fill:#e8e8e8"
         inkscape:connector-curvature="0"
         d="m 171.03,255.04 c 39.97,-0.09 79.95,-0.05 119.92,-0.01 0.11,13.31 0.07,26.62 0.02,39.93 -39.98,0.07 -79.96,0.08 -119.94,0 -0.07,-13.31 -0.05,-26.61 0,-39.92 z"
         id="path50" />
      <path
         style="opacity:1;fill:#e8e8e8"
         inkscape:connector-curvature="0"
         d="m 171.01,310.03 c 29.34,-0.03 58.68,-0.09 88.02,0.03 -0.01,0.72 -0.03,2.17 -0.03,2.89 -29.33,0.1 -58.66,0.07 -87.98,0.02 -0.01,-0.74 -0.01,-2.21 -0.01,-2.94 z"
         id="path52" />
      <path
         style="opacity:1;fill:#e8e8e8"
         inkscape:connector-curvature="0"
         d="m 20.02,313.04 c 29.32,-0.09 58.64,-0.05 87.97,-0.01 0,0.73 0.01,2.2 0.01,2.93 -29.35,0.06 -58.7,0.1 -88.05,-0.03 0.02,-0.72 0.05,-2.17 0.07,-2.89 z"
         id="path54" />
      <path
         style="opacity:1;fill:#e8e8e8"
         inkscape:connector-curvature="0"
         d="m 170.98,315.05 c 14.67,-0.1 29.35,-0.08 44.02,-0.01 0.01,0.73 0.03,2.17 0.04,2.89 -14.68,0.13 -29.36,0.1 -44.04,0.02 -0.01,-0.72 -0.01,-2.17 -0.02,-2.9 z"
         id="path56" />
      <path
         style="opacity:1;fill:#e8e8e8"
         inkscape:connector-curvature="0"
         d="m 20.01,318.04 c 14.66,-0.07 29.33,-0.09 44,0.01 0,0.72 0,2.17 0,2.89 -14.67,0.12 -29.34,0.09 -44.01,0.02 0,-0.73 0.01,-2.19 0.01,-2.92 z"
         id="path58" />
    </g>
    <g
       transform="translate(48.982801,447.57042)"
       id="#b6b6b6ff">
      <path
         style="opacity:1;fill:#b6b6b6"
         inkscape:connector-curvature="0"
         d="m 202,26.01 c 13.33,-0.02 26.66,-0.01 40,0 0,1.32 0,2.65 0,3.98 -13.33,0.02 -26.67,0.01 -40,0 0,-1.32 -0.01,-2.65 0,-3.98 z"
         id="path61" />
      <path
         style="opacity:1;fill:#b6b6b6"
         inkscape:connector-curvature="0"
         d="M 257,26.01 C 270.33,25.99 283.66,26 297,26 c 0,1.33 0,2.66 0,4 -13.34,0 -26.67,0.01 -40,-0.01 -0.01,-1.33 -0.01,-2.66 0,-3.98 z"
         id="path63" />
      <path
         style="opacity:1;fill:#b6b6b6"
         inkscape:connector-curvature="0"
         d="m 20,30.01 c 8.33,-0.02 16.67,-0.02 25,0 0,0.74 0,2.24 0,2.98 -8.33,0.02 -16.67,0.02 -25,0 0,-0.74 0,-2.24 0,-2.98 z"
         id="path65" />
      <path
         style="opacity:1;fill:#b6b6b6"
         inkscape:connector-curvature="0"
         d="m 60,30.01 c 8.33,-0.02 16.67,-0.02 25,0 0,0.75 0,2.24 0,2.98 -8.33,0.02 -16.67,0.02 -25,0 0,-0.74 0,-2.24 0,-2.98 z"
         id="path67" />
      <path
         style="opacity:1;fill:#b6b6b6"
         inkscape:connector-curvature="0"
         d="m 100,30.01 c 8.33,-0.02 16.67,-0.02 25,0 0,0.74 0,2.23 0,2.98 -8.33,0.02 -16.67,0.02 -25,0 0,-0.74 0,-2.24 0,-2.98 z"
         id="path69" />
      <path
         style="opacity:1;fill:#b6b6b6"
         inkscape:connector-curvature="0"
         d="m 20,63 c 35,0 70,0 105,0 0,23.33 0,46.66 0,70 -35,0 -70,0 -105,0 0,-23.33 0,-46.66 0,-70 z"
         id="path71" />
      <path
         style="opacity:1;fill:#b6b6b6"
         inkscape:connector-curvature="0"
         d="m 138,63 c 39.67,0 79.33,0 119,0 -0.01,2.33 -0.01,4.66 0,7 -39.66,0.01 -79.33,0 -119,0 0.01,-2.33 0.01,-4.67 0,-7 z"
         id="path73" />
      <path
         style="opacity:1;fill:#b6b6b6"
         inkscape:connector-curvature="0"
         d="m 138,72 c 28,0 56,0 84,0 -0.01,2.67 0,5.33 0.01,8 C 194,80 166,80.01 138,79.99 c 0,-2.66 0,-5.32 0,-7.99 z"
         id="path75" />
      <path
         style="opacity:1;fill:#b6b6b6"
         inkscape:connector-curvature="0"
         d="m 20,148 c 28,-0.01 56,0 84,0 0,1.67 0,3.33 0,5 -28,0 -56,0 -84,0 0,-1.67 0,-3.33 0,-5 z"
         id="path77" />
      <path
         style="opacity:1;fill:#b6b6b6"
         inkscape:connector-curvature="0"
         d="m 113,148 c 16.33,-0.01 32.67,0 49,0 0,1.67 -0.01,3.33 0,5 -16.34,0 -32.67,0 -49,0 0,-1.67 0,-3.33 0,-5 z"
         id="path79" />
      <path
         style="opacity:1;fill:#b6b6b6"
         inkscape:connector-curvature="0"
         d="m 20,303.01 c 31.33,-0.02 62.67,-0.01 94,0 0,0.74 0,2.24 0,2.98 -31.33,0.01 -62.67,0.02 -94,0 0,-0.74 0,-2.23 0,-2.98 z"
         id="path81" />
      <path
         style="opacity:1;fill:#b6b6b6"
         inkscape:connector-curvature="0"
         d="m 171,303.01 c 31.33,-0.01 62.67,-0.02 94,0 0,0.74 0,2.24 0,2.98 -31.33,0.02 -62.67,0.02 -94,0 0,-0.74 0,-2.24 0,-2.98 z"
         id="path83" />
      <path
         style="opacity:1;fill:#b6b6b6"
         inkscape:connector-curvature="0"
         d="m 20,308.01 c 11.67,-0.02 23.33,-0.02 35,0 0,0.74 0,2.24 0,2.98 -11.67,0.02 -23.33,0.02 -35,0 0,-0.74 0,-2.24 0,-2.98 z"
         id="path85" />
    </g>
    <g
       transform="translate(48.982801,447.57042)"
       id="#ffb2b2ff">
      <path
         style="opacity:1;fill:#ffb2b2"
         inkscape:connector-curvature="0"
         d="M 14.01,56 C 53,56 92,56 131,56 c 0,27.67 0,55.33 0,83 -39,0 -78,0 -116.99,0 -0.02,-27.67 -0.01,-55.33 0,-83 M 15,57.01 C 15,84 15,111 15,138 c 38.34,0 76.67,0.01 115,-0.01 C 130,111 130,84 129.99,57.01 91.66,57 53.33,57 15,57.01 Z"
         id="path88" />
      <path
         style="opacity:1;fill:#ffb2b2"
         inkscape:connector-curvature="0"
         d="m 14.01,248 c 44.33,0 88.66,0 132.99,0 0,26.33 0.01,52.67 -0.01,79 -44.33,0 -88.66,0.01 -132.99,-0.01 0,-26.33 -0.01,-52.66 0.01,-78.99 m 1,1.01 c -0.01,25.66 -0.02,51.32 0,76.99 43.66,0 87.32,0 130.98,0 0.02,-25.67 0.01,-51.33 0.01,-76.99 -43.67,-0.02 -87.33,-0.01 -130.99,0 z"
         id="path90" />
    </g>
    <g
       transform="translate(48.982801,447.57042)"
       id="#d9d9d9ff">
      <path
         style="opacity:1;fill:#d9d9d9"
         inkscape:connector-curvature="0"
         d="m 137.98,118.02 c 12.01,-0.04 24.02,-0.05 36.04,0 -0.03,2.32 -0.03,4.65 -0.02,6.97 -12,0.01 -24,0.03 -36,0 0.01,-2.33 0,-4.65 -0.02,-6.97 z"
         id="path93" />
      <path
         style="opacity:1;fill:#d9d9d9"
         inkscape:connector-curvature="0"
         d="m 181.99,118.01 c 6.01,-0.03 12.01,-0.03 18.02,0.01 -0.02,2.32 -0.02,4.64 0,6.96 C 194,125.02 188,125.01 182,125 c 0.01,-2.33 0.01,-4.66 -0.01,-6.99 z"
         id="path95" />
    </g>
    <g
       transform="translate(48.982801,447.57042)"
       id="#d1d1d1ff">
      <path
         style="opacity:1;fill:#d1d1d1"
         inkscape:connector-curvature="0"
         d="m 28,218.04 c 28,-0.07 56,-0.07 84,0 0,1.63 0.01,3.27 0.02,4.91 -28.01,0.09 -56.02,0.08 -84.03,0 C 28,221.31 28,219.68 28,218.04 Z"
         id="path98" />
    </g>
    <circle
       style="fill:#757575;fill-opacity:1;stroke:#757575;stroke-width:0.9761194;stroke-miterlimit:4;stroke-dasharray:none;stroke-opacity:1"
       id="path6295"
       cx="198.34387"
       cy="777.13562"
       r="2.2369404" />
    <ellipse
       style="fill:#000000;fill-opacity:0;stroke:#757575;stroke-width:0.99820161;stroke-miterlimit:4;stroke-dasharray:none;stroke-opacity:1"
       id="path6295-9"
       cx="217.56531"
       cy="777.13562"
       rx="2.350899"
       ry="2.225899" />
    <circle
       style="fill:#000000;fill-opacity:0;stroke:#757575;stroke-width:0.97611946;stroke-miterlimit:4;stroke-dasharray:none;stroke-opacity:1"
       id="path6295-0"
       cx="208.03674"
       cy="777.13562"
       r="2.2369404" />
    <rect
       style="fill:#d1d1d1;fill-opacity:1;stroke:none;stroke-width:1.20000005;stroke-miterlimit:4;stroke-dasharray:none;stroke-opacity:1"
       id="rect4944"
       width="69.642853"
       height="3.0304599"
       x="77.142853"
       y="673.34241" />
    <rect
       style="fill:#d1d1d1;fill-opacity:1;stroke:none;stroke-width:1.20000005;stroke-miterlimit:4;stroke-dasharray:none;stroke-opacity:1"
       id="rect4946"
       width="41.428574"
       height="3.0620298"
       x="77.142853"
       y="677.604" />
  </g>
</svg>
