<?xml version="1.0" encoding="UTF-8" standalone="no"?>
<!-- Created with Inkscape (http://www.inkscape.org/) -->

<svg
   xmlns:svg="http://www.w3.org/2000/svg"
   xmlns="http://www.w3.org/2000/svg"
   xmlns:inkscape="http://www.inkscape.org/namespaces/inkscape"
   width="310"
   height="382">
  <rect
     style="fill:#ffffff;fill-opacity:1;stroke:none;stroke-width:1.79999995;stroke-miterlimit:4;stroke-dasharray:none;stroke-opacity:1"
     id="rect6034"
     width="310"
     height="382"
     x="-8.5894007e-006"
     y="0.20710707" />
  <path
     id="path10"
     d="m 159.68314,15.824062 c 6.77156,-1.89 14.43438,2.86 15.84875,9.99 1.75344,6.97 -2.79969,14.73 -9.64875,16.22 -6.71344,1.85 -14.28906,-2.82 -15.77125,-9.86 -1.80187,-6.97 2.72219,-14.81 9.57125,-16.35 z"
     inkscape:connector-curvature="0"
     style="opacity:1;fill:#e8e8e8;stroke:none" />
  <path
     id="path12"
     d="m 202.99595,30.484062 c 8.07938,-0.14 16.15875,-0.09 24.24782,0.01 -0.029,0.72 -0.0677,2.17 -0.0969,2.9 -8.03094,0.05 -16.06187,0.11 -24.09281,-0.01 -0.01,-0.73 -0.0387,-2.18 -0.0581,-2.9 z"
     inkscape:connector-curvature="0"
     style="opacity:1;fill:#e8e8e8;stroke:none" />
  <path
     id="path14"
     d="m 256.3547,30.464062 c 8.06,-0.05 16.12,-0.11 24.18,0.02 -0.029,0.73 -0.0677,2.18 -0.0871,2.91 -8.03094,0.05 -16.06188,0.06 -24.08313,-0.02 0,-0.72 -0.01,-2.18 -0.01,-2.91 z"
     inkscape:connector-curvature="0"
     style="opacity:1;fill:#e8e8e8;stroke:none" />
  <path
     id="path16"
     d="m 26.741572,60.464062 c 16.12,-0.05 32.230313,-0.1 48.350313,0.02 0.05812,8.3 0.135625,16.61 -0.0098,24.91 -16.119938,0.03 -32.249625,0.12 -48.369625,-0.05 -0.0097,-8.3 -0.0775,-16.59 0.02906,-24.88 z"
     inkscape:connector-curvature="0"
     style="opacity:1;fill:#e8e8e8;stroke:none" />
  <path
     id="path18"
     d="m 101.3547,60.464062 c 16.11031,-0.09 32.22063,-0.06 48.33094,0 0.0871,8.3 0.10663,16.61 0,24.92 -16.12969,0.03 -32.25938,0.16 -48.38907,-0.06 0.0194,-8.28 -0.0484,-16.57 0.0581,-24.86 z"
     inkscape:connector-curvature="0"
     style="opacity:1;fill:#e8e8e8;stroke:none" />
  <path
     id="path20"
     d="m 175.94845,60.474062 c 16.10063,-0.1 32.20125,-0.08 48.31157,-0.01 0.155,8.31 0.0677,16.61 0.0484,24.92 -16.12,0.06 -32.24,0.07 -48.36,0.02 -0.0871,-8.31 -0.12594,-16.62 0,-24.93 z"
     inkscape:connector-curvature="0"
     style="opacity:1;fill:#e8e8e8;stroke:none" />
  <path
     id="path22"
     d="m 238.89783,60.454062 c 18.70656,-0.06 37.40344,-0.05 56.11,0.02 0.029,30.62 0.10662,61.239998 -0.01,91.859998 -18.68719,0.2 -37.38406,0.05 -56.08094,0.07 -0.10662,-30.65 -0.0775,-61.299998 -0.0194,-91.949998 m 5.77375,5.98 c 0,1.32 -0.01,2.65 -0.01,3.97 12.92312,0.04 25.83656,0.03 38.75968,0.01 0,-1.33 0,-2.65 0.01,-3.97 -12.92312,-0.04 -25.83656,-0.03 -38.75968,-0.01 z"
     inkscape:connector-curvature="0"
     style="opacity:1;fill:#e8e8e8;stroke:none" />
  <path
     id="path24"
     d="m 37.388135,91.474062 c 9.038437,-0.09 18.086562,-0.09 27.125,0.04 -0.01937,0.71 -0.05812,2.12 -0.0775,2.83 -9.009375,0.12 -18.028438,0.17 -27.037813,0.01 0,-0.72 -0.0098,-2.16 -0.0098,-2.88 z"
     inkscape:connector-curvature="0"
     style="opacity:1;fill:#e8e8e8;stroke:none" />
  <path
     id="path26"
     d="m 111.95283,91.484062 c 9.02875,-0.14 18.06719,-0.05 27.09594,-0.02 0,0.73 -0.01,2.19 -0.0194,2.92 -9.00937,0.08 -18.02844,0.08 -27.0475,-0.01 -0.01,-0.72 -0.0194,-2.16 -0.0291,-2.89 z"
     inkscape:connector-curvature="0"
     style="opacity:1;fill:#e8e8e8;stroke:none" />
  <path
     id="path28"
     d="m 186.64345,91.434062 c 8.99969,0 18.00907,-0.08 27.00875,0.04 -0.01,0.73 -0.0194,2.19 -0.0291,2.91 -9.01906,0.07 -18.04781,0.08 -27.07656,0 0.0194,-0.74 0.0775,-2.21 0.0969,-2.95 z"
     inkscape:connector-curvature="0"
     style="opacity:1;fill:#e8e8e8;stroke:none" />
  <path
     id="path30"
     d="m 26.770635,116.48406 c 16.100625,-0.1 32.210937,-0.11 48.311562,-0.01 0.11625,8.31 0.09688,16.61 -0.01937,24.92 -16.090937,0.08 -32.191562,0.03 -48.2825,-0.01 -0.155,-8.3 -0.106562,-16.6 -0.0096,-24.9 z"
     inkscape:connector-curvature="0"
     style="opacity:1;fill:#e8e8e8;stroke:none" />
  <path
     id="path32"
     d="m 101.31595,116.49406 c 16.12969,-0.13 32.25938,-0.1 48.38907,-0.02 0.0484,8.3 0.0677,16.59 0.01,24.88 -16.12,0.12 -32.24001,0.08 -48.36001,0.02 -0.12594,-8.3 -0.0775,-16.59 -0.0387,-24.88 z"
     inkscape:connector-curvature="0"
     style="opacity:1;fill:#e8e8e8;stroke:none" />
  <path
     id="path34"
     d="m 175.90002,116.47406 c 16.12,-0.1 32.24,-0.06 48.36,-0.02 0.13562,8.31 0.0969,16.62 0.029,24.93 -16.11032,0.07 -32.23032,0.08 -48.34063,-0.01 -0.0969,-8.3 -0.0871,-16.6 -0.0484,-24.9 z"
     inkscape:connector-curvature="0"
     style="opacity:1;fill:#e8e8e8;stroke:none" />
  <path
     id="path36"
     d="m 29.609072,145.47406 c 14.192188,-0.08 28.384375,-0.1 42.576563,0 0,0.72 0.0097,2.16 0.0097,2.87 -14.192188,0.16 -28.394063,0.11 -42.595938,0.02 0,-0.72 0.0096,-2.16 0.0096,-2.89 z"
     inkscape:connector-curvature="0"
     style="opacity:1;fill:#e8e8e8;stroke:none" />
  <path
     id="path38"
     d="m 104.2222,145.45406 c 14.1825,-0.05 28.37469,-0.09 42.56688,0.02 0,0.73 0,2.19 0,2.91 -14.1825,0.1 -28.37469,0.03 -42.55719,0.03 0,-0.74 -0.01,-2.22 -0.01,-2.96 z"
     inkscape:connector-curvature="0"
     style="opacity:1;fill:#e8e8e8;stroke:none" />
  <path
     id="path40"
     d="m 178.84502,145.47406 c 14.1825,-0.11 28.37468,-0.05 42.55718,0.01 -0.01,0.72 -0.01,2.17 -0.0194,2.89 -14.19219,0.09 -28.39406,0.09 -42.58625,-0.01 0.01,-0.72 0.0387,-2.17 0.0484,-2.89 z"
     inkscape:connector-curvature="0"
     style="opacity:1;fill:#e8e8e8;stroke:none" />
  <path
     id="path42"
     d="m 238.89783,160.48406 c 18.70656,-0.09 37.41312,-0.09 56.11,-0.02 0.029,36.3 0.0969,72.61 0.0194,108.91 -18.70656,0.1 -37.41312,0.05 -56.11968,0.02 -0.11625,-36.3 -0.0484,-72.61 -0.01,-108.91 m 5.76406,84.96 c 0,1.32 0.01,2.64 0.01,3.96 12.91344,0.03 25.83656,0.03 38.75,0.01 0,-1.33 0,-2.65 0,-3.97 -12.91344,-0.03 -25.83656,-0.04 -38.75969,0 z"
     inkscape:connector-curvature="0"
     style="opacity:1;fill:#e8e8e8;stroke:none" />
  <path
     id="path44"
     d="m 26.722197,169.46406 c 16.12,-0.08 32.24,-0.06 48.369688,-0.01 0.11625,8.31 0.06781,16.63 0.0097,24.94 -16.12975,0.08 -32.24975,0.03 -48.36975,-0.01 -0.06781,-8.31 -0.01938,-16.61 -0.0098,-24.92 z"
     inkscape:connector-curvature="0"
     style="opacity:1;fill:#e8e8e8;stroke:none" />
  <path
     id="path46"
     d="m 101.32564,169.47406 c 16.11031,-0.08 32.23031,-0.09 48.35031,-0.01 0.10663,8.31 0.11625,16.62 -0.0194,24.92 -16.10063,0.07 -32.21094,0.08 -48.31157,-0.01 -0.11625,-8.3 -0.0581,-16.6 -0.0194,-24.9 z"
     inkscape:connector-curvature="0"
     style="opacity:1;fill:#e8e8e8;stroke:none" />
  <path
     id="path48"
     d="m 175.92908,169.46406 c 16.11031,-0.05 32.23031,-0.1 48.34062,0.01 0.0871,8.3 0.12594,16.6 0.01,24.89 -16.12,0.13 -32.24,0.11 -48.35031,-0.01 -0.0677,-8.3 -0.0775,-16.59 0,-24.89 z"
     inkscape:connector-curvature="0"
     style="opacity:1;fill:#e8e8e8;stroke:none" />
  <path
     id="path50"
     d="m 29.599385,198.48406 c 14.211562,-0.1 28.423125,-0.12 42.634687,0 0,0.71 0.0097,2.14 0.01937,2.85 -14.201875,0.18 -28.413437,0.07 -42.615312,0.04 -0.0098,-0.72 -0.02906,-2.17 -0.03875,-2.89 z"
     inkscape:connector-curvature="0"
     style="opacity:1;fill:#e8e8e8;stroke:none" />
  <path
     id="path52"
     d="m 104.24157,198.48406 c 14.17282,-0.11 28.34563,-0.09 42.51845,-0.03 0.0194,0.74 0.0485,2.2 0.0581,2.94 -14.19219,0.06 -28.39406,0.05 -42.59594,0 0,-0.73 0.01,-2.19 0.0194,-2.91 z"
     inkscape:connector-curvature="0"
     style="opacity:1;fill:#e8e8e8;stroke:none" />
  <path
     id="path54"
     d="m 178.75783,198.48406 c 14.21156,-0.08 28.43281,-0.14 42.64437,0 -0.01,0.73 -0.029,2.18 -0.0388,2.91 -14.17281,0.04 -28.34562,0.06 -42.50875,-0.01 -0.029,-0.73 -0.0775,-2.18 -0.0969,-2.9 z"
     inkscape:connector-curvature="0"
     style="opacity:1;fill:#e8e8e8;stroke:none" />
  <path
     id="path56"
     d="m 26.760947,222.45406 c 16.110313,-0.02 32.210938,-0.08 48.32125,-0.01 0.08719,8.31 0.08719,16.63 0.0098,24.95 -16.110312,0.04 -32.220625,0.1 -48.330937,-0.03 -0.0775,-8.3 -0.135625,-16.61 0,-24.91 z"
     inkscape:connector-curvature="0"
     style="opacity:1;fill:#e8e8e8;stroke:none" />
  <path
     id="path58"
     d="m 101.33532,222.48406 c 16.12969,-0.1 32.2497,-0.1 48.37938,-0.01 0.0679,8.29 0.0388,16.58 0.01,24.87 -16.12,0.11 -32.24969,0.13 -48.37938,0.02 -0.12593,-8.29 -0.0775,-16.59 -0.01,-24.88 z"
     inkscape:connector-curvature="0"
     style="opacity:1;fill:#e8e8e8;stroke:none" />
  <path
     id="path60"
     d="m 175.91939,222.48406 c 16.12,-0.12 32.24969,-0.12 48.36969,-0.02 0.0581,8.31 0.0871,16.61 -0.0194,24.91 -16.11031,0.07 -32.23031,0.12 -48.34062,-0.01 -0.0871,-8.29 -0.0581,-16.58 -0.01,-24.88 z"
     inkscape:connector-curvature="0"
     style="opacity:1;fill:#e8e8e8;stroke:none" />
  <path
     id="path62"
     d="m 29.65751,251.47406 c 14.1825,-0.08 28.365,-0.07 42.5475,-0.02 0,0.73 -0.0097,2.19 -0.0097,2.92 -14.1825,0.09 -28.374688,0.08 -42.557188,0.01 0.0098,-0.73 0.01938,-2.19 0.01938,-2.91 z"
     inkscape:connector-curvature="0"
     style="opacity:1;fill:#e8e8e8;stroke:none" />
  <path
     id="path64"
     d="m 104.25126,251.47406 c 14.1825,-0.09 28.36501,-0.09 42.54751,0 0,0.72 -0.01,2.18 -0.01,2.9 -14.19219,0.1 -28.38438,0.09 -42.58626,-0.02 0.0194,-0.72 0.0387,-2.16 0.0484,-2.88 z"
     inkscape:connector-curvature="0"
     style="opacity:1;fill:#e8e8e8;stroke:none" />
  <path
     id="path66"
     d="m 178.83533,251.49406 c 14.19219,-0.11 28.39406,-0.13 42.59594,-0.02 -0.01,0.73 -0.029,2.18 -0.0387,2.9 -14.21157,0.07 -28.41344,0.08 -42.625,0.02 0.0194,-0.73 0.0484,-2.18 0.0677,-2.9 z"
     inkscape:connector-curvature="0"
     style="opacity:1;fill:#e8e8e8;stroke:none" />
  <path
     id="path68"
     d="m 26.770635,275.48406 c 16.110312,-0.08 32.220625,-0.14 48.330937,0 0.05812,8.29 0.09687,16.58 -0.01938,24.87 -16.110312,0.14 -32.230312,0.08 -48.340625,0.04 -0.0096,-8.31 -0.135625,-16.61 0.02906,-24.91 z"
     inkscape:connector-curvature="0"
     style="opacity:1;fill:#e8e8e8;stroke:none" />
  <path
     id="path70"
     d="m 101.33532,275.48406 c 16.12001,-0.12 32.2497,-0.04 48.3697,-0.04 0.0775,8.32 0.0484,16.64 -0.0388,24.96 -16.10063,0.01 -32.21094,0.07 -48.32126,-0.01 -0.10656,-8.3 -0.0581,-16.61 -0.01,-24.91 z"
     inkscape:connector-curvature="0"
     style="opacity:1;fill:#e8e8e8;stroke:none" />
  <path
     id="path72"
     d="m 175.94845,275.46406 c 16.11032,-0.04 32.22063,-0.11 48.34063,0.02 0.0679,8.3 0.0871,16.61 -0.0194,24.91 -16.11031,0.03 -32.22062,0.09 -48.33093,-0.01 -0.0871,-8.31 -0.0969,-16.61 0.01,-24.92 z"
     inkscape:connector-curvature="0"
     style="opacity:1;fill:#e8e8e8;stroke:none" />
  <path
     id="path74"
     d="m 29.599385,304.47406 c 14.211562,-0.06 28.413437,-0.09 42.625,-0.01 -0.0098,0.73 -0.01938,2.18 -0.02906,2.91 -14.192187,0.09 -28.384375,0.1 -42.576562,0 0,-0.73 -0.0098,-2.17 -0.01938,-2.9 z"
     inkscape:connector-curvature="0"
     style="opacity:1;fill:#e8e8e8;stroke:none" />
  <path
     id="path76"
     d="m 104.2222,304.47406 c 14.1825,-0.09 28.365,-0.09 42.5475,-0.01 0.01,0.73 0.0387,2.18 0.0485,2.9 -14.20187,0.1 -28.39406,0.1 -42.58625,0.02 -0.01,-0.73 -0.01,-2.19 -0.01,-2.91 z"
     inkscape:connector-curvature="0"
     style="opacity:1;fill:#e8e8e8;stroke:none" />
  <path
     id="path78"
     d="m 178.76752,304.48406 c 14.20187,-0.11 28.39406,-0.05 42.59593,-0.04 0.01,0.74 0.0388,2.22 0.0484,2.96 -14.1825,0.05 -28.365,0.04 -42.55719,-0.03 -0.0194,-0.72 -0.0581,-2.17 -0.0871,-2.89 z"
     inkscape:connector-curvature="0"
     style="opacity:1;fill:#e8e8e8;stroke:none" />
  <g
     id="#b6b6b6ff"
     transform="matrix(0.96875,0,0,0.99999998,7.3278228,-2.5759378)"
     style="stroke:none">
    <path
       style="opacity:1;fill:#b6b6b6;stroke:none"
       inkscape:connector-curvature="0"
       d="M 202,26.01 C 215.33,25.99 228.67,26 242,26 c 0,1.33 0,2.66 0,3.99 -13.33,0.02 -26.67,0.02 -40,0 0,-1.33 0,-2.65 0,-3.98 z"
       id="path81" />
    <path
       style="opacity:1;fill:#b6b6b6;stroke:none"
       inkscape:connector-curvature="0"
       d="M 257,26.01 C 270.33,25.99 283.66,26 297,26 c -0.01,1.33 0,2.66 0.01,3.99 -13.34,0.02 -26.67,0.02 -40.01,0 0,-1.33 0,-2.66 0,-3.98 z"
       id="path83" />
    <path
       style="opacity:1;fill:#b6b6b6;stroke:none"
       inkscape:connector-curvature="0"
       d="m 20,30.01 c 8.33,-0.02 16.67,-0.02 25,0 0,0.74 0,2.23 0,2.98 -8.33,0.02 -16.66,0.01 -25,0 0,-0.74 0,-2.23 0,-2.98 z"
       id="path85" />
    <path
       style="opacity:1;fill:#b6b6b6;stroke:none"
       inkscape:connector-curvature="0"
       d="m 60,30.01 c 8.33,-0.01 16.67,-0.02 25,0 0,0.75 0,2.24 0,2.98 -8.33,0.02 -16.67,0.01 -25,0 0,-0.75 0,-2.24 0,-2.98 z"
       id="path87" />
    <path
       style="opacity:1;fill:#b6b6b6;stroke:none"
       inkscape:connector-curvature="0"
       d="m 99.99,30.01 c 8.34,-0.02 16.68,-0.02 25.02,0 0,0.74 -0.01,2.24 -0.01,2.98 -8.33,0.02 -16.67,0.02 -25,0 0,-0.75 0,-2.24 -0.01,-2.98 z"
       id="path89" />
    <path
       style="opacity:1;fill:#b6b6b6;stroke:none"
       inkscape:connector-curvature="0"
       d="m 245,69.01 c 13.34,-0.02 26.67,-0.03 40.01,0.01 -0.01,1.32 -0.01,2.64 -0.01,3.97 -13.34,0.02 -26.67,0.03 -40.01,-0.01 0,-1.32 0.01,-2.65 0.01,-3.97 z"
       id="path91" />
    <path
       style="opacity:1;fill:#b6b6b6;stroke:none"
       inkscape:connector-curvature="0"
       d="m 28,154.01 c 11.67,-0.02 23.33,-0.02 35,0 0,0.74 0,2.24 0.01,2.98 -11.67,0.02 -23.34,0.02 -35.01,0 0,-0.75 0,-2.24 0,-2.98 z"
       id="path93" />
    <path
       style="opacity:1;fill:#b6b6b6;stroke:none"
       inkscape:connector-curvature="0"
       d="m 105,154.01 c 11.66,-0.02 23.33,-0.01 35,0 0,0.75 0,2.24 0,2.98 -11.67,0.02 -23.33,0.02 -35,0 0,-0.75 0,-2.24 0,-2.98 z"
       id="path95" />
    <path
       style="opacity:1;fill:#b6b6b6;stroke:none"
       inkscape:connector-curvature="0"
       d="m 182,154.01 c 11.67,-0.02 23.33,-0.02 35,0 0,0.74 0.01,2.24 0.01,2.98 -11.67,0.02 -23.34,0.02 -35.01,0 0,-0.74 0,-2.23 0,-2.98 z"
       id="path97" />
    <path
       style="opacity:1;fill:#b6b6b6;stroke:none"
       inkscape:connector-curvature="0"
       d="m 28,207.01 c 11.67,-0.02 23.34,-0.02 35.01,0 -0.01,0.75 -0.01,2.23 -0.01,2.98 -11.67,0.02 -23.34,0.02 -35.01,0 C 28,209.24 28,207.75 28,207.01 Z"
       id="path99" />
    <path
       style="opacity:1;fill:#b6b6b6;stroke:none"
       inkscape:connector-curvature="0"
       d="m 105,207.01 c 11.67,-0.02 23.33,-0.02 35,0 0,0.74 0,2.23 0,2.98 -11.67,0.02 -23.34,0.01 -35.01,0 0.01,-0.75 0.01,-2.24 0.01,-2.98 z"
       id="path101" />
    <path
       style="opacity:1;fill:#b6b6b6;stroke:none"
       inkscape:connector-curvature="0"
       d="m 182,207.01 c 11.66,-0.02 23.33,-0.01 35,0 0,0.74 0,2.23 0,2.98 -11.67,0.02 -23.33,0.02 -35,0 0,-0.74 0,-2.23 0,-2.98 z"
       id="path103" />
    <path
       style="opacity:1;fill:#b6b6b6;stroke:none"
       inkscape:connector-curvature="0"
       d="m 244.99,248.02 c 13.34,-0.04 26.68,-0.03 40.01,0 0,1.32 0,2.64 0,3.97 -13.33,0.02 -26.67,0.02 -40,-0.01 0,-1.32 -0.01,-2.64 -0.01,-3.96 z"
       id="path105" />
    <path
       style="opacity:1;fill:#b6b6b6;stroke:none"
       inkscape:connector-curvature="0"
       d="m 28,260.01 c 11.66,-0.02 23.33,-0.02 35,0 0,0.74 0,2.24 0,2.98 -11.67,0.01 -23.34,0.01 -35.01,0 0,-0.74 0.01,-2.24 0.01,-2.98 z"
       id="path107" />
    <path
       style="opacity:1;fill:#b6b6b6;stroke:none"
       inkscape:connector-curvature="0"
       d="m 105,260.01 c 11.67,-0.02 23.34,-0.02 35.01,0 -0.01,0.74 -0.01,2.24 -0.01,2.98 -11.67,0.01 -23.34,0.02 -35.01,0 0.01,-0.74 0.01,-2.23 0.01,-2.98 z"
       id="path109" />
    <path
       style="opacity:1;fill:#b6b6b6;stroke:none"
       inkscape:connector-curvature="0"
       d="m 182,260.01 c 11.67,-0.01 23.34,-0.03 35,0 0,0.74 0,2.23 0,2.98 -11.67,0.02 -23.34,0.02 -35,0 0,-0.74 0,-2.24 0,-2.98 z"
       id="path111" />
    <path
       style="opacity:1;fill:#b6b6b6;stroke:none"
       inkscape:connector-curvature="0"
       d="m 28,313.01 c 11.67,-0.02 23.34,-0.02 35.01,0 -0.01,0.74 -0.01,2.23 -0.01,2.98 -11.67,0.02 -23.33,0.01 -35,0 0,-0.74 0,-2.24 0,-2.98 z"
       id="path113" />
    <path
       style="opacity:1;fill:#b6b6b6;stroke:none"
       inkscape:connector-curvature="0"
       d="m 105,313.01 c 11.66,-0.02 23.33,-0.02 35,0 0,0.75 0,2.23 0,2.98 -11.67,0.02 -23.33,0.02 -35,0 0,-0.75 0,-2.24 0,-2.98 z"
       id="path115" />
    <path
       style="opacity:1;fill:#b6b6b6;stroke:none"
       inkscape:connector-curvature="0"
       d="m 182,313.01 c 11.67,-0.02 23.33,-0.01 35,0 0,0.74 0,2.23 0,2.98 -11.67,0.01 -23.33,0.02 -35,0 0,-0.75 0,-2.24 0,-2.98 z"
       id="path117" />
  </g>
  <g
     id="#ffb2b2ff"
     transform="matrix(0.96875,0,0,0.99999998,7.3278228,-2.5759378)"
     style="stroke:none">
    <path
       style="opacity:1;fill:#ffb2b2;stroke:none"
       inkscape:connector-curvature="0"
       d="m 233.01,57.01 c 23.33,-0.02 46.66,-0.01 69.99,0 0,73.99 0.01,147.99 -0.01,221.98 -23.33,0.02 -46.66,0.02 -69.99,0 C 233,205 232.99,131 233.01,57.01 M 234,58 c 0,73.33 -0.01,146.66 0.01,219.99 22.66,0.02 45.32,0.01 67.98,0 0.01,-73.32 0.02,-146.65 0,-219.98 C 279.33,57.99 256.67,58 234,58 Z"
       id="path120" />
  </g>
  <rect
     style="fill:#cfcfcf;fill-opacity:1;stroke:none;stroke-width:1.20000005;stroke-miterlimit:4;stroke-dasharray:none;stroke-opacity:1"
     id="rect6753"
     width="4.24264"
     height="2.8284199"
     x="244.65895"
     y="76.70665" />
  <rect
     style="fill:#cfcfcf;fill-opacity:1;stroke:none;stroke-width:1.20000005;stroke-miterlimit:4;stroke-dasharray:none;stroke-opacity:1"
     id="rect6755"
     width="34.825016"
     height="2.8284199"
     x="251.73001"
     y="76.70665" />
  <rect
     style="fill:#cfcfcf;fill-opacity:1;stroke:none;stroke-width:1.20000005;stroke-miterlimit:4;stroke-dasharray:none;stroke-opacity:1"
     id="rect6757"
     width="4.24264"
     height="3.1819799"
     x="244.65895"
     y="83.600937" />
  <rect
     style="fill:#cfcfcf;fill-opacity:1;stroke:none;stroke-width:1.20000005;stroke-miterlimit:4;stroke-dasharray:none;stroke-opacity:1"
     id="rect6759"
     width="28.284273"
     height="3.1819799"
     x="251.73001"
     y="83.600937" />
  <rect
     style="fill:#cfcfcf;fill-opacity:1;stroke:none;stroke-width:1.20000005;stroke-miterlimit:4;stroke-dasharray:none;stroke-opacity:1"
     id="rect6761"
     width="4.24264"
     height="3.0051999"
     x="244.65895"
     y="90.672012" />
  <rect
     style="fill:#cfcfcf;fill-opacity:1;stroke:none;stroke-width:1.20000005;stroke-miterlimit:4;stroke-dasharray:none;stroke-opacity:1"
     id="rect6763"
     width="4.24264"
     height="2.8284299"
     x="244.65895"
     y="97.743073" />
  <rect
     style="fill:#cfcfcf;fill-opacity:1;stroke:none;stroke-width:1.20000005;stroke-miterlimit:4;stroke-dasharray:none;stroke-opacity:1"
     id="rect6765"
     width="19.09189"
     height="3.0051999"
     x="251.73001"
     y="90.672012" />
  <rect
     style="fill:#cfcfcf;fill-opacity:1;stroke:none;stroke-width:1.20000005;stroke-miterlimit:4;stroke-dasharray:none;stroke-opacity:1"
     id="rect6767"
     width="25.27907"
     height="2.8284299"
     x="251.73001"
     y="97.743073" />
  <rect
     style="fill:#cfcfcf;fill-opacity:1;stroke:none;stroke-width:1.20000005;stroke-miterlimit:4;stroke-dasharray:none;stroke-opacity:1"
     id="rect6769"
     width="4.24264"
     height="3.0051999"
     x="244.65895"
     y="116.65818" />
  <rect
     style="fill:#cfcfcf;fill-opacity:1;stroke:none;stroke-width:1.20000005;stroke-miterlimit:4;stroke-dasharray:none;stroke-opacity:1"
     id="rect6771"
     width="4.24264"
     height="2.8284199"
     x="244.65895"
     y="123.72925" />
  <rect
     style="fill:#cfcfcf;fill-opacity:1;stroke:none;stroke-width:1.20000005;stroke-miterlimit:4;stroke-dasharray:none;stroke-opacity:1"
     id="rect6773"
     width="4.24264"
     height="3.0051999"
     x="244.65895"
     y="130.62354" />
  <rect
     style="fill:#cfcfcf;fill-opacity:1;stroke:none;stroke-width:1.20000005;stroke-miterlimit:4;stroke-dasharray:none;stroke-opacity:1"
     id="rect6775"
     width="4.24264"
     height="3.0051999"
     x="244.65895"
     y="137.69461" />
  <rect
     style="fill:#cfcfcf;fill-opacity:1;stroke:none;stroke-width:1.20000005;stroke-miterlimit:4;stroke-dasharray:none;stroke-opacity:1"
     id="rect6777"
     width="25.27907"
     height="3.0051999"
     x="251.73001"
     y="116.65818" />
  <rect
     style="fill:#cfcfcf;fill-opacity:1;stroke:none;stroke-width:1.20000005;stroke-miterlimit:4;stroke-dasharray:none;stroke-opacity:1"
     id="rect6779"
     width="38.360546"
     height="2.8284199"
     x="251.73001"
     y="123.72925" />
  <rect
     style="fill:#cfcfcf;fill-opacity:1;stroke:none;stroke-width:1.20000005;stroke-miterlimit:4;stroke-dasharray:none;stroke-opacity:1"
     id="rect6781"
     width="28.46105"
     height="3.0051999"
     x="251.73001"
     y="130.62354" />
  <rect
     style="fill:#cfcfcf;fill-opacity:1;stroke:none;stroke-width:1.20000005;stroke-miterlimit:4;stroke-dasharray:none;stroke-opacity:1"
     id="rect6783"
     width="35.001789"
     height="3.0051999"
     x="251.73001"
     y="137.69461" />
  <rect
     style="fill:#cfcfcf;fill-opacity:1;stroke:none;stroke-width:1.20000005;stroke-miterlimit:4;stroke-dasharray:none;stroke-opacity:1"
     id="rect6785"
     width="35.001789"
     height="3.0051999"
     x="251.73001"
     y="172.51962" />
  <rect
     style="fill:#cfcfcf;fill-opacity:1;stroke:none;stroke-width:1.20000005;stroke-miterlimit:4;stroke-dasharray:none;stroke-opacity:1"
     id="rect6787"
     width="4.24264"
     height="3.0051999"
     x="244.65895"
     y="172.51962" />
  <rect
     style="fill:#cfcfcf;fill-opacity:1;stroke:none;stroke-width:1.20000005;stroke-miterlimit:4;stroke-dasharray:none;stroke-opacity:1"
     id="rect6789"
     width="4.24264"
     height="3.0052099"
     x="244.65895"
     y="179.59068" />
  <rect
     style="fill:#cfcfcf;fill-opacity:1;stroke:none;stroke-width:1.20000005;stroke-miterlimit:4;stroke-dasharray:none;stroke-opacity:1"
     id="rect6791"
     width="4.24264"
     height="3.0052099"
     x="244.65895"
     y="186.66174" />
  <rect
     style="fill:#cfcfcf;fill-opacity:1;stroke:none;stroke-width:1.20000005;stroke-miterlimit:4;stroke-dasharray:none;stroke-opacity:1"
     id="rect6793"
     width="4.24264"
     height="3.1819799"
     x="244.65895"
     y="193.55605" />
  <rect
     style="fill:#cfcfcf;fill-opacity:1;stroke:none;stroke-width:1.20000005;stroke-miterlimit:4;stroke-dasharray:none;stroke-opacity:1"
     id="rect6795"
     width="28.46105"
     height="3.0052099"
     x="251.73001"
     y="179.59068" />
  <rect
     style="fill:#cfcfcf;fill-opacity:1;stroke:none;stroke-width:1.20000005;stroke-miterlimit:4;stroke-dasharray:none;stroke-opacity:1"
     id="rect6797"
     width="38.360546"
     height="3.0052099"
     x="251.73001"
     y="186.66174" />
  <rect
     style="fill:#cfcfcf;fill-opacity:1;stroke:none;stroke-width:1.20000005;stroke-miterlimit:4;stroke-dasharray:none;stroke-opacity:1"
     id="rect6799"
     width="25.27907"
     height="3.1819799"
     x="251.73001"
     y="193.55605" />
  <rect
     style="fill:#cfcfcf;fill-opacity:1;stroke:none;stroke-width:1.20000005;stroke-miterlimit:4;stroke-dasharray:none;stroke-opacity:1"
     id="rect6801"
     width="25.27907"
     height="3.0051999"
     x="251.73001"
     y="212.64793" />
  <rect
     style="fill:#cfcfcf;fill-opacity:1;stroke:none;stroke-width:1.20000005;stroke-miterlimit:4;stroke-dasharray:none;stroke-opacity:1"
     id="rect6803"
     width="4.24264"
     height="3.0051999"
     x="244.65895"
     y="212.64793" />
  <rect
     style="fill:#cfcfcf;fill-opacity:1;stroke:none;stroke-width:1.20000005;stroke-miterlimit:4;stroke-dasharray:none;stroke-opacity:1"
     id="rect6805"
     width="4.24264"
     height="3.1819799"
     x="244.65895"
     y="219.54222" />
  <rect
     style="fill:#cfcfcf;fill-opacity:1;stroke:none;stroke-width:1.20000005;stroke-miterlimit:4;stroke-dasharray:none;stroke-opacity:1"
     id="rect6807"
     width="4.24264"
     height="3.0052099"
     x="244.65895"
     y="226.61328" />
  <rect
     style="fill:#cfcfcf;fill-opacity:1;stroke:none;stroke-width:1.20000005;stroke-miterlimit:4;stroke-dasharray:none;stroke-opacity:1"
     id="rect6809"
     width="4.24264"
     height="3.3587501"
     x="244.65895"
     y="233.50758" />
  <rect
     style="fill:#cfcfcf;fill-opacity:1;stroke:none;stroke-width:1.20000005;stroke-miterlimit:4;stroke-dasharray:none;stroke-opacity:1"
     id="rect6811"
     width="19.09189"
     height="3.1819799"
     x="251.73001"
     y="219.54222" />
  <rect
     style="fill:#cfcfcf;fill-opacity:1;stroke:none;stroke-width:1.20000005;stroke-miterlimit:4;stroke-dasharray:none;stroke-opacity:1"
     id="rect6813"
     width="28.46105"
     height="3.0052099"
     x="251.73001"
     y="226.61328" />
  <rect
     style="fill:#cfcfcf;fill-opacity:1;stroke:none;stroke-width:1.20000005;stroke-miterlimit:4;stroke-dasharray:none;stroke-opacity:1"
     id="rect6815"
     width="35.001789"
     height="3.3587501"
     x="251.73001"
     y="233.50758" />
  <rect
     style="fill:#cfcfcf;fill-opacity:1;stroke:none;stroke-width:1.20000005;stroke-miterlimit:4;stroke-dasharray:none;stroke-opacity:1"
     id="rect6817"
     width="50.381355"
     height="3.5355301"
     x="244.65895"
     y="252.06914" />
  <rect
     style="fill:#cfcfcf;fill-opacity:1;stroke:none;stroke-width:1.20000005;stroke-miterlimit:4;stroke-dasharray:none;stroke-opacity:1"
     id="rect6819"
     width="44.724503"
     height="3.8890901"
     x="244.65895"
     y="257.72598" />
</svg>
