<?xml version="1.0" encoding="UTF-8" standalone="no"?>
<!-- Created with Inkscape (http://www.inkscape.org/) -->

<svg
   xmlns:dc="http://purl.org/dc/elements/1.1/"
   xmlns:cc="http://creativecommons.org/ns#"
   xmlns:rdf="http://www.w3.org/1999/02/22-rdf-syntax-ns#"
   xmlns:svg="http://www.w3.org/2000/svg"
   xmlns="http://www.w3.org/2000/svg"
   xmlns:sodipodi="http://sodipodi.sourceforge.net/DTD/sodipodi-0.dtd"
   xmlns:inkscape="http://www.inkscape.org/namespaces/inkscape"
   width="310"
   height="382"
   viewBox="0 0 310.00001 382"
   id="svg2"
   version="1.1"
   inkscape:version="0.91 r13725"
   sodipodi:docname="font-1.svg">
  <defs
     id="defs4" />
  <sodipodi:namedview
     id="base"
     pagecolor="#ffffff"
     bordercolor="#666666"
     borderopacity="1.0"
     inkscape:pageopacity="0.0"
     inkscape:pageshadow="2"
     inkscape:zoom="1.4"
     inkscape:cx="100.85675"
     inkscape:cy="191.70876"
     inkscape:document-units="px"
     inkscape:current-layer="layer1"
     showgrid="false"
     fit-margin-top="0"
     fit-margin-left="0"
     fit-margin-right="0"
     fit-margin-bottom="0"
     units="px"
     inkscape:window-width="1366"
     inkscape:window-height="716"
     inkscape:window-x="-8"
     inkscape:window-y="-8"
     inkscape:window-maximized="1" />
  <metadata
     id="metadata7">
    <rdf:RDF>
      <cc:Work
         rdf:about="">
        <dc:format>image/svg+xml</dc:format>
        <dc:type
           rdf:resource="http://purl.org/dc/dcmitype/StillImage" />
        <dc:title></dc:title>
      </cc:Work>
    </rdf:RDF>
  </metadata>
  <g
     inkscape:label="Layer 1"
     inkscape:groupmode="layer"
     id="layer1"
     transform="translate(-473.57143,-407.76133)">
    <path
       style="opacity:1;fill:#e8e8e8"
       inkscape:connector-curvature="0"
       id="path23"
       d="m 670.57143,438.0738 c 8.32,-0.13 16.64,-0.1 24.96,-0.03 0.01,0.73 0.03,2.19 0.04,2.92 -8.34,0.08 -16.67,0.07 -25.01,-0.01 0,-0.72 0,-2.16 0.01,-2.88 z" />
    <path
       style="opacity:1;fill:#e8e8e8"
       inkscape:connector-curvature="0"
       id="path25"
       d="m 725.58143,438.0438 c 8.32,-0.08 16.66,-0.06 24.99,0.02 -0.02,0.72 -0.04,2.16 -0.05,2.88 -8.29,0.1 -16.59,0.12 -24.88,0 -0.02,-0.73 -0.05,-2.18 -0.06,-2.9 z" />
    <path
       style="opacity:1;fill:#e8e8e8"
       inkscape:connector-curvature="0"
       id="path27"
       d="m 473.57143,468.1538 c 44.97,-0.34 89.95,-0.06 134.93,-0.15 58.36,0 116.71,0.01 175.07,-0.01 l 0,91.99 c -103.33,0.04 -206.67,0.01 -310,0.01 l 0,-91.84 m 13.3,45.83 c 1.9,1.64 3.9,3.16 6.05,4.47 -0.68,-1.5 -1.39,-2.97 -2.1,-4.45 0.72,-1.46 1.43,-2.93 2.1,-4.41 -2.14,1.29 -4.15,2.78 -6.05,4.39 m 276.35,-4.45 c 0.67,1.5 1.37,2.98 2.07,4.47 -0.69,1.49 -1.36,2.99 -2.01,4.5 2.14,-1.33 4.11,-2.89 5.98,-4.58 -1.91,-1.6 -3.91,-3.09 -6.04,-4.39 m -146.41,34.79 c -1.35,0.85 -1.72,2.79 -0.49,3.91 1.27,1.51 3.94,0.64 4.18,-1.28 0.58,-1.95 -1.99,-3.74 -3.69,-2.63 m 10.06,0.01 c -1.2,0.64 -1.7,2.18 -0.95,3.37 0.87,2.05 4.29,1.49 4.56,-0.69 0.69,-1.9 -1.94,-3.83 -3.61,-2.68 m 9.9,0.03 c -2.79,1.56 -0.13,6.02 2.56,4.31 2.86,-1.53 0.17,-6.15 -2.56,-4.31 z" />
    <path
       style="opacity:1;fill:#e8e8e8"
       inkscape:connector-curvature="0"
       id="path29"
       d="m 617.75143,545.2538 c 1.59,-0.5 2.28,2.16 0.64,2.49 -1.59,0.5 -2.28,-2.16 -0.64,-2.49 z" />
    <path
       style="opacity:1;fill:#e8e8e8"
       inkscape:connector-curvature="0"
       id="path31"
       d="m 637.74143,545.2538 c 1.59,-0.5 2.29,2.15 0.65,2.49 -1.59,0.5 -2.29,-2.15 -0.65,-2.49 z" />
    <path
       style="opacity:1;fill:#e8e8e8"
       inkscape:connector-curvature="0"
       id="path33"
       d="m 488.61143,593.0438 c 11.65,-0.05 23.31,-0.12 34.97,0.03 -0.02,0.72 -0.05,2.17 -0.07,2.9 -11.64,0.05 -23.29,0.09 -34.93,-0.03 0.01,-0.73 0.02,-2.17 0.03,-2.9 z" />
    <path
       style="opacity:1;fill:#e8e8e8"
       inkscape:connector-curvature="0"
       id="path35"
       d="m 564.57143,593.0638 c 11.65,-0.1 23.31,-0.11 34.96,-0.01 0,0.73 -0.01,2.18 -0.01,2.91 -11.63,0.06 -23.25,0.05 -34.88,0.03 -0.02,-0.73 -0.05,-2.19 -0.07,-2.93 z" />
    <path
       style="opacity:1;fill:#e8e8e8"
       inkscape:connector-curvature="0"
       id="path37"
       d="m 639.59143,593.0438 c 11.66,-0.07 23.31,-0.05 34.96,0.02 0.01,0.72 0.01,2.18 0.02,2.9 -11.65,0.07 -23.3,0.09 -34.95,-0.01 -0.01,-0.73 -0.02,-2.18 -0.03,-2.91 z" />
    <path
       style="opacity:1;fill:#e8e8e8"
       inkscape:connector-curvature="0"
       id="path39"
       d="m 715.63143,593.0238 c 11.66,0.01 23.33,-0.12 34.99,0.06 -0.03,0.73 -0.09,2.18 -0.12,2.91 -11.65,-0.01 -23.3,0.1 -34.96,-0.06 0.03,-0.72 0.07,-2.18 0.09,-2.91 z" />
    <path
       style="opacity:1;fill:#e8e8e8"
       inkscape:connector-curvature="0"
       id="path41"
       d="m 488.55143,598.0438 c 14.68,-0.07 29.36,-0.12 44.04,0.05 -0.02,0.71 -0.05,2.15 -0.07,2.87 -14.63,0.09 -29.25,0.05 -43.88,0.01 -0.02,-0.73 -0.07,-2.2 -0.09,-2.93 z" />
    <path
       style="opacity:1;fill:#e8e8e8"
       inkscape:connector-curvature="0"
       id="path43"
       d="m 564.59143,598.0538 c 14.67,-0.06 29.33,-0.12 44,0.01 -0.01,0.72 -0.04,2.16 -0.06,2.87 -14.64,0.11 -29.29,0.1 -43.93,0.03 0,-0.73 -0.01,-2.18 -0.01,-2.91 z" />
    <path
       style="opacity:1;fill:#e8e8e8"
       inkscape:connector-curvature="0"
       id="path45"
       d="m 639.64143,598.0338 c 14.64,-0.07 29.28,-0.04 43.93,0 -0.01,0.73 -0.03,2.2 -0.04,2.94 -14.66,0.04 -29.33,0.11 -43.99,-0.04 0.03,-0.73 0.08,-2.18 0.1,-2.9 z" />
    <path
       style="opacity:1;fill:#e8e8e8"
       inkscape:connector-curvature="0"
       id="path47"
       d="m 715.58143,598.0438 c 14.67,-0.08 29.34,-0.05 44.01,-0.01 -0.02,0.73 -0.06,2.19 -0.08,2.91 -14.62,0.12 -29.24,0.08 -43.85,0.02 -0.02,-0.73 -0.06,-2.19 -0.08,-2.92 z" />
    <path
       style="opacity:1;fill:#e8e8e8"
       inkscape:connector-curvature="0"
       id="path49"
       d="m 488.58143,603.0538 c 10.33,-0.09 20.66,-0.07 30.99,0.02 0,0.72 0,2.17 -0.01,2.89 -10.31,0.09 -20.62,0.05 -30.94,-0.01 -0.01,-0.72 -0.03,-2.17 -0.04,-2.9 z" />
    <path
       style="opacity:1;fill:#e8e8e8"
       inkscape:connector-curvature="0"
       id="path51"
       d="m 564.61143,603.0638 c 10.31,-0.09 20.63,-0.14 30.95,0.01 0,0.72 0,2.16 0,2.88 -10.32,0.11 -20.64,0.04 -30.96,0.01 0,-0.72 0.01,-2.17 0.01,-2.9 z" />
    <path
       style="opacity:1;fill:#e8e8e8"
       inkscape:connector-curvature="0"
       id="path53"
       d="m 639.62143,603.0238 c 10.31,-0.06 20.62,-0.03 30.94,0 -0.01,0.73 -0.02,2.19 -0.03,2.92 -10.31,0.11 -20.63,0.1 -30.95,0.02 0.01,-0.73 0.03,-2.2 0.04,-2.94 z" />
    <path
       style="opacity:1;fill:#e8e8e8"
       inkscape:connector-curvature="0"
       id="path55"
       d="m 715.56143,603.0638 c 10.34,-0.13 20.67,-0.07 31,-0.02 -0.01,0.72 -0.04,2.16 -0.06,2.89 -10.31,0.15 -20.62,0.07 -30.92,0.01 -0.01,-0.72 -0.01,-2.16 -0.02,-2.88 z" />
    <path
       style="opacity:1;fill:#e8e8e8"
       inkscape:connector-curvature="0"
       id="path57"
       d="m 488.56143,608.0338 c 7.32,-0.05 14.65,-0.07 21.97,0 0.01,0.73 0.02,2.18 0.03,2.91 -7.32,0.1 -14.63,0.1 -21.95,0.01 -0.01,-0.73 -0.04,-2.19 -0.05,-2.92 z" />
    <path
       style="opacity:1;fill:#e8e8e8"
       inkscape:connector-curvature="0"
       id="path59"
       d="m 564.62143,608.0638 c 7.29,-0.11 14.59,-0.09 21.89,-0.03 0.02,0.73 0.05,2.19 0.07,2.91 -7.33,0.11 -14.67,0.08 -22.01,0.03 0.02,-0.73 0.04,-2.18 0.05,-2.91 z" />
    <path
       style="opacity:1;fill:#e8e8e8"
       inkscape:connector-curvature="0"
       id="path61"
       d="m 639.59143,608.0738 c 7.31,-0.11 14.63,-0.16 21.94,0 0.01,0.72 0.03,2.16 0.04,2.88 -7.32,0.11 -14.64,0.08 -21.96,0 -0.01,-0.72 -0.02,-2.16 -0.02,-2.88 z" />
    <path
       style="opacity:1;fill:#e8e8e8"
       inkscape:connector-curvature="0"
       id="path63"
       d="m 715.61143,608.0538 c 7.32,-0.13 14.64,-0.07 21.96,-0.02 -0.01,0.73 -0.03,2.2 -0.04,2.93 -7.33,0.11 -14.65,0.07 -21.97,-0.02 0.01,-0.72 0.04,-2.17 0.05,-2.89 z" />
    <path
       style="opacity:1;fill:#e8e8e8"
       inkscape:connector-curvature="0"
       id="path65"
       d="m 488.62143,638.0538 c 39.98,-0.09 79.95,-0.09 119.92,0.01 0.06,13.3 0.04,26.6 -0.01,39.9 -39.97,0.07 -79.94,0.07 -119.92,0 -0.08,-13.3 -0.08,-26.61 0.01,-39.91 z" />
    <path
       style="opacity:1;fill:#e8e8e8"
       inkscape:connector-curvature="0"
       id="path67"
       d="m 639.64143,638.0238 c 39.96,-0.03 79.92,-0.04 119.88,0 0.08,13.31 0.1,26.62 -0.01,39.93 -39.96,0.12 -79.92,0.04 -119.88,0.03 -0.09,-13.32 -0.12,-26.64 0.01,-39.96 z" />
    <path
       style="opacity:1;fill:#e8e8e8"
       inkscape:connector-curvature="0"
       id="path69"
       d="m 639.61143,693.0538 c 29.31,-0.11 58.62,-0.05 87.93,-0.01 0.01,0.72 0.03,2.17 0.04,2.9 -29.34,0.11 -58.69,0.08 -88.02,0.02 0.01,-0.73 0.03,-2.18 0.05,-2.91 z" />
    <path
       style="opacity:1;fill:#e8e8e8"
       inkscape:connector-curvature="0"
       id="path71"
       d="m 488.57143,696.0538 c 29.31,-0.07 58.63,-0.07 87.94,-0.04 0.02,0.74 0.05,2.22 0.06,2.96 -29.31,0.06 -58.63,0.05 -87.94,-0.02 -0.02,-0.72 -0.05,-2.18 -0.06,-2.9 z" />
    <path
       style="opacity:1;fill:#e8e8e8"
       inkscape:connector-curvature="0"
       id="path73"
       d="m 639.58143,698.0238 c 14.67,-0.03 29.33,-0.07 44,0.03 -0.01,0.72 -0.02,2.17 -0.03,2.89 -14.64,0.11 -29.28,0.08 -43.91,0.02 -0.02,-0.73 -0.04,-2.2 -0.06,-2.94 z" />
    <path
       style="opacity:1;fill:#e8e8e8"
       inkscape:connector-curvature="0"
       id="path75"
       d="m 488.61143,701.0338 c 14.64,-0.05 29.29,-0.08 43.93,0.02 0.01,0.73 0.02,2.2 0.03,2.93 -14.65,0.01 -29.3,0.07 -43.94,-0.03 -0.01,-0.73 -0.01,-2.19 -0.02,-2.92 z" />
    <path
       style="opacity:1;fill:#e8e8e8"
       inkscape:connector-curvature="0"
       id="path77"
       d="m 488.57143,731.0738 c 16.66,-0.11 33.32,-0.11 49.98,-0.01 0,8.31 0.13,16.62 -0.05,24.93 -16.63,-0.02 -33.27,0.1 -49.9,-0.05 -0.07,-8.29 -0.05,-16.58 -0.03,-24.87 z" />
    <path
       style="opacity:1;fill:#e8e8e8"
       inkscape:connector-curvature="0"
       id="path79"
       d="m 567.60143,731.0638 c 39.97,-0.1 79.95,-0.1 119.92,-0.01 0.1,8.31 0.08,16.61 0,24.92 -39.96,0.06 -79.93,0.06 -119.9,0 -0.1,-8.31 -0.09,-16.61 -0.02,-24.91 z" />
    <path
       style="opacity:1;fill:#e8e8e8"
       inkscape:connector-curvature="0"
       id="path81"
       d="m 715.65143,731.0338 c 16.61,-0.03 33.23,-0.06 49.85,-0.02 0.13,8.31 0.1,16.63 0.03,24.95 -16.63,0.06 -33.27,0.08 -49.91,0.01 -0.12,-8.32 -0.09,-16.63 0.03,-24.94 z" />
    <path
       style="opacity:1;fill:#e8e8e8"
       inkscape:connector-curvature="0"
       id="path83"
       d="m 488.59143,767.0438 c 14.65,-0.08 29.3,-0.06 43.95,-0.01 -0.01,0.74 -0.02,2.21 -0.03,2.94 -14.63,0.03 -29.27,0.08 -43.9,-0.01 0,-0.73 -0.01,-2.19 -0.02,-2.92 z" />
    <path
       style="opacity:1;fill:#e8e8e8"
       inkscape:connector-curvature="0"
       id="path85"
       d="m 715.57143,767.0638 c 14.66,-0.11 29.33,-0.12 43.99,-0.01 -0.01,0.72 -0.01,2.16 -0.01,2.88 -14.66,0.12 -29.32,0.14 -43.98,0.01 0,-0.72 0,-2.16 0,-2.88 z" />
    <path
       style="opacity:1;fill:#e8e8e8"
       inkscape:connector-curvature="0"
       id="path87"
       d="m 488.58143,772.0538 c 9.31,-0.11 18.63,-0.07 27.95,-0.02 0.01,0.73 0.04,2.18 0.05,2.91 -9.33,0.12 -18.66,0.1 -27.99,0 0,-0.72 -0.01,-2.17 -0.01,-2.89 z" />
    <path
       style="opacity:1;fill:#e8e8e8"
       inkscape:connector-curvature="0"
       id="path89"
       d="m 567.63143,772.0338 c 23.64,-0.06 47.28,-0.05 70.91,0 0,0.73 0,2.18 0,2.91 -23.65,0.12 -47.3,0.05 -70.95,0.02 0.01,-0.73 0.03,-2.2 0.04,-2.93 z" />
    <path
       style="opacity:1;fill:#e8e8e8"
       inkscape:connector-curvature="0"
       id="path91"
       d="m 715.60143,772.0438 c 9.32,-0.1 18.64,-0.03 27.96,-0.01 0,0.73 0,2.19 0,2.92 -9.32,0.1 -18.63,0.06 -27.94,0.03 -0.01,-0.74 -0.01,-2.21 -0.02,-2.94 z" />
    <path
       style="opacity:1;fill:#e8e8e8"
       inkscape:connector-curvature="0"
       id="path93"
       d="m 567.61143,777.0538 c 14.64,-0.08 29.29,-0.12 43.93,0.02 0.01,0.72 0.03,2.15 0.05,2.87 -14.66,0.11 -29.32,0.08 -43.97,0.02 0,-0.73 -0.01,-2.18 -0.01,-2.91 z" />
    <g
       transform="translate(473.57143,405.0038)"
       id="#ffb2b2ff">
      <path
         style="opacity:1;fill:#ffb2b2"
         inkscape:connector-curvature="0"
         d="m 189,19.01 c 17.67,-0.01 35.33,-0.02 53,0 0,7.99 0,15.99 0,23.98 C 224.34,43.01 206.67,43 189.01,43 188.99,35 189,27 189,19.01 m 1,1 c 0,7.33 -0.01,14.66 0.01,21.99 16.99,0 33.99,0 50.98,0 0.02,-7.33 0.01,-14.66 0.01,-21.99 -17,-0.02 -34,-0.01 -51,0 z"
         id="path96" />
    </g>
    <g
       transform="translate(473.57143,405.0038)"
       id="#b6b6b6ff">
      <path
         style="opacity:1;fill:#b6b6b6"
         inkscape:connector-curvature="0"
         d="M 197,26.01 C 210.33,25.99 223.67,26 237,26 c 0,1.33 0,2.67 0,4 -13.33,0 -26.67,0 -40,0 0,-1.33 0,-2.66 0,-3.99 z"
         id="path99" />
      <path
         style="opacity:1;fill:#b6b6b6"
         inkscape:connector-curvature="0"
         d="m 252,26 c 13.33,0 26.67,-0.01 40,0.01 0,1.33 0,2.66 0,3.99 -13.34,0 -26.67,0 -40,-0.01 0,-1.33 0,-2.66 0,-3.99 z"
         id="path101" />
      <path
         style="opacity:1;fill:#b6b6b6"
         inkscape:connector-curvature="0"
         d="m 15,30.01 c 8.33,-0.02 16.67,-0.02 25,0 0,0.74 0,2.24 0,2.98 -8.33,0.01 -16.67,0.02 -25,0 0,-0.74 0,-2.24 0,-2.98 z"
         id="path103" />
      <path
         style="opacity:1;fill:#b6b6b6"
         inkscape:connector-curvature="0"
         d="m 55,30.01 c 8.33,-0.02 16.67,-0.02 25,0 0,0.74 0,2.24 0,2.98 C 71.67,33.01 63.33,33 55,33 c 0,-0.75 0,-2.25 0,-2.99 z"
         id="path105" />
      <path
         style="opacity:1;fill:#b6b6b6"
         inkscape:connector-curvature="0"
         d="m 95,30.01 c 8.33,-0.02 16.66,-0.02 25,0 0,0.75 0,2.24 0,2.98 -8.33,0.01 -16.67,0.02 -25,0 0,-0.74 0,-2.23 0,-2.98 z"
         id="path107" />
      <path
         style="opacity:1;fill:#b6b6b6"
         inkscape:connector-curvature="0"
         d="m 15,179.01 c 16.66,-0.02 33.33,-0.02 50,0 0,0.74 0,2.24 0,2.98 -16.66,0.02 -33.33,0.02 -50,0 0,-0.74 0,-2.24 0,-2.98 z"
         id="path109" />
      <path
         style="opacity:1;fill:#b6b6b6"
         inkscape:connector-curvature="0"
         d="m 91,179 c 16.67,0 33.33,-0.01 50,0.01 0,0.74 0,2.24 0,2.98 -16.67,0.01 -33.33,0.02 -50,0 0,-0.74 0,-2.24 0,-2.99 z"
         id="path111" />
      <path
         style="opacity:1;fill:#b6b6b6"
         inkscape:connector-curvature="0"
         d="m 166,179.01 c 16.67,-0.02 33.33,-0.01 50,0 0,0.74 0,2.24 0,2.98 -16.67,0.02 -33.33,0.02 -50,0 0,-0.74 0,-2.24 0,-2.98 z"
         id="path113" />
      <path
         style="opacity:1;fill:#b6b6b6"
         inkscape:connector-curvature="0"
         d="m 242,179.01 c 16.67,-0.02 33.34,-0.02 50.01,0 0,0.74 -0.01,2.24 -0.01,2.98 -16.67,0.02 -33.33,0.01 -50,0 0,-0.74 0,-2.23 0,-2.98 z"
         id="path115" />
      <path
         style="opacity:1;fill:#b6b6b6"
         inkscape:connector-curvature="0"
         d="m 15,281.01 c 31.33,-0.01 62.67,-0.02 94,0 0,0.74 0,2.24 0,2.98 -31.33,0.01 -62.67,0.02 -94,0 0,-0.75 0,-2.24 0,-2.98 z"
         id="path117" />
      <path
         style="opacity:1;fill:#b6b6b6"
         inkscape:connector-curvature="0"
         d="m 166,281.01 c 31.33,-0.02 62.66,-0.01 94,0 0,0.74 0,2.23 0,2.98 -31.33,0.02 -62.67,0.01 -94,0 0,-0.74 0,-2.24 0,-2.98 z"
         id="path119" />
      <path
         style="opacity:1;fill:#b6b6b6"
         inkscape:connector-curvature="0"
         d="m 15,286.01 c 11.67,-0.01 23.34,-0.02 35.01,0 0,0.75 -0.01,2.24 -0.01,2.98 -11.67,0.01 -23.33,0.02 -35,0 0,-0.74 0,-2.24 0,-2.98 z"
         id="path121" />
      <path
         style="opacity:1;fill:#b6b6b6"
         inkscape:connector-curvature="0"
         d="m 15,357.01 c 11.67,-0.02 23.33,-0.01 35,0 0,0.74 0,2.23 0,2.98 -11.67,0.02 -23.33,0.01 -35,0 0,-0.74 0,-2.24 0,-2.98 z"
         id="path123" />
      <path
         style="opacity:1;fill:#b6b6b6"
         inkscape:connector-curvature="0"
         d="m 94,357.01 c 25.33,-0.02 50.66,-0.01 76,0 0,0.74 0,2.24 0.01,2.98 -25.34,0.02 -50.67,0.01 -76.01,0 0,-0.74 0,-2.23 0,-2.98 z"
         id="path125" />
      <path
         style="opacity:1;fill:#b6b6b6"
         inkscape:connector-curvature="0"
         d="m 242,357.01 c 11.67,-0.02 23.33,-0.02 35,0 0,0.74 0,2.24 0,2.98 -11.67,0.01 -23.34,0.02 -35,0 0,-0.74 0,-2.24 0,-2.98 z"
         id="path127" />
      <path
         style="opacity:1;fill:#b6b6b6"
         inkscape:connector-curvature="0"
         d="m 94,362.01 c 11.67,-0.02 23.33,-0.02 35,0 0,0.74 0,2.24 0,2.98 -11.67,0.01 -23.34,0.02 -35,0 0,-0.74 0,-2.24 0,-2.98 z"
         id="path129" />
    </g>
    <g
       transform="translate(473.57143,405.0038)"
       id="#c1c1c1ff">
      <path
         style="opacity:1;fill:#c1c1c1"
         inkscape:connector-curvature="0"
         d="m 13.3,108.98 c 1.9,-1.61 3.91,-3.1 6.05,-4.39 -0.67,1.48 -1.38,2.95 -2.1,4.41 0.71,1.48 1.42,2.95 2.1,4.45 -2.15,-1.31 -4.15,-2.83 -6.05,-4.47 z"
         id="path132" />
      <path
         style="opacity:1;fill:#c1c1c1"
         inkscape:connector-curvature="0"
         d="m 289.65,104.53 c 2.13,1.3 4.13,2.79 6.04,4.39 -1.87,1.69 -3.84,3.25 -5.98,4.58 0.65,-1.51 1.32,-3.01 2.01,-4.5 -0.7,-1.49 -1.4,-2.97 -2.07,-4.47 z"
         id="path134" />
    </g>
    <g
       transform="translate(473.57143,405.0038)"
       id="#757575ff">
      <path
         style="opacity:1;fill:#757575"
         inkscape:connector-curvature="0"
         d="m 143.24,139.32 c 1.7,-1.11 4.27,0.68 3.69,2.63 -0.24,1.92 -2.91,2.79 -4.18,1.28 -1.23,-1.12 -0.86,-3.06 0.49,-3.91 m 0.94,0.93 c -1.64,0.33 -0.95,2.99 0.64,2.49 1.64,-0.33 0.95,-2.99 -0.64,-2.49 z"
         id="path137" />
      <path
         style="opacity:1;fill:#757575"
         inkscape:connector-curvature="0"
         d="m 153.3,139.33 c 1.67,-1.15 4.3,0.78 3.61,2.68 -0.27,2.18 -3.69,2.74 -4.56,0.69 -0.75,-1.19 -0.25,-2.73 0.95,-3.37 z"
         id="path139" />
      <path
         style="opacity:1;fill:#757575"
         inkscape:connector-curvature="0"
         d="m 163.2,139.36 c 2.73,-1.84 5.42,2.78 2.56,4.31 -2.69,1.71 -5.35,-2.75 -2.56,-4.31 m 0.97,0.89 c -1.64,0.34 -0.94,2.99 0.65,2.49 1.64,-0.34 0.94,-2.99 -0.65,-2.49 z"
         id="path141" />
      <path
         style="opacity:1;fill:#757575"
         inkscape:connector-curvature="0"
         d="m 143.22,304.39 c 2.69,-1.87 5.48,2.83 2.51,4.24 -2.63,1.82 -5.34,-2.79 -2.51,-4.24 z"
         id="path143" />
      <path
         style="opacity:1;fill:#757575"
         inkscape:connector-curvature="0"
         d="m 153.26,304.39 c 1.3,-1.03 3.52,0.06 3.68,1.68 0.6,1.88 -2.11,3.8 -3.63,2.57 -1.69,-0.79 -1.74,-3.44 -0.05,-4.25 m 0.88,0.87 c -1.63,0.37 -0.87,3.01 0.71,2.47 1.63,-0.38 0.87,-3.01 -0.71,-2.47 z"
         id="path145" />
      <path
         style="opacity:1;fill:#757575"
         inkscape:connector-curvature="0"
         d="m 163.23,304.32 c 1.83,-1.1 3.99,0.63 3.85,2.61 -0.48,1.1 -1.6,2.45 -2.97,1.99 -2.29,-0.24 -2.84,-3.49 -0.88,-4.6 m 0.93,0.93 c -1.64,0.33 -0.94,2.99 0.65,2.49 1.64,-0.33 0.95,-3 -0.65,-2.49 z"
         id="path147" />
    </g>
    <g
       id="g4285"
       transform="translate(473.09842,451.94812)">
      <ellipse
         ry="13.140538"
         rx="13.126938"
         cy="31.534252"
         cx="155.59178"
         id="path4326"
         style="fill:#e8e8e8;fill-opacity:1;stroke:#e8e8e8;stroke-width:0.80000001;stroke-miterlimit:4;stroke-dasharray:none;stroke-opacity:1" />
      <ellipse
         ry="16.987032"
         rx="16.962631"
         cy="31.684311"
         cx="155.71709"
         id="path4328"
         style="fill:#000000;fill-opacity:0;stroke:#ffc9c9;stroke-width:1.42353594;stroke-miterlimit:4;stroke-dasharray:none;stroke-opacity:1" />
    </g>
  </g>
</svg>
