<?xml version="1.0" encoding="UTF-8" standalone="no"?>
<!-- Created with Inkscape (http://www.inkscape.org/) -->

<svg
   xmlns:svg="http://www.w3.org/2000/svg"
   xmlns="http://www.w3.org/2000/svg"
   xmlns:inkscape="http://www.inkscape.org/namespaces/inkscape"
   width="310"
   height="382"
   viewBox="0 0 310 382">
  <rect
     style="fill:#ffffff;fill-opacity:1;stroke:none;stroke-width:1.79999995;stroke-miterlimit:4;stroke-dasharray:none;stroke-opacity:1"
     id="rect6034"
     width="310"
     height="382"
     x="0"
     y="0" />
  <path
     style="opacity:1;fill:#e8e8e8"
     inkscape:connector-curvature="0"
     id="path23"
     d="m 197.29689,35.285203 c 8.32,-0.13 16.64,-0.1 24.96,-0.03 0.01,0.73 0.03,2.19 0.04,2.92 -8.34,0.08 -16.67,0.07 -25.01,-0.01 0,-0.72 0,-2.16 0.01,-2.88 z" />
  <path
     style="opacity:1;fill:#e8e8e8"
     inkscape:connector-curvature="0"
     id="path25"
     d="m 252.30689,35.255203 c 8.32,-0.08 16.66,-0.06 24.99,0.02 -0.02,0.72 -0.04,2.16 -0.05,2.88 -8.29,0.1 -16.59,0.12 -24.88,0 -0.02,-0.73 -0.05,-2.18 -0.06,-2.9 z" />
  <path
     style="opacity:1;fill:#e8e8e8"
     inkscape:connector-curvature="0"
     id="path29"
     d="m 144.47689,142.4652 c 1.59,-0.5 2.28,2.16 0.64,2.49 -1.59,0.5 -2.28,-2.16 -0.64,-2.49 z" />
  <path
     style="opacity:1;fill:#e8e8e8"
     inkscape:connector-curvature="0"
     id="path31"
     d="m 164.46689,142.4652 c 1.59,-0.5 2.29,2.15 0.65,2.49 -1.59,0.5 -2.29,-2.15 -0.65,-2.49 z" />
  <path
     style="opacity:1;fill:#e8e8e8"
     inkscape:connector-curvature="0"
     id="path33"
     d="m 15.33689,190.2552 c 11.65,-0.05 23.31,-0.12 34.97,0.03 -0.02,0.72 -0.05,2.17 -0.07,2.9 -11.64,0.05 -23.29,0.09 -34.93,-0.03 0.01,-0.73 0.02,-2.17 0.03,-2.9 z" />
  <path
     style="opacity:1;fill:#e8e8e8"
     inkscape:connector-curvature="0"
     id="path35"
     d="m 91.29689,190.2752 c 11.64999,-0.1 23.31,-0.11 34.96,-0.01 0,0.73 -0.01,2.18 -0.01,2.91 -11.63,0.06 -23.25001,0.05 -34.88,0.03 -0.02,-0.73 -0.05,-2.19 -0.07,-2.93 z" />
  <path
     style="opacity:1;fill:#e8e8e8"
     inkscape:connector-curvature="0"
     id="path37"
     d="m 166.31689,190.2552 c 11.66,-0.07 23.31,-0.05 34.96,0.02 0.01,0.72 0.01,2.18 0.02,2.9 -11.65,0.07 -23.3,0.09 -34.95,-0.01 -0.01,-0.73 -0.02,-2.18 -0.03,-2.91 z" />
  <path
     style="opacity:1;fill:#e8e8e8"
     inkscape:connector-curvature="0"
     id="path39"
     d="m 242.35689,190.2352 c 11.66,0.01 23.33,-0.12 34.99,0.06 -0.03,0.73 -0.09,2.18 -0.12,2.91 -11.65,-0.01 -23.3,0.1 -34.96,-0.06 0.03,-0.72 0.07,-2.18 0.09,-2.91 z" />
  <path
     style="opacity:1;fill:#e8e8e8"
     inkscape:connector-curvature="0"
     id="path41"
     d="m 15.27689,195.2552 c 14.68,-0.07 29.36,-0.12 44.04,0.05 -0.02,0.71 -0.05,2.15 -0.07,2.87 -14.63,0.09 -29.25,0.05 -43.88,0.01 -0.02,-0.73 -0.07,-2.2 -0.09,-2.93 z" />
  <path
     style="opacity:1;fill:#e8e8e8"
     inkscape:connector-curvature="0"
     id="path43"
     d="m 91.31689,195.2652 c 14.66999,-0.06 29.33,-0.12 44,0.01 -0.01,0.72 -0.04,2.16 -0.06,2.87 -14.64,0.11 -29.29001,0.1 -43.93,0.03 0,-0.73 -0.01,-2.18 -0.01,-2.91 z" />
  <path
     style="opacity:1;fill:#e8e8e8"
     inkscape:connector-curvature="0"
     id="path45"
     d="m 166.36689,195.2452 c 14.64,-0.07 29.28,-0.04 43.93,0 -0.01,0.73 -0.03,2.2 -0.04,2.94 -14.66,0.04 -29.33,0.11 -43.99,-0.04 0.03,-0.73 0.08,-2.18 0.1,-2.9 z" />
  <path
     style="opacity:1;fill:#e8e8e8"
     inkscape:connector-curvature="0"
     id="path47"
     d="m 242.30689,195.2552 c 14.67,-0.08 29.34,-0.05 44.01,-0.01 -0.02,0.73 -0.06,2.19 -0.08,2.91 -14.62,0.12 -29.24,0.08 -43.85,0.02 -0.02,-0.73 -0.06,-2.19 -0.08,-2.92 z" />
  <path
     style="opacity:1;fill:#e8e8e8"
     inkscape:connector-curvature="0"
     id="path49"
     d="m 15.30689,200.2652 c 10.33,-0.09 20.66,-0.07 30.99,0.02 0,0.72 0,2.17 -0.01,2.89 -10.31,0.09 -20.62,0.05 -30.94,-0.01 -0.01,-0.72 -0.03,-2.17 -0.04,-2.9 z" />
  <path
     style="opacity:1;fill:#e8e8e8"
     inkscape:connector-curvature="0"
     id="path51"
     d="m 91.33689,200.2752 c 10.30999,-0.09 20.63,-0.14 30.95,0.01 0,0.72 0,2.16 0,2.88 -10.32,0.11 -20.64001,0.04 -30.96,0.01 0,-0.72 0.01,-2.17 0.01,-2.9 z" />
  <path
     style="opacity:1;fill:#e8e8e8"
     inkscape:connector-curvature="0"
     id="path53"
     d="m 166.34689,200.2352 c 10.31,-0.06 20.62,-0.03 30.94,0 -0.01,0.73 -0.02,2.19 -0.03,2.92 -10.31,0.11 -20.63,0.1 -30.95,0.02 0.01,-0.73 0.03,-2.2 0.04,-2.94 z" />
  <path
     style="opacity:1;fill:#e8e8e8"
     inkscape:connector-curvature="0"
     id="path55"
     d="m 242.28689,200.2752 c 10.34,-0.13 20.67,-0.07 31,-0.02 -0.01,0.72 -0.04,2.16 -0.06,2.89 -10.31,0.15 -20.62,0.07 -30.92,0.01 -0.01,-0.72 -0.01,-2.16 -0.02,-2.88 z" />
  <path
     style="opacity:1;fill:#e8e8e8"
     inkscape:connector-curvature="0"
     id="path57"
     d="m 15.28689,205.2452 c 7.32,-0.05 14.65,-0.07 21.97,0 0.01,0.73 0.02,2.18 0.03,2.91 -7.32,0.1 -14.63,0.1 -21.95,0.01 -0.01,-0.73 -0.04,-2.19 -0.05,-2.92 z" />
  <path
     style="opacity:1;fill:#e8e8e8"
     inkscape:connector-curvature="0"
     id="path59"
     d="m 91.34689,205.2752 c 7.29,-0.11 14.58999,-0.09 21.89,-0.03 0.02,0.73 0.05,2.19 0.07,2.91 -7.33001,0.11 -14.67,0.08 -22.01,0.03 0.02,-0.73 0.04,-2.18 0.05,-2.91 z" />
  <path
     style="opacity:1;fill:#e8e8e8"
     inkscape:connector-curvature="0"
     id="path61"
     d="m 166.31689,205.2852 c 7.31,-0.11 14.63,-0.16 21.94,0 0.01,0.72 0.03,2.16 0.04,2.88 -7.32,0.11 -14.64,0.08 -21.96,0 -0.01,-0.72 -0.02,-2.16 -0.02,-2.88 z" />
  <path
     style="opacity:1;fill:#e8e8e8"
     inkscape:connector-curvature="0"
     id="path63"
     d="m 242.33689,205.2652 c 7.32,-0.13 14.64,-0.07 21.96,-0.02 -0.01,0.73 -0.03,2.2 -0.04,2.93 -7.33,0.11 -14.65,0.07 -21.97,-0.02 0.01,-0.72 0.04,-2.17 0.05,-2.89 z" />
  <path
     style="opacity:1;fill:#e8e8e8"
     inkscape:connector-curvature="0"
     id="path65"
     d="m 15.34689,235.2652 c 39.98,-0.09 79.95,-0.09 119.92,0.01 0.06,13.3 0.04,26.6 -0.01,39.9 -39.97,0.07 -79.94,0.07 -119.92,0 -0.08,-13.3 -0.08,-26.61 0.01,-39.91 z" />
  <path
     style="opacity:1;fill:#e8e8e8"
     inkscape:connector-curvature="0"
     id="path67"
     d="m 166.36689,235.2352 c 39.96,-0.03 79.92,-0.04 119.88,0 0.08,13.31 0.1,26.62 -0.01,39.93 -39.96,0.12 -79.92,0.04 -119.88,0.03 -0.09,-13.32 -0.12,-26.64 0.01,-39.96 z" />
  <path
     style="opacity:1;fill:#e8e8e8"
     inkscape:connector-curvature="0"
     id="path69"
     d="m 166.33689,290.2652 c 29.31,-0.11 58.62,-0.05 87.93,-0.01 0.01,0.72 0.03,2.17 0.04,2.9 -29.34,0.11 -58.69,0.08 -88.02,0.02 0.01,-0.73 0.03,-2.18 0.05,-2.91 z" />
  <path
     style="opacity:1;fill:#e8e8e8"
     inkscape:connector-curvature="0"
     id="path71"
     d="m 15.29689,293.2652 c 29.31,-0.07 58.63,-0.07 87.93999,-0.04 0.02,0.74 0.05,2.22 0.06,2.96 -29.30999,0.06 -58.62999,0.05 -87.93999,-0.02 -0.02,-0.72 -0.05,-2.18 -0.06,-2.9 z" />
  <path
     style="opacity:1;fill:#e8e8e8"
     inkscape:connector-curvature="0"
     id="path73"
     d="m 166.30689,295.2352 c 14.67,-0.03 29.33,-0.07 44,0.03 -0.01,0.72 -0.02,2.17 -0.03,2.89 -14.64,0.11 -29.28,0.08 -43.91,0.02 -0.02,-0.73 -0.04,-2.2 -0.06,-2.94 z" />
  <path
     style="opacity:1;fill:#e8e8e8"
     inkscape:connector-curvature="0"
     id="path75"
     d="m 15.33689,298.2452 c 14.64,-0.05 29.29,-0.08 43.93,0.02 0.01,0.73 0.02,2.2 0.03,2.93 -14.65,0.01 -29.3,0.07 -43.94,-0.03 -0.01,-0.73 -0.01,-2.19 -0.02,-2.92 z" />
  <path
     style="opacity:1;fill:#e8e8e8"
     inkscape:connector-curvature="0"
     id="path77"
     d="m 15.29689,328.2852 c 16.66,-0.11 33.32,-0.11 49.98,-0.01 0,8.31 0.13,16.62 -0.05,24.93 -16.63,-0.02 -33.27,0.1 -49.9,-0.05 -0.07,-8.29 -0.05,-16.58 -0.03,-24.87 z" />
  <path
     style="opacity:1;fill:#e8e8e8"
     inkscape:connector-curvature="0"
     id="path79"
     d="m 94.32689,328.2752 c 39.97,-0.1 79.95,-0.1 119.92,-0.01 0.1,8.31 0.08,16.61 0,24.92 -39.96,0.06 -79.93,0.06 -119.9,0 -0.1,-8.31 -0.09,-16.61 -0.02,-24.91 z" />
  <path
     style="opacity:1;fill:#e8e8e8"
     inkscape:connector-curvature="0"
     id="path81"
     d="m 242.37689,328.2452 c 16.61,-0.03 33.23,-0.06 49.85,-0.02 0.13,8.31 0.1,16.63 0.03,24.95 -16.63,0.06 -33.27,0.08 -49.91,0.01 -0.12,-8.32 -0.09,-16.63 0.03,-24.94 z" />
  <path
     style="opacity:1;fill:#e8e8e8"
     inkscape:connector-curvature="0"
     id="path83"
     d="m 15.31689,364.2552 c 14.65,-0.08 29.3,-0.06 43.95,-0.01 -0.01,0.74 -0.02,2.21 -0.03,2.94 -14.63,0.03 -29.27,0.08 -43.9,-0.01 0,-0.73 -0.01,-2.19 -0.02,-2.92 z" />
  <path
     style="opacity:1;fill:#e8e8e8"
     inkscape:connector-curvature="0"
     id="path85"
     d="m 242.29689,364.2752 c 14.66,-0.11 29.33,-0.12 43.99,-0.01 -0.01,0.72 -0.01,2.16 -0.01,2.88 -14.66,0.12 -29.32,0.14 -43.98,0.01 0,-0.72 0,-2.16 0,-2.88 z" />
  <path
     style="opacity:1;fill:#e8e8e8"
     inkscape:connector-curvature="0"
     id="path87"
     d="m 15.30689,369.2652 c 9.31,-0.11 18.63,-0.07 27.95,-0.02 0.01,0.73 0.04,2.18 0.05,2.91 -9.33,0.12 -18.66,0.1 -27.99,0 0,-0.72 -0.01,-2.17 -0.01,-2.89 z" />
  <path
     style="opacity:1;fill:#e8e8e8"
     inkscape:connector-curvature="0"
     id="path89"
     d="m 94.35689,369.2452 c 23.64,-0.06 47.28,-0.05 70.91,0 0,0.73 0,2.18 0,2.91 -23.65,0.12 -47.3,0.05 -70.95,0.02 0.01,-0.73 0.03,-2.2 0.04,-2.93 z" />
  <path
     style="opacity:1;fill:#e8e8e8"
     inkscape:connector-curvature="0"
     id="path91"
     d="m 242.32689,369.2552 c 9.32,-0.1 18.64,-0.03 27.96,-0.01 0,0.73 0,2.19 0,2.92 -9.32,0.1 -18.63,0.06 -27.94,0.03 -0.01,-0.74 -0.01,-2.21 -0.02,-2.94 z" />
  <path
     style="opacity:1;fill:#e8e8e8"
     inkscape:connector-curvature="0"
     id="path93"
     d="m 94.33689,374.2652 c 14.64,-0.08 29.29,-0.12 43.93,0.02 0.01,0.72 0.03,2.15 0.05,2.87 -14.66,0.11 -29.32,0.08 -43.97,0.02 0,-0.73 -0.01,-2.18 -0.01,-2.91 z" />
  <g
     transform="translate(0.29689017,2.2152024)"
     id="#ffb2b2ff">
    <path
       style="opacity:1;fill:#ffb2b2"
       inkscape:connector-curvature="0"
       d="m 189,19.01 c 17.67,-0.01 35.33,-0.02 53,0 0,7.99 0,15.99 0,23.98 C 224.34,43.01 206.67,43 189.01,43 188.99,35 189,27 189,19.01 m 1,1 c 0,7.33 -0.01,14.66 0.01,21.99 16.99,0 33.99,0 50.98,0 0.02,-7.33 0.01,-14.66 0.01,-21.99 -17,-0.02 -34,-0.01 -51,0 z"
       id="path96" />
  </g>
  <g
     transform="translate(0.29689017,2.2152024)"
     id="#b6b6b6ff">
    <path
       style="opacity:1;fill:#b6b6b6"
       inkscape:connector-curvature="0"
       d="M 197,26.01 C 210.33,25.99 223.67,26 237,26 c 0,1.33 0,2.67 0,4 -13.33,0 -26.67,0 -40,0 0,-1.33 0,-2.66 0,-3.99 z"
       id="path99" />
    <path
       style="opacity:1;fill:#b6b6b6"
       inkscape:connector-curvature="0"
       d="m 252,26 c 13.33,0 26.67,-0.01 40,0.01 0,1.33 0,2.66 0,3.99 -13.34,0 -26.67,0 -40,-0.01 0,-1.33 0,-2.66 0,-3.99 z"
       id="path101" />
    <path
       style="opacity:1;fill:#b6b6b6"
       inkscape:connector-curvature="0"
       d="m 15,30.01 c 8.33,-0.02 16.67,-0.02 25,0 0,0.74 0,2.24 0,2.98 -8.33,0.01 -16.67,0.02 -25,0 0,-0.74 0,-2.24 0,-2.98 z"
       id="path103" />
    <path
       style="opacity:1;fill:#b6b6b6"
       inkscape:connector-curvature="0"
       d="m 55,30.01 c 8.33,-0.02 16.67,-0.02 25,0 0,0.74 0,2.24 0,2.98 C 71.67,33.01 63.33,33 55,33 c 0,-0.75 0,-2.25 0,-2.99 z"
       id="path105" />
    <path
       style="opacity:1;fill:#b6b6b6"
       inkscape:connector-curvature="0"
       d="m 95,30.01 c 8.33,-0.02 16.66,-0.02 25,0 0,0.75 0,2.24 0,2.98 -8.33,0.01 -16.67,0.02 -25,0 0,-0.74 0,-2.23 0,-2.98 z"
       id="path107" />
    <path
       style="opacity:1;fill:#b6b6b6"
       inkscape:connector-curvature="0"
       d="m 15,179.01 c 16.66,-0.02 33.33,-0.02 50,0 0,0.74 0,2.24 0,2.98 -16.66,0.02 -33.33,0.02 -50,0 0,-0.74 0,-2.24 0,-2.98 z"
       id="path109" />
    <path
       style="opacity:1;fill:#b6b6b6"
       inkscape:connector-curvature="0"
       d="m 91,179 c 16.67,0 33.33,-0.01 50,0.01 0,0.74 0,2.24 0,2.98 -16.67,0.01 -33.33,0.02 -50,0 0,-0.74 0,-2.24 0,-2.99 z"
       id="path111" />
    <path
       style="opacity:1;fill:#b6b6b6"
       inkscape:connector-curvature="0"
       d="m 166,179.01 c 16.67,-0.02 33.33,-0.01 50,0 0,0.74 0,2.24 0,2.98 -16.67,0.02 -33.33,0.02 -50,0 0,-0.74 0,-2.24 0,-2.98 z"
       id="path113" />
    <path
       style="opacity:1;fill:#b6b6b6"
       inkscape:connector-curvature="0"
       d="m 242,179.01 c 16.67,-0.02 33.34,-0.02 50.01,0 0,0.74 -0.01,2.24 -0.01,2.98 -16.67,0.02 -33.33,0.01 -50,0 0,-0.74 0,-2.23 0,-2.98 z"
       id="path115" />
    <path
       style="opacity:1;fill:#b6b6b6"
       inkscape:connector-curvature="0"
       d="m 15,281.01 c 31.33,-0.01 62.67,-0.02 94,0 0,0.74 0,2.24 0,2.98 -31.33,0.01 -62.67,0.02 -94,0 0,-0.75 0,-2.24 0,-2.98 z"
       id="path117" />
    <path
       style="opacity:1;fill:#b6b6b6"
       inkscape:connector-curvature="0"
       d="m 166,281.01 c 31.33,-0.02 62.66,-0.01 94,0 0,0.74 0,2.23 0,2.98 -31.33,0.02 -62.67,0.01 -94,0 0,-0.74 0,-2.24 0,-2.98 z"
       id="path119" />
    <path
       style="opacity:1;fill:#b6b6b6"
       inkscape:connector-curvature="0"
       d="m 15,286.01 c 11.67,-0.01 23.34,-0.02 35.01,0 0,0.75 -0.01,2.24 -0.01,2.98 -11.67,0.01 -23.33,0.02 -35,0 0,-0.74 0,-2.24 0,-2.98 z"
       id="path121" />
    <path
       style="opacity:1;fill:#b6b6b6"
       inkscape:connector-curvature="0"
       d="m 15,357.01 c 11.67,-0.02 23.33,-0.01 35,0 0,0.74 0,2.23 0,2.98 -11.67,0.02 -23.33,0.01 -35,0 0,-0.74 0,-2.24 0,-2.98 z"
       id="path123" />
    <path
       style="opacity:1;fill:#b6b6b6"
       inkscape:connector-curvature="0"
       d="m 94,357.01 c 25.33,-0.02 50.66,-0.01 76,0 0,0.74 0,2.24 0.01,2.98 -25.34,0.02 -50.67,0.01 -76.01,0 0,-0.74 0,-2.23 0,-2.98 z"
       id="path125" />
    <path
       style="opacity:1;fill:#b6b6b6"
       inkscape:connector-curvature="0"
       d="m 242,357.01 c 11.67,-0.02 23.33,-0.02 35,0 0,0.74 0,2.24 0,2.98 -11.67,0.01 -23.34,0.02 -35,0 0,-0.74 0,-2.24 0,-2.98 z"
       id="path127" />
    <path
       style="opacity:1;fill:#b6b6b6"
       inkscape:connector-curvature="0"
       d="m 94,362.01 c 11.67,-0.02 23.33,-0.02 35,0 0,0.74 0,2.24 0,2.98 -11.67,0.01 -23.34,0.02 -35,0 0,-0.74 0,-2.24 0,-2.98 z"
       id="path129" />
  </g>
  <g
     transform="translate(0.29689017,2.2152024)"
     id="#c1c1c1ff">
    <path
       style="opacity:1;fill:#c1c1c1"
       inkscape:connector-curvature="0"
       d="m 13.3,108.98 c 1.9,-1.61 3.91,-3.1 6.05,-4.39 -0.67,1.48 -1.38,2.95 -2.1,4.41 0.71,1.48 1.42,2.95 2.1,4.45 -2.15,-1.31 -4.15,-2.83 -6.05,-4.47 z"
       id="path132" />
    <path
       style="opacity:1;fill:#c1c1c1"
       inkscape:connector-curvature="0"
       d="m 289.65,104.53 c 2.13,1.3 4.13,2.79 6.04,4.39 -1.87,1.69 -3.84,3.25 -5.98,4.58 0.65,-1.51 1.32,-3.01 2.01,-4.5 -0.7,-1.49 -1.4,-2.97 -2.07,-4.47 z"
       id="path134" />
  </g>
  <g
     id="g4285"
     transform="translate(1.9667402,-0.1261876)">
    <ellipse
       ry="13.140538"
       rx="13.126938"
       cy="31.534252"
       cx="155.59178"
       id="path4326"
       style="fill:#e8e8e8;fill-opacity:1;stroke:#e8e8e8;stroke-width:0.80000001;stroke-miterlimit:4;stroke-dasharray:none;stroke-opacity:1" />
    <ellipse
       ry="16.987032"
       rx="16.962631"
       cy="31.684311"
       cx="155.71709"
       id="path4328"
       style="fill:#000000;fill-opacity:0;stroke:#ffc9c9;stroke-width:1.42353594;stroke-miterlimit:4;stroke-dasharray:none;stroke-opacity:1" />
  </g>
  <rect
     style="fill:#e8e8e8;fill-opacity:1;stroke:none;stroke-width:1.79999995;stroke-miterlimit:4;stroke-dasharray:none;stroke-opacity:1"
     id="rect6264"
     width="310"
     height="92"
     x="1.5829073e-008"
     y="65" />
  <circle
     style="fill:#757575;fill-opacity:1;stroke:#757575;stroke-width:0.9761194;stroke-miterlimit:4;stroke-dasharray:none;stroke-opacity:1"
     id="path6295"
     cx="154.625"
     cy="144.125"
     r="2.2369404" />
  <ellipse
     style="fill:#000000;fill-opacity:0;stroke:#757575;stroke-width:0.99820161;stroke-miterlimit:4;stroke-dasharray:none;stroke-opacity:1"
     id="path6295-9"
     cx="164.25"
     cy="144.125"
     rx="2.350899"
     ry="2.225899" />
  <circle
     style="fill:#000000;fill-opacity:0;stroke:#757575;stroke-width:0.97611946;stroke-miterlimit:4;stroke-dasharray:none;stroke-opacity:1"
     id="path6295-0"
     cx="145.125"
     cy="144.125"
     r="2.2369404" />
  <path
     style="fill:#ffffff;fill-opacity:1;fill-rule:evenodd;stroke:#c4c4c4;stroke-width:1.20000005;stroke-linecap:butt;stroke-linejoin:miter;stroke-miterlimit:4;stroke-dasharray:none;stroke-opacity:1"
     d="m 20.406,105.60594 -3.93117,3.80949 3.93117,3.8095 0,0 -3.93117,-3.8095 z"
     id="path4309"
     inkscape:connector-curvature="0" />
  <path
     style="fill:none;fill-rule:evenodd;stroke:#c4c4c4;stroke-width:1.16761887;stroke-linecap:butt;stroke-linejoin:miter;stroke-miterlimit:4;stroke-dasharray:none;stroke-opacity:1"
     d="m 288.36826,105.37224 4.28512,3.87775 -4.28512,3.87776"
     id="path4327"
     inkscape:connector-curvature="0" />
  <circle
     style="fill:#757575;fill-opacity:1;stroke:#757575;stroke-width:0.9761194;stroke-miterlimit:4;stroke-dasharray:none;stroke-opacity:1"
     id="path6295-4"
     cx="154.625"
     cy="308.75"
     r="2.2369404" />
  <ellipse
     style="fill:#000000;fill-opacity:0;stroke:#757575;stroke-width:0.99820161;stroke-miterlimit:4;stroke-dasharray:none;stroke-opacity:1"
     id="path6295-9-2"
     cx="164.25"
     cy="308.75"
     rx="2.350899"
     ry="2.225899" />
  <circle
     style="fill:#000000;fill-opacity:0;stroke:#757575;stroke-width:0.97611946;stroke-miterlimit:4;stroke-dasharray:none;stroke-opacity:1"
     id="path6295-0-54"
     cx="145.125"
     cy="308.75"
     r="2.2369404" />
</svg>
