<?xml version="1.0" encoding="UTF-8" ?>
<!DOCTYPE svg PUBLIC "-//W3C//DTD SVG 1.1//EN" "http://www.w3.org/Graphics/SVG/1.1/DTD/svg11.dtd">
<svg width="310px" height="382px" viewBox="0 0 310 382" version="1.1" xmlns="http://www.w3.org/2000/svg">
<g id="#ffffffff">
<path fill="#ffffff" opacity="1.00" d=" M 0.00 0.00 L 310.00 0.00 L 310.00 62.98 C 206.67 62.97 103.33 63.09 0.00 62.92 L 0.00 0.00 M 153.30 14.33 C 145.85 16.12 139.87 23.21 139.91 30.97 C 139.25 40.35 147.58 49.17 156.97 49.09 C 166.72 49.79 175.77 40.77 175.09 31.01 C 175.27 20.16 163.73 11.45 153.30 14.33 M 191.01 19.01 C 190.99 27.00 191.00 34.99 191.00 42.99 C 208.66 43.02 226.33 43.00 243.99 43.00 C 244.02 35.00 244.00 27.01 244.00 19.01 C 226.33 18.99 208.67 18.99 191.01 19.01 M 254.00 26.01 C 254.00 27.34 254.00 28.66 254.00 29.99 C 267.33 30.00 280.67 30.01 294.00 29.99 C 294.00 28.66 294.00 27.34 294.00 26.01 C 280.67 25.99 267.33 25.99 254.00 26.01 M 17.00 30.01 C 17.00 30.76 17.00 32.25 17.00 32.99 C 25.33 33.01 33.67 33.01 42.00 32.99 C 42.00 32.24 42.00 30.76 42.00 30.01 C 33.67 29.99 25.33 29.99 17.00 30.01 M 57.00 30.01 C 57.00 30.76 57.00 32.25 57.00 32.99 C 65.34 33.01 73.67 33.01 82.00 32.99 C 82.00 32.24 82.00 30.76 82.00 30.01 C 73.67 29.99 65.33 29.99 57.00 30.01 M 97.00 30.01 C 97.00 30.75 97.00 32.24 96.99 32.99 C 105.33 33.02 113.66 33.00 121.99 32.99 C 122.00 32.25 122.00 30.76 122.01 30.01 C 113.67 29.99 105.34 29.99 97.00 30.01 M 254.05 33.06 C 254.04 33.76 254.00 35.18 253.99 35.88 C 262.32 36.08 270.65 36.06 278.98 35.91 C 278.99 35.20 279.01 33.77 279.02 33.05 C 270.70 32.97 262.37 32.94 254.05 33.06 Z" />
<path fill="#ffffff" opacity="1.00" d=" M 154.34 15.44 C 162.36 13.63 171.07 19.10 173.19 26.99 C 175.98 35.28 170.37 44.96 162.02 47.19 C 153.73 49.99 144.08 44.38 141.81 36.05 C 138.82 27.24 145.31 17.08 154.34 15.44 M 154.33 18.35 C 148.45 20.07 143.48 25.74 144.03 32.09 C 144.16 38.93 150.29 44.68 156.99 45.03 C 164.03 45.21 170.92 39.30 170.95 32.08 C 171.70 23.55 162.49 16.15 154.33 18.35 Z" />
<path fill="#ffffff" opacity="1.00" d=" M 192.01 20.01 C 209.00 20.00 226.00 19.98 243.00 20.02 C 243.00 27.34 243.01 34.67 242.99 41.99 C 225.99 42.00 209.00 42.02 192.00 41.98 C 192.00 34.66 191.99 27.33 192.01 20.01 M 199.01 26.00 C 199.00 27.33 199.00 28.66 198.99 29.99 C 212.33 30.01 225.66 30.01 239.00 29.99 C 239.00 28.66 239.00 27.34 239.00 26.01 C 225.67 25.99 212.34 26.00 199.01 26.00 M 199.08 33.07 C 199.06 33.78 199.01 35.19 198.98 35.90 C 207.32 36.12 215.67 36.00 224.01 35.93 C 224.00 35.21 223.99 33.77 223.99 33.05 C 215.69 32.86 207.38 33.02 199.08 33.07 Z" />
<path fill="#ffffff" opacity="1.00" d=" M 0.00 155.00 C 103.33 155.06 206.67 154.89 310.00 155.08 L 310.00 382.00 L 0.00 382.00 L 0.00 155.00 M 17.00 179.01 C 17.00 179.76 17.00 181.25 17.00 181.99 C 33.67 182.01 50.34 182.01 67.00 181.99 C 67.00 181.24 67.00 179.76 67.00 179.01 C 50.33 178.99 33.66 178.99 17.00 179.01 M 93.00 179.01 C 93.00 179.76 93.00 181.24 93.00 181.99 C 109.67 182.01 126.34 182.01 143.01 181.99 C 143.00 181.24 143.00 179.75 142.99 179.01 C 126.33 179.00 109.66 178.99 93.00 179.01 M 168.00 179.01 C 168.00 179.76 168.00 181.24 168.00 181.99 C 184.66 182.01 201.33 182.01 218.00 181.99 C 218.00 181.24 218.00 179.76 218.00 179.01 C 201.33 178.99 184.67 178.99 168.00 179.01 M 244.00 179.01 C 244.00 179.76 244.00 181.24 244.00 181.99 C 260.67 182.01 277.33 182.01 294.00 181.99 C 294.00 181.24 294.00 179.76 294.00 179.01 C 277.33 178.99 260.67 178.99 244.00 179.01 M 17.04 188.07 C 17.05 188.78 17.06 190.21 17.07 190.93 C 28.69 191.05 40.31 191.01 51.94 190.96 C 51.95 190.25 51.96 188.81 51.97 188.09 C 40.33 187.93 28.68 187.96 17.04 188.07 M 92.97 188.09 C 92.99 188.80 93.05 190.21 93.07 190.92 C 104.69 191.06 116.31 191.06 127.93 190.94 C 127.95 190.23 127.98 188.81 127.99 188.09 C 116.32 187.86 104.64 188.00 92.97 188.09 M 168.04 188.06 C 168.04 188.78 168.04 190.22 168.04 190.94 C 179.68 191.07 191.32 191.05 202.95 190.91 C 202.97 190.20 202.99 188.78 203.01 188.06 C 191.35 187.94 179.69 187.97 168.04 188.06 M 244.09 188.04 C 244.07 188.75 244.02 190.19 243.99 190.90 C 255.63 191.07 267.27 191.09 278.91 190.91 C 278.94 190.19 278.99 188.76 279.02 188.05 C 267.38 187.96 255.73 187.93 244.09 188.04 M 17.05 193.05 C 17.05 193.78 17.05 195.22 17.05 195.95 C 31.70 196.04 46.35 196.07 61.00 195.91 C 61.00 195.20 61.00 193.78 61.00 193.07 C 46.35 192.97 31.69 192.93 17.05 193.05 M 93.09 193.07 C 93.07 193.79 93.04 195.24 93.02 195.96 C 107.68 196.00 122.33 196.07 136.98 195.94 C 136.98 195.21 136.97 193.75 136.97 193.01 C 122.34 193.07 107.71 192.87 93.09 193.07 M 168.06 193.10 C 168.05 193.80 168.04 195.22 168.04 195.92 C 182.67 196.06 197.30 196.04 211.93 195.93 C 211.94 195.22 211.95 193.79 211.95 193.08 C 197.32 192.94 182.69 192.93 168.06 193.10 M 244.09 193.11 C 244.07 193.82 244.03 195.23 244.00 195.93 C 258.65 196.04 273.31 196.05 287.95 195.95 C 287.96 195.23 287.96 193.79 287.96 193.07 C 273.34 192.96 258.71 192.87 244.09 193.11 M 17.04 198.03 C 17.02 198.75 16.99 200.20 16.97 200.92 C 27.29 201.05 37.62 201.08 47.95 200.90 C 47.96 200.19 47.98 198.78 47.99 198.07 C 37.67 197.90 27.35 198.01 17.04 198.03 M 93.01 198.08 C 93.01 198.80 93.00 200.24 93.00 200.97 C 103.33 201.00 113.67 201.06 124.00 200.91 C 123.99 200.20 123.98 198.79 123.98 198.08 C 113.66 197.96 103.33 197.93 93.01 198.08 M 168.00 198.08 C 168.01 198.80 168.04 200.24 168.06 200.96 C 178.37 201.05 188.69 201.07 199.01 200.91 C 198.99 200.20 198.96 198.78 198.95 198.08 C 188.63 197.93 178.31 197.98 168.00 198.08 M 244.04 198.07 C 244.03 198.79 244.01 200.21 244.00 200.93 C 254.33 201.06 264.66 201.08 274.98 200.94 C 274.97 200.21 274.96 198.76 274.95 198.03 C 264.65 198.03 254.34 197.87 244.04 198.07 M 17.04 203.09 C 17.03 203.80 17.02 205.21 17.01 205.91 C 24.31 206.05 31.62 206.04 38.93 205.93 C 38.94 205.22 38.98 203.80 39.00 203.09 C 31.68 202.91 24.36 202.97 17.04 203.09 M 93.00 203.03 C 93.02 203.75 93.05 205.20 93.06 205.92 C 100.37 206.07 107.67 206.08 114.98 205.93 C 114.96 205.21 114.93 203.78 114.92 203.06 C 107.61 202.96 100.31 202.97 93.00 203.03 M 168.05 203.07 C 168.05 203.79 168.05 205.23 168.06 205.95 C 175.35 206.01 182.65 206.06 189.94 205.92 C 189.94 205.20 189.94 203.77 189.94 203.06 C 182.64 202.94 175.34 202.97 168.05 203.07 M 244.02 203.09 C 244.03 203.80 244.05 205.23 244.05 205.94 C 251.34 206.08 258.63 206.07 265.91 205.93 C 265.94 205.22 265.99 203.78 266.02 203.06 C 258.69 202.96 251.35 202.92 244.02 203.09 M 17.07 233.07 C 16.92 246.35 16.95 259.64 17.07 272.93 C 57.03 273.05 96.99 273.03 136.95 272.96 C 137.04 259.65 137.05 246.32 136.93 233.01 C 96.98 233.04 57.02 232.92 17.07 233.07 M 168.07 233.04 C 167.94 246.32 167.96 259.61 168.10 272.89 C 208.05 273.14 248.00 272.96 287.96 272.95 C 288.06 259.65 288.02 246.36 287.95 233.06 C 247.99 232.93 208.03 233.01 168.07 233.04 M 17.00 281.01 C 17.00 281.76 17.00 283.24 17.00 283.99 C 48.33 284.01 79.67 284.01 111.00 283.99 C 111.00 283.24 111.00 281.76 111.00 281.01 C 79.67 280.99 48.33 280.99 17.00 281.01 M 168.00 281.01 C 168.00 281.76 168.00 283.24 168.00 283.99 C 199.33 284.01 230.67 284.01 262.01 283.99 C 262.00 283.24 262.00 281.75 262.00 281.01 C 230.66 280.99 199.33 280.99 168.00 281.01 M 17.01 286.01 C 17.00 286.75 17.00 288.24 16.99 288.99 C 28.66 289.01 40.33 289.01 52.00 288.99 C 52.00 288.24 52.00 286.76 52.00 286.01 C 40.34 285.99 28.67 286.00 17.01 286.01 M 168.05 288.04 C 168.06 288.77 168.06 290.23 168.06 290.96 C 197.38 291.02 226.69 291.04 256.01 290.94 C 255.99 290.22 255.94 288.77 255.92 288.05 C 226.63 287.96 197.34 287.98 168.05 288.04 M 17.13 291.07 C 17.10 291.78 17.04 293.21 17.01 293.93 C 46.34 294.10 75.68 294.01 105.01 293.95 C 104.99 293.23 104.96 291.78 104.94 291.06 C 75.67 290.99 46.40 290.93 17.13 291.07 M 168.00 293.06 C 168.01 293.78 168.02 295.23 168.02 295.96 C 182.66 295.97 197.29 296.07 211.92 295.94 C 211.93 295.22 211.95 293.78 211.96 293.06 C 197.31 292.99 182.65 292.94 168.00 293.06 M 17.04 296.09 C 17.05 296.80 17.07 298.24 17.08 298.96 C 31.73 298.98 46.37 299.08 61.01 298.95 C 61.00 298.23 60.99 296.79 60.98 296.06 C 46.33 295.94 31.69 295.94 17.04 296.09 M 145.25 304.38 C 143.60 305.22 143.62 307.82 145.27 308.66 C 146.66 309.56 148.67 308.58 148.96 306.99 C 149.52 305.03 146.90 303.14 145.25 304.38 M 155.24 304.33 C 152.42 305.81 155.02 310.40 157.71 308.64 C 160.65 307.27 157.98 302.55 155.24 304.33 M 165.36 304.33 C 162.39 305.65 164.94 310.40 167.71 308.69 C 170.62 307.30 168.03 302.62 165.36 304.33 M 17.07 326.07 C 16.96 334.36 16.94 342.66 17.08 350.95 C 33.70 351.05 50.34 351.05 66.96 350.93 C 66.98 342.65 67.13 334.37 66.92 326.09 C 50.30 325.92 33.68 325.97 17.07 326.07 M 96.09 326.07 C 95.93 334.37 95.96 342.67 96.09 350.97 C 136.04 351.02 175.99 351.05 215.94 350.94 C 216.04 342.64 216.03 334.35 215.95 326.05 C 176.00 325.96 136.04 325.95 96.09 326.07 M 244.06 326.09 C 243.96 334.35 243.95 342.63 244.10 350.89 C 260.70 351.03 277.31 351.08 293.91 350.92 C 294.08 342.62 294.03 334.33 293.95 326.04 C 277.32 326.02 260.68 325.89 244.06 326.09 M 17.00 357.01 C 17.00 357.75 17.00 359.24 17.00 359.99 C 28.67 360.01 40.33 360.01 52.00 359.99 C 52.00 359.24 52.00 357.75 52.00 357.01 C 40.33 356.99 28.67 356.99 17.00 357.01 M 96.00 357.01 C 96.00 357.76 96.00 359.24 96.00 359.99 C 121.33 360.01 146.67 360.01 172.00 359.99 C 172.00 359.24 172.00 357.76 172.00 357.01 C 146.67 356.99 121.33 356.99 96.00 357.01 M 244.00 357.01 C 244.00 357.76 244.00 359.24 244.00 359.99 C 255.66 360.01 267.33 360.01 279.00 359.99 C 279.00 359.24 279.00 357.76 279.00 357.01 C 267.33 356.99 255.67 356.99 244.00 357.01 M 17.01 362.03 C 17.02 362.76 17.02 364.21 17.03 364.93 C 31.67 365.05 46.33 365.04 60.97 364.94 C 60.97 364.22 60.96 362.78 60.95 362.06 C 46.31 361.93 31.66 361.99 17.01 362.03 M 95.99 362.01 C 96.00 362.76 96.00 364.25 96.01 364.99 C 107.67 365.00 119.34 365.01 131.00 364.99 C 131.00 364.24 131.00 362.76 131.00 362.01 C 119.33 361.99 107.66 361.99 95.99 362.01 M 243.96 362.12 C 243.99 362.83 244.06 364.24 244.10 364.95 C 258.73 365.03 273.38 365.03 288.01 364.95 C 288.00 364.23 287.98 362.77 287.97 362.05 C 273.30 362.03 258.62 361.84 243.96 362.12 M 17.03 367.09 C 17.04 367.80 17.06 369.21 17.07 369.91 C 26.36 369.99 35.65 370.16 44.94 369.91 C 44.93 369.20 44.92 367.77 44.92 367.05 C 35.62 367.01 26.33 366.91 17.03 367.09 M 96.06 367.10 C 96.05 367.81 96.02 369.22 96.00 369.92 C 119.65 370.07 143.30 370.04 166.95 369.96 C 166.96 369.23 166.98 367.78 166.99 367.05 C 143.35 367.00 119.70 366.88 96.06 367.10 M 244.05 367.07 C 244.03 367.78 244.00 369.19 243.98 369.90 C 253.32 370.09 262.67 370.03 272.01 369.95 C 271.99 369.23 271.95 367.80 271.94 367.08 C 262.64 366.90 253.34 366.97 244.05 367.07 M 96.02 372.07 C 96.04 372.79 96.07 374.23 96.08 374.95 C 110.70 374.99 125.31 375.04 139.93 374.96 C 139.94 374.23 139.97 372.77 139.98 372.04 C 125.33 371.98 110.67 371.94 96.02 372.07 Z" />
<path fill="#ffffff" opacity="1.00" d=" M 156.13 305.27 C 157.71 304.71 158.47 307.37 156.84 307.74 C 155.27 308.27 154.50 305.65 156.13 305.27 Z" />
<path fill="#ffffff" opacity="1.00" d=" M 166.13 305.27 C 167.68 304.70 168.50 307.30 166.90 307.72 C 165.32 308.31 164.49 305.67 166.13 305.27 Z" />
</g>
<g id="#ffc9c9ff">
<path fill="#ffc9c9" opacity="1.00" d=" M 153.30 14.33 C 163.73 11.45 175.27 20.16 175.09 31.01 C 175.77 40.77 166.72 49.79 156.97 49.09 C 147.58 49.17 139.25 40.35 139.91 30.97 C 139.87 23.21 145.85 16.12 153.30 14.33 M 154.34 15.44 C 145.31 17.08 138.82 27.24 141.81 36.05 C 144.08 44.38 153.73 49.99 162.02 47.19 C 170.37 44.96 175.98 35.28 173.19 26.99 C 171.07 19.10 162.36 13.63 154.34 15.44 Z" />
</g>
<g id="#e8e8e8ff">
<path fill="#e8e8e8" opacity="1.00" d=" M 154.33 18.35 C 162.49 16.15 171.70 23.55 170.95 32.08 C 170.92 39.30 164.03 45.21 156.99 45.03 C 150.29 44.68 144.16 38.93 144.03 32.09 C 143.48 25.74 148.45 20.07 154.33 18.35 Z" />
<path fill="#e8e8e8" opacity="1.00" d=" M 199.08 33.07 C 207.38 33.02 215.69 32.86 223.99 33.05 C 223.99 33.77 224.00 35.21 224.01 35.93 C 215.67 36.00 207.32 36.12 198.98 35.90 C 199.01 35.19 199.06 33.78 199.08 33.07 Z" />
<path fill="#e8e8e8" opacity="1.00" d=" M 254.05 33.06 C 262.37 32.94 270.70 32.97 279.02 33.05 C 279.01 33.77 278.99 35.20 278.98 35.91 C 270.65 36.06 262.32 36.08 253.99 35.88 C 254.00 35.18 254.04 33.76 254.05 33.06 Z" />
<path fill="#e8e8e8" opacity="1.00" d=" M 0.00 62.92 C 103.33 63.09 206.67 62.97 310.00 62.98 L 310.00 155.08 C 206.67 154.89 103.33 155.06 0.00 155.00 L 0.00 62.92 M 15.90 109.03 C 16.98 111.10 19.15 112.21 21.11 113.29 C 21.01 111.60 19.97 110.27 19.00 108.98 C 19.97 107.70 20.97 106.39 21.16 104.73 C 19.21 105.85 16.89 106.87 15.90 109.03 M 292.22 105.04 C 291.14 106.53 293.41 107.71 293.98 109.00 C 293.08 110.33 291.95 111.61 291.88 113.31 C 293.67 112.13 296.33 111.21 296.92 108.97 C 296.25 106.99 294.14 105.67 292.22 105.04 M 145.29 139.33 C 142.37 140.72 145.05 145.48 147.72 143.63 C 150.64 142.26 148.01 137.61 145.29 139.33 M 155.34 139.30 C 152.39 140.68 154.95 145.42 157.73 143.67 C 160.59 142.25 158.08 137.68 155.34 139.30 M 165.31 139.33 C 162.42 140.66 164.93 145.37 167.64 143.68 C 170.67 142.39 168.08 137.61 165.31 139.33 Z" />
<path fill="#e8e8e8" opacity="1.00" d=" M 146.16 140.26 C 147.74 139.74 148.45 142.40 146.82 142.75 C 145.24 143.25 144.53 140.61 146.16 140.26 Z" />
<path fill="#e8e8e8" opacity="1.00" d=" M 166.15 140.26 C 167.74 139.73 168.45 142.40 166.81 142.74 C 165.23 143.24 164.52 140.61 166.15 140.26 Z" />
<path fill="#e8e8e8" opacity="1.00" d=" M 17.04 188.07 C 28.68 187.96 40.33 187.93 51.97 188.09 C 51.96 188.81 51.95 190.25 51.94 190.96 C 40.31 191.01 28.69 191.05 17.07 190.93 C 17.06 190.21 17.05 188.78 17.04 188.07 Z" />
<path fill="#e8e8e8" opacity="1.00" d=" M 92.97 188.09 C 104.64 188.00 116.32 187.86 127.99 188.09 C 127.98 188.81 127.95 190.23 127.93 190.94 C 116.31 191.06 104.69 191.06 93.07 190.92 C 93.05 190.21 92.99 188.80 92.97 188.09 Z" />
<path fill="#e8e8e8" opacity="1.00" d=" M 168.04 188.06 C 179.69 187.97 191.35 187.94 203.01 188.06 C 202.99 188.78 202.97 190.20 202.95 190.91 C 191.32 191.05 179.68 191.07 168.04 190.94 C 168.04 190.22 168.04 188.78 168.04 188.06 Z" />
<path fill="#e8e8e8" opacity="1.00" d=" M 244.09 188.04 C 255.73 187.93 267.38 187.96 279.02 188.05 C 278.99 188.76 278.94 190.19 278.91 190.91 C 267.27 191.09 255.63 191.07 243.99 190.90 C 244.02 190.19 244.07 188.75 244.09 188.04 Z" />
<path fill="#e8e8e8" opacity="1.00" d=" M 17.05 193.05 C 31.69 192.93 46.35 192.97 61.00 193.07 C 61.00 193.78 61.00 195.20 61.00 195.91 C 46.35 196.07 31.70 196.04 17.05 195.95 C 17.05 195.22 17.05 193.78 17.05 193.05 Z" />
<path fill="#e8e8e8" opacity="1.00" d=" M 93.09 193.07 C 107.71 192.87 122.34 193.07 136.97 193.01 C 136.97 193.75 136.98 195.21 136.98 195.94 C 122.33 196.07 107.68 196.00 93.02 195.96 C 93.04 195.24 93.07 193.79 93.09 193.07 Z" />
<path fill="#e8e8e8" opacity="1.00" d=" M 168.06 193.10 C 182.69 192.93 197.32 192.94 211.95 193.08 C 211.95 193.79 211.94 195.22 211.93 195.93 C 197.30 196.04 182.67 196.06 168.04 195.92 C 168.04 195.22 168.05 193.80 168.06 193.10 Z" />
<path fill="#e8e8e8" opacity="1.00" d=" M 244.09 193.11 C 258.71 192.87 273.34 192.96 287.96 193.07 C 287.96 193.79 287.96 195.23 287.95 195.95 C 273.31 196.05 258.65 196.04 244.00 195.93 C 244.03 195.23 244.07 193.82 244.09 193.11 Z" />
<path fill="#e8e8e8" opacity="1.00" d=" M 17.04 198.03 C 27.35 198.01 37.67 197.90 47.99 198.07 C 47.98 198.78 47.96 200.19 47.95 200.90 C 37.62 201.08 27.29 201.05 16.97 200.92 C 16.99 200.20 17.02 198.75 17.04 198.03 Z" />
<path fill="#e8e8e8" opacity="1.00" d=" M 93.01 198.08 C 103.33 197.93 113.66 197.96 123.98 198.08 C 123.98 198.79 123.99 200.20 124.00 200.91 C 113.67 201.06 103.33 201.00 93.00 200.97 C 93.00 200.24 93.01 198.80 93.01 198.08 Z" />
<path fill="#e8e8e8" opacity="1.00" d=" M 168.00 198.08 C 178.31 197.98 188.63 197.93 198.95 198.08 C 198.96 198.78 198.99 200.20 199.01 200.91 C 188.69 201.07 178.37 201.05 168.06 200.96 C 168.04 200.24 168.01 198.80 168.00 198.08 Z" />
<path fill="#e8e8e8" opacity="1.00" d=" M 244.04 198.07 C 254.34 197.87 264.65 198.03 274.95 198.03 C 274.96 198.76 274.97 200.21 274.98 200.94 C 264.66 201.08 254.33 201.06 244.00 200.93 C 244.01 200.21 244.03 198.79 244.04 198.07 Z" />
<path fill="#e8e8e8" opacity="1.00" d=" M 17.04 203.09 C 24.36 202.97 31.68 202.91 39.00 203.09 C 38.98 203.80 38.94 205.22 38.93 205.93 C 31.62 206.04 24.31 206.05 17.01 205.91 C 17.02 205.21 17.03 203.80 17.04 203.09 Z" />
<path fill="#e8e8e8" opacity="1.00" d=" M 93.00 203.03 C 100.31 202.97 107.61 202.96 114.92 203.06 C 114.93 203.78 114.96 205.21 114.98 205.93 C 107.67 206.08 100.37 206.07 93.06 205.92 C 93.05 205.20 93.02 203.75 93.00 203.03 Z" />
<path fill="#e8e8e8" opacity="1.00" d=" M 168.05 203.07 C 175.34 202.97 182.64 202.94 189.94 203.06 C 189.94 203.77 189.94 205.20 189.94 205.92 C 182.65 206.06 175.35 206.01 168.06 205.95 C 168.05 205.23 168.05 203.79 168.05 203.07 Z" />
<path fill="#e8e8e8" opacity="1.00" d=" M 244.02 203.09 C 251.35 202.92 258.69 202.96 266.02 203.06 C 265.99 203.78 265.94 205.22 265.91 205.93 C 258.63 206.07 251.34 206.08 244.05 205.94 C 244.05 205.23 244.03 203.80 244.02 203.09 Z" />
<path fill="#e8e8e8" opacity="1.00" d=" M 17.07 233.07 C 57.02 232.92 96.98 233.04 136.93 233.01 C 137.05 246.32 137.04 259.65 136.95 272.96 C 96.99 273.03 57.03 273.05 17.07 272.93 C 16.95 259.64 16.92 246.35 17.07 233.07 Z" />
<path fill="#e8e8e8" opacity="1.00" d=" M 168.07 233.04 C 208.03 233.01 247.99 232.93 287.95 233.06 C 288.02 246.36 288.06 259.65 287.96 272.95 C 248.00 272.96 208.05 273.14 168.10 272.89 C 167.96 259.61 167.94 246.32 168.07 233.04 Z" />
<path fill="#e8e8e8" opacity="1.00" d=" M 168.05 288.04 C 197.34 287.98 226.63 287.96 255.92 288.05 C 255.94 288.77 255.99 290.22 256.01 290.94 C 226.69 291.04 197.38 291.02 168.06 290.96 C 168.06 290.23 168.06 288.77 168.05 288.04 Z" />
<path fill="#e8e8e8" opacity="1.00" d=" M 17.13 291.07 C 46.40 290.93 75.67 290.99 104.94 291.06 C 104.96 291.78 104.99 293.23 105.01 293.95 C 75.68 294.01 46.34 294.10 17.01 293.93 C 17.04 293.21 17.10 291.78 17.13 291.07 Z" />
<path fill="#e8e8e8" opacity="1.00" d=" M 168.00 293.06 C 182.65 292.94 197.31 292.99 211.96 293.06 C 211.95 293.78 211.93 295.22 211.92 295.94 C 197.29 296.07 182.66 295.97 168.02 295.96 C 168.02 295.23 168.01 293.78 168.00 293.06 Z" />
<path fill="#e8e8e8" opacity="1.00" d=" M 17.04 296.09 C 31.69 295.94 46.33 295.94 60.98 296.06 C 60.99 296.79 61.00 298.23 61.01 298.95 C 46.37 299.08 31.73 298.98 17.08 298.96 C 17.07 298.24 17.05 296.80 17.04 296.09 Z" />
<path fill="#e8e8e8" opacity="1.00" d=" M 17.07 326.07 C 33.68 325.97 50.30 325.92 66.92 326.09 C 67.13 334.37 66.98 342.65 66.96 350.93 C 50.34 351.05 33.70 351.05 17.08 350.95 C 16.94 342.66 16.96 334.36 17.07 326.07 Z" />
<path fill="#e8e8e8" opacity="1.00" d=" M 96.09 326.07 C 136.04 325.95 176.00 325.96 215.95 326.05 C 216.03 334.35 216.04 342.64 215.94 350.94 C 175.99 351.05 136.04 351.02 96.09 350.97 C 95.96 342.67 95.93 334.37 96.09 326.07 Z" />
<path fill="#e8e8e8" opacity="1.00" d=" M 244.06 326.09 C 260.68 325.89 277.32 326.02 293.95 326.04 C 294.03 334.33 294.08 342.62 293.91 350.92 C 277.31 351.08 260.70 351.03 244.10 350.89 C 243.95 342.63 243.96 334.35 244.06 326.09 Z" />
<path fill="#e8e8e8" opacity="1.00" d=" M 17.01 362.03 C 31.66 361.99 46.31 361.93 60.95 362.06 C 60.96 362.78 60.97 364.22 60.97 364.94 C 46.33 365.04 31.67 365.05 17.03 364.93 C 17.02 364.21 17.02 362.76 17.01 362.03 Z" />
<path fill="#e8e8e8" opacity="1.00" d=" M 243.96 362.12 C 258.62 361.84 273.30 362.03 287.97 362.05 C 287.98 362.77 288.00 364.23 288.01 364.95 C 273.38 365.03 258.73 365.03 244.10 364.95 C 244.06 364.24 243.99 362.83 243.96 362.12 Z" />
<path fill="#e8e8e8" opacity="1.00" d=" M 17.03 367.09 C 26.33 366.91 35.62 367.01 44.92 367.05 C 44.92 367.77 44.93 369.20 44.94 369.91 C 35.65 370.16 26.36 369.99 17.07 369.91 C 17.06 369.21 17.04 367.80 17.03 367.09 Z" />
<path fill="#e8e8e8" opacity="1.00" d=" M 96.06 367.10 C 119.70 366.88 143.35 367.00 166.99 367.05 C 166.98 367.78 166.96 369.23 166.95 369.96 C 143.30 370.04 119.65 370.07 96.00 369.92 C 96.02 369.22 96.05 367.81 96.06 367.10 Z" />
<path fill="#e8e8e8" opacity="1.00" d=" M 244.05 367.07 C 253.34 366.97 262.64 366.90 271.94 367.08 C 271.95 367.80 271.99 369.23 272.01 369.95 C 262.67 370.03 253.32 370.09 243.98 369.90 C 244.00 369.19 244.03 367.78 244.05 367.07 Z" />
<path fill="#e8e8e8" opacity="1.00" d=" M 96.02 372.07 C 110.67 371.94 125.33 371.98 139.98 372.04 C 139.97 372.77 139.94 374.23 139.93 374.96 C 125.31 375.04 110.70 374.99 96.08 374.95 C 96.07 374.23 96.04 372.79 96.02 372.07 Z" />
</g>
<g id="#ffb2b2ff">
<path fill="#ffb2b2" opacity="1.00" d=" M 191.01 19.01 C 208.67 18.99 226.33 18.99 244.00 19.01 C 244.00 27.01 244.02 35.00 243.99 43.00 C 226.33 43.00 208.66 43.02 191.00 42.99 C 191.00 34.99 190.99 27.00 191.01 19.01 M 192.01 20.01 C 191.99 27.33 192.00 34.66 192.00 41.98 C 209.00 42.02 225.99 42.00 242.99 41.99 C 243.01 34.67 243.00 27.34 243.00 20.02 C 226.00 19.98 209.00 20.00 192.01 20.01 Z" />
</g>
<g id="#b6b6b6ff">
<path fill="#b6b6b6" opacity="1.00" d=" M 199.01 26.00 C 212.34 26.00 225.67 25.99 239.00 26.01 C 239.00 27.34 239.00 28.66 239.00 29.99 C 225.66 30.01 212.33 30.01 198.99 29.99 C 199.00 28.66 199.00 27.33 199.01 26.00 Z" />
<path fill="#b6b6b6" opacity="1.00" d=" M 254.00 26.01 C 267.33 25.99 280.67 25.99 294.00 26.01 C 294.00 27.34 294.00 28.66 294.00 29.99 C 280.67 30.01 267.33 30.00 254.00 29.99 C 254.00 28.66 254.00 27.34 254.00 26.01 Z" />
<path fill="#b6b6b6" opacity="1.00" d=" M 17.00 30.01 C 25.33 29.99 33.67 29.99 42.00 30.01 C 42.00 30.76 42.00 32.24 42.00 32.99 C 33.67 33.01 25.33 33.01 17.00 32.99 C 17.00 32.25 17.00 30.76 17.00 30.01 Z" />
<path fill="#b6b6b6" opacity="1.00" d=" M 57.00 30.01 C 65.33 29.99 73.67 29.99 82.00 30.01 C 82.00 30.76 82.00 32.24 82.00 32.99 C 73.67 33.01 65.34 33.01 57.00 32.99 C 57.00 32.25 57.00 30.76 57.00 30.01 Z" />
<path fill="#b6b6b6" opacity="1.00" d=" M 97.00 30.01 C 105.34 29.99 113.67 29.99 122.01 30.01 C 122.00 30.76 122.00 32.25 121.99 32.99 C 113.66 33.00 105.33 33.02 96.99 32.99 C 97.00 32.24 97.00 30.75 97.00 30.01 Z" />
<path fill="#b6b6b6" opacity="1.00" d=" M 17.00 179.01 C 33.66 178.99 50.33 178.99 67.00 179.01 C 67.00 179.76 67.00 181.24 67.00 181.99 C 50.34 182.01 33.67 182.01 17.00 181.99 C 17.00 181.25 17.00 179.76 17.00 179.01 Z" />
<path fill="#b6b6b6" opacity="1.00" d=" M 93.00 179.01 C 109.66 178.99 126.33 179.00 142.99 179.01 C 143.00 179.75 143.00 181.24 143.01 181.99 C 126.34 182.01 109.67 182.01 93.00 181.99 C 93.00 181.24 93.00 179.76 93.00 179.01 Z" />
<path fill="#b6b6b6" opacity="1.00" d=" M 168.00 179.01 C 184.67 178.99 201.33 178.99 218.00 179.01 C 218.00 179.76 218.00 181.24 218.00 181.99 C 201.33 182.01 184.66 182.01 168.00 181.99 C 168.00 181.24 168.00 179.76 168.00 179.01 Z" />
<path fill="#b6b6b6" opacity="1.00" d=" M 244.00 179.01 C 260.67 178.99 277.33 178.99 294.00 179.01 C 294.00 179.76 294.00 181.24 294.00 181.99 C 277.33 182.01 260.67 182.01 244.00 181.99 C 244.00 181.24 244.00 179.76 244.00 179.01 Z" />
<path fill="#b6b6b6" opacity="1.00" d=" M 17.00 281.01 C 48.33 280.99 79.67 280.99 111.00 281.01 C 111.00 281.76 111.00 283.24 111.00 283.99 C 79.67 284.01 48.33 284.01 17.00 283.99 C 17.00 283.24 17.00 281.76 17.00 281.01 Z" />
<path fill="#b6b6b6" opacity="1.00" d=" M 168.00 281.01 C 199.33 280.99 230.66 280.99 262.00 281.01 C 262.00 281.75 262.00 283.24 262.01 283.99 C 230.67 284.01 199.33 284.01 168.00 283.99 C 168.00 283.24 168.00 281.76 168.00 281.01 Z" />
<path fill="#b6b6b6" opacity="1.00" d=" M 17.01 286.01 C 28.67 286.00 40.34 285.99 52.00 286.01 C 52.00 286.76 52.00 288.24 52.00 288.99 C 40.33 289.01 28.66 289.01 16.99 288.99 C 17.00 288.24 17.00 286.75 17.01 286.01 Z" />
<path fill="#b6b6b6" opacity="1.00" d=" M 17.00 357.01 C 28.67 356.99 40.33 356.99 52.00 357.01 C 52.00 357.75 52.00 359.24 52.00 359.99 C 40.33 360.01 28.67 360.01 17.00 359.99 C 17.00 359.24 17.00 357.75 17.00 357.01 Z" />
<path fill="#b6b6b6" opacity="1.00" d=" M 96.00 357.01 C 121.33 356.99 146.67 356.99 172.00 357.01 C 172.00 357.76 172.00 359.24 172.00 359.99 C 146.67 360.01 121.33 360.01 96.00 359.99 C 96.00 359.24 96.00 357.76 96.00 357.01 Z" />
<path fill="#b6b6b6" opacity="1.00" d=" M 244.00 357.01 C 255.67 356.99 267.33 356.99 279.00 357.01 C 279.00 357.76 279.00 359.24 279.00 359.99 C 267.33 360.01 255.66 360.01 244.00 359.99 C 244.00 359.24 244.00 357.76 244.00 357.01 Z" />
<path fill="#b6b6b6" opacity="1.00" d=" M 95.99 362.01 C 107.66 361.99 119.33 361.99 131.00 362.01 C 131.00 362.76 131.00 364.24 131.00 364.99 C 119.34 365.01 107.67 365.00 96.01 364.99 C 96.00 364.25 96.00 362.76 95.99 362.01 Z" />
</g>
<g id="#c1c1c1ff">
<path fill="#c1c1c1" opacity="1.00" d=" M 15.90 109.03 C 16.89 106.87 19.21 105.85 21.16 104.73 C 20.97 106.39 19.97 107.70 19.00 108.98 C 19.97 110.27 21.01 111.60 21.11 113.29 C 19.15 112.21 16.98 111.10 15.90 109.03 Z" />
<path fill="#c1c1c1" opacity="1.00" d=" M 292.22 105.04 C 294.14 105.67 296.25 106.99 296.92 108.97 C 296.33 111.21 293.67 112.13 291.88 113.31 C 291.95 111.61 293.08 110.33 293.98 109.00 C 293.41 107.71 291.14 106.53 292.22 105.04 Z" />
</g>
<g id="#757575ff">
<path fill="#757575" opacity="1.00" d=" M 145.29 139.33 C 148.01 137.61 150.64 142.26 147.72 143.63 C 145.05 145.48 142.37 140.72 145.29 139.33 M 146.16 140.26 C 144.53 140.61 145.24 143.25 146.82 142.75 C 148.45 142.40 147.74 139.74 146.16 140.26 Z" />
<path fill="#757575" opacity="1.00" d=" M 155.34 139.30 C 158.08 137.68 160.59 142.25 157.73 143.67 C 154.95 145.42 152.39 140.68 155.34 139.30 Z" />
<path fill="#757575" opacity="1.00" d=" M 165.31 139.33 C 168.08 137.61 170.67 142.39 167.64 143.68 C 164.93 145.37 162.42 140.66 165.31 139.33 M 166.15 140.26 C 164.52 140.61 165.23 143.24 166.81 142.74 C 168.45 142.40 167.74 139.73 166.15 140.26 Z" />
<path fill="#757575" opacity="1.00" d=" M 145.25 304.38 C 146.90 303.14 149.52 305.03 148.96 306.99 C 148.67 308.58 146.66 309.56 145.27 308.66 C 143.62 307.82 143.60 305.22 145.25 304.38 Z" />
<path fill="#757575" opacity="1.00" d=" M 155.24 304.33 C 157.98 302.55 160.65 307.27 157.71 308.64 C 155.02 310.40 152.42 305.81 155.24 304.33 M 156.13 305.27 C 154.50 305.65 155.27 308.27 156.84 307.74 C 158.47 307.37 157.71 304.71 156.13 305.27 Z" />
<path fill="#757575" opacity="1.00" d=" M 165.36 304.33 C 168.03 302.62 170.62 307.30 167.71 308.69 C 164.94 310.40 162.39 305.65 165.36 304.33 M 166.13 305.27 C 164.49 305.67 165.32 308.31 166.90 307.72 C 168.50 307.30 167.68 304.70 166.13 305.27 Z" />
</g>
</svg>
