<?xml version="1.0" encoding="UTF-8" standalone="no"?>
<svg
   xmlns:dc="http://purl.org/dc/elements/1.1/"
   xmlns:cc="http://creativecommons.org/ns#"
   xmlns:rdf="http://www.w3.org/1999/02/22-rdf-syntax-ns#"
   xmlns:svg="http://www.w3.org/2000/svg"
   xmlns="http://www.w3.org/2000/svg"
   xmlns:sodipodi="http://sodipodi.sourceforge.net/DTD/sodipodi-0.dtd"
   xmlns:inkscape="http://www.inkscape.org/namespaces/inkscape"
   width="310px"
   height="382px"
   viewBox="0 0 310 382"
   version="1.1"
   id="svg2"
   inkscape:version="0.91 r13725"
   sodipodi:docname="front-3.svg">
  <metadata
     id="metadata153">
    <rdf:RDF>
      <cc:Work
         rdf:about="">
        <dc:format>image/svg+xml</dc:format>
        <dc:type
           rdf:resource="http://purl.org/dc/dcmitype/StillImage" />
        <dc:title></dc:title>
      </cc:Work>
    </rdf:RDF>
  </metadata>
  <defs
     id="defs151" />
  <sodipodi:namedview
     pagecolor="#ffffff"
     bordercolor="#666666"
     borderopacity="1"
     objecttolerance="10"
     gridtolerance="10"
     guidetolerance="10"
     inkscape:pageopacity="0"
     inkscape:pageshadow="2"
     inkscape:window-width="1366"
     inkscape:window-height="716"
     id="namedview149"
     showgrid="false"
     showguides="true"
     inkscape:guide-bbox="true"
     inkscape:zoom="1.3979242"
     inkscape:cx="98.39563"
     inkscape:cy="377.8278"
     inkscape:window-x="-8"
     inkscape:window-y="-8"
     inkscape:window-maximized="1"
     inkscape:current-layer="svg2">
    <sodipodi:guide
       position="189.70986,368.26031"
       orientation="0,1"
       id="guide4318" />
    <sodipodi:guide
       position="103.58215,332.77913"
       orientation="0,1"
       id="guide4320" />
    <sodipodi:guide
       position="138.20492,388.29001"
       orientation="1,0"
       id="guide4322" />
    <sodipodi:guide
       position="173.11382,387.4316"
       orientation="1,0"
       id="guide4324" />
  </sodipodi:namedview>
  <g
     id="g4330">
    <g
       id="#ffffffff">
      <path
         id="path5"
         d=" M 0.00 0.00 L 310.00 0.00 L 310.00 62.99 C 251.64 63.01 193.29 63.00 134.93 63.00 C 89.95 63.09 44.97 62.81 0.00 63.15 L 0.00 0.00 M 151.28 14.34 C 145.04 15.85 139.86 21.02 138.35 27.26 C 135.56 37.32 143.49 48.52 153.93 49.05 C 164.03 50.34 173.79 41.18 173.10 31.02 C 173.27 20.15 161.72 11.43 151.28 14.34 M 189.00 19.01 C 189.00 27.00 188.99 35.00 189.01 43.00 C 206.67 43.00 224.34 43.01 242.00 42.99 C 242.00 35.00 242.00 27.00 242.00 19.01 C 224.33 18.99 206.67 19.00 189.00 19.01 M 252.00 26.00 C 252.00 27.33 252.00 28.66 252.00 29.99 C 265.33 30.00 278.66 30.00 292.00 30.00 C 292.00 28.67 292.00 27.34 292.00 26.01 C 278.67 25.99 265.33 26.00 252.00 26.00 M 15.00 30.01 C 15.00 30.75 15.00 32.25 15.00 32.99 C 23.33 33.01 31.67 33.00 40.00 32.99 C 40.00 32.25 40.00 30.75 40.00 30.01 C 31.67 29.99 23.33 29.99 15.00 30.01 M 55.00 30.01 C 55.00 30.75 55.00 32.25 55.00 33.00 C 63.33 33.00 71.67 33.01 80.00 32.99 C 80.00 32.25 80.00 30.75 80.00 30.01 C 71.67 29.99 63.33 29.99 55.00 30.01 M 95.00 30.01 C 95.00 30.76 95.00 32.25 95.00 32.99 C 103.33 33.01 111.67 33.00 120.00 32.99 C 120.00 32.25 120.00 30.76 120.00 30.01 C 111.66 29.99 103.33 29.99 95.00 30.01 M 252.01 33.04 C 252.02 33.76 252.05 35.21 252.07 35.94 C 260.36 36.06 268.66 36.04 276.95 35.94 C 276.96 35.22 276.98 33.78 277.00 33.06 C 268.67 32.98 260.33 32.96 252.01 33.04 Z"
         opacity="1.00"
         fill="#ffffff" />
      <path
         id="path7"
         d=" M 152.29 15.43 C 162.60 12.98 173.18 22.70 171.83 33.15 C 171.00 42.86 160.37 50.35 151.00 47.21 C 142.62 45.00 137.04 35.32 139.79 27.01 C 141.39 21.19 146.42 16.66 152.29 15.43 M 152.31 18.43 C 146.32 19.93 141.58 25.78 142.04 32.06 C 142.08 38.53 147.56 44.07 153.86 44.88 C 161.30 45.97 168.92 39.64 168.96 32.05 C 169.67 23.54 160.51 16.06 152.31 18.43 Z"
         opacity="1.00"
         fill="#ffffff" />
      <path
         id="path9"
         d=" M 190.00 20.01 C 207.00 20.00 224.00 19.99 241.00 20.01 C 241.00 27.34 241.01 34.67 240.99 42.00 C 224.00 42.00 207.00 42.00 190.01 42.00 C 189.99 34.67 190.00 27.34 190.00 20.01 M 197.00 26.01 C 197.00 27.34 197.00 28.67 197.00 30.00 C 210.33 30.00 223.67 30.00 237.00 30.00 C 237.00 28.67 237.00 27.33 237.00 26.00 C 223.67 26.00 210.33 25.99 197.00 26.01 M 197.00 33.07 C 196.99 33.79 196.99 35.23 196.99 35.95 C 205.33 36.03 213.66 36.04 222.00 35.96 C 221.99 35.23 221.97 33.77 221.96 33.04 C 213.64 32.97 205.32 32.94 197.00 33.07 Z"
         opacity="1.00"
         fill="#ffffff" />
      <path
         id="path11"
         d=" M 0.00 154.99 C 103.33 154.99 206.67 155.02 310.00 154.98 L 310.00 382.00 L 0.00 382.00 L 0.00 154.99 M 15.00 179.01 C 15.00 179.75 15.00 181.25 15.00 181.99 C 31.67 182.01 48.34 182.01 65.00 181.99 C 65.00 181.25 65.00 179.75 65.00 179.01 C 48.33 178.99 31.66 178.99 15.00 179.01 M 91.00 179.00 C 91.00 179.75 91.00 181.25 91.00 181.99 C 107.67 182.01 124.33 182.00 141.00 181.99 C 141.00 181.25 141.00 179.75 141.00 179.01 C 124.33 178.99 107.67 179.00 91.00 179.00 M 166.00 179.01 C 166.00 179.75 166.00 181.25 166.00 181.99 C 182.67 182.01 199.33 182.01 216.00 181.99 C 216.00 181.25 216.00 179.75 216.00 179.01 C 199.33 179.00 182.67 178.99 166.00 179.01 M 242.00 179.01 C 242.00 179.76 242.00 181.25 242.00 181.99 C 258.67 182.00 275.33 182.01 292.00 181.99 C 292.00 181.25 292.01 179.75 292.01 179.01 C 275.34 178.99 258.67 178.99 242.00 179.01 M 15.04 188.04 C 15.03 188.77 15.02 190.21 15.01 190.94 C 26.65 191.06 38.30 191.02 49.94 190.97 C 49.96 190.24 49.99 188.79 50.01 188.07 C 38.35 187.92 26.69 187.99 15.04 188.04 M 91.00 188.06 C 91.02 188.80 91.05 190.26 91.07 190.99 C 102.70 191.01 114.32 191.02 125.95 190.96 C 125.95 190.23 125.96 188.78 125.96 188.05 C 114.31 187.95 102.65 187.96 91.00 188.06 M 166.02 188.04 C 166.03 188.77 166.04 190.22 166.05 190.95 C 177.70 191.05 189.35 191.03 201.00 190.96 C 200.99 190.24 200.99 188.78 200.98 188.06 C 189.33 187.99 177.68 187.97 166.02 188.04 M 242.06 188.02 C 242.04 188.75 242.00 190.21 241.97 190.93 C 253.63 191.09 265.28 190.98 276.93 190.99 C 276.96 190.26 277.02 188.81 277.05 188.08 C 265.39 187.90 253.72 188.03 242.06 188.02 M 14.98 193.04 C 15.00 193.77 15.05 195.24 15.07 195.97 C 29.70 196.01 44.32 196.05 58.95 195.96 C 58.97 195.24 59.00 193.80 59.02 193.09 C 44.34 192.92 29.66 192.97 14.98 193.04 M 91.02 193.05 C 91.02 193.78 91.03 195.23 91.03 195.96 C 105.67 196.03 120.32 196.04 134.96 195.93 C 134.98 195.22 135.01 193.78 135.02 193.06 C 120.35 192.93 105.69 192.99 91.02 193.05 M 166.07 193.03 C 166.05 193.75 166.00 195.20 165.97 195.93 C 180.63 196.08 195.30 196.01 209.96 195.97 C 209.97 195.23 209.99 193.76 210.00 193.03 C 195.35 192.99 180.71 192.96 166.07 193.03 M 242.01 193.04 C 242.03 193.77 242.07 195.23 242.09 195.96 C 256.70 196.02 271.32 196.06 285.94 195.94 C 285.96 195.22 286.00 193.76 286.02 193.03 C 271.35 192.99 256.68 192.96 242.01 193.04 M 15.01 198.05 C 15.02 198.78 15.04 200.23 15.05 200.95 C 25.37 201.01 35.68 201.05 45.99 200.96 C 46.00 200.24 46.00 198.79 46.00 198.07 C 35.67 197.98 25.34 197.96 15.01 198.05 M 91.04 198.06 C 91.04 198.79 91.03 200.24 91.03 200.96 C 101.35 200.99 111.67 201.06 121.99 200.95 C 121.99 200.23 121.99 198.79 121.99 198.07 C 111.67 197.92 101.35 197.97 91.04 198.06 M 166.05 198.02 C 166.04 198.76 166.02 200.23 166.01 200.96 C 176.33 201.04 186.65 201.05 196.96 200.94 C 196.97 200.21 196.98 198.75 196.99 198.02 C 186.67 197.99 176.36 197.96 166.05 198.02 M 241.99 198.06 C 242.00 198.78 242.00 200.22 242.01 200.94 C 252.31 201.00 262.62 201.08 272.93 200.93 C 272.95 200.20 272.98 198.76 272.99 198.04 C 262.66 197.99 252.33 197.93 241.99 198.06 M 14.99 203.03 C 15.00 203.76 15.03 205.22 15.04 205.95 C 22.36 206.04 29.67 206.04 36.99 205.94 C 36.98 205.21 36.97 203.76 36.96 203.03 C 29.64 202.96 22.31 202.98 14.99 203.03 M 91.05 203.06 C 91.04 203.79 91.02 205.24 91.00 205.97 C 98.34 206.02 105.68 206.05 113.01 205.94 C 112.99 205.22 112.96 203.76 112.94 203.03 C 105.64 202.97 98.34 202.95 91.05 203.06 M 166.02 203.07 C 166.02 203.79 166.03 205.23 166.04 205.95 C 173.36 206.03 180.68 206.06 188.00 205.95 C 187.99 205.23 187.97 203.79 187.96 203.07 C 180.65 202.91 173.33 202.96 166.02 203.07 M 242.04 203.05 C 242.03 203.77 242.00 205.22 241.99 205.94 C 249.31 206.03 256.63 206.07 263.96 205.96 C 263.97 205.23 263.99 203.76 264.00 203.03 C 256.68 202.98 249.36 202.92 242.04 203.05 M 15.05 233.05 C 14.96 246.35 14.96 259.66 15.04 272.96 C 55.02 273.03 94.99 273.03 134.96 272.96 C 135.01 259.66 135.03 246.36 134.97 233.06 C 95.00 232.96 55.03 232.96 15.05 233.05 M 166.07 233.02 C 165.94 246.34 165.97 259.66 166.06 272.98 C 206.02 272.99 245.98 273.07 285.94 272.95 C 286.05 259.64 286.03 246.33 285.95 233.02 C 245.99 232.98 206.03 232.99 166.07 233.02 M 15.00 281.01 C 15.00 281.75 15.00 283.24 15.00 283.99 C 46.33 284.01 77.67 284.00 109.00 283.99 C 109.00 283.25 109.00 281.75 109.00 281.01 C 77.67 280.99 46.33 281.00 15.00 281.01 M 166.00 281.01 C 166.00 281.75 166.00 283.25 166.00 283.99 C 197.33 284.00 228.67 284.01 260.00 283.99 C 260.00 283.24 260.00 281.75 260.00 281.01 C 228.66 281.00 197.33 280.99 166.00 281.01 M 15.00 286.01 C 15.00 286.75 15.00 288.25 15.00 288.99 C 26.67 289.01 38.33 289.00 50.00 288.99 C 50.00 288.25 50.01 286.76 50.01 286.01 C 38.34 285.99 26.67 286.00 15.00 286.01 M 166.04 288.05 C 166.02 288.78 166.00 290.23 165.99 290.96 C 195.32 291.02 224.67 291.05 254.01 290.94 C 254.00 290.21 253.98 288.76 253.97 288.04 C 224.66 288.00 195.35 287.94 166.04 288.05 M 15.00 291.05 C 15.01 291.77 15.04 293.23 15.06 293.95 C 44.37 294.02 73.69 294.03 103.00 293.97 C 102.99 293.23 102.96 291.75 102.94 291.01 C 73.63 290.98 44.31 290.98 15.00 291.05 M 166.01 293.02 C 166.03 293.76 166.05 295.23 166.07 295.96 C 180.70 296.02 195.34 296.05 209.98 295.94 C 209.99 295.22 210.00 293.77 210.01 293.05 C 195.34 292.95 180.68 292.99 166.01 293.02 M 15.04 296.03 C 15.05 296.76 15.05 298.22 15.06 298.95 C 29.70 299.05 44.35 298.99 59.00 298.98 C 58.99 298.25 58.98 296.78 58.97 296.05 C 44.33 295.95 29.68 295.98 15.04 296.03 M 143.22 304.39 C 140.39 305.84 143.10 310.45 145.73 308.63 C 148.70 307.22 145.91 302.52 143.22 304.39 M 153.26 304.39 C 151.57 305.20 151.62 307.85 153.31 308.64 C 154.83 309.87 157.54 307.95 156.94 306.07 C 156.78 304.45 154.56 303.36 153.26 304.39 M 163.23 304.32 C 161.27 305.43 161.82 308.68 164.11 308.92 C 165.48 309.38 166.60 308.03 167.08 306.93 C 167.22 304.95 165.06 303.22 163.23 304.32 M 15.00 326.07 C 14.98 334.36 14.96 342.65 15.03 350.94 C 31.66 351.09 48.30 350.97 64.93 350.99 C 65.11 342.68 64.98 334.37 64.98 326.06 C 48.32 325.96 31.66 325.96 15.00 326.07 M 94.03 326.06 C 93.96 334.36 93.95 342.66 94.05 350.97 C 134.02 351.03 173.99 351.03 213.95 350.97 C 214.03 342.66 214.05 334.36 213.95 326.05 C 173.98 325.96 134.00 325.96 94.03 326.06 M 242.08 326.03 C 241.96 334.34 241.93 342.65 242.05 350.97 C 258.69 351.04 275.33 351.02 291.96 350.96 C 292.03 342.64 292.06 334.32 291.93 326.01 C 275.31 325.97 258.69 326.00 242.08 326.03 M 15.00 357.01 C 15.00 357.75 15.00 359.25 15.00 359.99 C 26.67 360.00 38.33 360.01 50.00 359.99 C 50.00 359.24 50.00 357.75 50.00 357.01 C 38.33 357.00 26.67 356.99 15.00 357.01 M 94.00 357.01 C 94.00 357.76 94.00 359.25 94.00 359.99 C 119.34 360.00 144.67 360.01 170.01 359.99 C 170.00 359.25 170.00 357.75 170.00 357.01 C 144.66 357.00 119.33 356.99 94.00 357.01 M 242.00 357.01 C 242.00 357.75 242.00 359.25 242.00 359.99 C 253.66 360.01 265.33 360.00 277.00 359.99 C 277.00 359.25 277.00 357.75 277.00 357.01 C 265.33 356.99 253.67 356.99 242.00 357.01 M 15.02 362.04 C 15.03 362.77 15.04 364.23 15.04 364.96 C 29.67 365.05 44.31 365.00 58.94 364.97 C 58.95 364.24 58.96 362.77 58.97 362.03 C 44.32 361.98 29.67 361.96 15.02 362.04 M 94.00 362.01 C 94.00 362.75 94.00 364.25 94.00 364.99 C 105.66 365.01 117.33 365.00 129.00 364.99 C 129.00 364.25 129.00 362.75 129.00 362.01 C 117.33 361.99 105.67 361.99 94.00 362.01 M 242.00 362.06 C 242.00 362.78 242.00 364.22 242.00 364.94 C 256.66 365.07 271.32 365.05 285.98 364.93 C 285.98 364.21 285.98 362.77 285.99 362.05 C 271.33 361.94 256.66 361.95 242.00 362.06 M 15.01 367.05 C 15.01 367.77 15.02 369.22 15.02 369.94 C 24.35 370.04 33.68 370.06 43.01 369.94 C 43.00 369.21 42.97 367.76 42.96 367.03 C 33.64 366.98 24.32 366.94 15.01 367.05 M 94.06 367.03 C 94.05 367.76 94.03 369.23 94.02 369.96 C 117.67 369.99 141.32 370.06 164.97 369.94 C 164.97 369.21 164.97 367.76 164.97 367.03 C 141.34 366.98 117.70 366.97 94.06 367.03 M 242.03 367.04 C 242.04 367.77 242.04 369.24 242.05 369.98 C 251.36 370.01 260.67 370.05 269.99 369.95 C 269.99 369.22 269.99 367.76 269.99 367.03 C 260.67 367.01 251.35 366.94 242.03 367.04 M 94.04 372.05 C 94.04 372.78 94.05 374.23 94.05 374.96 C 108.70 375.02 123.36 375.05 138.02 374.94 C 138.00 374.22 137.98 372.79 137.97 372.07 C 123.33 371.93 108.68 371.97 94.04 372.05 Z"
         opacity="1.00"
         fill="#ffffff" />
      <path
         id="path13"
         d=" M 154.14 305.26 C 155.72 304.72 156.48 307.35 154.85 307.73 C 153.27 308.27 152.51 305.63 154.14 305.26 Z"
         opacity="1.00"
         fill="#ffffff" />
      <path
         id="path15"
         d=" M 164.16 305.25 C 165.76 304.74 166.45 307.41 164.81 307.74 C 163.22 308.24 162.52 305.58 164.16 305.25 Z"
         opacity="1.00"
         fill="#ffffff" />
    </g>
    <path
       d="m 197,33.07 c 8.32,-0.13 16.64,-0.1 24.96,-0.03 0.01,0.73 0.03,2.19 0.04,2.92 -8.34,0.08 -16.67,0.07 -25.01,-0.01 0,-0.72 0,-2.16 0.01,-2.88 z"
       id="path23"
       inkscape:connector-curvature="0"
       style="opacity:1;fill:#e8e8e8" />
    <path
       d="m 252.01,33.04 c 8.32,-0.08 16.66,-0.06 24.99,0.02 -0.02,0.72 -0.04,2.16 -0.05,2.88 -8.29,0.1 -16.59,0.12 -24.88,0 -0.02,-0.73 -0.05,-2.18 -0.06,-2.9 z"
       id="path25"
       inkscape:connector-curvature="0"
       style="opacity:1;fill:#e8e8e8" />
    <path
       d="M 0,63.15 C 44.97,62.81 89.95,63.09 134.93,63 193.29,63 251.64,63.01 310,62.99 l 0,91.99 c -103.33,0.04 -206.67,0.01 -310,0.01 L 0,63.15 m 13.3,45.83 c 1.9,1.64 3.9,3.16 6.05,4.47 -0.68,-1.5 -1.39,-2.97 -2.1,-4.45 0.72,-1.46 1.43,-2.93 2.1,-4.41 -2.14,1.29 -4.15,2.78 -6.05,4.39 m 276.35,-4.45 c 0.67,1.5 1.37,2.98 2.07,4.47 -0.69,1.49 -1.36,2.99 -2.01,4.5 2.14,-1.33 4.11,-2.89 5.98,-4.58 -1.91,-1.6 -3.91,-3.09 -6.04,-4.39 m -146.41,34.79 c -1.35,0.85 -1.72,2.79 -0.49,3.91 1.27,1.51 3.94,0.64 4.18,-1.28 0.58,-1.95 -1.99,-3.74 -3.69,-2.63 m 10.06,0.01 c -1.2,0.64 -1.7,2.18 -0.95,3.37 0.87,2.05 4.29,1.49 4.56,-0.69 0.69,-1.9 -1.94,-3.83 -3.61,-2.68 m 9.9,0.03 c -2.79,1.56 -0.13,6.02 2.56,4.31 2.86,-1.53 0.17,-6.15 -2.56,-4.31 z"
       id="path27"
       inkscape:connector-curvature="0"
       style="opacity:1;fill:#e8e8e8" />
    <path
       d="m 144.18,140.25 c 1.59,-0.5 2.28,2.16 0.64,2.49 -1.59,0.5 -2.28,-2.16 -0.64,-2.49 z"
       id="path29"
       inkscape:connector-curvature="0"
       style="opacity:1;fill:#e8e8e8" />
    <path
       d="m 164.17,140.25 c 1.59,-0.5 2.29,2.15 0.65,2.49 -1.59,0.5 -2.29,-2.15 -0.65,-2.49 z"
       id="path31"
       inkscape:connector-curvature="0"
       style="opacity:1;fill:#e8e8e8" />
    <path
       d="m 15.04,188.04 c 11.65,-0.05 23.31,-0.12 34.97,0.03 -0.02,0.72 -0.05,2.17 -0.07,2.9 -11.64,0.05 -23.29,0.09 -34.93,-0.03 0.01,-0.73 0.02,-2.17 0.03,-2.9 z"
       id="path33"
       inkscape:connector-curvature="0"
       style="opacity:1;fill:#e8e8e8" />
    <path
       d="m 91,188.06 c 11.65,-0.1 23.31,-0.11 34.96,-0.01 0,0.73 -0.01,2.18 -0.01,2.91 -11.63,0.06 -23.25,0.05 -34.88,0.03 -0.02,-0.73 -0.05,-2.19 -0.07,-2.93 z"
       id="path35"
       inkscape:connector-curvature="0"
       style="opacity:1;fill:#e8e8e8" />
    <path
       d="m 166.02,188.04 c 11.66,-0.07 23.31,-0.05 34.96,0.02 0.01,0.72 0.01,2.18 0.02,2.9 -11.65,0.07 -23.3,0.09 -34.95,-0.01 -0.01,-0.73 -0.02,-2.18 -0.03,-2.91 z"
       id="path37"
       inkscape:connector-curvature="0"
       style="opacity:1;fill:#e8e8e8" />
    <path
       d="m 242.06,188.02 c 11.66,0.01 23.33,-0.12 34.99,0.06 -0.03,0.73 -0.09,2.18 -0.12,2.91 -11.65,-0.01 -23.3,0.1 -34.96,-0.06 0.03,-0.72 0.07,-2.18 0.09,-2.91 z"
       id="path39"
       inkscape:connector-curvature="0"
       style="opacity:1;fill:#e8e8e8" />
    <path
       d="m 14.98,193.04 c 14.68,-0.07 29.36,-0.12 44.04,0.05 -0.02,0.71 -0.05,2.15 -0.07,2.87 -14.63,0.09 -29.25,0.05 -43.88,0.01 -0.02,-0.73 -0.07,-2.2 -0.09,-2.93 z"
       id="path41"
       inkscape:connector-curvature="0"
       style="opacity:1;fill:#e8e8e8" />
    <path
       d="m 91.02,193.05 c 14.67,-0.06 29.33,-0.12 44,0.01 -0.01,0.72 -0.04,2.16 -0.06,2.87 -14.64,0.11 -29.29,0.1 -43.93,0.03 0,-0.73 -0.01,-2.18 -0.01,-2.91 z"
       id="path43"
       inkscape:connector-curvature="0"
       style="opacity:1;fill:#e8e8e8" />
    <path
       d="m 166.07,193.03 c 14.64,-0.07 29.28,-0.04 43.93,0 -0.01,0.73 -0.03,2.2 -0.04,2.94 -14.66,0.04 -29.33,0.11 -43.99,-0.04 0.03,-0.73 0.08,-2.18 0.1,-2.9 z"
       id="path45"
       inkscape:connector-curvature="0"
       style="opacity:1;fill:#e8e8e8" />
    <path
       d="m 242.01,193.04 c 14.67,-0.08 29.34,-0.05 44.01,-0.01 -0.02,0.73 -0.06,2.19 -0.08,2.91 -14.62,0.12 -29.24,0.08 -43.85,0.02 -0.02,-0.73 -0.06,-2.19 -0.08,-2.92 z"
       id="path47"
       inkscape:connector-curvature="0"
       style="opacity:1;fill:#e8e8e8" />
    <path
       d="m 15.01,198.05 c 10.33,-0.09 20.66,-0.07 30.99,0.02 0,0.72 0,2.17 -0.01,2.89 -10.31,0.09 -20.62,0.05 -30.94,-0.01 -0.01,-0.72 -0.03,-2.17 -0.04,-2.9 z"
       id="path49"
       inkscape:connector-curvature="0"
       style="opacity:1;fill:#e8e8e8" />
    <path
       d="m 91.04,198.06 c 10.31,-0.09 20.63,-0.14 30.95,0.01 0,0.72 0,2.16 0,2.88 -10.32,0.11 -20.64,0.04 -30.96,0.01 0,-0.72 0.01,-2.17 0.01,-2.9 z"
       id="path51"
       inkscape:connector-curvature="0"
       style="opacity:1;fill:#e8e8e8" />
    <path
       d="m 166.05,198.02 c 10.31,-0.06 20.62,-0.03 30.94,0 -0.01,0.73 -0.02,2.19 -0.03,2.92 -10.31,0.11 -20.63,0.1 -30.95,0.02 0.01,-0.73 0.03,-2.2 0.04,-2.94 z"
       id="path53"
       inkscape:connector-curvature="0"
       style="opacity:1;fill:#e8e8e8" />
    <path
       d="m 241.99,198.06 c 10.34,-0.13 20.67,-0.07 31,-0.02 -0.01,0.72 -0.04,2.16 -0.06,2.89 -10.31,0.15 -20.62,0.07 -30.92,0.01 -0.01,-0.72 -0.01,-2.16 -0.02,-2.88 z"
       id="path55"
       inkscape:connector-curvature="0"
       style="opacity:1;fill:#e8e8e8" />
    <path
       d="m 14.99,203.03 c 7.32,-0.05 14.65,-0.07 21.97,0 0.01,0.73 0.02,2.18 0.03,2.91 -7.32,0.1 -14.63,0.1 -21.95,0.01 -0.01,-0.73 -0.04,-2.19 -0.05,-2.92 z"
       id="path57"
       inkscape:connector-curvature="0"
       style="opacity:1;fill:#e8e8e8" />
    <path
       d="m 91.05,203.06 c 7.29,-0.11 14.59,-0.09 21.89,-0.03 0.02,0.73 0.05,2.19 0.07,2.91 -7.33,0.11 -14.67,0.08 -22.01,0.03 0.02,-0.73 0.04,-2.18 0.05,-2.91 z"
       id="path59"
       inkscape:connector-curvature="0"
       style="opacity:1;fill:#e8e8e8" />
    <path
       d="m 166.02,203.07 c 7.31,-0.11 14.63,-0.16 21.94,0 0.01,0.72 0.03,2.16 0.04,2.88 -7.32,0.11 -14.64,0.08 -21.96,0 -0.01,-0.72 -0.02,-2.16 -0.02,-2.88 z"
       id="path61"
       inkscape:connector-curvature="0"
       style="opacity:1;fill:#e8e8e8" />
    <path
       d="m 242.04,203.05 c 7.32,-0.13 14.64,-0.07 21.96,-0.02 -0.01,0.73 -0.03,2.2 -0.04,2.93 -7.33,0.11 -14.65,0.07 -21.97,-0.02 0.01,-0.72 0.04,-2.17 0.05,-2.89 z"
       id="path63"
       inkscape:connector-curvature="0"
       style="opacity:1;fill:#e8e8e8" />
    <path
       d="m 15.05,233.05 c 39.98,-0.09 79.95,-0.09 119.92,0.01 0.06,13.3 0.04,26.6 -0.01,39.9 -39.97,0.07 -79.94,0.07 -119.92,0 -0.08,-13.3 -0.08,-26.61 0.01,-39.91 z"
       id="path65"
       inkscape:connector-curvature="0"
       style="opacity:1;fill:#e8e8e8" />
    <path
       d="m 166.07,233.02 c 39.96,-0.03 79.92,-0.04 119.88,0 0.08,13.31 0.1,26.62 -0.01,39.93 -39.96,0.12 -79.92,0.04 -119.88,0.03 -0.09,-13.32 -0.12,-26.64 0.01,-39.96 z"
       id="path67"
       inkscape:connector-curvature="0"
       style="opacity:1;fill:#e8e8e8" />
    <path
       d="m 166.04,288.05 c 29.31,-0.11 58.62,-0.05 87.93,-0.01 0.01,0.72 0.03,2.17 0.04,2.9 -29.34,0.11 -58.69,0.08 -88.02,0.02 0.01,-0.73 0.03,-2.18 0.05,-2.91 z"
       id="path69"
       inkscape:connector-curvature="0"
       style="opacity:1;fill:#e8e8e8" />
    <path
       d="m 15,291.05 c 29.31,-0.07 58.63,-0.07 87.94,-0.04 0.02,0.74 0.05,2.22 0.06,2.96 -29.31,0.06 -58.63,0.05 -87.94,-0.02 -0.02,-0.72 -0.05,-2.18 -0.06,-2.9 z"
       id="path71"
       inkscape:connector-curvature="0"
       style="opacity:1;fill:#e8e8e8" />
    <path
       d="m 166.01,293.02 c 14.67,-0.03 29.33,-0.07 44,0.03 -0.01,0.72 -0.02,2.17 -0.03,2.89 -14.64,0.11 -29.28,0.08 -43.91,0.02 -0.02,-0.73 -0.04,-2.2 -0.06,-2.94 z"
       id="path73"
       inkscape:connector-curvature="0"
       style="opacity:1;fill:#e8e8e8" />
    <path
       d="m 15.04,296.03 c 14.64,-0.05 29.29,-0.08 43.93,0.02 0.01,0.73 0.02,2.2 0.03,2.93 -14.65,0.01 -29.3,0.07 -43.94,-0.03 -0.01,-0.73 -0.01,-2.19 -0.02,-2.92 z"
       id="path75"
       inkscape:connector-curvature="0"
       style="opacity:1;fill:#e8e8e8" />
    <path
       d="m 15,326.07 c 16.66,-0.11 33.32,-0.11 49.98,-0.01 0,8.31 0.13,16.62 -0.05,24.93 -16.63,-0.02 -33.27,0.1 -49.9,-0.05 -0.07,-8.29 -0.05,-16.58 -0.03,-24.87 z"
       id="path77"
       inkscape:connector-curvature="0"
       style="opacity:1;fill:#e8e8e8" />
    <path
       d="m 94.03,326.06 c 39.97,-0.1 79.95,-0.1 119.92,-0.01 0.1,8.31 0.08,16.61 0,24.92 -39.96,0.06 -79.93,0.06 -119.9,0 -0.1,-8.31 -0.09,-16.61 -0.02,-24.91 z"
       id="path79"
       inkscape:connector-curvature="0"
       style="opacity:1;fill:#e8e8e8" />
    <path
       d="m 242.08,326.03 c 16.61,-0.03 33.23,-0.06 49.85,-0.02 0.13,8.31 0.1,16.63 0.03,24.95 -16.63,0.06 -33.27,0.08 -49.91,0.01 -0.12,-8.32 -0.09,-16.63 0.03,-24.94 z"
       id="path81"
       inkscape:connector-curvature="0"
       style="opacity:1;fill:#e8e8e8" />
    <path
       d="m 15.02,362.04 c 14.65,-0.08 29.3,-0.06 43.95,-0.01 -0.01,0.74 -0.02,2.21 -0.03,2.94 -14.63,0.03 -29.27,0.08 -43.9,-0.01 0,-0.73 -0.01,-2.19 -0.02,-2.92 z"
       id="path83"
       inkscape:connector-curvature="0"
       style="opacity:1;fill:#e8e8e8" />
    <path
       d="m 242,362.06 c 14.66,-0.11 29.33,-0.12 43.99,-0.01 -0.01,0.72 -0.01,2.16 -0.01,2.88 -14.66,0.12 -29.32,0.14 -43.98,0.01 0,-0.72 0,-2.16 0,-2.88 z"
       id="path85"
       inkscape:connector-curvature="0"
       style="opacity:1;fill:#e8e8e8" />
    <path
       d="m 15.01,367.05 c 9.31,-0.11 18.63,-0.07 27.95,-0.02 0.01,0.73 0.04,2.18 0.05,2.91 -9.33,0.12 -18.66,0.1 -27.99,0 0,-0.72 -0.01,-2.17 -0.01,-2.89 z"
       id="path87"
       inkscape:connector-curvature="0"
       style="opacity:1;fill:#e8e8e8" />
    <path
       d="m 94.06,367.03 c 23.64,-0.06 47.28,-0.05 70.91,0 0,0.73 0,2.18 0,2.91 -23.65,0.12 -47.3,0.05 -70.95,0.02 0.01,-0.73 0.03,-2.2 0.04,-2.93 z"
       id="path89"
       inkscape:connector-curvature="0"
       style="opacity:1;fill:#e8e8e8" />
    <path
       d="m 242.03,367.04 c 9.32,-0.1 18.64,-0.03 27.96,-0.01 0,0.73 0,2.19 0,2.92 -9.32,0.1 -18.63,0.06 -27.94,0.03 -0.01,-0.74 -0.01,-2.21 -0.02,-2.94 z"
       id="path91"
       inkscape:connector-curvature="0"
       style="opacity:1;fill:#e8e8e8" />
    <path
       d="m 94.04,372.05 c 14.64,-0.08 29.29,-0.12 43.93,0.02 0.01,0.72 0.03,2.15 0.05,2.87 -14.66,0.11 -29.32,0.08 -43.97,0.02 0,-0.73 -0.01,-2.18 -0.01,-2.91 z"
       id="path93"
       inkscape:connector-curvature="0"
       style="opacity:1;fill:#e8e8e8" />
    <g
       id="#ffb2b2ff">
      <path
         id="path96"
         d=" M 189.00 19.01 C 206.67 19.00 224.33 18.99 242.00 19.01 C 242.00 27.00 242.00 35.00 242.00 42.99 C 224.34 43.01 206.67 43.00 189.01 43.00 C 188.99 35.00 189.00 27.00 189.00 19.01 M 190.00 20.01 C 190.00 27.34 189.99 34.67 190.01 42.00 C 207.00 42.00 224.00 42.00 240.99 42.00 C 241.01 34.67 241.00 27.34 241.00 20.01 C 224.00 19.99 207.00 20.00 190.00 20.01 Z"
         opacity="1.00"
         fill="#ffb2b2" />
    </g>
    <g
       id="#b6b6b6ff">
      <path
         id="path99"
         d=" M 197.00 26.01 C 210.33 25.99 223.67 26.00 237.00 26.00 C 237.00 27.33 237.00 28.67 237.00 30.00 C 223.67 30.00 210.33 30.00 197.00 30.00 C 197.00 28.67 197.00 27.34 197.00 26.01 Z"
         opacity="1.00"
         fill="#b6b6b6" />
      <path
         id="path101"
         d=" M 252.00 26.00 C 265.33 26.00 278.67 25.99 292.00 26.01 C 292.00 27.34 292.00 28.67 292.00 30.00 C 278.66 30.00 265.33 30.00 252.00 29.99 C 252.00 28.66 252.00 27.33 252.00 26.00 Z"
         opacity="1.00"
         fill="#b6b6b6" />
      <path
         id="path103"
         d=" M 15.00 30.01 C 23.33 29.99 31.67 29.99 40.00 30.01 C 40.00 30.75 40.00 32.25 40.00 32.99 C 31.67 33.00 23.33 33.01 15.00 32.99 C 15.00 32.25 15.00 30.75 15.00 30.01 Z"
         opacity="1.00"
         fill="#b6b6b6" />
      <path
         id="path105"
         d=" M 55.00 30.01 C 63.33 29.99 71.67 29.99 80.00 30.01 C 80.00 30.75 80.00 32.25 80.00 32.99 C 71.67 33.01 63.33 33.00 55.00 33.00 C 55.00 32.25 55.00 30.75 55.00 30.01 Z"
         opacity="1.00"
         fill="#b6b6b6" />
      <path
         id="path107"
         d=" M 95.00 30.01 C 103.33 29.99 111.66 29.99 120.00 30.01 C 120.00 30.76 120.00 32.25 120.00 32.99 C 111.67 33.00 103.33 33.01 95.00 32.99 C 95.00 32.25 95.00 30.76 95.00 30.01 Z"
         opacity="1.00"
         fill="#b6b6b6" />
      <path
         id="path109"
         d=" M 15.00 179.01 C 31.66 178.99 48.33 178.99 65.00 179.01 C 65.00 179.75 65.00 181.25 65.00 181.99 C 48.34 182.01 31.67 182.01 15.00 181.99 C 15.00 181.25 15.00 179.75 15.00 179.01 Z"
         opacity="1.00"
         fill="#b6b6b6" />
      <path
         id="path111"
         d=" M 91.00 179.00 C 107.67 179.00 124.33 178.99 141.00 179.01 C 141.00 179.75 141.00 181.25 141.00 181.99 C 124.33 182.00 107.67 182.01 91.00 181.99 C 91.00 181.25 91.00 179.75 91.00 179.00 Z"
         opacity="1.00"
         fill="#b6b6b6" />
      <path
         id="path113"
         d=" M 166.00 179.01 C 182.67 178.99 199.33 179.00 216.00 179.01 C 216.00 179.75 216.00 181.25 216.00 181.99 C 199.33 182.01 182.67 182.01 166.00 181.99 C 166.00 181.25 166.00 179.75 166.00 179.01 Z"
         opacity="1.00"
         fill="#b6b6b6" />
      <path
         id="path115"
         d=" M 242.00 179.01 C 258.67 178.99 275.34 178.99 292.01 179.01 C 292.01 179.75 292.00 181.25 292.00 181.99 C 275.33 182.01 258.67 182.00 242.00 181.99 C 242.00 181.25 242.00 179.76 242.00 179.01 Z"
         opacity="1.00"
         fill="#b6b6b6" />
      <path
         id="path117"
         d=" M 15.00 281.01 C 46.33 281.00 77.67 280.99 109.00 281.01 C 109.00 281.75 109.00 283.25 109.00 283.99 C 77.67 284.00 46.33 284.01 15.00 283.99 C 15.00 283.24 15.00 281.75 15.00 281.01 Z"
         opacity="1.00"
         fill="#b6b6b6" />
      <path
         id="path119"
         d=" M 166.00 281.01 C 197.33 280.99 228.66 281.00 260.00 281.01 C 260.00 281.75 260.00 283.24 260.00 283.99 C 228.67 284.01 197.33 284.00 166.00 283.99 C 166.00 283.25 166.00 281.75 166.00 281.01 Z"
         opacity="1.00"
         fill="#b6b6b6" />
      <path
         id="path121"
         d=" M 15.00 286.01 C 26.67 286.00 38.34 285.99 50.01 286.01 C 50.01 286.76 50.00 288.25 50.00 288.99 C 38.33 289.00 26.67 289.01 15.00 288.99 C 15.00 288.25 15.00 286.75 15.00 286.01 Z"
         opacity="1.00"
         fill="#b6b6b6" />
      <path
         id="path123"
         d=" M 15.00 357.01 C 26.67 356.99 38.33 357.00 50.00 357.01 C 50.00 357.75 50.00 359.24 50.00 359.99 C 38.33 360.01 26.67 360.00 15.00 359.99 C 15.00 359.25 15.00 357.75 15.00 357.01 Z"
         opacity="1.00"
         fill="#b6b6b6" />
      <path
         id="path125"
         d=" M 94.00 357.01 C 119.33 356.99 144.66 357.00 170.00 357.01 C 170.00 357.75 170.00 359.25 170.01 359.99 C 144.67 360.01 119.34 360.00 94.00 359.99 C 94.00 359.25 94.00 357.76 94.00 357.01 Z"
         opacity="1.00"
         fill="#b6b6b6" />
      <path
         id="path127"
         d=" M 242.00 357.01 C 253.67 356.99 265.33 356.99 277.00 357.01 C 277.00 357.75 277.00 359.25 277.00 359.99 C 265.33 360.00 253.66 360.01 242.00 359.99 C 242.00 359.25 242.00 357.75 242.00 357.01 Z"
         opacity="1.00"
         fill="#b6b6b6" />
      <path
         id="path129"
         d=" M 94.00 362.01 C 105.67 361.99 117.33 361.99 129.00 362.01 C 129.00 362.75 129.00 364.25 129.00 364.99 C 117.33 365.00 105.66 365.01 94.00 364.99 C 94.00 364.25 94.00 362.75 94.00 362.01 Z"
         opacity="1.00"
         fill="#b6b6b6" />
    </g>
    <g
       id="#c1c1c1ff">
      <path
         id="path132"
         d=" M 13.30 108.98 C 15.20 107.37 17.21 105.88 19.35 104.59 C 18.68 106.07 17.97 107.54 17.25 109.00 C 17.96 110.48 18.67 111.95 19.35 113.45 C 17.20 112.14 15.20 110.62 13.30 108.98 Z"
         opacity="1.00"
         fill="#c1c1c1" />
      <path
         id="path134"
         d=" M 289.65 104.53 C 291.78 105.83 293.78 107.32 295.69 108.92 C 293.82 110.61 291.85 112.17 289.71 113.50 C 290.36 111.99 291.03 110.49 291.72 109.00 C 291.02 107.51 290.32 106.03 289.65 104.53 Z"
         opacity="1.00"
         fill="#c1c1c1" />
    </g>
    <g
       id="#757575ff">
      <path
         id="path137"
         d=" M 143.24 139.32 C 144.94 138.21 147.51 140.00 146.93 141.95 C 146.69 143.87 144.02 144.74 142.75 143.23 C 141.52 142.11 141.89 140.17 143.24 139.32 M 144.18 140.25 C 142.54 140.58 143.23 143.24 144.82 142.74 C 146.46 142.41 145.77 139.75 144.18 140.25 Z"
         opacity="1.00"
         fill="#757575" />
      <path
         id="path139"
         d=" M 153.30 139.33 C 154.97 138.18 157.60 140.11 156.91 142.01 C 156.64 144.19 153.22 144.75 152.35 142.70 C 151.60 141.51 152.10 139.97 153.30 139.33 Z"
         opacity="1.00"
         fill="#757575" />
      <path
         id="path141"
         d=" M 163.20 139.36 C 165.93 137.52 168.62 142.14 165.76 143.67 C 163.07 145.38 160.41 140.92 163.20 139.36 M 164.17 140.25 C 162.53 140.59 163.23 143.24 164.82 142.74 C 166.46 142.40 165.76 139.75 164.17 140.25 Z"
         opacity="1.00"
         fill="#757575" />
      <path
         id="path143"
         d=" M 143.22 304.39 C 145.91 302.52 148.70 307.22 145.73 308.63 C 143.10 310.45 140.39 305.84 143.22 304.39 Z"
         opacity="1.00"
         fill="#757575" />
      <path
         id="path145"
         d=" M 153.26 304.39 C 154.56 303.36 156.78 304.45 156.94 306.07 C 157.54 307.95 154.83 309.87 153.31 308.64 C 151.62 307.85 151.57 305.20 153.26 304.39 M 154.14 305.26 C 152.51 305.63 153.27 308.27 154.85 307.73 C 156.48 307.35 155.72 304.72 154.14 305.26 Z"
         opacity="1.00"
         fill="#757575" />
      <path
         id="path147"
         d=" M 163.23 304.32 C 165.06 303.22 167.22 304.95 167.08 306.93 C 166.60 308.03 165.48 309.38 164.11 308.92 C 161.82 308.68 161.27 305.43 163.23 304.32 M 164.16 305.25 C 162.52 305.58 163.22 308.24 164.81 307.74 C 166.45 307.41 165.76 304.74 164.16 305.25 Z"
         opacity="1.00"
         fill="#757575" />
    </g>
    <ellipse
       ry="13.140538"
       rx="13.126938"
       cy="31.534252"
       cx="155.59178"
       id="path4326"
       style="fill:#e8e8e8;fill-opacity:1;stroke:#e8e8e8;stroke-width:0.80000001;stroke-miterlimit:4;stroke-dasharray:none;stroke-opacity:1" />
    <ellipse
       ry="16.987032"
       rx="16.962631"
       cy="31.684311"
       cx="155.71709"
       id="path4328"
       style="fill:#000000;fill-opacity:0;stroke:#ffc9c9;stroke-width:1.42353594;stroke-miterlimit:4;stroke-dasharray:none;stroke-opacity:1" />
  </g>
</svg>
