<?xml version="1.0" encoding="UTF-8" ?>
<!DOCTYPE svg PUBLIC "-//W3C//DTD SVG 1.1//EN" "http://www.w3.org/Graphics/SVG/1.1/DTD/svg11.dtd">
<svg width="310px" height="382px" viewBox="0 0 310 382" version="1.1" xmlns="http://www.w3.org/2000/svg">
<g id="#ffffffff">
<path fill="#ffffff" opacity="1.00" d=" M 0.00 0.00 L 310.00 0.00 L 310.00 63.00 C 238.68 63.01 167.36 62.98 96.03 63.01 C 64.02 63.10 32.01 62.83 0.00 63.13 L 0.00 0.00 M 151.22 14.35 C 143.41 16.23 137.37 23.96 137.91 32.06 C 137.85 41.06 146.01 49.19 155.02 49.09 C 164.75 49.76 173.77 40.74 173.09 31.01 C 173.29 20.12 161.66 11.41 151.22 14.35 M 189.01 19.01 C 188.99 27.00 188.99 35.00 189.01 42.99 C 206.67 43.00 224.33 43.01 241.99 42.99 C 242.01 35.00 242.01 27.00 241.99 19.01 C 224.33 18.99 206.67 18.99 189.01 19.01 M 252.00 26.01 C 252.00 27.34 252.00 28.66 251.99 29.99 C 265.33 30.01 278.67 30.01 292.00 29.99 C 291.99 28.66 291.99 27.33 292.00 26.01 C 278.67 25.99 265.33 25.99 252.00 26.01 M 15.00 30.01 C 15.00 30.75 15.00 32.24 15.00 32.99 C 23.33 33.01 31.67 33.01 40.00 32.99 C 40.00 32.25 40.00 30.76 40.00 30.01 C 31.67 29.99 23.33 29.99 15.00 30.01 M 55.00 30.01 C 55.00 30.76 55.00 32.24 55.00 32.99 C 63.33 33.01 71.67 33.01 80.00 32.99 C 80.00 32.24 80.00 30.76 80.00 30.01 C 71.67 29.99 63.33 29.99 55.00 30.01 M 95.00 30.01 C 95.00 30.76 95.00 32.24 95.00 32.99 C 103.33 33.01 111.67 33.01 120.00 32.99 C 120.00 32.25 120.00 30.76 120.00 30.01 C 111.67 29.99 103.33 29.99 95.00 30.01 M 252.05 33.04 C 252.03 33.76 252.00 35.19 251.98 35.90 C 260.30 36.08 268.62 36.00 276.94 35.95 C 276.95 35.23 276.99 33.78 277.00 33.06 C 268.68 32.95 260.37 32.96 252.05 33.04 Z" />
<path fill="#ffffff" opacity="1.00" d=" M 152.25 15.45 C 159.89 13.70 168.38 18.54 170.85 25.98 C 174.24 34.09 169.19 44.20 160.93 46.89 C 152.51 50.34 142.12 44.76 139.82 36.07 C 136.82 27.29 143.24 17.12 152.25 15.45 M 152.28 18.41 C 146.73 19.94 142.12 25.05 142.01 30.93 C 141.64 36.94 145.90 42.71 151.64 44.40 C 159.59 47.12 168.96 40.42 168.99 32.03 C 169.64 23.50 160.48 16.11 152.28 18.41 Z" />
<path fill="#ffffff" opacity="1.00" d=" M 190.01 20.01 C 207.00 19.99 224.00 20.00 240.99 20.01 C 241.01 27.34 241.01 34.66 240.99 41.99 C 224.00 42.01 207.00 42.01 190.01 41.99 C 189.99 34.66 189.99 27.34 190.01 20.01 M 196.99 26.01 C 197.00 27.34 197.00 28.66 197.00 29.99 C 210.33 30.01 223.67 30.01 237.00 29.99 C 236.99 28.66 236.99 27.34 237.00 26.01 C 223.67 25.99 210.33 25.99 196.99 26.01 M 197.07 33.01 C 197.05 33.74 197.01 35.20 196.98 35.93 C 205.33 36.04 213.67 36.08 222.01 35.93 C 222.00 35.21 221.98 33.79 221.98 33.08 C 213.68 32.91 205.37 33.04 197.07 33.01 Z" />
<path fill="#ffffff" opacity="1.00" d=" M 0.00 155.00 C 103.33 154.97 206.67 155.06 310.00 154.95 L 310.00 382.00 L 0.00 382.00 L 0.00 155.00 M 15.00 179.01 C 15.00 179.76 15.00 181.25 15.00 181.99 C 31.67 182.01 48.34 182.01 65.00 181.99 C 65.00 181.24 65.00 179.75 65.00 179.01 C 48.33 179.00 31.66 178.99 15.00 179.01 M 91.00 179.01 C 91.00 179.76 91.00 181.24 91.00 181.99 C 107.67 182.01 124.33 182.01 141.00 181.99 C 141.00 181.24 141.00 179.76 141.00 179.01 C 124.34 178.99 107.67 178.99 91.00 179.01 M 166.00 179.01 C 166.00 179.76 166.00 181.24 166.00 181.99 C 182.66 182.01 199.33 182.01 216.00 181.99 C 216.00 181.24 216.00 179.76 216.00 179.01 C 199.33 178.99 182.67 178.99 166.00 179.01 M 242.00 179.01 C 242.00 179.76 242.00 181.24 242.00 181.99 C 258.67 182.01 275.33 182.01 292.00 181.99 C 292.00 181.24 292.00 179.76 292.00 179.01 C 275.33 178.99 258.66 178.99 242.00 179.01 M 14.99 188.05 C 15.00 188.77 15.01 190.20 15.01 190.92 C 26.67 191.05 38.34 191.02 50.00 190.94 C 49.99 190.22 49.97 188.79 49.96 188.08 C 38.30 187.92 26.65 187.97 14.99 188.05 M 90.98 188.09 C 91.00 188.81 91.06 190.25 91.09 190.97 C 102.73 191.03 114.37 191.07 126.00 190.92 C 125.99 190.20 125.95 188.76 125.94 188.04 C 114.28 188.01 102.63 187.91 90.98 188.09 M 166.07 188.03 C 166.05 188.75 166.01 190.21 165.99 190.94 C 177.65 191.05 189.31 191.01 200.97 190.96 C 200.98 190.24 200.99 188.80 201.00 188.08 C 189.36 187.93 177.71 187.99 166.07 188.03 M 242.05 188.04 C 242.03 188.76 242.00 190.19 241.98 190.90 C 253.64 191.12 265.29 190.98 276.95 190.96 C 276.96 190.24 276.97 188.80 276.98 188.07 C 265.33 187.93 253.69 187.98 242.05 188.04 M 15.02 193.02 C 15.03 193.75 15.06 195.21 15.07 195.94 C 29.70 196.07 44.34 196.02 58.98 195.95 C 58.98 195.24 58.99 193.81 59.00 193.09 C 44.34 192.88 29.68 193.04 15.02 193.02 M 91.07 193.04 C 91.06 193.77 91.03 195.21 91.01 195.93 C 105.66 196.09 120.31 196.03 134.96 195.93 C 134.97 195.21 134.99 193.78 135.00 193.06 C 120.36 192.95 105.71 192.97 91.07 193.04 M 165.97 193.07 C 166.00 193.79 166.06 195.23 166.09 195.94 C 180.72 196.02 195.34 196.06 209.97 195.94 C 209.96 195.21 209.93 193.75 209.92 193.02 C 195.27 193.00 180.62 192.93 165.97 193.07 M 241.95 193.07 C 241.98 193.78 242.04 195.20 242.07 195.91 C 256.69 196.07 271.31 196.04 285.93 195.93 C 285.95 195.22 285.99 193.78 286.01 193.06 C 271.33 192.99 256.64 192.93 241.95 193.07 M 15.07 198.06 C 15.05 198.77 15.00 200.21 14.98 200.92 C 25.29 201.07 35.61 201.04 45.93 200.94 C 45.94 200.22 45.98 198.79 46.00 198.07 C 35.69 197.96 25.38 197.93 15.07 198.06 M 91.07 198.06 C 91.05 198.79 91.01 200.25 90.99 200.97 C 101.32 200.98 111.66 201.10 121.99 200.91 C 121.99 200.20 122.00 198.77 122.00 198.06 C 111.69 197.97 101.38 197.91 91.07 198.06 M 166.07 198.05 C 166.05 198.77 166.01 200.22 165.99 200.94 C 176.31 201.05 186.64 201.06 196.96 200.94 C 196.96 200.21 196.96 198.76 196.97 198.03 C 186.67 197.98 176.37 197.95 166.07 198.05 M 241.99 198.07 C 242.00 198.78 242.02 200.22 242.03 200.94 C 252.33 201.02 262.64 201.07 272.95 200.92 C 272.94 200.20 272.93 198.75 272.92 198.02 C 262.61 198.02 252.30 197.88 241.99 198.07 M 15.03 203.07 C 15.03 203.79 15.01 205.23 15.00 205.95 C 22.32 206.05 29.63 206.05 36.95 205.96 C 36.95 205.23 36.96 203.78 36.97 203.05 C 29.66 202.95 22.34 202.94 15.03 203.07 M 91.01 203.08 C 91.02 203.80 91.03 205.23 91.03 205.95 C 98.36 206.04 105.69 206.06 113.01 205.95 C 112.99 205.23 112.97 203.78 112.95 203.06 C 105.64 202.94 98.32 202.93 91.01 203.08 M 166.05 203.08 C 166.05 203.80 166.03 205.22 166.02 205.93 C 173.34 206.04 180.65 206.06 187.97 205.95 C 187.97 205.23 187.99 203.79 188.00 203.07 C 180.68 202.97 173.37 202.93 166.05 203.08 M 242.01 203.05 C 242.02 203.77 242.04 205.21 242.05 205.93 C 249.36 206.09 256.68 206.03 263.99 205.93 C 263.97 205.21 263.94 203.77 263.92 203.05 C 256.62 202.93 249.32 202.94 242.01 203.05 M 15.08 233.04 C 14.91 246.34 15.00 259.65 15.02 272.95 C 55.00 273.04 94.98 273.05 134.96 272.94 C 135.03 259.65 135.07 246.35 134.93 233.05 C 94.98 232.96 55.03 232.97 15.08 233.04 M 166.06 233.08 C 165.97 246.37 165.94 259.67 166.06 272.96 C 206.02 273.02 245.99 273.04 285.96 272.95 C 286.04 259.65 286.03 246.35 285.94 233.05 C 245.98 232.98 206.02 232.92 166.06 233.08 M 15.00 281.01 C 15.00 281.76 15.00 283.24 15.00 283.99 C 46.33 284.01 77.66 284.00 109.00 283.99 C 109.00 283.25 109.00 281.76 109.00 281.01 C 77.67 280.99 46.33 280.99 15.00 281.01 M 166.00 281.01 C 166.00 281.76 166.00 283.24 166.00 283.99 C 197.33 284.01 228.67 284.01 260.00 283.99 C 260.00 283.24 260.00 281.76 260.00 281.02 C 228.67 280.99 197.33 280.99 166.00 281.01 M 15.00 286.01 C 15.00 286.76 15.00 288.25 15.00 288.99 C 26.67 289.01 38.34 289.01 50.00 288.99 C 50.00 288.24 50.00 286.76 50.00 286.02 C 38.33 285.99 26.67 285.99 15.00 286.01 M 166.05 288.06 C 166.04 288.78 166.00 290.21 165.98 290.92 C 195.31 291.04 224.66 291.07 254.00 290.93 C 254.00 290.21 254.00 288.78 254.00 288.06 C 224.68 287.94 195.37 287.96 166.05 288.06 M 15.00 291.06 C 15.02 291.78 15.05 293.23 15.06 293.95 C 44.36 294.06 73.66 293.99 102.95 293.99 C 102.96 293.25 102.97 291.77 102.98 291.03 C 73.65 291.00 44.32 290.93 15.00 291.06 M 166.07 293.04 C 166.05 293.76 166.01 295.22 165.99 295.95 C 180.64 296.03 195.29 296.08 209.93 295.93 C 209.95 295.21 209.99 293.79 210.01 293.07 C 195.37 292.94 180.72 292.97 166.07 293.04 M 15.00 296.06 C 15.01 296.79 15.02 298.24 15.03 298.97 C 29.68 298.99 44.33 299.08 58.98 298.94 C 58.97 298.21 58.96 296.75 58.96 296.02 C 44.31 295.97 29.65 295.96 15.00 296.06 M 143.31 304.35 C 141.59 305.13 141.61 307.75 143.23 308.64 C 144.64 309.58 146.65 308.59 146.96 306.98 C 147.52 305.07 144.92 303.15 143.31 304.35 M 153.27 304.31 C 150.42 305.78 153.00 310.39 155.70 308.65 C 158.65 307.29 156.00 302.58 153.27 304.31 M 163.25 304.33 C 160.40 305.81 163.05 310.42 165.71 308.64 C 168.65 307.26 165.98 302.58 163.25 304.33 M 15.07 326.03 C 14.96 334.33 14.94 342.63 15.08 350.93 C 31.70 351.07 48.33 351.05 64.95 350.93 C 65.02 342.64 65.06 334.35 64.94 326.06 C 48.31 325.98 31.69 325.97 15.07 326.03 M 94.06 326.06 C 93.95 334.35 93.93 342.65 94.08 350.94 C 134.04 351.06 174.00 351.01 213.97 350.97 C 214.02 342.65 214.06 334.34 213.95 326.03 C 173.98 325.98 134.02 325.94 94.06 326.06 M 242.06 326.05 C 241.96 334.34 241.93 342.64 242.06 350.93 C 258.70 351.07 275.33 351.02 291.97 350.95 C 292.00 342.65 292.07 334.34 291.91 326.04 C 275.30 325.98 258.68 325.96 242.06 326.05 M 15.00 357.01 C 15.00 357.76 15.00 359.24 15.00 359.99 C 26.67 360.01 38.34 360.01 50.00 359.99 C 50.00 359.24 50.00 357.76 50.00 357.01 C 38.33 356.99 26.66 356.99 15.00 357.01 M 94.00 357.01 C 94.00 357.76 94.00 359.24 94.00 359.99 C 119.33 360.01 144.66 360.01 170.00 359.99 C 170.00 359.25 170.00 357.76 170.00 357.01 C 144.67 356.99 119.33 356.99 94.00 357.01 M 242.00 357.01 C 242.00 357.76 242.00 359.24 242.00 359.99 C 253.67 360.01 265.33 360.01 277.00 359.99 C 277.00 359.24 277.00 357.76 277.00 357.01 C 265.33 356.99 253.66 356.99 242.00 357.01 M 15.03 362.06 C 15.04 362.78 15.06 364.23 15.07 364.95 C 29.70 365.02 44.33 365.05 58.96 364.93 C 58.96 364.22 58.97 362.79 58.98 362.07 C 44.33 361.93 29.68 361.97 15.03 362.06 M 94.00 362.01 C 94.00 362.76 94.00 364.24 94.00 364.99 C 105.66 365.01 117.33 365.01 129.00 364.99 C 129.00 364.24 129.00 362.76 129.00 362.01 C 117.34 361.99 105.67 361.99 94.00 362.01 M 242.06 362.05 C 242.04 362.77 242.01 364.22 241.99 364.94 C 256.66 365.05 271.34 365.04 286.01 364.92 C 285.99 364.21 285.95 362.77 285.93 362.06 C 271.31 361.92 256.68 362.02 242.06 362.05 M 15.07 367.05 C 15.05 367.78 15.02 369.25 15.00 369.98 C 24.34 369.97 33.67 370.07 43.00 369.94 C 42.99 369.22 42.98 367.78 42.97 367.06 C 33.67 366.96 24.37 366.96 15.07 367.05 M 94.03 367.05 C 94.02 367.78 94.01 369.23 94.01 369.96 C 117.66 370.02 141.31 370.06 164.97 369.93 C 164.98 369.21 165.00 367.77 165.01 367.04 C 141.35 366.98 117.69 366.93 94.03 367.05 M 242.02 367.09 C 242.02 367.81 242.02 369.24 242.02 369.96 C 251.34 370.02 260.65 370.05 269.97 369.97 C 269.98 369.24 270.01 367.80 270.02 367.07 C 260.69 366.96 251.35 366.91 242.02 367.09 M 94.06 372.04 C 94.04 372.76 94.00 374.20 93.97 374.93 C 108.63 375.06 123.29 375.07 137.94 374.92 C 137.96 374.21 138.00 372.77 138.01 372.05 C 123.36 371.91 108.71 372.02 94.06 372.04 Z" />
<path fill="#ffffff" opacity="1.00" d=" M 154.15 305.26 C 155.73 304.72 156.47 307.37 154.84 307.73 C 153.26 308.27 152.51 305.61 154.15 305.26 Z" />
<path fill="#ffffff" opacity="1.00" d=" M 164.12 305.28 C 165.70 304.70 166.48 307.35 164.86 307.74 C 163.28 308.29 162.49 305.66 164.12 305.28 Z" />
</g>
<g id="#ffc9c9ff">
<path fill="#ffc9c9" opacity="1.00" d=" M 151.22 14.35 C 161.66 11.41 173.29 20.12 173.09 31.01 C 173.77 40.74 164.75 49.76 155.02 49.09 C 146.01 49.19 137.85 41.06 137.91 32.06 C 137.37 23.96 143.41 16.23 151.22 14.35 M 152.25 15.45 C 143.24 17.12 136.82 27.29 139.82 36.07 C 142.12 44.76 152.51 50.34 160.93 46.89 C 169.19 44.20 174.24 34.09 170.85 25.98 C 168.38 18.54 159.89 13.70 152.25 15.45 Z" />
</g>
<g id="#e8e8e8ff">
<path fill="#e8e8e8" opacity="1.00" d=" M 152.28 18.41 C 160.48 16.11 169.64 23.50 168.99 32.03 C 168.96 40.42 159.59 47.12 151.64 44.40 C 145.90 42.71 141.64 36.94 142.01 30.93 C 142.12 25.05 146.73 19.94 152.28 18.41 Z" />
<path fill="#e8e8e8" opacity="1.00" d=" M 197.07 33.01 C 205.37 33.04 213.68 32.91 221.98 33.08 C 221.98 33.79 222.00 35.21 222.01 35.93 C 213.67 36.08 205.33 36.04 196.98 35.93 C 197.01 35.20 197.05 33.74 197.07 33.01 Z" />
<path fill="#e8e8e8" opacity="1.00" d=" M 252.05 33.04 C 260.37 32.96 268.68 32.95 277.00 33.06 C 276.99 33.78 276.95 35.23 276.94 35.95 C 268.62 36.00 260.30 36.08 251.98 35.90 C 252.00 35.19 252.03 33.76 252.05 33.04 Z" />
<path fill="#e8e8e8" opacity="1.00" d=" M 0.00 63.13 C 32.01 62.83 64.02 63.10 96.03 63.01 C 167.36 62.98 238.68 63.01 310.00 63.00 L 310.00 154.95 C 206.67 155.06 103.33 154.97 0.00 155.00 L 0.00 63.13 M 13.50 108.92 C 15.16 110.69 17.00 112.37 19.30 113.26 C 18.82 111.72 17.95 110.37 17.11 109.01 C 17.98 107.65 18.95 106.29 19.12 104.63 C 17.05 105.78 15.24 107.32 13.50 108.92 M 289.81 104.66 C 290.12 106.28 291.01 107.68 291.91 109.03 C 291.02 110.37 289.95 111.69 289.89 113.39 C 291.98 112.24 293.80 110.69 295.52 109.04 C 293.83 107.32 291.99 105.71 289.81 104.66 M 143.26 139.38 C 140.40 140.76 143.01 145.40 145.67 143.67 C 148.71 142.33 145.92 137.47 143.26 139.38 M 153.27 139.33 C 150.39 140.84 153.05 145.46 155.82 143.66 C 158.56 142.07 155.99 137.65 153.27 139.33 M 163.27 139.31 C 160.44 140.78 162.94 145.36 165.71 143.69 C 168.62 142.26 166.03 137.62 163.27 139.31 Z" />
<path fill="#e8e8e8" opacity="1.00" d=" M 144.16 140.26 C 145.75 139.74 146.46 142.40 144.83 142.74 C 143.24 143.26 142.53 140.60 144.16 140.26 Z" />
<path fill="#e8e8e8" opacity="1.00" d=" M 164.16 140.25 C 165.74 139.73 166.46 142.38 164.84 142.73 C 163.24 143.26 162.52 140.59 164.16 140.25 Z" />
<path fill="#e8e8e8" opacity="1.00" d=" M 14.99 188.05 C 26.65 187.97 38.30 187.92 49.96 188.08 C 49.97 188.79 49.99 190.22 50.00 190.94 C 38.34 191.02 26.67 191.05 15.01 190.92 C 15.01 190.20 15.00 188.77 14.99 188.05 Z" />
<path fill="#e8e8e8" opacity="1.00" d=" M 90.98 188.09 C 102.63 187.91 114.28 188.01 125.94 188.04 C 125.95 188.76 125.99 190.20 126.00 190.92 C 114.37 191.07 102.73 191.03 91.09 190.97 C 91.06 190.25 91.00 188.81 90.98 188.09 Z" />
<path fill="#e8e8e8" opacity="1.00" d=" M 166.07 188.03 C 177.71 187.99 189.36 187.93 201.00 188.08 C 200.99 188.80 200.98 190.24 200.97 190.96 C 189.31 191.01 177.65 191.05 165.99 190.94 C 166.01 190.21 166.05 188.75 166.07 188.03 Z" />
<path fill="#e8e8e8" opacity="1.00" d=" M 242.05 188.04 C 253.69 187.98 265.33 187.93 276.98 188.07 C 276.97 188.80 276.96 190.24 276.95 190.96 C 265.29 190.98 253.64 191.12 241.98 190.90 C 242.00 190.19 242.03 188.76 242.05 188.04 Z" />
<path fill="#e8e8e8" opacity="1.00" d=" M 15.02 193.02 C 29.68 193.04 44.34 192.88 59.00 193.09 C 58.99 193.81 58.98 195.24 58.98 195.95 C 44.34 196.02 29.70 196.07 15.07 195.94 C 15.06 195.21 15.03 193.75 15.02 193.02 Z" />
<path fill="#e8e8e8" opacity="1.00" d=" M 91.07 193.04 C 105.71 192.97 120.36 192.95 135.00 193.06 C 134.99 193.78 134.97 195.21 134.96 195.93 C 120.31 196.03 105.66 196.09 91.01 195.93 C 91.03 195.21 91.06 193.77 91.07 193.04 Z" />
<path fill="#e8e8e8" opacity="1.00" d=" M 165.97 193.07 C 180.62 192.93 195.27 193.00 209.92 193.02 C 209.93 193.75 209.96 195.21 209.97 195.94 C 195.34 196.06 180.72 196.02 166.09 195.94 C 166.06 195.23 166.00 193.79 165.97 193.07 Z" />
<path fill="#e8e8e8" opacity="1.00" d=" M 241.95 193.07 C 256.64 192.93 271.33 192.99 286.01 193.06 C 285.99 193.78 285.95 195.22 285.93 195.93 C 271.31 196.04 256.69 196.07 242.07 195.91 C 242.04 195.20 241.98 193.78 241.95 193.07 Z" />
<path fill="#e8e8e8" opacity="1.00" d=" M 15.07 198.06 C 25.38 197.93 35.69 197.96 46.00 198.07 C 45.98 198.79 45.94 200.22 45.93 200.94 C 35.61 201.04 25.29 201.07 14.98 200.92 C 15.00 200.21 15.05 198.77 15.07 198.06 Z" />
<path fill="#e8e8e8" opacity="1.00" d=" M 91.07 198.06 C 101.38 197.91 111.69 197.97 122.00 198.06 C 122.00 198.77 121.99 200.20 121.99 200.91 C 111.66 201.10 101.32 200.98 90.99 200.97 C 91.01 200.25 91.05 198.79 91.07 198.06 Z" />
<path fill="#e8e8e8" opacity="1.00" d=" M 166.07 198.05 C 176.37 197.95 186.67 197.98 196.97 198.03 C 196.96 198.76 196.96 200.21 196.96 200.94 C 186.64 201.06 176.31 201.05 165.99 200.94 C 166.01 200.22 166.05 198.77 166.07 198.05 Z" />
<path fill="#e8e8e8" opacity="1.00" d=" M 241.99 198.07 C 252.30 197.88 262.61 198.02 272.92 198.02 C 272.93 198.75 272.94 200.20 272.95 200.92 C 262.64 201.07 252.33 201.02 242.03 200.94 C 242.02 200.22 242.00 198.78 241.99 198.07 Z" />
<path fill="#e8e8e8" opacity="1.00" d=" M 15.03 203.07 C 22.34 202.94 29.66 202.95 36.97 203.05 C 36.96 203.78 36.95 205.23 36.95 205.96 C 29.63 206.05 22.32 206.05 15.00 205.95 C 15.01 205.23 15.03 203.79 15.03 203.07 Z" />
<path fill="#e8e8e8" opacity="1.00" d=" M 91.01 203.08 C 98.32 202.93 105.64 202.94 112.95 203.06 C 112.97 203.78 112.99 205.23 113.01 205.95 C 105.69 206.06 98.36 206.04 91.03 205.95 C 91.03 205.23 91.02 203.80 91.01 203.08 Z" />
<path fill="#e8e8e8" opacity="1.00" d=" M 166.05 203.08 C 173.37 202.93 180.68 202.97 188.00 203.07 C 187.99 203.79 187.97 205.23 187.97 205.95 C 180.65 206.06 173.34 206.04 166.02 205.93 C 166.03 205.22 166.05 203.80 166.05 203.08 Z" />
<path fill="#e8e8e8" opacity="1.00" d=" M 242.01 203.05 C 249.32 202.94 256.62 202.93 263.92 203.05 C 263.94 203.77 263.97 205.21 263.99 205.93 C 256.68 206.03 249.36 206.09 242.05 205.93 C 242.04 205.21 242.02 203.77 242.01 203.05 Z" />
<path fill="#e8e8e8" opacity="1.00" d=" M 15.08 233.04 C 55.03 232.97 94.98 232.96 134.93 233.05 C 135.07 246.35 135.03 259.65 134.96 272.94 C 94.98 273.05 55.00 273.04 15.02 272.95 C 15.00 259.65 14.91 246.34 15.08 233.04 Z" />
<path fill="#e8e8e8" opacity="1.00" d=" M 166.06 233.08 C 206.02 232.92 245.98 232.98 285.94 233.05 C 286.03 246.35 286.04 259.65 285.96 272.95 C 245.99 273.04 206.02 273.02 166.06 272.96 C 165.94 259.67 165.97 246.37 166.06 233.08 Z" />
<path fill="#e8e8e8" opacity="1.00" d=" M 166.05 288.06 C 195.37 287.96 224.68 287.94 254.00 288.06 C 254.00 288.78 254.00 290.21 254.00 290.93 C 224.66 291.07 195.31 291.04 165.98 290.92 C 166.00 290.21 166.04 288.78 166.05 288.06 Z" />
<path fill="#e8e8e8" opacity="1.00" d=" M 15.00 291.06 C 44.32 290.93 73.65 291.00 102.98 291.03 C 102.97 291.77 102.96 293.25 102.95 293.99 C 73.66 293.99 44.36 294.06 15.06 293.95 C 15.05 293.23 15.02 291.78 15.00 291.06 Z" />
<path fill="#e8e8e8" opacity="1.00" d=" M 166.07 293.04 C 180.72 292.97 195.37 292.94 210.01 293.07 C 209.99 293.79 209.95 295.21 209.93 295.93 C 195.29 296.08 180.64 296.03 165.99 295.95 C 166.01 295.22 166.05 293.76 166.07 293.04 Z" />
<path fill="#e8e8e8" opacity="1.00" d=" M 15.00 296.06 C 29.65 295.96 44.31 295.97 58.96 296.02 C 58.96 296.75 58.97 298.21 58.98 298.94 C 44.33 299.08 29.68 298.99 15.03 298.97 C 15.02 298.24 15.01 296.79 15.00 296.06 Z" />
<path fill="#e8e8e8" opacity="1.00" d=" M 15.07 326.03 C 31.69 325.97 48.31 325.98 64.94 326.06 C 65.06 334.35 65.02 342.64 64.95 350.93 C 48.33 351.05 31.70 351.07 15.08 350.93 C 14.94 342.63 14.96 334.33 15.07 326.03 Z" />
<path fill="#e8e8e8" opacity="1.00" d=" M 94.06 326.06 C 134.02 325.94 173.98 325.98 213.95 326.03 C 214.06 334.34 214.02 342.65 213.97 350.97 C 174.00 351.01 134.04 351.06 94.08 350.94 C 93.93 342.65 93.95 334.35 94.06 326.06 Z" />
<path fill="#e8e8e8" opacity="1.00" d=" M 242.06 326.05 C 258.68 325.96 275.30 325.98 291.91 326.04 C 292.07 334.34 292.00 342.65 291.97 350.95 C 275.33 351.02 258.70 351.07 242.06 350.93 C 241.93 342.64 241.96 334.34 242.06 326.05 Z" />
<path fill="#e8e8e8" opacity="1.00" d=" M 15.03 362.06 C 29.68 361.97 44.33 361.93 58.98 362.07 C 58.97 362.79 58.96 364.22 58.96 364.93 C 44.33 365.05 29.70 365.02 15.07 364.95 C 15.06 364.23 15.04 362.78 15.03 362.06 Z" />
<path fill="#e8e8e8" opacity="1.00" d=" M 242.06 362.05 C 256.68 362.02 271.31 361.92 285.93 362.06 C 285.95 362.77 285.99 364.21 286.01 364.92 C 271.34 365.04 256.66 365.05 241.99 364.94 C 242.01 364.22 242.04 362.77 242.06 362.05 Z" />
<path fill="#e8e8e8" opacity="1.00" d=" M 15.07 367.05 C 24.37 366.96 33.67 366.96 42.97 367.06 C 42.98 367.78 42.99 369.22 43.00 369.94 C 33.67 370.07 24.34 369.97 15.00 369.98 C 15.02 369.25 15.05 367.78 15.07 367.05 Z" />
<path fill="#e8e8e8" opacity="1.00" d=" M 94.03 367.05 C 117.69 366.93 141.35 366.98 165.01 367.04 C 165.00 367.77 164.98 369.21 164.97 369.93 C 141.31 370.06 117.66 370.02 94.01 369.96 C 94.01 369.23 94.02 367.78 94.03 367.05 Z" />
<path fill="#e8e8e8" opacity="1.00" d=" M 242.02 367.09 C 251.35 366.91 260.69 366.96 270.02 367.07 C 270.01 367.80 269.98 369.24 269.97 369.97 C 260.65 370.05 251.34 370.02 242.02 369.96 C 242.02 369.24 242.02 367.81 242.02 367.09 Z" />
<path fill="#e8e8e8" opacity="1.00" d=" M 94.06 372.04 C 108.71 372.02 123.36 371.91 138.01 372.05 C 138.00 372.77 137.96 374.21 137.94 374.92 C 123.29 375.07 108.63 375.06 93.97 374.93 C 94.00 374.20 94.04 372.76 94.06 372.04 Z" />
</g>
<g id="#ffb2b2ff">
<path fill="#ffb2b2" opacity="1.00" d=" M 189.01 19.01 C 206.67 18.99 224.33 18.99 241.99 19.01 C 242.01 27.00 242.01 35.00 241.99 42.99 C 224.33 43.01 206.67 43.00 189.01 42.99 C 188.99 35.00 188.99 27.00 189.01 19.01 M 190.01 20.01 C 189.99 27.34 189.99 34.66 190.01 41.99 C 207.00 42.01 224.00 42.01 240.99 41.99 C 241.01 34.66 241.01 27.34 240.99 20.01 C 224.00 20.00 207.00 19.99 190.01 20.01 Z" />
</g>
<g id="#b6b6b6ff">
<path fill="#b6b6b6" opacity="1.00" d=" M 196.99 26.01 C 210.33 25.99 223.67 25.99 237.00 26.01 C 236.99 27.34 236.99 28.66 237.00 29.99 C 223.67 30.01 210.33 30.01 197.00 29.99 C 197.00 28.66 197.00 27.34 196.99 26.01 Z" />
<path fill="#b6b6b6" opacity="1.00" d=" M 252.00 26.01 C 265.33 25.99 278.67 25.99 292.00 26.01 C 291.99 27.33 291.99 28.66 292.00 29.99 C 278.67 30.01 265.33 30.01 251.99 29.99 C 252.00 28.66 252.00 27.34 252.00 26.01 Z" />
<path fill="#b6b6b6" opacity="1.00" d=" M 15.00 30.01 C 23.33 29.99 31.67 29.99 40.00 30.01 C 40.00 30.76 40.00 32.25 40.00 32.99 C 31.67 33.01 23.33 33.01 15.00 32.99 C 15.00 32.24 15.00 30.75 15.00 30.01 Z" />
<path fill="#b6b6b6" opacity="1.00" d=" M 55.00 30.01 C 63.33 29.99 71.67 29.99 80.00 30.01 C 80.00 30.76 80.00 32.24 80.00 32.99 C 71.67 33.01 63.33 33.01 55.00 32.99 C 55.00 32.24 55.00 30.76 55.00 30.01 Z" />
<path fill="#b6b6b6" opacity="1.00" d=" M 95.00 30.01 C 103.33 29.99 111.67 29.99 120.00 30.01 C 120.00 30.76 120.00 32.25 120.00 32.99 C 111.67 33.01 103.33 33.01 95.00 32.99 C 95.00 32.24 95.00 30.76 95.00 30.01 Z" />
<path fill="#b6b6b6" opacity="1.00" d=" M 15.00 179.01 C 31.66 178.99 48.33 179.00 65.00 179.01 C 65.00 179.75 65.00 181.24 65.00 181.99 C 48.34 182.01 31.67 182.01 15.00 181.99 C 15.00 181.25 15.00 179.76 15.00 179.01 Z" />
<path fill="#b6b6b6" opacity="1.00" d=" M 91.00 179.01 C 107.67 178.99 124.34 178.99 141.00 179.01 C 141.00 179.76 141.00 181.24 141.00 181.99 C 124.33 182.01 107.67 182.01 91.00 181.99 C 91.00 181.24 91.00 179.76 91.00 179.01 Z" />
<path fill="#b6b6b6" opacity="1.00" d=" M 166.00 179.01 C 182.67 178.99 199.33 178.99 216.00 179.01 C 216.00 179.76 216.00 181.24 216.00 181.99 C 199.33 182.01 182.66 182.01 166.00 181.99 C 166.00 181.24 166.00 179.76 166.00 179.01 Z" />
<path fill="#b6b6b6" opacity="1.00" d=" M 242.00 179.01 C 258.66 178.99 275.33 178.99 292.00 179.01 C 292.00 179.76 292.00 181.24 292.00 181.99 C 275.33 182.01 258.67 182.01 242.00 181.99 C 242.00 181.24 242.00 179.76 242.00 179.01 Z" />
<path fill="#b6b6b6" opacity="1.00" d=" M 15.00 281.01 C 46.33 280.99 77.67 280.99 109.00 281.01 C 109.00 281.76 109.00 283.25 109.00 283.99 C 77.66 284.00 46.33 284.01 15.00 283.99 C 15.00 283.24 15.00 281.76 15.00 281.01 Z" />
<path fill="#b6b6b6" opacity="1.00" d=" M 166.00 281.01 C 197.33 280.99 228.67 280.99 260.00 281.02 C 260.00 281.76 260.00 283.24 260.00 283.99 C 228.67 284.01 197.33 284.01 166.00 283.99 C 166.00 283.24 166.00 281.76 166.00 281.01 Z" />
<path fill="#b6b6b6" opacity="1.00" d=" M 15.00 286.01 C 26.67 285.99 38.33 285.99 50.00 286.02 C 50.00 286.76 50.00 288.24 50.00 288.99 C 38.34 289.01 26.67 289.01 15.00 288.99 C 15.00 288.25 15.00 286.76 15.00 286.01 Z" />
<path fill="#b6b6b6" opacity="1.00" d=" M 15.00 357.01 C 26.66 356.99 38.33 356.99 50.00 357.01 C 50.00 357.76 50.00 359.24 50.00 359.99 C 38.34 360.01 26.67 360.01 15.00 359.99 C 15.00 359.24 15.00 357.76 15.00 357.01 Z" />
<path fill="#b6b6b6" opacity="1.00" d=" M 94.00 357.01 C 119.33 356.99 144.67 356.99 170.00 357.01 C 170.00 357.76 170.00 359.25 170.00 359.99 C 144.66 360.01 119.33 360.01 94.00 359.99 C 94.00 359.24 94.00 357.76 94.00 357.01 Z" />
<path fill="#b6b6b6" opacity="1.00" d=" M 242.00 357.01 C 253.66 356.99 265.33 356.99 277.00 357.01 C 277.00 357.76 277.00 359.24 277.00 359.99 C 265.33 360.01 253.67 360.01 242.00 359.99 C 242.00 359.24 242.00 357.76 242.00 357.01 Z" />
<path fill="#b6b6b6" opacity="1.00" d=" M 94.00 362.01 C 105.67 361.99 117.34 361.99 129.00 362.01 C 129.00 362.76 129.00 364.24 129.00 364.99 C 117.33 365.01 105.66 365.01 94.00 364.99 C 94.00 364.24 94.00 362.76 94.00 362.01 Z" />
</g>
<g id="#c1c1c1ff">
<path fill="#c1c1c1" opacity="1.00" d=" M 13.50 108.92 C 15.24 107.32 17.05 105.78 19.12 104.63 C 18.95 106.29 17.98 107.65 17.11 109.01 C 17.95 110.37 18.82 111.72 19.30 113.26 C 17.00 112.37 15.16 110.69 13.50 108.92 Z" />
<path fill="#c1c1c1" opacity="1.00" d=" M 289.81 104.66 C 291.99 105.71 293.83 107.32 295.52 109.04 C 293.80 110.69 291.98 112.24 289.89 113.39 C 289.95 111.69 291.02 110.37 291.91 109.03 C 291.01 107.68 290.12 106.28 289.81 104.66 Z" />
</g>
<g id="#757575ff">
<path fill="#757575" opacity="1.00" d=" M 143.26 139.38 C 145.92 137.47 148.71 142.33 145.67 143.67 C 143.01 145.40 140.40 140.76 143.26 139.38 M 144.16 140.26 C 142.53 140.60 143.24 143.26 144.83 142.74 C 146.46 142.40 145.75 139.74 144.16 140.26 Z" />
<path fill="#757575" opacity="1.00" d=" M 153.27 139.33 C 155.99 137.65 158.56 142.07 155.82 143.66 C 153.05 145.46 150.39 140.84 153.27 139.33 Z" />
<path fill="#757575" opacity="1.00" d=" M 163.27 139.31 C 166.03 137.62 168.62 142.26 165.71 143.69 C 162.94 145.36 160.44 140.78 163.27 139.31 M 164.16 140.25 C 162.52 140.59 163.24 143.26 164.84 142.73 C 166.46 142.38 165.74 139.73 164.16 140.25 Z" />
<path fill="#757575" opacity="1.00" d=" M 143.31 304.35 C 144.92 303.15 147.52 305.07 146.96 306.98 C 146.65 308.59 144.64 309.58 143.23 308.64 C 141.61 307.75 141.59 305.13 143.31 304.35 Z" />
<path fill="#757575" opacity="1.00" d=" M 153.27 304.31 C 156.00 302.58 158.65 307.29 155.70 308.65 C 153.00 310.39 150.42 305.78 153.27 304.31 M 154.15 305.26 C 152.51 305.61 153.26 308.27 154.84 307.73 C 156.47 307.37 155.73 304.72 154.15 305.26 Z" />
<path fill="#757575" opacity="1.00" d=" M 163.25 304.33 C 165.98 302.58 168.65 307.26 165.71 308.64 C 163.05 310.42 160.40 305.81 163.25 304.33 M 164.12 305.28 C 162.49 305.66 163.28 308.29 164.86 307.74 C 166.48 307.35 165.70 304.70 164.12 305.28 Z" />
</g>
</svg>
