<?xml version="1.0" encoding="UTF-8" ?>
<!DOCTYPE svg PUBLIC "-//W3C//DTD SVG 1.1//EN" "http://www.w3.org/Graphics/SVG/1.1/DTD/svg11.dtd">
<svg width="30px" height="65px" viewBox="0 0 30 65" version="1.1" xmlns="http://www.w3.org/2000/svg">
<g id="#631e1e7b">
<path fill="#E57777" opacity="1" d=" M 1.60 5.42 C 2.06 3.68 2.01 0.94 4.29 0.57 C 2.84 4.24 1.77 8.03 1.80 12.00 L 0.76 12.37 C 1.06 10.05 0.60 7.61 1.60 5.42 Z" />
</g>
<g id="#340f0f41">
<path fill="#E57777" opacity="1" d=" M 0.00 12.68 L 0.76 12.37 L 1.80 12.00 C 1.55 14.87 1.81 17.74 2.00 20.61 L 0.86 20.44 C 0.65 20.10 0.22 19.42 0.00 19.08 L 0.00 12.68 Z" />
</g>
<g id="#5f1c1c75">
<path fill="#E57777" opacity="1" d=" M 0.86 20.44 L 2.00 20.61 C 2.64 32.43 9.13 43.43 17.27 51.80 C 20.10 55.05 23.83 57.42 26.39 60.90 C 23.49 60.01 21.60 57.47 19.21 55.75 C 9.65 46.37 1.50 34.15 0.86 20.44 Z" />
</g>
<g id="#661e1e7e">
<path fill="#E57777" opacity="1" d=" M 26.00 52.00 L 26.98 52.00 C 27.70 56.04 28.46 60.06 29.01 64.06 C 26.01 63.50 23.16 62.27 20.08 61.99 C 19.14 61.19 16.53 61.70 16.95 59.91 C 20.61 60.71 24.12 62.01 27.92 62.32 C 27.21 60.96 26.89 59.54 26.97 58.04 C 27.24 55.92 25.54 54.11 26.00 52.00 Z" />
</g>
</svg>
